<svg width="80" height="80" viewBox="0 0 80 80" fill="none" xmlns="http://www.w3.org/2000/svg">
<path d="M48.981 8C51.9919 10.0609 54.5169 13.05 55.4341 16.6359C56.406 20.8422 55.3841 25.4047 52.9075 28.9141C52.0931 29.988 51.1607 30.967 50.1278 31.8328C47.0325 34.4891 43.3278 36.3641 40.4622 39.2937C39.2247 40.5906 38.0747 42.0313 37.4341 43.7234C36.4622 46.2 36.4778 49.0953 37.6778 51.4906C34.4513 49.1469 32.2216 45.4547 31.7403 41.4906C31.5934 40.4431 31.6013 39.3796 31.7638 38.3344C32.2028 35.5594 33.2903 32.8562 35.0825 30.6781C35.8261 29.7752 36.6584 28.9492 37.5669 28.2125C39.456 26.6922 41.6185 25.5734 43.6607 24.2891C45.9435 22.725 47.9138 20.6391 49.1653 18.1562C50.1414 16.2502 50.5739 14.1121 50.4153 11.9766C50.2591 10.5594 49.5935 9.27344 48.9872 8.00312M45.4919 43.8125C48.2294 43.15 51.1513 45.3984 51.4013 48.1609C51.4685 49.2859 51.2919 50.4672 50.6622 51.425C49.6825 52.9875 47.7919 53.9906 45.9388 53.7297C45.0481 53.6735 44.194 53.3549 43.4841 52.8141C41.881 51.5937 41.056 49.3812 41.5685 47.4156C42.0372 45.5828 43.6747 44.2109 45.4919 43.8125Z" fill="#BE9C39"/>
<path d="M46.9609 36.8735C47.7422 36.561 48.6094 36.3829 49.4469 36.561C51.05 36.8735 52.3766 37.9375 53.9531 38.336C54.6249 38.5093 55.3284 38.5189 56.0047 38.3641C56.9016 38.1063 57.4938 37.3375 58.0844 36.6688C57.675 38.0547 57.1875 39.5891 55.925 40.436C54.9233 41.0252 53.7425 41.2327 52.6 41.0204C50.9672 40.7172 49.55 39.7922 47.9859 39.2844C46.7188 38.9313 45.4438 39.475 44.3047 39.9922C44.7891 38.6938 45.6516 37.4407 46.9609 36.8672M52.9563 41.725C54.1979 41.2773 55.5595 41.2929 56.7906 41.7688C58.0568 42.2864 59.0718 43.2766 59.6203 44.5297C60.2062 45.8672 60.3547 47.3516 60.3594 48.7985C60.4031 50.361 60.8906 51.9907 62.0203 53.1157C62.7031 53.6672 63.5547 53.9391 64.3297 54.3329C62.4391 55.0532 60.0875 54.875 58.5594 53.4594C57.8891 52.7704 57.2703 51.9938 56.9547 51.075C56.2297 49.0329 56.5563 46.7875 55.8609 44.7391C55.6234 44.0735 55.3016 43.411 54.7672 42.9329C54.2328 42.4547 53.5719 42.1125 52.9594 41.725M22.0156 43.4688C25.7656 42.6375 29.8594 44.1547 32.3281 47.0625C33.8109 48.8297 34.8891 50.8829 36.2172 52.761C37.1828 54.1313 38.3172 55.4172 39.7562 56.3125C40.3406 56.6454 40.9203 57.0125 41.5687 57.2079C43.0156 57.6485 44.5469 57.4219 46.0141 57.2219C44.6922 58.6438 43.0453 59.7922 41.1891 60.3907C39.6808 60.8703 38.077 60.9675 36.5219 60.6735C34.4781 60.275 32.6391 59.136 31.1766 57.6813C30.1549 56.6561 29.2842 55.4908 28.5906 54.2204C27.6531 52.5672 26.7937 50.8032 25.3641 49.5016C23.7687 47.9516 21.6344 46.875 19.3875 46.8079C18.1996 46.7736 17.0259 47.0736 16 47.6735C17.5812 45.7766 19.5937 44.0954 22.0203 43.4657M56.0203 50.3657C57.1106 52.1155 57.5929 54.1763 57.3922 56.2282C57.1939 57.851 56.4992 59.3729 55.4031 60.586C53.6469 62.5235 51.1078 63.5391 48.5875 64.0235C46.8172 64.411 45.0859 65.136 43.7109 66.3344C42.912 67.0365 42.2667 67.8962 41.8156 68.8594C41.3687 69.9079 41.4281 71.0719 41.2813 72.1829C40.2797 70.5219 39.4172 68.6579 39.4938 66.675C39.6625 63.311 42.0031 60.2469 45.0922 58.9829C47.1234 58.1688 49.2953 57.7094 51.2969 56.7954C52.7031 56.1625 54.0203 55.2438 54.9562 53.9985C55.7016 52.9407 55.8641 51.6172 56.0203 50.3672" fill="#031C45"/>
</svg>
