<svg width="80" height="80" viewBox="0 0 80 80" fill="none" xmlns="http://www.w3.org/2000/svg">
<path d="M17.2021 12H62.8381C63.6193 12.3672 64.4178 12.725 65.174 13.15C66.4131 13.8578 67.2584 15.1047 67.7521 16.4203C68.3131 17.9141 68.1428 19.5453 68.1662 21.0984C68.1662 34.6016 68.1662 48.1047 68.1662 61.6078C68.1662 64.0156 67.0037 66.6078 64.7146 67.6375C63.1146 68.4766 61.2646 68.3 59.524 68.3125C47.6834 68.3 35.8448 68.3 24.0084 68.3125C21.6224 68.3422 19.2099 68.5937 16.8428 68.1562C14.1115 67.4312 11.9209 64.7906 12.0146 61.9062C11.9881 47.5141 12.024 33.1203 12.0006 18.7281C11.9849 17.4594 12.2881 16.1594 13.0443 15.125C14.049 13.65 15.6334 12.7484 17.2021 12ZM16.8381 14.5C14.7537 15.5641 13.4912 17.8906 13.5474 20.2063C13.5709 27.65 13.5474 35.0969 13.5474 42.5406C14.3412 41.4609 14.9068 40.2453 15.6053 39.1031C17.1881 36.5672 19.0428 34.1516 21.4021 32.2938C24.499 29.7672 28.6678 28.5078 32.6365 29.2234C35.824 30.0219 38.7053 31.6547 41.6115 33.1297C45.6006 35.2609 49.5256 37.5688 53.7787 39.1438C56.1818 39.925 58.874 40.6391 61.3271 39.6547C63.5443 38.8297 64.9115 36.6531 65.5537 34.475C66.0568 32.6 66.5193 30.6875 66.4912 28.7328C66.5006 25.6922 66.5006 22.6505 66.4912 19.6078C66.5146 16.5609 63.7584 13.7844 60.7099 13.8141C47.6891 13.8339 34.6683 13.8339 21.6474 13.8141C20.0303 13.8344 18.2803 13.6094 16.8256 14.4844M64.0381 42.3328C62.2834 45.0953 60.0287 47.5922 57.2381 49.3328C54.3678 51.0641 50.8678 51.9078 47.5506 51.2766C43.9646 50.4375 40.7678 48.5625 37.5224 46.9141C32.9912 44.5344 28.4928 41.8156 23.4178 40.7687C21.0084 40.2141 18.1756 40.7234 16.5053 42.6641C14.5599 44.8187 14.1084 47.8203 13.624 50.5828C13.4584 53.7687 13.6146 56.9609 13.5443 60.1516C13.4178 62.6203 14.8678 65.1219 17.1381 66.1547C18.5443 66.8562 20.1521 66.6484 21.6693 66.6656C33.9974 66.6656 46.3256 66.6656 58.6537 66.6656C59.9568 66.6422 61.3099 66.7797 62.5599 66.3531C64.9396 65.4844 66.6693 62.9953 66.5224 60.4406C66.4865 53.0828 66.5724 45.7234 66.4818 38.3656C65.5537 39.6156 64.9381 41.0563 64.0443 42.3281L64.0381 42.3328Z" fill="#CF9D2A"/>
<path d="M16.8379 14.5C18.2926 13.625 20.0426 13.85 21.6597 13.8297C34.6806 13.8297 47.7014 13.8297 60.7223 13.8297C63.7769 13.8 66.5332 16.5765 66.5035 19.6234C66.5129 22.6672 66.5129 25.7088 66.5035 28.7484C66.5269 30.7031 66.0644 32.6172 65.566 34.4906C64.9191 36.6593 63.5519 38.8359 61.3348 39.6562C58.8816 40.6406 56.1894 39.9187 53.7863 39.1453C49.5332 37.5703 45.6082 35.2625 41.6191 33.1312C38.7129 31.6531 35.8379 30.0203 32.6441 29.225C28.6754 28.5093 24.5066 29.7687 21.4097 32.2953C19.0441 34.1531 17.191 36.5687 15.6129 39.1047C14.9144 40.2437 14.3488 41.4593 13.5551 42.5422C13.5551 35.0984 13.5707 27.6515 13.5551 20.2078C13.491 17.8906 14.7535 15.564 16.8379 14.5Z" fill="#522D1D"/>
<path d="M64.0376 42.3326C64.9313 41.0607 65.5469 39.617 66.4751 38.3701C66.5657 45.7279 66.4751 53.0873 66.5157 60.4451C66.6626 62.9998 64.9329 65.4889 62.5532 66.3576C61.2938 66.7826 59.9469 66.6451 58.6469 66.6701C46.3188 66.6639 33.9907 66.6639 21.6626 66.6701C20.1485 66.6529 18.5376 66.8607 17.1313 66.1592C14.8672 65.1248 13.4172 62.6248 13.5438 60.1514C13.6141 56.9607 13.4579 53.7686 13.6235 50.5826C14.1079 47.8264 14.561 44.8186 16.5047 42.6639C18.1751 40.7232 21.0079 40.2139 23.4172 40.7686C28.4922 41.8154 32.986 44.5342 37.5219 46.9139C40.7672 48.5623 43.9641 50.4373 47.5454 51.2764C50.8672 51.9014 54.3672 51.0639 57.2329 49.3326C60.0235 47.592 62.2782 45.0951 64.0329 42.3326" fill="#522D1D"/>
</svg>
