<svg width="80" height="80" viewBox="0 0 80 80" fill="none" xmlns="http://www.w3.org/2000/svg">
<g clip-path="url(#clip0_10416_68878)">
<path d="M7.96876 34.9999C9.95938 33.3905 11.9063 32.2343 14.1703 31.7687C19.7203 30.6296 24.3188 32.3562 27.9391 36.6124C33.2359 42.8499 33.2313 52.5843 28.0156 58.8327C21.9359 66.1187 10.7391 66.3327 4.32813 59.2687C1.46719 56.1233 0.0328188 52.3999 0.0171938 48.1593C-0.0109312 40.2421 6.31635e-06 32.3233 0.00781882 24.4062C0.00781882 21.5499 1.57032 20.0171 4.44376 20.0015C5.32344 20.0015 6.21094 20.0624 7.08282 19.9765C7.86407 19.9015 7.98594 20.1874 7.98126 20.8874C7.94844 25.139 7.96407 29.3921 7.96251 33.6437L7.96876 34.9999ZM24.0625 47.8655C24.1019 46.5398 23.8418 45.2222 23.3016 44.0108C22.0375 41.128 19.9203 39.203 16.7391 38.7983C13.5313 38.3905 10.9578 39.7202 9.20782 42.3608C6.98751 45.6999 6.86407 49.253 8.83282 52.7499C11.3094 57.1499 16.6453 58.3077 20.5094 55.3233C22.9219 53.4593 23.9969 50.889 24.0516 47.8671L24.0625 47.8655Z" fill="#317FE1"/>
<path d="M79.9767 42.4391C79.9767 45.3 79.9986 48.161 79.9767 51.0203C79.9079 58.3766 73.8829 64.3422 66.4283 64.4453C59.1298 64.5469 52.8689 58.7813 52.6611 51.5047C52.4829 45.2406 52.597 38.9672 52.5611 32.6969C52.5611 32.1313 52.7939 32.011 53.2829 32.0219C54.3767 32.0469 55.4861 32.0063 56.5861 32.0547C58.9861 32.161 60.5407 33.7469 60.5548 36.1594C60.5829 41.1453 60.5454 46.1328 60.5783 51.1203C60.5986 54.1813 62.547 56.4531 65.422 56.8844C68.9939 57.4203 71.9954 54.8188 72.0189 51.1031C72.047 46.3 72.0189 41.4953 72.0189 36.6922C72.0189 33.55 73.5111 32.05 76.6673 32.0297C77.4376 32.0297 78.2142 32.0828 78.9782 32.0125C79.8407 31.9344 80.0048 32.2891 79.9939 33.0828C79.9486 36.1985 79.9751 39.3156 79.9751 42.4328L79.9767 42.4391Z" fill="#317FE1"/>
<path d="M22.2128 18.6936C22.2046 19.5254 21.8697 20.3208 21.2804 20.908C20.6912 21.4953 19.8947 21.8273 19.0628 21.8326C17.344 21.8326 15.9003 20.3764 15.9112 18.6811C15.9129 17.8448 16.2466 17.0434 16.8391 16.4533C17.4316 15.8631 18.2343 15.5325 19.0706 15.5342C19.9068 15.5358 20.7082 15.8696 21.2983 16.4621C21.8885 17.0546 22.2191 17.8573 22.2174 18.6936H22.2128Z" fill="#070707"/>
<path d="M41.6105 64.4374H38.6809C38.564 64.4374 38.4519 64.391 38.3693 64.3083C38.2867 64.2257 38.2402 64.1136 38.2402 63.9968V24.6077C38.2406 23.38 38.7286 22.2026 39.5967 21.3345C40.4648 20.4663 41.6422 19.9784 42.8699 19.978H45.359C45.4748 19.978 45.5896 20.0009 45.6966 20.0453C45.8036 20.0896 45.9008 20.1547 45.9827 20.2367C46.0645 20.3187 46.1294 20.416 46.1736 20.5231C46.2178 20.6302 46.2404 20.745 46.2402 20.8608V59.8062C46.2404 60.4143 46.1208 61.0165 45.8883 61.5783C45.6557 62.1402 45.3147 62.6508 44.8848 63.0808C44.4549 63.5109 43.9444 63.8521 43.3826 64.0848C42.8208 64.3176 42.2187 64.4374 41.6105 64.4374Z" fill="#317FE1"/>
</g>
<defs>
<clipPath id="clip0_10416_68878">
<rect width="80" height="80" fill="white"/>
</clipPath>
</defs>
</svg>
