<svg width="80" height="80" viewBox="0 0 80 80" fill="none" xmlns="http://www.w3.org/2000/svg">
<path d="M51.1156 21.576C54.4094 19.7401 58.286 18.5135 62.0735 19.1869C62.0735 20.7213 62.1406 30.4198 62.1406 30.4198C61.8547 30.6369 61.4625 30.5573 61.1313 30.6369C58.5172 31.1166 56.0516 32.1838 53.7391 33.4666C49.1797 36.0479 45.2078 39.5494 41.675 43.3901C37.3453 48.2729 32.7688 53.0494 27.261 56.6244C23.4203 59.1151 18.9047 60.8526 14.2641 60.5916C10.5028 60.2354 6.96259 58.6539 4.18751 56.0901C1.73183 53.7714 0.26589 50.5944 0.0953273 47.2213C-0.0245696 46.3529 -0.0313974 45.4727 0.0750148 44.6026C0.332827 41.3541 1.32501 38.0166 3.60158 35.5916C6.62814 32.2666 11.3 30.9276 15.6844 30.9901C21.7781 31.1463 27.4031 34.0307 32.1703 37.6401C32.5438 37.776 32.2563 38.1557 32.1156 38.3463C31.3813 39.4526 30.686 40.5838 29.9438 41.6838C26.3594 39.201 22.411 37.0744 18.086 36.2604C15.5 35.7916 12.7063 35.8385 10.3281 37.0744C7.34533 38.5979 5.4922 41.7932 5.08751 45.0541C4.88597 46.4969 5.12335 47.9669 5.76876 49.2729C7.12345 52.151 9.83126 54.4823 13.0203 54.9791C14.3406 55.2119 15.6766 55.0198 16.9813 54.7463C19.5038 54.3141 21.9205 53.4041 24.1016 52.0651C26.4688 50.6041 28.5047 48.6651 30.3188 46.5682C33.0797 43.3432 35.3531 39.7354 37.4672 36.0619C40.9078 30.3541 45.2719 24.9526 51.1156 21.576Z" fill="#008A9F"/>
<path d="M62.0781 30.8494C65.9844 30.5369 70.1328 30.9509 73.5047 33.0978C76.9594 35.2337 79.1578 39.0259 79.825 42.9806C80.0875 44.0509 79.9734 45.1275 79.9734 46.2353C79.6828 50.1087 78.1953 54.0259 75.3172 56.7181C72.8297 59.0759 69.4422 60.2791 66.0672 60.565C62.9141 60.7681 59.7875 59.9541 56.8828 58.7853C51.0891 56.3884 45.9141 52.7041 41.2031 48.6103L41.1484 48.4181C42.2766 47.2009 43.4328 46.0103 44.6047 44.84C45.1938 45.2197 45.9141 45.9025 46.5906 46.3822C50.0109 49.0228 53.5891 51.5009 57.4672 53.4259C58.9203 54.0947 60.4156 54.7775 62.0188 54.9759C63.5687 54.9004 65.0647 54.3826 66.3297 53.4837C68.6328 51.7962 69.4203 48.3634 68.1563 45.8275C66.9594 43.5572 64.4188 42.5041 62.0625 41.9212C62.0547 41.1587 62.0781 31.3728 62.0781 30.8494Z" fill="#008A9F"/>
</svg>
