<svg width="80" height="80" viewBox="0 0 80 80" fill="none" xmlns="http://www.w3.org/2000/svg">
<path d="M58.5625 60.8405H39.3203C38.475 60.8405 26.7438 40.8796 26.7438 39.7952C26.7438 38.7108 31.8813 31.7514 31.3656 31.6874C30.5688 31.5921 23.3672 31.6874 23.3672 31.6874C23.3672 31.6874 13.0547 48.6624 13.0547 49.2843C13.0547 49.9061 23.0547 67.5921 23.3672 67.5921H31.1875C31.6328 67.5921 21.1 50.2483 21.2344 49.6389C21.3375 49.1702 22.4844 47.1655 22.9672 46.5733C23.45 45.9811 35.1547 67.5921 35.8953 67.5921H55.4062C55.4062 67.5921 59.6281 60.8405 58.5625 60.8405Z" fill="#B01117"/>
<path d="M47.9467 13.3138C48.4873 14.2326 57.2701 29.1732 57.6966 29.9013C58.1232 30.6295 46.8623 50.8591 45.9279 51.4091C44.9935 51.9591 36.3967 51.056 36.5982 51.531C36.9201 52.267 40.6513 58.4279 40.6513 58.4279C40.6513 58.4279 60.5107 58.7123 61.0466 58.3966C61.5826 58.081 71.7623 40.4998 71.6045 40.231L67.642 33.4888C67.417 33.106 57.7982 50.9748 57.2092 51.1685C56.7513 51.317 54.4466 51.3498 53.6873 51.2279C52.9279 51.106 65.6295 30.067 65.2498 29.4295C64.5795 28.281 55.3685 12.6107 55.3685 12.6107C55.3685 12.6107 47.406 12.3935 47.9467 13.3138Z" fill="#B01117"/>
<path d="M12.2234 45.8595L21.9734 29.272C22.4016 28.5454 45.5562 28.547 46.4906 29.0954C47.425 29.6439 50.8219 37.6017 51.1359 37.1876C51.6219 36.5486 55.1891 30.2923 55.1891 30.2923C55.1891 30.2923 45.7797 12.8017 45.2438 12.4861C44.7078 12.1704 24.3937 11.8282 24.2359 12.097L20.2719 18.8392C20.0469 19.222 40.3359 18.9314 40.7922 19.3548C41.1453 19.6829 42.2953 21.6814 42.5578 22.4032C42.8203 23.1251 18.2594 22.2611 17.8859 22.897L8 39.7173C8 39.7173 11.6781 46.7798 12.2234 45.8595Z" fill="#B01117"/>
<path d="M47.3637 40.0437C47.3637 38.5319 46.9154 37.054 46.0755 35.797C45.2356 34.54 44.0418 33.5603 42.6451 32.9818C41.2483 32.4032 39.7114 32.2518 38.2287 32.5468C36.746 32.8417 35.384 33.5697 34.315 34.6387C33.246 35.7077 32.518 37.0697 32.223 38.5524C31.9281 40.0352 32.0795 41.5721 32.658 42.9688C33.2366 44.3655 34.2163 45.5593 35.4733 46.3992C36.7303 47.2391 38.2081 47.6874 39.7199 47.6874C41.7472 47.6874 43.6914 46.8821 45.1249 45.4486C46.5584 44.0151 47.3637 42.0709 47.3637 40.0437Z" fill="#00AEC5"/>
</svg>
