<svg width="80" height="80" viewBox="0 0 80 80" fill="none" xmlns="http://www.w3.org/2000/svg">
<path d="M48.6438 43.7297C48.5133 44.6082 48.2864 45.4696 47.9672 46.2984C45.9875 51.6453 42.1719 54.9141 36.6359 56.1422C32.6422 57.025 28.6391 56.9594 24.7031 55.7781C20.0781 54.3906 16.8406 51.4031 14.8859 47.0125C13.6328 44.1702 12.9939 41.0953 13.0109 37.9891C12.9964 30.0141 12.9964 22.038 13.0109 14.0609C13.0029 13.7942 13.0207 13.5274 13.0641 13.2641C13.2109 12.5516 13.5781 12.1844 14.3 12.0594C14.5318 12.0201 14.7665 12.0002 15.0016 12C24.5578 12 34.1146 12 43.6719 12C45.0781 12 46.2531 12.4422 47.2391 13.4453C49.2703 15.5156 51.3266 17.5719 53.3656 19.6391C53.5141 19.7953 53.7531 19.9516 53.6609 20.1969C53.5594 20.475 53.2656 20.4516 53.0266 20.4688C52.1953 20.5266 51.3625 20.5094 50.5266 20.5094L24.4828 20.4969C23.6469 20.4969 23.3031 20.7813 23.1406 21.6016C23.0847 21.9061 23.059 22.2154 23.0641 22.525C23.0641 28.4516 23.0172 34.3781 23.0766 40.3031C23.1406 46.7812 28.5547 52.9094 35.7609 52.9047C38.4172 52.9047 40.9344 52.3641 43.1938 50.9016C45.1989 49.6065 46.7659 47.7357 47.6891 45.5344C47.9453 44.9406 48.3141 44.4 48.5203 43.7797C48.5359 43.7406 48.5781 43.7188 48.6438 43.7297Z" fill="#0A5F3C"/>
<path d="M49.577 68.4064C44.8583 68.4064 40.1379 68.3955 35.4176 68.4142C33.9442 68.4142 32.7004 67.9549 31.702 66.8627C31.6004 66.7517 31.4895 66.6517 31.3895 66.5502L25.7973 60.8908C25.6825 60.7792 25.574 60.6613 25.4723 60.5377C25.2426 60.2424 25.2895 60.1033 25.6536 59.9877C25.7549 59.9548 25.8598 59.9343 25.9661 59.9267C26.2536 59.9096 26.5411 59.8908 26.8286 59.8908C35.8098 59.8908 44.7905 59.8955 53.7708 59.9049C54.0583 59.9049 54.3473 59.9252 54.6348 59.9049C55.4051 59.8689 55.7754 59.5267 55.8942 58.7642C55.9382 58.4794 55.9596 58.1915 55.9583 57.9033C55.9583 51.9658 55.9817 46.0283 55.9473 40.0908C55.9286 36.9783 54.7848 34.2549 52.7676 31.9096C50.6895 29.4908 48.0723 27.9658 44.8926 27.6064C40.7317 27.1377 36.9489 28.0392 33.877 31.0814C32.771 32.1855 31.8938 33.497 31.2958 34.9408C31.0598 35.4986 30.7317 36.0158 30.4973 36.5767C30.4801 36.6174 30.4676 36.6908 30.3926 36.6674C30.2817 36.633 30.3661 36.5627 30.377 36.5111C31.8442 30.0908 35.6395 25.8752 42.1176 24.3127C46.0262 23.3489 50.1181 23.4168 53.9926 24.5096C59.1754 25.9658 62.6176 29.3533 64.5364 34.3236C65.529 36.9336 66.0301 39.7047 66.0145 42.497C66.0145 50.4314 66.0145 58.3648 66.0145 66.2971C66.0234 66.5749 66.004 66.8528 65.9567 67.1267C65.8161 67.8221 65.452 68.1877 64.7536 68.3205C64.4797 68.3683 64.2019 68.3898 63.9239 68.3845L49.577 68.4064Z" fill="#0A5F3C"/>
<path d="M39.4879 49.8986C44.852 49.8986 49.2004 45.5502 49.2004 40.1861C49.2004 34.8221 44.852 30.4736 39.4879 30.4736C34.1238 30.4736 29.7754 34.8221 29.7754 40.1861C29.7754 45.5502 34.1238 49.8986 39.4879 49.8986Z" fill="#E4E418"/>
</svg>
