<svg width="80" height="80" viewBox="0 0 80 80" fill="none" xmlns="http://www.w3.org/2000/svg">
<path d="M27.485 14.0282C30.7506 11.7657 34.6069 10.3126 38.5865 10.0548C41.7006 9.90632 44.8787 10.0141 47.8772 10.9532C54.0584 12.6204 59.6834 16.3657 63.5022 21.5079C62.2006 20.7532 61.0022 19.8204 59.6475 19.1641C56.3366 17.5094 52.724 16.3938 49.0225 16.1532C46.9506 15.811 44.8662 16.1907 42.8069 16.4219C39.9944 16.9657 37.2272 17.9001 34.7819 19.4157C31.9553 21.2641 29.4287 23.6438 27.6834 26.5626C24.5131 31.7719 23.6959 38.2469 25.1022 44.1469C25.4787 45.7891 26.0678 47.3688 26.6475 48.9454C24.529 46.4785 22.8189 43.6885 21.5819 40.6813C19.8624 36.4629 19.2456 31.876 19.7897 27.3532C20.2584 23.9282 21.535 20.586 23.635 17.8219C24.7975 16.4454 26.0131 15.0829 27.4819 14.0251M18.3553 18.7126C19.2084 17.9313 19.9694 17.036 20.9725 16.4423C20.4944 17.2923 19.8787 18.0594 19.4303 18.9251C18.3834 21.0798 17.3334 23.2673 16.8116 25.6251C16.3266 27.4114 16.0364 29.245 15.9459 31.0938C15.9631 32.9391 15.8616 34.8079 16.2756 36.6188C17.1303 41.761 19.7397 46.6376 23.7162 50.0329C27.31 53.0016 31.785 54.9548 36.4584 55.2516C37.5522 55.3485 38.6662 55.4579 39.7647 55.2719C42.1172 55.1219 44.4369 54.6411 46.6553 53.8438C47.4522 53.5735 48.2053 53.1844 49.0178 52.9641C46.9615 54.9954 44.4225 56.4469 41.8616 57.736C37.6103 59.7886 32.8745 60.6262 28.1772 60.1563C25.4815 59.9518 22.8588 59.1837 20.4787 57.9016C18.4944 56.7141 16.5725 55.3563 15.06 53.5798C13.6256 51.7329 12.2694 49.7782 11.5084 47.5485C9.35374 41.7454 9.60374 35.2204 11.6459 29.4235C13.0743 25.4048 15.3679 21.7489 18.3647 18.7141M38.2272 21.7969C43.3319 19.5423 49.1866 18.6719 54.6334 20.1532C58.0491 21.1298 61.3522 22.8126 63.7741 25.4688C66.2069 27.8829 67.8131 31.0298 68.7553 34.3001C71.1522 43.4548 68.1616 53.5719 61.7928 60.4501C60.7303 61.5188 59.6912 62.6469 58.4131 63.4579C62.5959 57.4188 64.5756 49.7079 63.1178 42.4423C62.1569 37.5266 59.5881 32.911 55.7522 29.6641C51.7241 26.0704 46.26 24.411 40.9272 24.3407C37.999 24.5594 35.06 25.0126 32.3053 26.0719C31.7772 26.2751 31.2569 26.5016 30.71 26.6563C32.899 24.5924 35.4465 22.9456 38.2272 21.7969ZM52.81 30.6251C54.0803 31.8157 55.06 33.2813 55.96 34.7641C57.9256 38.0657 59.36 41.7188 59.8897 45.5454C60.4444 50.0688 60.0569 54.8469 57.9787 58.9657C56.6131 61.5735 54.7287 63.9532 52.2897 65.6251C49.9553 67.4626 47.1334 68.5673 44.2725 69.2548C41.5584 69.6516 38.785 70.0173 36.0522 69.5673C31.2084 69.1938 26.5944 67.2157 22.5756 64.5376C20.8756 63.4563 19.4209 62.0454 18.0162 60.6079C17.4553 60.0032 16.835 59.4313 16.424 58.7048C18.4553 59.8735 20.4662 61.1063 22.6865 61.886C26.4467 63.404 30.5083 64.0271 34.5506 63.7063C38.7694 63.3938 42.8412 61.8204 46.2865 59.3907C49.0662 57.2657 51.4334 54.536 52.9287 51.3548C54.4912 48.0985 55.1975 44.4594 55.1725 40.8579C55.0624 38.0147 54.5062 35.2065 53.5241 32.536C53.3053 31.8923 53.0131 31.2766 52.8147 30.6266" fill="#5613A2"/>
<path d="M38.0353 28.8409C43.0915 28.0362 48.6603 30.8565 50.579 35.6815C51.1546 37.0595 51.4337 38.5433 51.3981 40.0363C51.3626 41.5292 51.0132 42.998 50.3728 44.3471C49.7712 45.8862 48.5696 47.058 47.404 48.1862C43.1853 51.8268 36.3103 51.8924 32.0915 48.2096C30.9978 47.1612 29.904 46.0393 29.279 44.6362C27.8728 41.8049 27.7603 38.3268 29.1228 35.458C30.6743 31.9018 34.2524 29.4518 38.029 28.8409H38.0353Z" fill="#FF0087"/>
</svg>
