<svg width="80" height="80" viewBox="0 0 80 80" fill="none" xmlns="http://www.w3.org/2000/svg">
<path d="M39.6141 10C44.0141 14.4021 48.4151 18.8031 52.8172 23.2031C53.3437 23.7438 53.9109 24.2547 54.4016 24.8266C50.6766 24.8953 46.9469 24.8375 43.2203 24.8563C37.1156 24.8563 31.0125 24.8656 24.9062 24.8563C25.1266 24.4531 25.4922 24.1656 25.8109 23.8422C30.0401 19.612 34.2693 15.3823 38.4984 11.1531C38.8797 10.7688 39.2656 10.4016 39.6141 10ZM24.7219 24.9109C24.7516 25.275 24.7609 25.6406 24.7578 26.0047C24.7391 35.4563 24.7812 44.9109 24.7359 54.3594C19.8099 49.4635 14.8979 44.5521 10 39.625C14.9271 34.7385 19.8344 29.8333 24.7219 24.9094M54.4172 31.2875C54.4312 29.1234 54.3859 26.9563 54.4422 24.7906C58.9516 29.3781 63.5359 33.8937 68.0719 38.4562C68.4563 38.8703 68.9297 39.2125 69.2203 39.7062C68.675 40.1312 68.225 40.6578 67.7297 41.1344C64.8609 44.0052 61.9911 46.875 59.1203 49.7438C57.5844 51.3141 55.9781 52.8187 54.4906 54.4312C54.4496 54.2193 54.4241 54.0047 54.4141 53.7891C54.4141 46.2891 54.4141 38.7891 54.4141 31.2891M24.9062 54.5219C34.6937 54.4844 44.4813 54.5078 54.2688 54.5094C54.012 54.8359 53.7338 55.1449 53.4359 55.4344L42.7219 66.1469C41.7359 67.1547 40.7016 68.1172 39.7531 69.1625L39.5094 69.175C34.6656 64.2656 29.7406 59.4359 24.9031 54.5219H24.9062Z" fill="#157215"/>
<path d="M34.1205 29.2732C36.211 28.1531 38.5901 27.6876 40.9487 27.9373C41.7887 28.0724 42.6179 28.2677 43.4299 28.5217C43.5971 28.5998 43.7659 28.6779 43.9377 28.7482C44.2799 28.8607 44.6002 29.031 44.9487 29.1264L44.9299 29.2295C45.0945 29.292 45.2586 29.356 45.4221 29.4217C45.8705 29.7342 46.344 30.0185 46.7909 30.3404C47.0924 30.6232 47.4159 30.8764 47.7393 31.1404L48.0299 31.4529C48.4299 31.8889 48.7799 32.3717 49.1955 32.7935C49.1955 32.8514 49.1752 32.967 49.169 33.0264L49.3252 33.0092C49.4425 33.2654 49.6008 33.5008 49.794 33.706L49.769 33.9326L49.9643 33.9514C49.9518 34.0264 49.9284 34.1764 49.9159 34.2498L50.1518 34.2326C50.1268 34.3092 50.0784 34.4623 50.0549 34.5451H50.283L50.208 34.8576L50.3643 34.8498C50.4659 35.2654 50.7096 35.631 50.7284 36.0732H50.819C51.0393 36.9889 51.3409 37.9045 51.319 38.8576C51.319 39.6545 51.3596 40.4576 51.2705 41.2514C51.1464 41.9588 50.9698 42.656 50.7424 43.3373C50.6659 43.5795 50.5862 43.8201 50.5112 44.0623H50.4221C50.3815 44.4623 50.1487 44.7998 49.9674 45.1467C49.9002 45.3029 49.8362 45.4498 49.7705 45.6045L49.5315 45.8279C49.5096 45.8951 49.4643 46.031 49.4409 46.0998C49.1669 46.4173 48.9197 46.757 48.7018 47.1154L48.633 47.0873C48.162 47.7534 47.577 48.3311 46.9049 48.7935L46.9237 48.867C46.544 49.0998 46.1955 49.381 45.7955 49.581C45.7455 49.6342 45.6471 49.7373 45.5971 49.792L45.0924 49.9639L45.0737 50.0795C44.6377 50.3154 44.1237 50.392 43.7252 50.6889L43.3268 50.7467C41.5862 51.4685 39.6502 51.4498 37.8002 51.2826C36.6955 51.0389 35.5877 50.7639 34.5752 50.2389C34.244 50.1092 33.9815 49.8248 33.6112 49.7982L33.6409 49.6967C33.3181 49.5413 33.005 49.3665 32.7034 49.1732L32.7424 49.0967C32.5306 48.9878 32.335 48.85 32.1612 48.6873C32.018 48.5936 31.8822 48.4892 31.7549 48.3748C31.6534 48.2717 31.5502 48.1717 31.4424 48.0764C31.3346 47.981 31.2487 47.8654 31.1565 47.7639C31.0854 47.7267 31.0235 47.674 30.9756 47.6096C30.9278 47.5452 30.895 47.4708 30.8799 47.392L30.8002 47.4201C30.6703 47.2018 30.5128 47.0012 30.3315 46.8232C30.309 46.731 30.2629 46.6461 30.1977 46.5771C30.1325 46.508 30.0504 46.4572 29.9596 46.4295C29.9737 46.3842 30.0002 46.2935 30.0159 46.2482C29.6924 46.1201 29.6174 45.7389 29.3909 45.5014C29.3909 45.4467 29.3987 45.3451 29.4018 45.2857L29.2127 45.2623C29.2268 45.1889 29.2518 45.0435 29.2643 44.9717L29.0362 44.9826L29.1127 44.6873L28.9127 44.6607C28.9268 44.5889 28.9518 44.4451 28.9659 44.3732H28.833C28.0627 42.342 27.6252 40.1451 27.983 37.9826C28.1393 37.1842 28.2955 36.3779 28.6002 35.6185C28.8973 34.8211 29.2753 34.0561 29.7284 33.3357C29.955 33.0486 30.1578 32.7434 30.3346 32.4232L30.4049 32.4435C30.6221 32.056 30.9674 31.7685 31.2721 31.4529C31.6424 31.0967 31.9737 30.6889 32.4268 30.4326L32.4002 30.3576C32.9877 30.0248 33.5065 29.5764 34.119 29.2951" fill="#AA7346"/>
</svg>
