<svg width="80" height="80" viewBox="0 0 80 80" fill="none" xmlns="http://www.w3.org/2000/svg">
<g clip-path="url(#clip0_10416_68956)">
<path fill-rule="evenodd" clip-rule="evenodd" d="M36.6672 4.2875L36.5937 0H43.1844L43.1672 4.27031H47.6094L47.6203 12.8641H56.2828L60.9062 18.2969L58.5062 18.3656L56.2328 21.7453L57.8969 21.7672L57.9062 24.825L60.9828 24.8531L60.9984 28.9375L64.0562 28.9219V34.4703C65.6344 34.4234 66.7578 34.9688 67.3266 36.7313C70.3219 36.5406 72.0859 40.1906 72.9969 43.9641L70.8906 43.0266L63.7031 42.9922L63.0281 44.3828L66.1062 44.3656L66.1375 47.0828H68.5203L68.5422 50.1969H66.1156L66.1234 52.2281L62.3734 52.2703V53.5938L59.3016 53.6281V69.0469L46.2828 69.0562L46.2687 75.1937H43.5156V79.9922L36.3172 80.0016V75.2H33.5734V69.0438L20.5422 69.0297L20.5797 53.6078H17.4875L17.5312 52.2469L13.7141 52.2375L13.6969 50.1766L11.3328 50.1562L11.3219 47.0937H13.6984L13.7234 44.375H17.0484L16.4234 42.9688L9.67812 42.9297C8.70029 43.0479 7.7738 43.4328 7 44.0422C7.5 41.1203 8.45 37.0531 12.6 36.7375C12.9547 35.4453 13.7781 34.325 15.8016 34.4219L15.7656 28.9281L18.8906 28.9391L18.8781 24.8422L21.9328 24.8234L21.9437 22.0875L23.6281 22.0797L21.2641 18.3297H18.9L23.6734 13.1828H32.2125L32.2031 4.32969L36.6672 4.2875Z" fill="url(#paint0_linear_10416_68956)"/>
<path fill-rule="evenodd" clip-rule="evenodd" d="M39.3846 33.7391L39.3924 37.2016L35.9768 35.1125V18L33.6018 14.4L33.5674 6H38.033L38.0283 1.53906L41.8018 1.55625L41.7752 6.05156H46.2627V14.4L43.8721 17.9734L43.8799 35.0953L40.7752 37.1672L40.8111 33.7234L41.7939 32.6266L41.8283 8.07031L38.0502 8.06094L38.0455 32.7078L39.3846 33.7391Z" fill="#202D14" stroke="#373435" stroke-width="0.216" stroke-miterlimit="22.9256"/>
<path fill-rule="evenodd" clip-rule="evenodd" d="M22.9678 16.2701L23.9943 14.9061L32.5428 14.9014L34.6037 18.6779L34.6209 36.4514L39.0475 39.2326L39.0646 51.1998H33.924L33.9318 39.9045L28.4365 34.6951L28.4193 21.4264L25.3428 16.2873L22.9678 16.2701Z" fill="#202D14" stroke="#373435" stroke-width="0.216" stroke-miterlimit="22.9256"/>
<path fill-rule="evenodd" clip-rule="evenodd" d="M23.293 18.3467H24.7023L27.118 22.4451L27.0914 34.4092L25.7367 34.417L25.7195 22.4342L23.293 18.3467Z" fill="#202D14" stroke="#373435" stroke-width="0.216" stroke-miterlimit="22.9256"/>
<path fill-rule="evenodd" clip-rule="evenodd" d="M22.9752 31.0093L24.3189 31.014L24.3361 34.4202L22.958 34.4327L22.9752 31.0093Z" fill="#202D14" stroke="#373435" stroke-width="0.216" stroke-miterlimit="22.9256"/>
<path fill-rule="evenodd" clip-rule="evenodd" d="M9.9502 41.2502C10.2143 40.1096 10.9643 38.9064 11.9924 38.5564L14.3361 38.5408C14.1799 37.5205 14.5049 36.7596 15.4502 36.1549L27.7455 36.1221L32.2236 40.5986L32.2158 51.2236L28.1111 51.1955L21.5939 41.2861L9.9502 41.2502Z" fill="#202D14" stroke="#373435" stroke-width="0.216" stroke-miterlimit="22.9256"/>
<path fill-rule="evenodd" clip-rule="evenodd" d="M18.4883 43.0016L20.5508 42.9922L26.0383 51.1828L23.668 51.2094L18.4883 43.0016Z" fill="#202D14" stroke="#373435" stroke-width="0.216" stroke-miterlimit="22.9256"/>
<path fill-rule="evenodd" clip-rule="evenodd" d="M17.4785 47.8015L17.5145 49.1218L20.5676 49.139L19.5082 47.7827L17.4785 47.8015Z" fill="#202D14" stroke="#373435" stroke-width="0.216" stroke-miterlimit="22.9256"/>
<path fill-rule="evenodd" clip-rule="evenodd" d="M56.8459 16.2701L55.8193 14.9061L47.2709 14.9014L45.21 18.6779L45.1928 36.4514L40.7662 39.2326L40.749 51.1998H45.8897L45.8818 39.9045L51.3772 34.6951L51.3943 21.4264L54.4709 16.2873L56.8459 16.2701Z" fill="#202D14" stroke="#373435" stroke-width="0.216" stroke-miterlimit="22.9256"/>
<path fill-rule="evenodd" clip-rule="evenodd" d="M69.9189 41.2264C69.6549 40.0842 68.9049 38.8732 67.8768 38.5311L65.533 38.5154C65.6893 37.4951 65.3658 36.7357 64.4205 36.1311L52.1236 36.0967L47.6377 40.6045L47.6549 51.2014L51.7596 51.1732L58.2752 41.2654L69.9189 41.2264Z" fill="#202D14" stroke="#373435" stroke-width="0.216" stroke-miterlimit="22.9256"/>
<path fill-rule="evenodd" clip-rule="evenodd" d="M61.4475 43.0187L59.385 43.0093L53.8975 51.1999L56.2678 51.2265L61.4475 43.0187Z" fill="#202D14" stroke="#373435" stroke-width="0.216" stroke-miterlimit="22.9256"/>
<path fill-rule="evenodd" clip-rule="evenodd" d="M62.3361 47.8093L62.358 49.1515L59.3096 49.1655L60.3096 47.7983L62.3361 47.8093Z" fill="#202D14" stroke="#373435" stroke-width="0.216" stroke-miterlimit="22.9256"/>
<path fill-rule="evenodd" clip-rule="evenodd" d="M35.2725 69.0186L35.3068 73.4826L38.0459 73.4873L38.0287 78.2607H41.8287L41.8225 73.492L44.5537 73.4779L44.5334 69.0389H41.799L41.785 71.7217L38.0568 71.7451L38.0209 69.0264L35.2725 69.0186Z" fill="#202D14" stroke="#373435" stroke-width="0.216" stroke-miterlimit="22.9256"/>
<path fill-rule="evenodd" clip-rule="evenodd" d="M21.9336 52.9312L21.968 67.2921L57.8977 67.2983L57.8898 52.9343L21.9336 52.9312Z" fill="#202D14" stroke="#373435" stroke-width="0.216" stroke-miterlimit="22.9256"/>
<path fill-rule="evenodd" clip-rule="evenodd" d="M55.4957 31.0093L56.8395 31.014L56.8566 34.4202L55.4785 34.4327L55.4957 31.0093Z" fill="#202D14" stroke="#373435" stroke-width="0.216" stroke-miterlimit="22.9256"/>
<path fill-rule="evenodd" clip-rule="evenodd" d="M56.5408 18.3467H55.1314L52.7158 22.4451L52.7424 34.4092L54.0971 34.417L54.1158 22.4342L56.5408 18.3467Z" fill="#202D14" stroke="#373435" stroke-width="0.216" stroke-miterlimit="22.9256"/>
<path fill-rule="evenodd" clip-rule="evenodd" d="M51.2961 62.2236V62.3955C51.2961 62.708 51.3836 62.9268 51.5586 63.0486C51.6683 63.1193 51.7968 63.1552 51.9273 63.1518C52.0382 63.1518 52.1382 63.033 52.2257 62.7971C52.2414 62.7424 52.2586 62.6814 52.2789 62.6127C52.2992 62.5439 52.3242 62.5096 52.357 62.5096C52.3898 62.5096 52.4164 62.5486 52.4164 62.6252C52.4143 62.6715 52.408 62.7175 52.3976 62.7627C52.3867 62.8236 52.3757 62.8736 52.3679 62.9111C52.2959 63.2798 52.1634 63.6341 51.9757 63.9596C51.8195 64.208 51.6539 64.3314 51.4867 64.3314C51.3715 64.3393 51.2568 64.3103 51.1592 64.2484C51.0617 64.1866 50.9865 64.0953 50.9445 63.9877C50.837 63.7105 50.7865 63.4145 50.7961 63.1174L51.2961 62.2236Z" fill="#EFF1BF"/>
<path fill-rule="evenodd" clip-rule="evenodd" d="M52.2332 66.0203C52.2484 66.1028 52.242 66.1879 52.2145 66.2672C52.1812 66.3702 52.1377 66.4696 52.0848 66.5641C52.0215 66.6792 51.9385 66.7824 51.8395 66.8687C51.8002 66.9173 51.7447 66.95 51.6832 66.9609C51.6243 66.9375 51.5711 66.9018 51.527 66.8562C51.4441 66.7875 51.3707 66.7297 51.302 66.6797C51.2408 66.6359 51.1829 66.5879 51.1285 66.5359C51.0915 66.5079 51.0659 66.4674 51.0566 66.4219C51.1056 66.3177 51.1415 66.2411 51.1645 66.1922C51.2441 66.025 51.3035 65.9016 51.3426 65.8266C51.4145 65.7109 51.4863 65.5922 51.5566 65.4703C51.5738 65.4469 51.5973 65.4141 51.6285 65.3672C51.6505 65.3888 51.6746 65.4081 51.7004 65.425C51.7238 65.4406 51.7551 65.4594 51.7957 65.4812C51.9163 65.5694 52.0278 65.6693 52.1285 65.7797C52.184 65.8493 52.2201 65.9323 52.2332 66.0203Z" fill="#EFF1BF"/>
<path fill-rule="evenodd" clip-rule="evenodd" d="M51.2961 62.2236C51.2336 62.4221 51.1695 62.6174 51.1055 62.808C51.018 63.0163 50.9138 63.1205 50.793 63.1205C50.793 63.0288 50.8367 62.6299 50.9242 61.9236C51.0117 61.2158 51.0805 60.6736 51.1383 60.3018C51.1461 60.2705 51.2102 60.1143 51.3289 59.833C51.4477 59.5518 51.543 59.3361 51.6148 59.1924L51.6633 59.1689C51.6693 59.2302 51.665 59.2919 51.6508 59.3518L51.6023 59.6502L51.4008 61.0439C51.3602 61.3252 51.3336 61.5705 51.318 61.7768C51.3023 61.983 51.2961 62.1314 51.2961 62.2236Z" fill="#EFF1BF"/>
<path fill-rule="evenodd" clip-rule="evenodd" d="M49.0035 62.2236V62.3955C49.0035 62.708 49.091 62.9268 49.266 63.0486C49.3757 63.1194 49.5043 63.1554 49.6348 63.1518C49.7457 63.1518 49.8457 63.033 49.9317 62.7971C49.9489 62.7424 49.9661 62.6814 49.9864 62.6127C50.0067 62.5439 50.0317 62.5096 50.0629 62.5096C50.0942 62.5096 50.1223 62.5486 50.1223 62.6252C50.1209 62.6715 50.1152 62.7175 50.1051 62.7627C50.0926 62.8236 50.0832 62.8736 50.0754 62.9111C50.0034 63.2798 49.8709 63.6341 49.6832 63.9596C49.527 64.208 49.3614 64.3314 49.1942 64.3314C49.079 64.3393 48.9643 64.3103 48.8667 64.2484C48.7692 64.1866 48.694 64.0953 48.652 63.9877C48.5418 63.7111 48.4887 63.415 48.4957 63.1174L49.0035 62.2236Z" fill="#EFF1BF"/>
<path fill-rule="evenodd" clip-rule="evenodd" d="M49.908 57.1346C49.923 57.2165 49.9171 57.3009 49.8908 57.3799C49.8563 57.4832 49.8123 57.5831 49.7596 57.6783C49.6958 57.7931 49.6128 57.8962 49.5143 57.983C49.475 58.0313 49.4194 58.0635 49.358 58.0736C49.299 58.051 49.2457 58.0158 49.2018 57.9705C49.1189 57.9018 49.0455 57.8424 48.9768 57.7939C48.916 57.7497 48.8581 57.7017 48.8033 57.6502C48.7654 57.6223 48.7396 57.5809 48.7314 57.5346C48.7799 57.4361 48.8158 57.3596 48.8393 57.3064C48.9189 57.1377 48.9783 57.0158 49.0174 56.9393C49.0893 56.8252 49.1611 56.7064 49.2314 56.5846L49.3033 56.4814C49.3257 56.5026 49.3497 56.5219 49.3752 56.5393C49.3986 56.5533 49.4299 56.5736 49.4705 56.5955C49.5915 56.6831 49.7031 56.7832 49.8033 56.8939C49.8588 56.9635 49.8949 57.0465 49.908 57.1346Z" fill="#EFF1BF"/>
<path fill-rule="evenodd" clip-rule="evenodd" d="M49.0063 62.2234L48.9344 62.5094C48.9076 62.6171 48.8699 62.7218 48.8219 62.8219C48.7827 62.9158 48.7235 63 48.6485 63.0688C48.586 63.1219 48.5375 63.1375 48.5063 63.1141C48.508 62.9129 48.5221 62.712 48.5485 62.5125C48.575 62.2875 48.5938 62.1406 48.6016 62.0719L48.6125 61.9453C48.6147 61.9294 48.6108 61.9132 48.6016 61.9C48.6016 61.8922 48.5782 61.9 48.5532 61.9219C48.5282 61.9437 48.4703 62.0297 48.3969 62.1281C48.2469 62.3271 48.136 62.4724 48.0641 62.5641C47.8042 62.8744 47.5036 63.1483 47.1703 63.3781C46.8183 63.6274 46.4341 63.8276 46.0282 63.9734C45.5788 64.1303 45.1188 64.2546 44.6516 64.3453C44.1243 64.4505 43.5877 64.5029 43.05 64.5016H42.8719C42.5927 64.506 42.3136 64.4872 42.0375 64.4453C41.6969 64.3844 41.4641 64.2891 41.3422 64.1406C41.2041 63.9545 41.1381 63.7248 41.1563 63.4937C41.1572 63.2407 41.1754 62.988 41.211 62.7375C41.2469 62.4781 41.2953 62.3484 41.3594 62.3484C41.3828 62.3484 41.4016 62.4219 41.4125 62.5719C41.4248 62.72 41.4864 62.8598 41.5875 62.9688C41.8021 63.1969 42.3229 63.3115 43.15 63.3125C43.6032 63.3125 43.9641 63.3 44.2344 63.2781C45.5365 63.174 46.6 62.8719 47.425 62.3719C47.7838 62.177 48.0966 61.9074 48.3422 61.5812C48.5197 61.3229 48.6528 61.0366 48.736 60.7344L48.9016 60.0812C48.9753 59.8805 49.063 59.6853 49.1641 59.4969C49.2672 59.2906 49.3344 59.1578 49.3672 59.1016C49.398 59.0433 49.4381 58.9905 49.486 58.9453V59.1172C49.4453 59.2844 49.4188 59.4141 49.4032 59.5062L49.1516 60.7094C49.1047 61.0375 49.0693 61.3375 49.0453 61.6094C49.0188 61.875 49.0063 62.0859 49.0063 62.2234Z" fill="#EFF1BF"/>
<path fill-rule="evenodd" clip-rule="evenodd" d="M49.9687 58.1045C50.3216 57.7688 50.6953 57.4557 51.0875 57.167C51.5958 56.7774 52.1036 56.3842 52.6109 55.9873C52.9766 55.6967 53.326 55.4024 53.6594 55.1045C53.8984 54.8904 54.2109 54.6014 54.5969 54.2342C55.1927 53.6842 55.4906 53.4014 55.4906 53.3857C55.4914 53.4215 55.4833 53.4569 55.4672 53.4889C55.414 53.6589 55.3377 53.8208 55.2406 53.9701C55.1446 54.1378 55.037 54.2986 54.9187 54.4514C54.7922 54.6076 54.6547 54.7639 54.5078 54.9201C54.3609 55.0764 54.2438 55.1967 54.1563 55.2811C54.0375 55.3956 53.8349 55.5748 53.5484 55.8186C53.3344 56.0029 53.0141 56.2701 52.5844 56.6217C52.2828 56.8654 52.0125 57.0764 51.775 57.2467C51.4625 57.4826 51.1391 57.7154 50.8219 57.9451L50 58.5701C49.8813 58.6623 49.7687 58.7482 49.6609 58.8279C49.5531 58.9076 49.4922 58.9373 49.4766 58.9139C49.5357 58.7558 49.6073 58.6027 49.6906 58.4561C49.7657 58.326 49.8594 58.2075 49.9687 58.1045Z" fill="#EFF1BF"/>
<path fill-rule="evenodd" clip-rule="evenodd" d="M39.3695 62.5126C39.5367 62.3454 39.6352 62.2423 39.668 62.2001C39.7922 62.0544 39.8925 61.8899 39.9648 61.7126C40.0619 61.4651 40.1321 61.2079 40.1742 60.9454C40.2244 60.702 40.2542 60.4548 40.2633 60.2063C40.2633 60.0001 40.2633 59.7845 40.2633 59.5595C40.2633 59.3345 40.2805 59.1032 40.3039 58.8657C40.3273 58.6282 40.3164 58.5188 40.3164 58.4657C40.3186 58.4345 40.3143 58.4031 40.3039 58.3735L40.2445 58.3954L39.8164 59.4157C39.778 59.5155 39.7579 59.6213 39.757 59.7282C39.757 59.861 39.7445 60.0157 39.7445 60.197L39.757 60.9657C39.7675 61.2155 39.7271 61.4648 39.6383 61.6985C39.6011 61.778 39.555 61.853 39.5008 61.922C39.4634 61.9742 39.4168 62.0192 39.3633 62.0548L39.3695 62.5126Z" fill="#EFF1BF"/>
<path fill-rule="evenodd" clip-rule="evenodd" d="M40.799 57.5454C41.1527 57.2107 41.5263 56.8976 41.9178 56.6079C42.4261 56.2194 42.9344 55.8256 43.4428 55.4267C43.8084 55.1376 44.1568 54.8423 44.4912 54.5454C44.7287 54.3308 45.0412 54.0402 45.4287 53.6735C46.0235 53.1235 46.3209 52.8412 46.3209 52.8267C46.3213 52.8624 46.3133 52.8977 46.2975 52.9298C46.2446 53.0999 46.1684 53.2619 46.0709 53.411C45.975 53.5788 45.8675 53.7396 45.749 53.8923C45.6225 54.0485 45.485 54.2048 45.3381 54.361C45.1912 54.5173 45.074 54.6376 44.9881 54.722C44.8693 54.8366 44.6667 55.0162 44.3803 55.261C44.1667 55.4444 43.8454 55.7116 43.4162 56.0626C43.1146 56.3079 42.8443 56.5173 42.6053 56.6876C42.2928 56.923 41.9756 57.1558 41.6537 57.386L40.8318 58.011L40.4959 58.2813C40.3881 58.361 40.3271 58.3892 40.3115 58.3673C40.37 58.2085 40.4416 58.0548 40.5256 57.9079C40.5987 57.7745 40.6908 57.6524 40.799 57.5454Z" fill="#EFF1BF"/>
<path fill-rule="evenodd" clip-rule="evenodd" d="M39.3693 62.5093L39.299 62.5671C39.1631 62.6358 39.074 62.6796 39.0303 62.6983C38.9835 62.7202 38.9395 62.7475 38.899 62.7796C38.8553 62.814 38.8021 62.8608 38.7428 62.9218C38.7002 62.9493 38.6512 62.9654 38.6006 62.9687C38.5455 62.9748 38.4923 62.9923 38.4443 63.0202C38.3691 63.0703 38.2976 63.1256 38.2303 63.1858C38.1635 63.2505 38.0843 63.301 37.9975 63.3343C37.9523 63.34 37.9067 63.34 37.8615 63.3343C37.81 63.3343 37.7521 63.3249 37.6881 63.3171C37.5537 63.3171 37.3756 63.4858 37.1521 63.8218C36.9287 64.1577 36.6678 64.3249 36.3709 64.3249C36.0146 64.3249 35.7631 64.1233 35.6209 63.7187C35.5901 63.6238 35.5702 63.5258 35.5615 63.4265C35.5481 63.3228 35.5403 63.2185 35.5381 63.114L36.0381 62.2202C36.0282 62.4233 36.0736 62.6252 36.1693 62.8046C36.2443 62.9236 36.3506 63.0196 36.4766 63.0822C36.6025 63.1448 36.7433 63.1714 36.8834 63.1593C37.0526 63.1634 37.219 63.1154 37.36 63.0218C37.5256 62.8999 37.6975 62.778 37.8725 62.6562C37.976 62.6709 38.0804 62.6782 38.185 62.678C38.2947 62.6718 38.3975 62.6224 38.4709 62.5405C38.5199 62.4874 38.5719 62.4353 38.6271 62.3843C38.6454 62.4031 38.6694 62.4154 38.6953 62.4194C38.7213 62.4233 38.7478 62.4187 38.7709 62.4062C38.8712 62.3727 38.9586 62.3088 39.0209 62.2233C39.06 62.1702 39.1006 62.1124 39.1396 62.0515C39.1924 62.0735 39.25 62.0816 39.3068 62.0749L39.3771 62.0405C39.3943 62.078 39.41 62.1187 39.4256 62.1608C39.4412 62.2028 39.4491 62.2473 39.449 62.2921C39.4479 62.3277 39.44 62.3627 39.4256 62.3952C39.4021 62.4327 39.3865 62.4718 39.3693 62.5093Z" fill="#EFF1BF"/>
<path fill-rule="evenodd" clip-rule="evenodd" d="M37.6062 57.2877C37.6215 57.3702 37.615 57.4553 37.5875 57.5346C37.5539 57.638 37.5105 57.7379 37.4578 57.833C37.3936 57.9471 37.3106 58.0495 37.2125 58.1361C37.1729 58.1844 37.1176 58.217 37.0562 58.2283C36.9973 58.2057 36.944 58.1705 36.9 58.1252C36.8167 58.0564 36.7417 57.9971 36.675 57.9471C36.6136 57.9037 36.5556 57.8556 36.5016 57.8033C36.4547 57.758 36.4297 57.7205 36.4297 57.6893C36.4781 57.5893 36.5141 57.5143 36.5375 57.4596C36.6167 57.2919 36.676 57.17 36.7156 57.0939C36.7875 56.9783 36.8594 56.8611 36.9297 56.7377C36.9453 56.7158 36.9703 56.6814 37.0016 56.6346C37.0236 56.6562 37.0476 56.6755 37.0734 56.6924L37.1687 56.7502C37.2893 56.8379 37.4008 56.9373 37.5016 57.0471C37.5579 57.1165 37.595 57.1995 37.6094 57.2877H37.6062ZM38.8328 57.2189C38.8481 57.3015 38.8416 57.3865 38.8141 57.4658C38.7792 57.569 38.7353 57.6689 38.6828 57.7643C38.6201 57.8789 38.5376 57.9815 38.4391 58.0674C38.3998 58.1159 38.3443 58.1487 38.2828 58.1596C38.2239 58.137 38.1705 58.1018 38.1266 58.0564C38.0438 57.9877 37.9703 57.9283 37.9 57.8783C37.8393 57.8346 37.7819 57.7865 37.7281 57.7346C37.6903 57.7073 37.6645 57.6664 37.6562 57.6205C37.7047 57.5205 37.7391 57.4439 37.7641 57.3908C37.8432 57.2242 37.9026 57.1023 37.9422 57.0252C38.0141 56.9096 38.0859 56.7924 38.1563 56.6689C38.1719 56.6471 38.1969 56.6127 38.2281 56.5658C38.2501 56.5874 38.2742 56.6068 38.3 56.6236L38.3953 56.6814C38.5158 56.7691 38.6273 56.8685 38.7281 56.9783C38.7844 57.0478 38.8216 57.1307 38.8359 57.2189H38.8328ZM38.2078 55.7986C38.1937 55.7106 38.1571 55.6278 38.1016 55.558C38.0003 55.4477 37.8882 55.3477 37.7672 55.2596L37.6719 55.2033C37.6466 55.1864 37.623 55.1671 37.6016 55.1455C37.5688 55.1908 37.5453 55.2252 37.5297 55.2486C37.4578 55.3705 37.3859 55.4893 37.3156 55.6033C37.2766 55.6799 37.2156 55.8018 37.1375 55.9705L37.0297 56.2002C37.0382 56.246 37.0639 56.2868 37.1016 56.3143C37.1484 56.3596 37.2062 56.4096 37.2734 56.4627C37.3406 56.5158 37.4172 56.5752 37.5 56.6408C37.5441 56.6845 37.5975 56.7176 37.6562 56.7377C37.7174 56.7268 37.7727 56.6947 37.8125 56.6471C37.9118 56.5583 37.9943 56.4525 38.0563 56.3346C38.1087 56.2397 38.1526 56.1403 38.1875 56.0377C38.2165 55.9615 38.2251 55.8791 38.2125 55.7986H38.2078Z" fill="#EFF1BF"/>
<path fill-rule="evenodd" clip-rule="evenodd" d="M36.0236 62.2236C35.9596 62.4221 35.8955 62.6174 35.833 62.808C35.7455 63.0163 35.6413 63.1205 35.5205 63.1205C35.5205 63.0288 35.5643 62.6299 35.6518 61.9236C35.7377 61.2158 35.808 60.6736 35.8658 60.3018C35.8736 60.2705 35.9361 60.1143 36.0564 59.833C36.1768 59.5518 36.2705 59.3361 36.3424 59.1924L36.3893 59.1689C36.3961 59.2301 36.3918 59.2921 36.3768 59.3518L36.3299 59.6502L36.1268 61.0486C36.0877 61.3299 36.0596 61.5752 36.0439 61.7814C36.0283 61.9877 36.0236 62.1314 36.0236 62.2236Z" fill="#EFF1BF"/>
<path fill-rule="evenodd" clip-rule="evenodd" d="M34.8719 62.8452L34.7063 63.2687C34.635 63.4198 34.5491 63.5638 34.45 63.6983C34.3821 63.7978 34.3 63.8868 34.2063 63.9624C34.0921 64.0256 33.9723 64.0779 33.8484 64.1187C33.7609 64.1483 33.6781 64.1796 33.5984 64.2093C33.4078 64.2702 33.2859 64.3124 33.2172 64.3358C33.0937 64.3774 32.9657 64.4042 32.8359 64.4155L32.7891 64.3921C32.7891 64.339 32.9313 64.2249 33.2172 64.0483L33.6859 63.7358C33.7656 63.6827 33.8531 63.6171 33.9484 63.5405C34.0566 63.453 34.1579 63.3574 34.2516 63.2546C34.3507 63.1544 34.426 63.0332 34.4719 62.8999C34.4735 62.8766 34.4777 62.8535 34.4844 62.8312L34.1719 62.8546C34.0399 62.8584 33.9116 62.8108 33.8141 62.7218C33.7701 62.688 33.736 62.6431 33.7151 62.5918C33.6943 62.5404 33.6874 62.4844 33.6953 62.4296C33.707 62.3552 33.727 62.2824 33.7547 62.2124C33.7859 62.128 33.8578 61.9749 33.9688 61.753C34.0307 61.6259 34.1022 61.5036 34.1828 61.3874C34.2859 61.2499 34.3859 61.1812 34.4813 61.1812C34.5607 61.1814 34.6391 61.1989 34.7111 61.2323C34.7831 61.2658 34.847 61.3144 34.8984 61.3749C35.0157 61.5026 35.0794 61.6704 35.0766 61.8437C35.0765 61.9358 35.0687 62.0278 35.0531 62.1187C35.0359 62.2108 35.0234 62.2905 35.0109 62.3593C34.9984 62.428 34.9813 62.5155 34.9578 62.6062C34.9364 62.6883 34.9076 62.7683 34.8719 62.8452Z" fill="#EFF1BF"/>
<path fill-rule="evenodd" clip-rule="evenodd" d="M32.8531 61.3173C32.8452 61.4712 32.8254 61.6243 32.7938 61.7751C32.7531 61.9892 32.7141 62.1767 32.675 62.3376L32.5313 62.8985C32.4516 63.1126 32.3891 63.2688 32.3406 63.3673C32.2817 63.4888 32.2165 63.6072 32.1453 63.722C32.0951 63.8023 32.0324 63.8741 31.9594 63.9345C31.8581 64.0064 31.751 64.0696 31.6391 64.1235L31.2094 64.2954C31.1174 64.3231 31.024 64.346 30.9297 64.3642C30.8376 64.3858 30.7442 64.4009 30.65 64.4095C30.611 64.4095 30.586 64.3954 30.5781 64.3688C30.575 64.3519 30.5756 64.3344 30.5799 64.3176C30.5843 64.3009 30.5922 64.2853 30.6031 64.272C30.6868 64.1597 30.7893 64.063 30.9063 63.986C31.0625 63.8626 31.2297 63.7454 31.3891 63.6298C31.5703 63.4735 31.7016 63.3438 31.7938 63.2517C31.9299 63.1094 32.0494 62.9522 32.15 62.7829C32.1907 62.7074 32.2247 62.6285 32.2516 62.547C32.2953 62.4298 32.3656 62.2345 32.4594 61.9688L32.6031 61.5563C32.6231 61.4806 32.6471 61.4061 32.675 61.3329C32.7063 61.2454 32.7453 61.2017 32.7938 61.2017C32.8234 61.2343 32.8439 61.2742 32.8531 61.3173Z" fill="#EFF1BF"/>
<path fill-rule="evenodd" clip-rule="evenodd" d="M30.543 61.4062C30.536 61.5601 30.5162 61.7133 30.4836 61.864C30.4445 62.078 30.4055 62.2655 30.3648 62.4265L30.2227 62.9874C30.143 63.2015 30.0789 63.3577 30.032 63.4562C29.973 63.5779 29.9073 63.6963 29.8352 63.8108C29.786 63.8915 29.7237 63.9633 29.6508 64.0233C29.5491 64.0954 29.4414 64.1587 29.3289 64.2124L28.9008 64.3843C28.8085 64.4127 28.7145 64.4356 28.6195 64.453C28.5275 64.4747 28.434 64.4899 28.3398 64.4983C28.3008 64.4983 28.2773 64.4858 28.2695 64.4577C28.2665 64.4408 28.267 64.4235 28.271 64.4068C28.2751 64.3901 28.2825 64.3745 28.293 64.3608C28.3766 64.2486 28.4792 64.1518 28.5961 64.0749C28.7586 63.953 28.9195 63.8343 29.0789 63.7186C29.2617 63.5624 29.3914 63.4327 29.4836 63.3405C29.6203 63.1984 29.7403 63.0411 29.8414 62.8718C29.8814 62.7961 29.9149 62.7172 29.9414 62.6358C29.9852 62.5187 30.0555 62.3233 30.1508 62.0577L30.293 61.6452C30.3086 61.5843 30.3336 61.5093 30.3648 61.4218C30.3961 61.3343 30.4367 61.2905 30.4836 61.2905C30.5136 61.3229 30.5342 61.3629 30.543 61.4062Z" fill="#EFF1BF"/>
<path fill-rule="evenodd" clip-rule="evenodd" d="M31.3631 58.8108C31.3783 58.8934 31.3719 58.9784 31.3443 59.0577C31.3109 59.1614 31.2669 59.2614 31.2131 59.3562C31.1509 59.4711 31.0683 59.5738 30.9693 59.6593C30.93 59.7078 30.8746 59.7405 30.8131 59.7515C30.7541 59.7289 30.7008 59.6937 30.6568 59.6483C30.5745 59.5796 30.4995 59.5202 30.4318 59.4702C30.3707 59.4264 30.3128 59.3784 30.2584 59.3265C30.2115 59.2812 30.1865 59.2437 30.1865 59.2124C30.2355 59.1145 30.2714 59.0379 30.2943 58.9827C30.3735 58.815 30.4329 58.6931 30.4725 58.6171C30.5443 58.5015 30.6162 58.3843 30.6865 58.2608C30.7037 58.239 30.7271 58.2046 30.7584 58.1577C30.7804 58.1793 30.8045 58.1987 30.8303 58.2155L30.9256 58.2733C31.0465 58.3606 31.158 58.46 31.2584 58.5702C31.3136 58.64 31.3497 58.7229 31.3631 58.8108Z" fill="#EFF1BF"/>
<path fill-rule="evenodd" clip-rule="evenodd" d="M29.6813 57.8295C29.6658 57.9216 29.6417 58.0121 29.6094 58.0998C29.5781 58.1873 29.5261 58.3092 29.4531 58.4654C29.3766 58.6217 29.3313 58.7123 29.3156 58.7357C29.2516 58.8264 29.1969 58.8732 29.1485 58.8732L29.0594 58.8092C29.0372 58.7924 29.0106 58.7827 28.9828 58.7811C28.8492 58.7922 28.7194 58.831 28.6016 58.8951C28.423 58.9858 28.2583 59.1015 28.1125 59.2389C27.9345 59.3853 27.7731 59.5509 27.6313 59.7326C27.5557 59.8173 27.502 59.9192 27.475 60.0295C27.4799 60.1021 27.5091 60.1709 27.5578 60.2248L27.7719 60.3279C27.8281 60.3514 27.8781 60.3701 27.9281 60.3857C27.9731 60.4021 28.0152 60.4253 28.0531 60.4545C28.1797 60.5373 28.2422 60.7061 28.2422 60.9576C28.2325 61.3606 28.1646 61.76 28.0406 62.1436C27.9218 62.5564 27.7411 62.9489 27.5047 63.3076C27.3854 63.4697 27.2543 63.6227 27.1125 63.7654C26.9661 63.9147 26.8018 64.0454 26.6235 64.1545C26.2782 64.3722 25.8768 64.4841 25.4688 64.4764C24.961 64.4764 24.5906 64.3201 24.361 63.9951C24.246 63.8428 24.1612 63.6699 24.111 63.4857C24.0646 63.3193 24.0404 63.1475 24.0391 62.9748C24.0385 62.7733 24.0547 62.5721 24.0875 62.3732C24.1208 62.1732 24.1683 61.9759 24.2297 61.7826C24.3319 61.4654 24.4551 61.1553 24.5985 60.8545C24.7422 60.5576 24.8573 60.317 24.9438 60.1326L25.2188 59.5717C25.25 59.5107 25.2844 59.4498 25.3203 59.3889C25.3563 59.3279 25.3844 59.2967 25.4094 59.2967C25.4641 59.2967 25.4922 59.3311 25.4922 59.3998C25.4941 59.4432 25.4861 59.4865 25.4688 59.5264C25.4203 59.6404 25.3828 59.7342 25.3547 59.8061C25.3266 59.8779 25.2703 60.0029 25.1828 60.1795C25.1344 60.2701 25.0641 60.4232 24.9688 60.6373C24.9203 60.7436 24.8735 60.8514 24.825 60.9576C24.5948 61.5389 24.4797 61.9743 24.4797 62.2639C24.4746 62.4034 24.5027 62.5422 24.5616 62.6687C24.6206 62.7953 24.7087 62.9061 24.8188 62.992C25.099 63.1875 25.4372 63.2822 25.7781 63.2607C26.1204 63.261 26.4582 63.1829 26.7656 63.0326C26.9874 62.9295 27.189 62.7877 27.361 62.6139C27.5014 62.4734 27.6237 62.316 27.725 62.1451C27.8 62.0286 27.8431 61.8944 27.85 61.7561C27.85 61.6873 27.7938 61.6357 27.6828 61.5998C27.5719 61.5639 27.4922 61.542 27.4453 61.5311C27.3876 61.5154 27.3316 61.4939 27.2781 61.467C27.171 61.4225 27.0769 61.3516 27.0047 61.2607C26.9357 61.1599 26.9022 61.039 26.9094 60.917C26.9276 60.6239 27.0047 60.3375 27.136 60.0748C27.2979 59.7141 27.5081 59.3772 27.761 59.0732C27.9479 58.8419 28.1504 58.6237 28.3672 58.4201C28.4625 58.3357 28.586 58.2389 28.7375 58.1279C28.8773 58.0235 29.0246 57.9295 29.1781 57.8467C29.3059 57.7663 29.4465 57.7081 29.5938 57.6748C29.6266 57.6912 29.6554 57.7147 29.6781 57.7436C29.6855 57.7566 29.6896 57.7712 29.6901 57.7861C29.6907 57.8011 29.6876 57.816 29.6813 57.8295Z" fill="#EFF1BF"/>
</g>
<defs>
<linearGradient id="paint0_linear_10416_68956" x1="-10.3406" y1="7.47187" x2="92.2703" y2="74.1062" gradientUnits="userSpaceOnUse">
<stop stop-color="#B6762A"/>
<stop offset="0.63" stop-color="#F1EF9A"/>
<stop offset="1" stop-color="#B6762A"/>
</linearGradient>
<clipPath id="clip0_10416_68956">
<rect width="80" height="80" fill="white"/>
</clipPath>
</defs>
</svg>
