<svg width="80" height="80" viewBox="0 0 80 80" fill="none" xmlns="http://www.w3.org/2000/svg">
<path d="M23.8601 10C27.1997 10 30.5387 10 33.8773 10C35.7835 11.4219 37.707 12.8219 39.696 14.1281C38.5101 12.7906 37.2257 11.5391 36.1382 10.1172C37.7679 10.1172 39.4085 9.96094 41.0335 10.1516C41.9366 10.7297 42.4132 11.7469 43.1413 12.5094C42.8851 11.7016 42.5663 10.9188 42.2632 10.1266C43.421 10.1047 44.5866 9.9875 45.7445 10.1266C46.2132 10.1453 46.321 10.6828 46.4788 11.0297C47.1898 12.9844 48.007 14.8969 48.7101 16.8563C46.5226 17.7203 44.7601 19.4078 43.457 21.3359C36.9226 17.5578 30.3038 13.9312 23.8601 10ZM10.0523 10.3469C12.4304 10.3469 14.807 10.3469 17.1835 10.3469C17.7172 10.3459 18.2429 10.4757 18.7148 10.725C26.8554 14.4594 35.0491 18.0797 43.1726 21.8516C42.0663 24.0703 41.8288 26.6172 42.0554 29.0578C31.357 31.8141 20.7226 34.8078 10.032 37.6016C10.021 35.0344 10.032 32.4641 10.032 29.8953C16.7773 29.0766 23.4866 27.9875 30.2413 27.2594C28.1757 26.8766 26.0663 26.9187 23.9804 26.7328C19.3523 26.4594 14.732 26.0766 10.0991 25.8984C9.95852 23.75 10.021 21.5937 10.0648 19.4437C15.6898 20.225 21.3257 20.9016 26.9507 21.6609C28.3818 21.8952 29.8245 22.0516 31.2726 22.1297C24.2413 20.1344 17.2101 18.0672 10.1788 16.0734C9.83508 14.1828 10.1007 12.2594 10.057 10.3531M47.6773 10.3547C48.7866 10.3422 49.8991 10.3344 51.0085 10.4047C51.1369 11.0852 51.3468 11.7478 51.6335 12.3781C51.601 11.7009 51.614 11.0223 51.6726 10.3469C52.6622 10.3396 53.6517 10.3318 54.6413 10.3234C54.6226 11.1562 54.5507 11.9844 54.532 12.8234C54.9632 12.0625 55.1398 11.1984 55.3695 10.3641C56.5382 10.3453 57.7132 10.35 58.8788 10.3516C58.221 12.4625 57.2976 14.4766 56.5835 16.5625C54.1519 15.8245 51.5545 15.8349 49.1288 16.5922C48.7023 14.4984 48.1273 12.4391 47.6726 10.3516M60.4038 10.3953C61.782 10.3141 63.1616 10.35 64.5445 10.35C63.4929 12.4016 62.0976 14.2469 61.0241 16.2875C62.9226 14.3641 64.6835 12.3094 66.5476 10.35C67.5773 10.35 68.6054 10.35 69.6351 10.3359C69.6835 11.2734 69.8429 12.2203 69.6351 13.1484C69.6148 13.3719 69.4101 13.4938 69.2648 13.6328C67.3054 15.2187 65.3335 16.7781 63.3616 18.3406C65.5695 17.5734 67.5148 16.2406 69.6882 15.3922C69.7148 16.8547 69.7163 18.3187 69.6882 19.7797C67.3585 20.5219 65.157 21.6547 62.7726 22.2156C61.5476 19.8438 59.5632 17.8281 57.0523 16.8453C57.9148 14.5703 59.3601 12.5875 60.3991 10.3984M63.0554 22.7422C65.2976 22.3438 67.4632 21.6187 69.7085 21.25C69.7179 22.2344 69.7059 23.2188 69.6726 24.2031C68.482 24.5156 67.2898 24.8281 66.1038 25.1578C67.2945 25.4703 68.5116 25.6594 69.7101 25.9391C69.7101 26.9219 69.7101 27.9031 69.6929 28.8891C68.8398 28.9281 67.9851 28.9562 67.1335 29.0172C67.9663 29.4578 68.8523 29.7766 69.7288 30.1312C69.6898 31.4406 69.721 32.7516 69.671 34.0609C67.4314 33.1443 65.1997 32.2099 62.9757 31.2578C64.0554 28.5563 64.0226 25.4766 63.0616 22.75M10.0616 42.125C20.8429 38.0203 31.5382 33.7219 42.2913 29.5578C42.9335 32.1156 44.5476 34.3703 46.6663 35.9156C41.3309 44.9594 35.9991 54.0052 30.671 63.0531C29.3726 65.2859 28.1038 67.5375 26.6913 69.7C23.8866 69.8562 21.0773 69.7688 18.271 69.7281C23.896 61.2688 29.8804 53.0453 35.4741 44.5719C31.0398 48.9469 26.6695 53.3844 22.2491 57.775C18.1648 61.8188 14.007 65.7891 10.0616 69.9625C10.0413 65.5563 9.95383 61.1469 10.0929 56.7422C10.6991 56.1172 11.4116 55.6297 12.0976 55.1047C17.634 50.7703 23.1705 46.4365 28.707 42.1031C29.6726 41.3469 30.6835 40.6375 31.5351 39.75C27.6288 41.8484 23.5898 43.7203 19.646 45.7625C16.457 47.3844 13.2663 49.0078 10.0445 50.5656C10.0304 47.7531 9.99446 44.9406 10.0632 42.1281M62.6898 31.875C65.0023 33.3062 67.3913 34.6156 69.6601 36.1172C69.7648 37.4484 69.7007 38.7844 69.6741 40.1172C68.2273 39.4922 66.8335 38.7516 65.4413 38.0141C66.746 40.0156 68.3632 41.8016 69.6304 43.8281C69.8101 45.525 69.6663 47.2406 69.6866 48.9438C67.3116 47.1625 65.3882 44.8625 63.0476 43.0391C65.096 46.9734 67.5554 50.6844 69.6101 54.6156C69.8179 59.1297 69.682 63.6578 69.6866 68.1797C69.7197 68.5791 69.643 68.98 69.4648 69.3391C65.021 58.7031 60.646 48.0391 56.1445 37.4266C57.3945 36.8141 58.7132 36.2812 59.7835 35.3703C60.9945 34.4328 61.857 33.1437 62.6898 31.8797M47.221 36.2656C49.6835 37.75 52.6898 38.1234 55.5023 37.6094C58.1585 48.3187 61.1976 58.925 63.8257 69.6406C61.6241 69.5453 59.4116 69.8219 57.2163 69.5359C55.9304 63.5469 54.6945 57.5453 53.4507 51.5469C53.246 50.5953 53.1007 49.6281 52.757 48.7156C52.7773 49.5703 52.8351 50.4344 52.7929 51.2875C52.6835 53.3812 52.7366 55.4797 52.6929 57.575C52.6398 61.5797 52.5476 65.5813 52.5366 69.5859C50.2804 69.6453 48.021 69.7109 45.7648 69.5859C46.1538 62.9156 46.7507 56.2625 47.171 49.5953L47.3866 49.5141L47.1866 49.4375C45.082 56.1 43.3366 62.875 41.3741 69.5719C38.6538 69.7281 35.9288 69.6281 33.2054 69.6297C34.246 66.8594 35.4116 64.1375 36.5757 61.4172C40.1538 53.0438 43.5788 44.6078 47.221 36.2609V36.2656Z" fill="#F29200"/>
</svg>
