<svg width="80" height="80" viewBox="0 0 80 80" fill="none" xmlns="http://www.w3.org/2000/svg">
<path d="M44.5766 14.5436C46.4516 13.9186 48.3141 13.0201 50.3266 13.0076C50.7953 12.9264 50.7844 13.5139 50.9063 13.8029C51.4844 15.9639 52.3047 18.0576 52.7813 20.2483C52.625 20.6873 52.0609 20.5608 51.7063 20.6608C47.3047 21.1536 43.0383 22.4849 39.1375 24.5826C34.8063 27.0217 31.125 30.8326 29.3609 35.5358C27.9938 38.642 27.5594 42.0811 27.6422 45.4498C27.5344 48.7608 28.4516 51.9998 29.6266 55.0639C27.6234 51.4342 26.3906 47.4076 25.8219 43.3108C25.7156 40.4811 25.5656 37.5936 26.3156 34.8326C26.9406 31.5295 28.4516 28.4576 30.3781 25.7264C33.9719 20.8029 38.9719 16.9233 44.5797 14.5436M43.7734 28.2061C44.8109 28.0748 45.8125 28.4498 46.8234 28.6186C53.6156 29.9358 59.9984 33.8842 63.7375 39.7701C67.4922 45.8123 68.8984 53.1686 68.1797 60.2092C67.9656 62.6358 67.2578 64.9842 66.525 67.2951C66.4266 67.7967 65.8172 67.5889 65.475 67.5576C63.1313 67.0217 60.8313 66.3076 58.5047 65.6826C60.5984 61.3748 62.1156 56.6889 62.2547 51.867C62.3297 49.042 62.0984 46.1576 61.075 43.4983C59.2328 38.017 54.9391 33.6764 50.0516 30.7576C48.875 30.1998 47.6906 29.6483 46.4813 29.1623C45.5938 28.7904 44.5922 28.7311 43.7719 28.1998M40.7734 35.0311C43.5625 34.4561 46.6766 34.842 48.9875 36.6029C51.8 38.5545 53.3219 42.0717 53.1125 45.4545C52.85 47.2014 52.4328 49.0076 51.3406 50.442C49.4156 53.0983 46.1625 54.9358 42.8219 54.6748C37.9625 54.7451 33.5203 50.5717 33.1984 45.7373C33.0328 44.1943 33.229 42.6339 33.7715 41.1799C34.3139 39.7259 35.1877 38.4183 36.3234 37.3608C37.6109 36.267 39.1141 35.3826 40.7781 35.0311M41.325 35.6561C38.7016 36.2326 36.2547 37.8998 35.0344 40.3311C34.2406 41.9045 33.7266 43.6795 33.8922 45.4529C34.1875 47.6404 35.0531 49.7983 36.6938 51.3154C39.2078 53.8467 43.3234 54.7201 46.6016 53.2514C48.8844 52.4264 50.675 50.5248 51.6188 48.3139C53.6328 44.0373 51.5125 38.4248 47.2281 36.4733C45.4197 35.5091 43.3273 35.2194 41.325 35.6561ZM12.5406 52.4123C13.8734 51.1529 14.9781 49.6779 16.3047 48.4123C17.4516 49.6779 18.4297 51.0873 19.6453 52.292C23.5188 56.5404 28.5516 59.9795 34.2781 61.0592C40.6125 62.2654 47.1875 60.2529 52.3797 56.6045C54.4438 55.1483 56.0625 53.1951 57.7656 51.3561C56.1625 54.0936 53.9859 56.4373 51.7016 58.6123C47.784 62.267 42.7965 64.5674 37.4734 65.1748C34.9453 65.1998 32.375 65.4092 29.8891 64.8404C27.7672 64.4358 25.6594 63.9186 23.6625 63.0733C19.6281 61.6904 15.9672 59.3154 12.9063 56.3545C12.2219 55.7186 11.5297 55.0748 11 54.3014C11.3219 53.542 12.0125 53.0217 12.5406 52.4139" fill="#940509"/>
<path d="M41.3222 35.6641C43.3246 35.2275 45.417 35.5171 47.2254 36.4813C51.5097 38.4329 53.6316 44.0454 51.616 48.322C50.6785 50.5329 48.8816 52.4345 46.5988 53.2595C43.3176 54.7282 39.2051 53.8548 36.691 51.3235C35.0504 49.8063 34.191 47.6438 33.8894 45.461C33.7238 43.6876 34.2379 41.9126 35.0316 40.3391C36.2519 37.9079 38.6988 36.2407 41.3222 35.6641Z" fill="#FECB05"/>
</svg>
