<svg width="80" height="80" viewBox="0 0 80 80" fill="none" xmlns="http://www.w3.org/2000/svg">
<path d="M37.6655 9.78369C38.2608 9.33213 38.9827 8.9665 39.7499 9.00244C40.1193 9.01311 40.4827 9.09913 40.8178 9.25523C41.1528 9.41134 41.4525 9.63423 41.6983 9.91025C42.5686 10.8134 43.5061 11.6462 44.378 12.5478C45.0749 13.1399 45.6702 13.8337 46.3499 14.4431C46.4582 14.5494 46.559 14.6632 46.6514 14.7837C44.8358 14.8587 43.0139 14.7837 41.1952 14.8243C40.6419 14.8639 40.0871 14.8754 39.5327 14.8587L30.9389 23.4524C30.1749 24.2024 29.4452 24.9853 28.6483 25.7009C27.0858 27.2634 25.5233 28.8353 23.9483 30.3962C23.9483 28.0071 23.9483 25.6181 23.9483 23.229C24.9952 22.2415 25.9795 21.1978 27.0124 20.1946C27.9311 19.3774 28.7311 18.4415 29.6686 17.6353C30.7483 16.5259 31.8952 15.4853 32.9733 14.3728C34.0124 13.4446 34.9545 12.4134 35.9608 11.4493C36.5608 10.929 37.0827 10.3259 37.6686 9.7915M16.4186 16.9431C17.242 16.9431 18.0639 16.9337 18.8842 16.9431C19.6217 17.0181 20.3639 16.9743 21.103 16.9853C22.9077 16.9853 24.7108 16.9712 26.5155 16.9978C25.967 17.6993 25.2655 18.2478 24.6405 18.8868C23.6264 19.9243 22.542 20.8868 21.5327 21.9337C21.5139 23.7306 21.5827 25.5274 21.4842 27.3243C21.4842 30.2868 21.4842 33.2483 21.4842 36.2087C21.4702 37.1118 21.5217 38.0149 21.4389 38.9149C21.4311 40.5321 21.4389 42.1509 21.4389 43.7681C19.7202 42.0649 18.0249 40.3524 16.3155 38.6478C16.3358 37.2837 16.2702 35.9196 16.3639 34.5603V25.9665C16.3811 24.9071 16.3233 23.8446 16.4108 22.7868C16.4108 20.8368 16.4108 18.8806 16.4108 16.9353M39.7874 18.2681C40.192 17.8774 40.5811 17.4728 40.9827 17.0774C48.3337 17.0774 55.6853 17.0774 63.0374 17.0774C63.0374 20.4014 63.0374 23.7243 63.0374 27.0462C62.0108 26.1353 61.0858 25.1165 60.0983 24.1649C59.3717 23.5399 58.7233 22.8212 58.0342 22.1509H41.2999C39.4889 22.1368 37.678 22.1774 35.8686 22.1306C36.3686 21.5556 36.9342 21.0368 37.4655 20.4978C38.2811 19.7993 38.978 18.9743 39.7874 18.2665M49.6577 24.4321C52.0655 24.4071 54.4749 24.4321 56.8827 24.4212C57.6842 25.2556 58.5499 26.0196 59.3545 26.8478C59.9795 27.4556 60.5624 28.0978 61.2186 28.6618C62.5728 30.016 63.9269 31.3702 65.2811 32.7243C66.4186 33.7728 67.4811 34.9009 68.5889 35.9806C69.228 36.529 69.7905 37.1603 70.403 37.7384C71.1249 38.5024 71.5499 39.6509 71.1842 40.679C70.928 41.4415 70.2811 41.9587 69.7045 42.479C68.2717 43.9056 66.8467 45.3399 65.4139 46.7649C65.4139 45.0462 65.4139 43.3384 65.4139 41.6259C65.3499 40.9915 65.3733 40.354 65.367 39.7181C64.6983 39.1556 64.1452 38.4681 63.4733 37.9134C62.5483 36.9759 61.5702 36.0821 60.6483 35.1384C59.9514 34.5509 59.3608 33.8509 58.6764 33.2509C58.2077 32.8149 57.778 32.3431 57.3124 31.904C56.6155 31.3149 56.028 30.6103 55.3358 30.0165C54.4311 29.079 53.4608 28.2228 52.5545 27.2915C51.8295 26.6665 51.2108 25.9274 50.4811 25.3071C50.1787 25.0431 49.9029 24.75 49.6577 24.4321ZM37.9702 26.7056C41.6358 26.2556 45.4795 27.3165 48.3452 29.6587C51.0311 31.8056 52.8624 35.0243 53.203 38.4587C53.6311 42.1399 52.3155 45.9446 49.7936 48.6462C47.3147 51.3109 43.8805 52.8842 40.2436 53.0212C39.5999 53.0056 38.953 53.0509 38.3124 52.9774C36.0283 52.7657 33.8324 51.9905 31.9217 50.7212C29.2155 48.9009 27.1467 46.0946 26.3874 42.9087C26.0108 41.4853 25.9624 39.9962 26.0749 38.5337C26.4233 34.8837 28.4389 31.4571 31.3999 29.3149C33.3252 27.8941 35.5865 26.9977 37.9624 26.7134M8.7483 38.0649C10.467 36.3571 12.1686 34.6274 13.892 32.9337C13.9264 34.7056 13.892 36.479 13.9092 38.2462C13.9533 38.8148 13.9684 39.3854 13.9545 39.9556C14.6889 40.7103 15.4827 41.4071 16.2124 42.1681C16.7983 42.6743 17.3249 43.2415 17.8811 43.7806C18.5702 44.379 19.1639 45.0806 19.8624 45.6728C20.703 46.5384 21.6045 47.3431 22.4452 48.2071C23.053 48.7243 23.5874 49.3212 24.1639 49.8681C24.6983 50.3368 25.167 50.8634 25.6827 51.3462C26.3077 51.8681 26.8327 52.5009 27.4467 53.0353C27.9061 53.454 28.3217 53.9181 28.7764 54.3431C29.0854 54.5943 29.3714 54.8725 29.6311 55.1743L29.5967 55.2868C27.2249 55.3103 24.853 55.2868 22.4811 55.2978C22.178 54.9978 21.8795 54.6899 21.5561 54.4103C20.7749 53.6759 20.0624 52.8728 19.2545 52.1712C18.1889 51.1103 17.1295 50.0431 16.0655 48.9821C14.5389 47.5759 13.153 46.029 11.6186 44.6353C10.8749 43.8946 10.1483 43.1353 9.37017 42.4306C8.78111 41.8978 8.27642 41.2368 8.07017 40.4603C7.96849 40.0363 7.97745 39.5934 8.09619 39.174C8.21494 38.7545 8.43949 38.3726 8.7483 38.0649ZM57.4795 35.6181C58.7874 36.9415 60.167 38.1915 61.4749 39.5149C61.8702 39.8915 62.3139 40.229 62.6452 40.6649C62.7514 40.9774 62.6811 41.3103 62.6999 41.629C62.7155 42.629 62.6577 43.6321 62.7436 44.629C62.7561 45.5915 62.7436 46.5556 62.7436 47.5196C62.8389 48.7431 62.767 49.9696 62.7936 51.1946C62.8858 52.3837 62.8155 53.5774 62.8405 54.7696C62.9374 55.9587 62.8639 57.1524 62.8905 58.3431C62.9983 59.679 62.8827 61.0196 62.9624 62.3571C62.3374 62.3571 61.7233 62.3571 61.1045 62.3571C59.8155 62.4556 58.5186 62.3759 57.228 62.4118C55.8108 62.5321 54.3827 62.3649 52.967 62.5103C52.9483 62.4759 52.9077 62.4087 52.8874 62.3743C53.9717 61.2806 55.0905 60.2149 56.1374 59.0837C56.6811 58.542 57.2243 57.9988 57.767 57.454C57.7798 56.9807 57.7668 56.5071 57.728 56.0353C57.6858 54.7774 57.7702 53.5181 57.6702 52.2634C57.6702 51.3259 57.6702 50.3978 57.6702 49.4634C57.5764 48.2415 57.6467 47.0134 57.6186 45.7884C57.5014 44.404 57.6467 43.0118 57.5295 41.6274C57.517 40.6321 57.5295 39.6353 57.5295 38.6368C57.442 37.6337 57.4999 36.6259 57.4811 35.6212M51.6217 53.0118C52.8452 51.6993 54.1436 50.4603 55.4045 49.1853C55.417 50.0759 55.3655 50.9696 55.4483 51.8587C55.4592 53.3478 55.4483 54.8399 55.4483 56.329L51.8108 59.9665C50.853 60.9415 49.8405 61.8571 48.892 62.8415C48.153 63.6228 47.3374 64.3103 46.5967 65.0837C45.4499 66.2243 44.3217 67.3853 43.1436 68.4915C42.4702 69.104 41.928 69.8884 41.0905 70.2931C40.3436 70.6728 39.4108 70.7493 38.6545 70.354C38.2342 70.1884 37.9499 69.8259 37.6092 69.5462C36.6467 68.6087 35.6905 67.6712 34.7092 66.7571C34.0967 66.1134 33.4108 65.5478 32.8124 64.8915C35.1561 64.7353 37.517 64.8649 39.8655 64.7618C43.7832 60.8441 47.7004 56.9274 51.617 53.0118M16.0795 52.1274C16.6545 52.6899 17.203 53.2806 17.8077 53.8118C18.916 54.9149 20.0223 56.0201 21.1264 57.1274C26.5608 57.1274 31.9947 57.1274 37.428 57.1274C38.0389 57.1274 38.6514 57.1024 39.2592 57.1681C40.5952 57.1978 41.9327 57.1415 43.2686 57.1962C42.5686 57.9524 41.7952 58.6321 41.0686 59.3618C40.5686 59.8962 39.992 60.3509 39.492 60.8868C39.0608 61.3478 38.5717 61.7446 38.1342 62.1993C35.1301 62.1993 32.1264 62.1993 29.1233 62.1993C28.7999 62.1993 28.4811 62.1462 28.1592 62.1478C24.1332 62.1478 20.1072 62.1478 16.0811 62.1478C16.0811 58.805 16.0811 55.4629 16.0811 52.1212" fill="#2F3394"/>
</svg>
