<svg width="80" height="80" viewBox="0 0 80 80" fill="none" xmlns="http://www.w3.org/2000/svg">
<path d="M24.25 28.5969C29.5 23.4266 34.6734 18.1703 39.9328 13C41.9359 14.9141 43.8594 16.9063 45.8328 18.8547C47.0438 17.8953 48.2 16.8234 49.6813 16.2844C49.6734 18.3156 49.25 20.4625 50.0766 22.4047C50.6313 23.7984 51.7953 24.7891 52.8297 25.825C57.4641 30.5 62.1516 35.1234 66.775 39.8078C64.875 41.9172 62.6875 43.7625 60.8297 45.9109C61.9234 46.9781 62.9094 48.1922 63.4078 49.6609C60.7125 49.4328 57.5734 49.1375 55.4641 51.2125C50.2391 56.3375 45.1031 61.5531 39.9016 66.7031C37.8844 64.7781 35.8391 62.8609 34.0016 60.7656C38.8656 55.7469 43.8453 50.8375 48.7656 45.875C49.7389 44.8756 50.9531 44.1436 52.2913 43.7495C53.6295 43.3554 55.0467 43.3126 56.4062 43.625C57.8125 43.8734 59.0188 44.6641 60.2625 45.3187C55.4906 40.3187 50.4594 35.5672 45.6266 30.6312C43.8078 28.7062 43.1 25.8844 43.6703 23.3125C43.9125 22.0531 44.5797 20.9484 45.1 19.7922C40.3531 24.4734 35.6891 29.2328 30.9688 33.9375C29.5297 35.3891 27.5188 36.2906 25.4641 36.2812C21.5125 36.4187 17.8266 33.6688 16.3734 30.0719C19.0297 30.3016 22.1547 30.6297 24.25 28.5984M13 39.8047C14.9891 37.8766 16.9063 35.8703 18.9063 33.9562C23.9531 38.8844 28.9062 43.9 33.9219 48.8641C36.025 50.8844 36.7813 54.0859 35.9859 56.8703C35.2047 59.8516 32.8984 62.2547 30.0969 63.4594C30.1937 60.8031 30.6547 57.6781 28.5969 55.5828C24.5 51.4078 20.3156 47.3187 16.2219 43.1437C15.1547 42.0203 13.9531 41.0266 13 39.8047Z" fill="#00A652"/>
<path d="M37.9706 31.358C40.3221 30.9205 42.8721 31.3705 44.8112 32.8096C47.7081 34.8268 49.0643 38.7549 48.1018 42.1424C47.0299 46.0799 42.9659 48.9736 38.8721 48.4346C34.6909 48.1033 31.1456 44.3236 31.1065 40.1252C30.8799 36.0346 33.9502 32.1252 37.9706 31.358Z" fill="#F7941F"/>
</svg>
