<svg width="80" height="80" viewBox="0 0 80 80" fill="none" xmlns="http://www.w3.org/2000/svg">
<path d="M30.4183 13.3981C38.6026 11.9075 47.3995 14.6778 53.3698 20.4497C49.2056 25.2866 45.7675 30.7038 43.1636 36.5309C42.6448 37.6809 42.2667 38.8919 41.6323 39.9856C39.7932 36.4856 37.3761 33.1903 34.0667 30.9481C31.4826 29.139 28.4393 28.0979 25.2886 27.945C24.8354 27.9294 24.4011 28.0575 23.9651 28.1512C24.5901 29.4278 25.3917 30.6075 25.8901 31.9434C27.3323 35.6575 27.9714 39.6137 29.0979 43.4247C30.1354 47.07 31.6214 50.6419 33.9073 53.6903C35.8535 56.2694 38.2511 58.4743 40.9839 60.1981C41.3745 60.4512 42.0886 60.8559 42.3245 60.1981C42.637 58.6997 42.6839 57.1512 43.0151 55.6497C44.6917 47.0216 48.3761 38.8231 53.4526 31.6669C57.6292 25.8856 62.8839 20.6512 69.3901 17.5669C70.0808 17.2731 70.7636 16.8309 71.5448 16.8747C71.5526 17.7466 70.8792 18.4231 70.5745 19.2028C68.5917 23.5075 67.5807 28.1637 66.412 32.7341C64.9104 38.6716 63.537 44.6997 60.8714 50.245C58.0854 56.0841 53.3339 60.9872 47.4901 63.795C41.7229 66.595 34.9886 67.4606 28.7386 65.9966C22.6854 64.6153 17.1964 61.0137 13.4495 56.0731C10.6594 52.3926 8.86654 48.0542 8.24449 43.4778C7.62243 38.9013 8.19222 34.2418 9.89872 29.9501C11.6052 25.6584 14.3906 21.8799 17.9854 18.9802C21.5802 16.0804 25.8626 14.1577 30.4183 13.3981Z" fill="#289925"/>
</svg>
