<svg width="80" height="80" viewBox="0 0 80 80" fill="none" xmlns="http://www.w3.org/2000/svg">
<path fill-rule="evenodd" clip-rule="evenodd" d="M37.9893 11.5139L25.0128 19.1701C21.6674 20.5357 22.3565 24.2232 22.3565 24.2232L22.2987 52.0889L29.2471 48.1248C25.6284 34.4654 37.9862 32.1436 37.9862 32.1436V21.2123C38.1924 17.7982 40.6424 19.9154 40.6424 19.9154L57.8206 29.7498L57.7268 24.4217C57.8221 19.9826 55.2003 19.2998 55.2003 19.2998L42.0174 11.5139C41.451 11.0699 40.7543 10.8245 40.0346 10.8154C39.297 10.8283 38.5821 11.0727 37.9909 11.5139H37.9893Z" fill="url(#paint0_radial_10416_69048)"/>
<path d="M21.4621 53.5109L21.5215 24.2922C21.2683 22.7672 21.609 19.7 24.6465 18.425L37.5277 10.825C38.2429 10.2894 39.1123 10 40.0058 10C40.8993 10 41.7688 10.2894 42.484 10.825L55.548 18.5422C56.173 18.7656 58.6527 19.9406 58.5574 24.4391L58.6777 31.1953L40.1136 20.5438C39.7871 20.2688 39.2918 20.0406 39.1371 20.1031C39.1371 20.1031 38.8777 20.2594 38.8246 21.2625V32.825L38.1511 32.9531C38.1043 32.9625 33.384 33.9063 30.9246 37.8172C29.2715 40.4484 28.9808 43.8438 30.0574 47.9078L30.2215 48.525L21.4621 53.5109ZM40.0058 11.6578C39.4596 11.6568 38.9285 11.8377 38.4965 12.1719L38.4121 12.2281L25.3261 19.9313C22.6355 21.025 23.1386 23.9438 23.1652 24.0672L23.1793 24.2234L23.1246 50.6594L28.2933 47.7172C27.2824 43.4516 27.6965 39.8234 29.5261 36.925C31.8105 33.3078 35.6199 31.925 37.1621 31.4938V21.2141C37.2465 19.7844 37.6933 18.9141 38.4918 18.5766C39.6043 18.1078 40.8074 18.975 41.1277 19.2313L56.9683 28.3063L56.8996 24.4375C56.9777 20.7438 55.0605 20.1234 54.9793 20.0984L54.7808 20.0141L41.5152 12.1719C41.083 11.8379 40.552 11.657 40.0058 11.6578Z" fill="#A30C00"/>
<path fill-rule="evenodd" clip-rule="evenodd" d="M41.542 24.3999L65.917 38.5124C65.917 38.5124 69.4873 39.7858 69.0186 43.3562L69.2826 58.3796C69.3865 59.0977 69.2459 59.8299 68.8835 60.4584C68.521 61.087 67.9577 61.5754 67.2842 61.8452L53.9311 69.2546C53.9311 69.2546 52.0326 71.1655 48.192 68.8437L43.4764 66.2358L60.5998 56.4296C60.5998 56.4296 63.6732 55.3827 60.7889 53.4827L51.2201 47.9687C51.2201 47.9687 55.3154 36.1624 41.5607 32.3827L41.542 24.3999Z" fill="#C61234"/>
<path d="M51.7082 70.8232C50.6707 70.8232 49.352 70.5107 47.7598 69.5514L41.7895 66.2498L60.3363 55.6451C60.7707 55.4889 61.1816 55.1764 61.1988 55.042C61.1988 54.9842 61.0801 54.667 60.3363 54.1764L50.2191 48.3467L50.441 47.6998C50.4566 47.6545 51.952 43.1686 49.8004 39.1061C48.3238 36.3154 45.4801 34.3232 41.3457 33.1873L40.7379 33.0201L40.7129 22.9639L66.2691 37.7639C67.727 38.3139 70.2395 40.1514 69.8457 43.4029L70.1082 58.3186C70.2264 59.2037 70.0487 60.1031 69.6028 60.8768C69.1569 61.6505 68.4677 62.2552 67.6426 62.5967L54.4098 69.9404C54.1051 70.1873 53.1957 70.8232 51.7082 70.8232ZM45.166 66.2232L48.5895 68.1154C51.7926 70.0529 53.2879 68.717 53.3488 68.6576L53.5254 68.5279L66.9723 61.0748C67.4739 60.8749 67.8934 60.5117 68.163 60.0438C68.4327 59.576 68.5367 59.0309 68.4582 58.4967L68.4488 58.392L68.1832 43.3061L68.1926 43.2451C68.566 40.3998 65.7504 39.3389 65.6301 39.292L65.4973 39.2295L42.3723 25.8389L42.3863 31.7592C46.6629 33.0529 49.6488 35.267 51.2691 38.3451C53.2504 42.1107 52.5816 46.0373 52.1941 47.5732L61.1988 52.7654C62.4098 53.5607 62.9473 54.3873 62.8363 55.2514C62.6801 56.4451 61.3301 57.0389 60.9488 57.1826L45.166 66.2232Z" fill="#A30C00"/>
<path fill-rule="evenodd" clip-rule="evenodd" d="M56.1909 55.0235L31.6691 68.8735C31.6691 68.8735 28.7628 71.3032 25.9222 69.0954L12.8409 61.7048C12.1698 61.4305 11.6103 60.9386 11.2524 60.3081C10.8945 59.6776 10.759 58.9451 10.8675 58.2282L11.2519 42.9688C11.2519 42.9688 10.5675 40.3642 14.5144 38.2313L19.1503 35.4907L18.9206 55.2267C18.9206 55.2267 18.2628 58.4048 21.3644 56.8782L30.9691 51.4282C30.9691 51.4282 39.0675 60.9438 49.3003 51.0048L56.1909 55.0235Z" fill="#C61234"/>
<path d="M28.5187 70.8454C27.4105 70.8437 26.3346 70.4714 25.4625 69.7876L12.4765 62.4517C11.6539 62.1046 10.969 61.4954 10.5282 60.719C10.0874 59.9425 9.91541 59.0422 10.039 58.1579L10.4203 43.0298C10.3109 42.3735 10.1328 39.6501 14.1203 37.4954L19.9968 34.022L19.7312 55.3876C19.6421 55.8376 19.7046 56.3485 19.8156 56.4345C19.8593 56.4704 20.1968 56.5235 20.9968 56.122L31.1531 50.3579L31.6 50.8767C31.6296 50.9126 34.7328 54.4704 39.3328 54.6829C42.4937 54.8204 45.6468 53.3845 48.7234 50.397L49.175 49.9595L57.8546 55.0282L32.139 69.5595C31.1038 70.3697 29.8331 70.821 28.5187 70.8454ZM18.3046 36.947L14.9359 38.9376C11.6453 40.7173 12.039 42.6876 12.0562 42.7673L12.0796 42.9829L11.6859 58.3517C11.6041 58.8851 11.7046 59.4305 11.9711 59.8997C12.2376 60.369 12.6546 60.7347 13.1546 60.9376L13.2484 60.9829L26.4312 68.4376C28.6953 70.1985 31.0406 68.3142 31.1406 68.2329L31.2609 68.1485L54.5281 55.0079L49.4187 52.0313C46.1375 55.061 42.7 56.5063 39.2375 56.347C34.9875 56.1454 31.9421 53.5782 30.814 52.4657L21.7734 57.5923C20.475 58.2345 19.4875 58.2767 18.8046 57.7485C17.8531 57.0126 18.0234 55.5454 18.0968 55.1423L18.3046 36.947Z" fill="#A30C00"/>
<mask id="mask0_10416_69048" style="mask-type:luminance" maskUnits="userSpaceOnUse" x="31" y="35" width="18" height="18">
<path d="M31.6641 43.8877C31.6641 46.0923 32.5398 48.2066 34.0987 49.7655C35.6576 51.3244 37.7719 52.2002 39.9766 52.2002C42.1812 52.2002 44.2955 51.3244 45.8544 49.7655C47.4133 48.2066 48.2891 46.0923 48.2891 43.8877C48.2891 41.6831 47.4133 39.5688 45.8544 38.0099C44.2955 36.451 42.1812 35.5752 39.9766 35.5752C37.7719 35.5752 35.6576 36.451 34.0987 38.0099C32.5398 39.5688 31.6641 41.6831 31.6641 43.8877Z" fill="white"/>
</mask>
<g mask="url(#mask0_10416_69048)">
<path d="M45.9844 52.2002L48.2891 49.9736V52.2002H45.9844Z" fill="#F8D790"/>
<path d="M45.583 52.2001L48.2893 49.5845V49.9735L45.9846 52.2001H45.583Z" fill="#F8D790"/>
<path d="M45.1797 52.2005L48.2891 49.1958V49.5849L45.5828 52.2005H45.1797Z" fill="#F8D78F"/>
<path d="M44.7764 52.2004L48.2889 48.8066V49.1957L45.1795 52.2004H44.7764Z" fill="#F8D78E"/>
<path d="M44.373 52.2003L48.2887 48.4175V48.8065L44.7762 52.2003H44.373Z" fill="#F8D78D"/>
<path d="M43.9707 52.2002L48.2895 48.0283V48.4174L44.3738 52.2002H43.9707Z" fill="#F8D78C"/>
<path d="M43.5684 52.2001L48.2887 47.6392V48.0282L43.9699 52.2001H43.5684Z" fill="#F8D68B"/>
<path d="M43.166 52.2005L48.2895 47.2505V47.6396L43.5691 52.2005H43.166Z" fill="#F8D68A"/>
<path d="M42.7627 52.2004L48.2893 46.8613V47.2504L43.1658 52.2004H42.7627Z" fill="#F8D689"/>
<path d="M42.3594 52.2003L48.2891 46.4722V46.8612L42.7625 52.2003H42.3594Z" fill="#F8D688"/>
<path d="M41.958 52.2002L48.2893 46.083V46.4721L42.3596 52.2002H41.958Z" fill="#F8D687"/>
<path d="M41.5547 52.2001L48.2891 45.6938V46.0829L41.9578 52.2001H41.5547Z" fill="#F8D686"/>
<path d="M41.1514 52.2001L48.2889 45.3032V45.6938L41.5545 52.2001H41.1514Z" fill="#F8D685"/>
<path d="M40.748 52.2004L48.2887 44.916V45.3035L41.1512 52.2004H40.748Z" fill="#F8D684"/>
<path d="M40.3457 52.2004L48.2895 44.5254V44.916L40.7488 52.2004H40.3457Z" fill="#F8D683"/>
<path d="M39.9434 52.2003L48.2887 44.1362V44.5253L40.3449 52.2003H39.9434Z" fill="#F8D582"/>
<path d="M39.541 52.2002L48.2895 43.7471V44.1361L39.9441 52.2002H39.541Z" fill="#F8D581"/>
<path d="M39.1377 52.2001L48.2893 43.3579V43.747L39.5408 52.2001H39.1377Z" fill="#F8D580"/>
<path d="M38.7363 52.2005L48.2895 42.9692V43.3583L39.1379 52.2005H38.7363Z" fill="#F8D57F"/>
<path d="M38.333 52.2004L48.2893 42.5801V42.9691L38.7361 52.2004H38.333Z" fill="#F8D57E"/>
<path d="M37.9297 52.2003L48.2891 42.1909V42.58L38.3328 52.2003H37.9297Z" fill="#F8D57C"/>
<path d="M37.5264 52.2002L48.2889 41.8018V42.1908L37.9295 52.2002H37.5264Z" fill="#F8D57B"/>
<path d="M37.123 52.2001L48.2887 41.4126V41.8017L37.5262 52.2001H37.123Z" fill="#F8D57A"/>
<path d="M36.7217 52.2005L48.2889 41.0239V41.413L37.1232 52.2005H36.7217Z" fill="#F8D579"/>
<path d="M36.3184 52.2004L48.2887 40.6348V41.0238L36.7215 52.2004H36.3184Z" fill="#F8D578"/>
<path d="M35.916 52.2003L48.2895 40.2456V40.6347L36.3191 52.2003H35.916Z" fill="#F8D477"/>
<path d="M35.5127 52.2002L48.2893 39.8564V40.2455L35.9158 52.2002H35.5127Z" fill="#F8D476"/>
<path d="M35.1094 52.2001L48.2891 39.4673V39.8563L35.5125 52.2001H35.1094Z" fill="#F8D475"/>
<path d="M34.708 52.2005L48.2893 39.0786V39.4677L35.1096 52.2005H34.708Z" fill="#F8D474"/>
<path d="M34.3047 52.2004L48.2891 38.6895V39.0785L34.7078 52.2004H34.3047Z" fill="#F8D473"/>
<path d="M33.9014 52.2003L48.2889 38.3003V38.6894L34.3045 52.2003H33.9014Z" fill="#F8D472"/>
<path d="M33.498 52.2002L48.2887 37.9111V38.3002L33.9012 52.2002H33.498Z" fill="#F8D471"/>
<path d="M33.0967 52.2002L48.2889 37.5205V37.9111L33.4982 52.2002H33.0967Z" fill="#F8D470"/>
<path d="M32.6934 52.2001L48.2887 37.1313V37.5204L33.0965 52.2001H32.6934Z" fill="#F8D46F"/>
<path d="M32.291 52.2005L48.2895 36.7427V37.1317L32.6941 52.2005H32.291Z" fill="#F8D36E"/>
<path d="M31.8877 52.2004L48.2893 36.3535V36.7426L32.2908 52.2004H31.8877Z" fill="#F8D36D"/>
<path d="M31.6641 52.0284L48.2891 35.9644V36.3534L31.8875 52.2003H31.6641V52.0284Z" fill="#F8D36C"/>
<path d="M31.6641 51.6393L48.2891 35.5752V35.9643L31.6641 52.0283V51.6393Z" fill="#F8D36B"/>
<path d="M31.6641 51.2503L47.8875 35.5737H48.2891V35.5753L31.6641 51.6394V51.2503Z" fill="#F8D36A"/>
<path d="M31.6641 50.6925L47.3109 35.5737H47.8875L31.6641 51.2503V50.6925Z" fill="#F8D36A"/>
<path d="M31.6641 50.1347L46.7344 35.5737H47.3109L31.6641 50.6925V50.1347Z" fill="#F8D369"/>
<path d="M31.6641 49.5769L46.1578 35.5737H46.7344L31.6641 50.1347V49.5769Z" fill="#F8D368"/>
<path d="M31.6641 49.0206L45.5797 35.5737H46.1578L31.6641 49.5769V49.0206Z" fill="#F8D367"/>
<path d="M31.6641 48.4628L45.0031 35.5737H45.5797L31.6641 49.0206V48.4628Z" fill="#F8D366"/>
<path d="M31.6641 47.905L44.4266 35.5737H45.0031L31.6641 48.4628V47.905Z" fill="#F8D365"/>
<path d="M31.6641 47.3472L43.85 35.5737H44.4266L31.6641 47.905V47.3472Z" fill="#F8D364"/>
<path d="M31.6641 46.7909L43.2734 35.5737H43.85L31.6641 47.3472V46.7909Z" fill="#F8D363"/>
<path d="M31.6641 46.2331L42.6953 35.5737H43.2734L31.6641 46.7909V46.2331Z" fill="#F8D362"/>
<path d="M31.6641 45.6753L42.1187 35.5737H42.6953L31.6641 46.2331V45.6753Z" fill="#F8D261"/>
<path d="M31.6641 45.1175L41.5422 35.5737H42.1187L31.6641 45.6753V45.1175Z" fill="#F8D260"/>
<path d="M31.6641 44.5612L40.9656 35.5737H41.5422L31.6641 45.1175V44.5612Z" fill="#F8D25F"/>
<path d="M31.6641 44.0034L40.3875 35.5737H40.9656L31.6641 44.5612V44.0034Z" fill="#F8D25E"/>
<path d="M31.6641 43.4456L39.8109 35.5737H40.3875L31.6641 44.0034V43.4456Z" fill="#F8D25D"/>
<path d="M31.6641 42.8894L39.2344 35.5737H39.8109L31.6641 43.4456V42.8894Z" fill="#F8D25C"/>
<path d="M31.6641 42.3315L38.6578 35.5737H39.2344L31.6641 42.8894V42.3315Z" fill="#F8D25B"/>
<path d="M31.6641 41.7737L38.0797 35.5737H38.6578L31.6641 42.3315V41.7737Z" fill="#F8D25A"/>
<path d="M31.6641 41.2159L37.5031 35.5737H38.0797L31.6641 41.7737V41.2159Z" fill="#F7D258"/>
<path d="M31.6641 40.6597L36.9266 35.5737H37.5031L31.6641 41.2159V40.6597Z" fill="#F7D257"/>
<path d="M31.6641 40.1019L36.35 35.5737H36.9266L31.6641 40.6597V40.1019Z" fill="#F7D256"/>
<path d="M31.6641 39.544L35.7734 35.5737H36.35L31.6641 40.1019V39.544Z" fill="#F7D255"/>
<path d="M31.6641 38.9862L35.1953 35.5737H35.7734L31.6641 39.544V38.9862Z" fill="#F7D254"/>
<path d="M31.6641 38.43L34.6188 35.5737H35.1953L31.6641 38.9862V38.43Z" fill="#F7D253"/>
<path d="M31.6641 37.8722L34.0422 35.5737H34.6188L31.6641 38.43V37.8722Z" fill="#F7D252"/>
<path d="M31.6641 37.3144L33.4656 35.5737H34.0422L31.6641 37.8722V37.3144Z" fill="#F7D251"/>
<path d="M31.6641 36.7565L32.8875 35.5737H33.4656L31.6641 37.3144V36.7565Z" fill="#F7D150"/>
<path d="M31.6641 36.2003L32.3109 35.5737H32.8875L31.6641 36.7565V36.2003Z" fill="#F7D14F"/>
<path d="M31.6641 35.6425L31.7344 35.5737H32.3109L31.6641 36.2003V35.6425Z" fill="#F7D14E"/>
<path d="M31.7344 35.5737L31.6641 35.6425V35.5737H31.7344Z" fill="#F7D14D"/>
</g>
<path d="M39.9762 53.167C38.1404 53.1673 36.3457 52.6232 34.8192 51.6035C33.2927 50.5838 32.1028 49.1342 31.4002 47.4382C30.6975 45.7423 30.5136 43.876 30.8716 42.0754C31.2297 40.2749 32.1137 38.621 33.4118 37.3229C34.7099 36.0248 36.3638 35.1408 38.1643 34.7828C39.9648 34.4247 41.8311 34.6086 43.5271 35.3113C45.2231 36.014 46.6726 37.2038 47.6923 38.7303C48.7121 40.2569 49.2562 42.0515 49.2559 43.8873C49.253 46.3475 48.2744 48.7062 46.5347 50.4458C44.7951 52.1855 42.4364 53.1641 39.9762 53.167ZM39.9762 36.5404C38.5237 36.5404 37.1039 36.9711 35.8962 37.7781C34.6885 38.585 33.7473 39.732 33.1914 41.0739C32.6356 42.4157 32.4902 43.8923 32.7735 45.3169C33.0569 46.7414 33.7563 48.05 34.7834 49.077C35.8104 50.104 37.1189 50.8035 38.5435 51.0868C39.968 51.3702 41.4446 51.2248 42.7865 50.6689C44.1284 50.1131 45.2753 49.1718 46.0823 47.9642C46.8892 46.7565 47.3199 45.3366 47.3199 43.8842C47.3174 41.9373 46.5429 40.0708 45.1663 38.6941C43.7896 37.3174 41.9231 36.5429 39.9762 36.5404Z" fill="#F1A13A"/>
<defs>
<radialGradient id="paint0_radial_10416_69048" cx="0" cy="0" r="1" gradientUnits="userSpaceOnUse" gradientTransform="translate(60.8131 -127.196) scale(14.5199)">
<stop stop-color="white"/>
<stop offset="0.06" stop-color="#FAECEF"/>
<stop offset="0.32" stop-color="#E8A0AD"/>
<stop offset="0.56" stop-color="#D96379"/>
<stop offset="0.76" stop-color="#CE3753"/>
<stop offset="0.91" stop-color="#C81C3C"/>
<stop offset="1" stop-color="#C61234"/>
</radialGradient>
</defs>
</svg>
