<svg width="80" height="80" viewBox="0 0 80 80" fill="none" xmlns="http://www.w3.org/2000/svg">
<g clip-path="url(#clip0_10416_69130)">
<path d="M38.3812 2.37031C39.1781 1.79375 39.4922 0.846875 39.8969 0C40.1578 0.748437 40.3797 1.575 41.0359 2.08594C44.1937 4.6875 48.4078 5.37656 51.8188 7.55469C53.3813 8.51875 54.8703 9.64063 56.0188 11.0828C57.5984 13.0172 58.4266 15.4578 60.0813 17.3328C60.8984 18.2984 61.9984 18.9344 63.0172 19.6594C61.9984 20.3906 60.8 20.7813 59.6281 21.1797C60.2859 21.7719 61.2672 22.5859 62.1641 22.0359C62.3547 21.5937 62.4312 21.1156 62.5969 20.6656C63.0969 20.4703 63.5203 20.8313 63.9281 21.0625C64.0266 21.5438 64.1297 22.0266 64.2406 22.5094C65.4984 22.7187 65.7375 24.0187 65.8734 25.0781C65.7172 25.2875 65.5719 25.4969 65.4234 25.7031C65.8033 26.3221 66.134 26.9699 66.4125 27.6406C66.0781 28.4312 65.7875 29.2563 65.2437 29.9344C65.2078 30.2469 65.175 30.5594 65.1422 30.8719C66.2875 31.6359 66.1312 33.0469 66.0797 34.2422C66.7312 33.6922 66.9422 32.5359 67.7984 32.3406C68.6031 32.8516 68.7359 33.9234 68.9312 34.7813C69.1469 35.4406 68.6828 36.0094 68.4313 36.5812C68.7563 37.1344 69.3047 37.6344 69.2922 38.3234C69.4734 39.0781 68.7094 39.4563 68.25 39.8859C68.0844 40.475 68.1094 41.2797 67.3984 41.4891C66.5667 41.8212 65.8627 42.4102 65.3891 43.1703C66.3266 43.3188 66.2734 44.2422 66.4984 44.9516C66.7866 45.2645 67.0929 45.5603 67.4156 45.8375C67.9813 45.6687 68.5797 45.1859 69.1766 45.525C69.301 46.4954 69.1624 47.4813 68.775 48.3797C68.7859 48.7563 69.1594 49.2922 68.7062 49.5375C68.3003 49.7471 67.883 49.9338 67.4562 50.0969C68.1641 50.8781 68.2375 51.9578 67.7906 52.8953C67.3567 53.009 66.914 53.0863 66.4672 53.1266C65.9031 54.4469 63.9578 53.675 63.4766 55.1094C63.5843 55.8033 63.6189 56.5067 63.5797 57.2078C64.2273 57.0387 64.8834 56.9041 65.5453 56.8047C66.2437 57.6984 65.5203 58.6797 65.2547 59.5922C64.9297 60.1219 64.5063 60.5844 64.1609 61.1047L63.075 60.7922C63.0953 61.4344 63.2766 62.0531 63.4125 62.6781C63.2266 63.0422 62.8969 63.3031 62.6188 63.5953C62.4719 64.1078 62.3297 64.8594 61.6141 64.7078C59.8953 64.4859 58.2953 65.3734 57.0063 66.4266C57.3547 66.7609 57.8016 67.0953 57.7875 67.6375C57.9734 68.3328 57.2281 68.6938 56.8641 69.1563C56.9797 70.3859 55.4578 70.8313 55.6984 72.1156C56.5031 72.2563 57.3141 72.3781 58.1125 72.5469C58.0302 72.8943 57.9258 73.2362 57.8 73.5703C57.4687 73.6625 57.1313 73.7359 56.7906 73.7953C56.4281 74.1078 56.0984 74.4672 55.6703 74.6828C55.3297 74.6297 54.9984 74.5266 54.6672 74.4469C54.4625 75.3203 53.6984 75.8437 53.0031 76.3219C51.1578 76.1234 49.1719 75.5812 47.4078 76.4547L47.9578 76.7C47.8344 76.9406 47.5906 77.4172 47.4672 77.6531C49.5266 77.3313 51.8234 76.9703 53.7578 77.9469C52.6844 78.1328 51.5922 78.0734 50.5156 78.1984C50.9562 78.8688 51.4797 79.4813 51.9828 80.1094C50.6656 79.8219 49.3172 79.6406 47.9672 79.7969C46.775 79.8234 45.375 80.0719 44.3812 79.2469C44.0469 78.8266 44.7594 78.5609 44.925 78.2406C43.6344 78.1375 42.1406 78.1547 41.3125 76.9656C40.5516 76.9031 39.7844 76.8094 39.0328 76.9984L38.4078 76.5688C37.6172 77.8438 36.0375 77.8266 34.7234 77.975C35.0078 78.2703 35.2891 78.5719 35.5641 78.8797C33.3891 80.4547 30.5641 79.9047 28.1031 79.5547C28.5203 79.1969 28.9406 78.8453 29.3531 78.4859C28.3484 77.925 27.1781 77.7047 26.2406 77.025C28.2719 76.9766 30.2922 77.5344 32.3187 77.1453C32.1625 76.7703 32.0062 76.3906 31.85 76.0125C32.3531 75.8266 32.8766 75.6484 33.4219 75.7281C34.9844 75.8734 36.5781 75.7375 38.0406 75.1609C35.5406 74.9266 33.0547 75.6719 30.5406 75.4422C27.5219 75.3734 24.9156 73.6891 22.5391 71.9875C21.9344 71.4438 21.1219 71.5797 20.3813 71.5969C21.2625 70.3688 22.6984 69.7484 24.175 69.6328C23.9703 69.0297 23.7906 68.4187 23.6188 67.8062C21.1484 66.7766 18.8016 65.3484 16.8687 63.4859C15.6969 62.4203 15.4625 60.7969 14.7625 59.45C14.4984 58.825 13.7766 58.7016 13.2344 58.4203C14.4359 57.6922 15.8906 57.8109 17.1625 58.3078C17.3094 57.4078 17.4906 56.5141 17.6406 55.6172C15.5349 54.3358 13.7617 52.5749 12.4656 50.4781C11.7375 49.3266 11.6578 47.9359 11.3719 46.6422C11.2359 45.8375 10.5297 45.3828 10 44.8469C11.3344 44.6625 12.6922 44.8766 13.8375 45.6063C14.0828 44.8813 14.3609 44.1656 14.6187 43.45C13.05 42.0203 11.7906 40.1562 11.4297 38.0312C10.9344 35.8922 11.7938 33.7406 11.3969 31.5922C12.2399 32.5994 13.0186 33.6588 13.7281 34.7641C14.1949 33.8737 14.7857 33.054 15.4828 32.3297C14.7844 31.4141 14.1984 30.3672 14.1047 29.2047C13.7641 26.175 15.1812 23.3625 16.3141 20.6531C17.3797 21.1969 18.2594 22.2062 18.0719 23.4906C18.9516 22.4578 20.0344 21.6313 21.1641 20.8922C19.9656 20.2672 18.6406 19.7141 17.8469 18.5484C19.2688 18.0094 20.2766 16.8109 21.1281 15.6062C22.4172 13.6562 23.5656 11.5859 25.1906 9.88594C26.9512 7.98673 29.1302 6.52407 31.5547 5.61406C33.8984 4.70781 36.3547 3.92969 38.3641 2.37031M39.8359 1.67187C37.7359 4.27031 34.3187 5.08438 31.3594 6.32344C28.9705 7.2955 26.8481 8.8238 25.1688 10.7812C22.8719 13.3516 21.6828 16.8469 18.7766 18.8766C19.7141 19.5016 20.7266 19.9922 21.7062 20.5422C23.1125 21.2922 23.9672 22.7172 25.3281 23.525C27.3406 20.4297 29.9359 17.6156 33.2391 15.8875C36.7031 13.9828 40.9891 13.5953 44.7047 14.9891C48.875 16.5031 52.1125 19.8328 54.4469 23.5078C55.3091 23.1412 56.1092 22.6431 56.8188 22.0312C58.2688 20.7406 60.2563 20.4359 61.9844 19.6875C61.1688 19.0922 60.3125 18.5328 59.6562 17.7578C57.9516 15.8172 57.1172 13.2984 55.4656 11.3219C53.8828 9.39844 51.7156 8.06406 49.5203 6.94687C46.2125 5.38437 42.3688 4.47969 39.8422 1.65937M36.3094 15.2516C32.025 16.5016 28.5563 19.6844 26.1531 23.3594C21.7047 30.1547 20.2906 38.6719 21.5656 46.6313C22.5031 52.5766 24.9391 58.4437 29.2219 62.7578C36.3833 62.7578 43.5417 62.6583 50.6969 62.4594C54.025 59.0328 56.1766 54.6094 57.3875 50.025C59.3672 42.4 58.8234 34.0781 55.5688 26.875C53.6719 22.7562 50.8016 18.9266 46.8297 16.6156C43.6953 14.7687 39.8141 14.1984 36.3094 15.2484M20.5578 25.7172C21.5469 24.9922 22.7453 24.6875 23.95 24.6344C23.2688 26.3548 22.4255 28.0066 21.4313 29.5672C20.5078 31.0125 18.9312 31.825 17.4219 32.5156C17.475 33.1625 17.5188 33.8109 17.5578 34.4594C18.3391 33.8828 19.1203 33.3281 19.9125 32.7688C19.5734 34.3234 20.2594 35.9125 19.8031 37.4563C19.0313 40.025 17.4812 42.3563 17.1906 45.0641C17.9719 44.0688 18.7625 43.0719 19.3484 41.9391C19.6969 43.1047 19.1344 44.3359 19.5875 45.475C20.0563 46.7734 20.4906 48.1406 20.2562 49.5375C20.1469 51.3953 19.2953 53.0969 19.0578 54.9266C19.3453 55.7578 20.1047 56.3531 20.5578 57.1016C20.9344 55.9563 21.6172 54.9406 21.9438 53.7719C22.5469 54.7516 22.8641 55.8609 23.1938 56.9531C23.5656 58.2109 24.3891 59.2797 24.7141 60.5547C25.1953 62.2803 25.2393 64.0985 24.8422 65.8453C25.5375 66.1469 26.2203 66.4703 26.8984 66.8188C26.6047 65.5297 26.8719 64.1938 26.5672 62.9016C27.3484 63.4609 27.7469 64.3547 28.3031 65.1094C29.1531 66.0641 30.4906 66.4609 31.2484 67.5141C32.2344 68.9859 32.5359 70.7641 33.1625 72.3906C33.3188 73.0156 34.0797 73.1047 34.5156 73.4656C33.4031 72.6156 33.9469 71.1812 33.8906 70.0125C33.9391 68.8469 35.3734 69.2641 36.1313 69.2516C37.3953 69.4375 38.4891 68.6687 39.6969 68.5C40.8156 68.5703 41.7984 69.3844 42.9578 69.1828C43.9141 69.2125 45.0594 68.8078 45.8812 69.4562C46.2111 70.2934 46.225 71.2221 45.9203 72.0687C45.1891 72.6422 44.425 73.1844 43.8313 73.9156C45.1656 73.7844 46.0188 72.8375 46.6594 71.7672C46.7484 71.1906 46.7578 70.5563 47.1578 70.0891C47.6656 69.55 47.6156 68.7844 47.8406 68.1266C48.3172 67.7781 48.8375 67.4906 49.3031 67.1203C49.8 66.6625 50.6078 66.7844 51.0344 66.2219C51.3969 65.9344 51.7172 65.3484 52.2609 65.5C52.7297 65.5406 52.7859 66.0703 52.9891 66.3953C53.5391 65.9221 53.9867 65.3415 54.3043 64.6892C54.6219 64.0368 54.8028 63.3264 54.8359 62.6016C54.7438 61.8984 54.3453 61.2828 54.1078 60.6203C54.6234 59.9156 55.1672 59.2141 55.9906 58.8531C55.8156 58.2109 55.7953 57.5219 56.3031 57.0219C57.0844 56.2781 56.8547 54.8969 57.9578 54.4672C58.4307 55.1029 58.9437 55.7078 59.4938 56.2781C60.15 55.4625 60.4875 54.4438 60.6453 53.4203C60.8016 51.9813 59.5516 50.9312 59.3281 49.5875C59.5063 48.7297 59.7547 47.8187 60.6656 47.4891C60.3375 47.0406 59.9969 46.5938 59.6688 46.1438C60.0107 45.8499 60.3725 45.58 60.7516 45.3359C60.8578 44.75 60.55 43.8234 61.3469 43.6547C61.8609 43.4172 62.2688 44.1047 62.7188 44.3C62.0938 42.8469 60.6625 41.6781 60.9562 39.9469C60.6266 39.6953 60.2984 39.4406 59.9875 39.1656C60.3781 38.5406 60.3547 37.8391 60.2359 37.1344C61.0172 36.025 60.5797 34.6703 60.0797 33.5406C60.4281 33.4047 60.7547 33.0562 61.1531 33.1297C61.5563 33.4672 61.8766 33.8906 62.2313 34.275C62.55 33.8313 62.8677 33.3854 63.1844 32.9375C62.7906 32.4406 62.4172 31.9109 61.9203 31.5109C61.2953 30.9953 60.4203 31.0766 59.7188 30.7297C59.3688 30.3625 59.1266 29.9125 58.8516 29.4922C57.8719 28.8766 56.6203 27.8422 57.2391 26.5547C56.7563 25.675 56.1797 24.7875 56.0437 23.7812C55.9375 23.6625 55.8297 23.5484 55.7312 23.4328L54.7344 23.9891C58.8766 31.0875 59.9844 39.7313 58.4844 47.7563C57.3609 53.6406 54.8078 59.4063 50.4125 63.5359C47.55 66.2656 43.7031 68.1 39.7 68.0375C35.2875 68.0469 31.1531 65.7406 28.2219 62.5484C24.2234 58.2281 21.9391 52.5578 20.9922 46.8031C19.7578 39.0531 20.9922 30.7984 25.0547 24.025C23.7031 23.2531 22.8359 21.9063 21.5516 21.0453C20.7141 22.4656 20.6781 24.1328 20.5656 25.7328M61.6922 22.9047C62.0984 23.7234 63.0984 23.8422 63.7016 24.4484C64.0141 24.9578 63.6141 25.5422 63.5453 26.0703C64.7469 27.5391 63.9828 29.5297 63.9828 31.2375C64.2234 31.1109 64.4625 30.9828 64.7047 30.8531C64.7469 30.4953 64.7906 30.1391 64.8391 29.7813C65.2586 29.1085 65.6329 28.4085 65.9594 27.6859C65.6734 27.1125 65.3344 26.5594 65.1344 25.95C65.1766 25.1953 65.5016 24.3781 65.0844 23.6703C64.6875 23.2016 64.0125 22.975 63.7875 22.3656C63.5547 21.8562 63.3437 21.3391 63.1047 20.8328C62.8734 21.6734 62.5156 22.4844 61.6984 22.9047M14.4984 28.2812C14.4688 29.6719 14.9156 31.125 16.0047 32.0484C16.2797 30.2953 16.0781 28.4875 16.525 26.7563C16.7828 25.4578 17.6078 24.3094 17.6078 22.9547C17.6078 22.2406 16.9984 21.7562 16.6172 21.2203C15.5516 23.4375 14.5328 25.7812 14.4984 28.2812ZM55.9766 23.3594C56.9031 23.7766 57.9359 23.7625 58.9094 23.9844C58.9173 23.1282 58.8719 22.2724 58.7734 21.4219C57.7734 21.9656 56.9172 22.7234 55.9766 23.3531M59.2109 21.5094C59.3526 22.4318 59.3772 23.3683 59.2844 24.2969C59.6406 24.6313 59.9891 24.975 60.3359 25.3219C60.0875 25.6172 59.8359 25.9109 59.5844 26.2063C59.8688 26.9281 60.5906 27.1797 61.2062 27.5406C61.2969 27.9429 61.3657 28.3497 61.4125 28.7594C62.1672 29.5406 63.0203 30.2484 63.6 31.1859C63.6 29.8141 63.8047 28.4437 63.6859 27.0672C62.7328 26.4906 63.1234 25.5047 63.4219 24.6797C62.8391 24.3672 62.2188 24.1141 61.6641 23.7531C61.4375 23.4188 61.3094 23.0281 61.0875 22.6875C60.4625 22.3031 59.7938 21.975 59.2125 21.5094M17.775 24.7C16.7688 26.4609 16.6812 28.5406 16.5937 30.5141C16.8453 30.8812 17.0891 31.2578 17.3281 31.6328C18.0953 30.6094 18.9266 29.6156 19.4672 28.4469C20.4953 26.3422 19.9703 23.9156 20.6453 21.7141C19.5891 22.5984 18.4406 23.4594 17.775 24.7ZM56.4688 24.0672C56.8692 24.9447 57.3221 25.7973 57.825 26.6203C57.6797 26.9016 57.5375 27.1828 57.3953 27.4641C57.8743 28.1435 58.477 28.7265 59.1719 29.1828C59.5641 29.7844 59.9203 30.5688 60.7484 30.5984C61.7844 30.7453 62.5484 31.4859 63.3109 32.1281C63.0422 30.3344 60.8703 29.6984 60.7516 27.8484C59.8641 27.5859 59.3281 26.8781 59.1187 26.0031C59.275 25.8187 59.6125 25.4547 59.775 25.275C58.8516 24.4516 57.6859 24.1078 56.4688 24.0734M20.7844 26.2609C20.4563 26.7906 20.35 27.4187 20.1312 27.9953C19.6625 29.4484 18.6422 30.6203 17.7984 31.8625C18.6297 31.4375 19.4797 31.0109 20.1688 30.3688C21.6406 28.9156 22.4125 26.9312 23.2734 25.0922C22.3969 25.3375 21.3859 25.5063 20.7844 26.2609ZM64.3641 31.6C63.8953 32.5828 63.4031 33.5609 62.7016 34.4125C63.0707 34.7436 63.4187 35.0974 63.7438 35.4719C63.4234 35.8484 62.9828 36.0812 62.5828 36.3547C62.7969 37.15 63.1516 37.8953 63.4094 38.6734C63.3266 39.1031 63.0484 39.4547 62.8578 39.8406C63.1953 40.2687 63.6125 40.6531 63.8313 41.1625C64.025 42.175 63.8703 43.2141 63.9422 44.2344C64.3627 43.5115 64.6868 42.7367 64.9063 41.9297C65.1906 40.7719 65.8328 39.7547 66.3234 38.6828C65.8547 37.8313 65.6016 36.8812 66.2531 36.0469C65.2734 35.0312 65.6938 33.6437 65.6547 32.3969C65.5719 31.8359 64.9 30.9266 64.3641 31.6047M13.9594 35.7109C13.6344 37.6469 14.3266 39.5469 14.9469 41.3484C15.3062 41.6609 15.6516 41.9938 15.9922 42.3313C15.9031 38.6906 17.8563 35.1437 16.7531 31.5125C15.7344 32.8375 14.2703 33.9781 13.9594 35.7109ZM66.0734 34.8438C66.3039 35.2012 66.5126 35.5721 66.6984 35.9547C66.5907 36.3784 66.4592 36.7957 66.3047 37.2047C66.4609 37.8609 66.9109 38.5516 66.5531 39.2172C66.0734 40.2938 65.5 41.3328 65.1469 42.4656C65.8453 41.8594 66.6625 41.4266 67.4203 40.9031C67.725 40.4125 67.7922 39.7813 68.2281 39.3703C68.4469 39.0391 68.9266 38.8234 68.9 38.3766C68.6953 37.7313 68.2656 37.1922 68.0266 36.5656C68.183 36.1281 68.371 35.7025 68.5891 35.2922C68.4165 34.4128 68.1661 33.5506 67.8406 32.7156C67.3013 33.4649 66.7109 34.176 66.0734 34.8438ZM12.0266 33.1109C11.8469 34.5422 11.6031 35.9922 11.7906 37.4359C12.0687 39.5844 13.1547 41.6547 14.9156 42.9609C14.6172 41.2516 13.7281 39.7 13.525 37.9688C13.3797 37.0437 13.525 36.0938 13.3906 35.1766C13.0891 34.3953 12.5188 33.7703 12.0328 33.1109M60.6375 33.4375C60.9391 34.4797 61.1672 35.5469 61.1281 36.6391C60.9922 36.8469 60.8594 37.0563 60.7266 37.2641C60.866 37.8821 60.8025 38.5287 60.5453 39.1078C60.8297 39.3047 61.1203 39.5031 61.4062 39.7047C61.4594 40.3891 61.3125 41.1547 61.7406 41.75C62.4198 42.7456 62.9568 43.831 63.3359 44.975C63.4598 43.9513 63.4995 42.9192 63.4547 41.8891C63.4547 41.0656 62.7203 40.5297 62.4063 39.8266C62.5588 39.4242 62.7341 39.0309 62.9313 38.6484C62.5969 37.8313 62.0781 36.9937 62.2359 36.0766C62.5249 35.8242 62.8291 35.5899 63.1469 35.375C62.2689 34.7848 61.4306 34.1376 60.6375 33.4375ZM17.3859 35.9656C17.025 38.6328 15.8859 41.3938 16.7797 44.0625C17.4516 42.05 18.3203 40.1125 19.1141 38.1469C19.7203 36.7406 19.4875 35.2047 19.3125 33.7438C18.5437 34.35 17.3891 34.8234 17.3859 35.9656ZM14.2469 47.5281C14.7734 50.0406 16.2875 52.2156 17.8797 54.1766C17.75 52.3453 17.8984 50.5172 17.9156 48.6906C17.8656 46.3203 16.5344 44.2984 15.4 42.3141C15.0687 44.0656 13.8375 45.6812 14.2469 47.5281ZM17.8625 45.7219C18.0312 46.9156 18.4688 48.0781 18.3828 49.3C18.2922 51.1141 18.2 52.9375 18.4422 54.7453C19.2687 52.4687 20.1 50.0578 19.7594 47.6016C19.4219 46.2672 18.8531 44.9797 18.8625 43.5734C18.4094 44.2156 17.7437 44.8641 17.8625 45.7219ZM63.225 45.4266C63.2938 45.8047 63.3406 46.1875 63.3813 46.575C62.781 47.0206 62.2105 47.505 61.6734 48.025L62.4547 49.0516L61.3859 49.5937C61.6172 51.0578 62.0766 52.4937 62.1234 53.9781C61.925 54.8344 61.2531 55.4938 60.9391 56.3109C62.4781 55.6063 63.1391 53.8781 63.9219 52.4875C64.3656 51.9313 65.1094 51.6875 65.5172 51.1047C65.4875 50.6109 65.3813 50.125 65.3719 49.6313C65.7125 49.3328 66.1031 49.0922 66.45 48.8C66.7906 47.9359 66.8641 46.9922 66.9703 46.075C66.1891 45.5094 65.8406 44.625 65.7484 43.6828C64.8844 44.225 64.0969 44.8813 63.2359 45.4266M60.3234 46.2172C60.5484 46.6656 61.2438 47.1344 60.8984 47.6906C60.4656 48.3031 60.0187 48.9063 59.6937 49.5906C60.1703 50.6531 60.8562 51.6469 61.0641 52.8125C61.2125 54.3281 60.4391 55.7062 59.6578 56.9375C60.6047 56.1953 61.1344 55.0625 61.6234 54C61.7094 52.4156 60.9906 50.9156 60.9516 49.3422C61.2 49.1703 61.4578 49.0094 61.7203 48.8562C61.5438 48.5437 61.3687 48.2234 61.1969 47.9031C61.7384 47.3017 62.3347 46.7519 62.9781 46.2609C62.7781 45.3578 62.3453 44.5188 61.5844 43.9609C61.1063 44.7188 61.3922 45.8875 60.3266 46.2172M11.3281 45.1062C12.1312 46.9859 11.975 49.2188 13.2703 50.8797C14.4984 52.5516 15.95 54.1609 17.8391 55.1062C16.1937 52.5437 13.9891 50.0953 13.7141 46.9203C13.8594 45.5719 12.2484 45.45 11.3281 45.1062ZM67.4438 46.3109C67.2875 47.2281 67.1125 48.1406 66.95 49.0547C66.5672 49.3234 66.1828 49.5844 65.7984 49.8469C65.8906 50.4844 66.2828 51.3422 65.5562 51.75C64.7359 52.3063 63.9781 52.9609 63.6531 53.9375C64.3781 53.7484 65.2063 53.7156 65.7719 53.1563C66.2516 52.6531 66.9406 52.5609 67.5922 52.4422C67.7484 51.5578 67.3984 50.7531 66.9875 50.0016C67.5031 49.6734 68.0391 49.3766 68.5703 49.0719C68.4828 48.9156 68.3016 48.6031 68.2125 48.4469C68.6484 47.6328 68.7688 46.7125 68.8578 45.8078C68.3891 45.9641 67.9203 46.1328 67.4438 46.3016M18.1531 54.8438C18.1531 56.5844 17.1375 58.3922 17.9844 60.0672C19.0641 62.2687 20.9188 63.9438 22.6953 65.5828C22.2266 63.9844 22.0531 62.3344 21.775 60.7031C21.2953 58.3797 19.6797 56.5609 18.1531 54.8438ZM21.1219 57.5422C21.4094 58.6359 22.0719 59.6078 22.25 60.7422C22.4984 62.2125 22.6906 63.6953 23.0312 65.1516C23.5187 65.3078 24.0141 65.4438 24.5078 65.5828C24.8063 63.425 24.75 61.1234 23.6828 59.1766C22.9391 57.8422 22.5281 56.3641 22.0922 54.9125C21.6812 55.7438 20.9797 56.5641 21.1281 57.5484M56.3313 59.0625C55.7313 59.5859 55.1063 60.0859 54.6125 60.7141C54.8531 61.3297 55.2375 61.9172 55.2781 62.5891C55.2313 63.5094 54.8844 64.3797 54.6875 65.2703C55.9734 64.1422 55.6422 62.2672 56.6906 61.0125L56.1422 60.0391C56.5656 59.3812 56.8563 58.6469 57.2797 57.9938C57.7556 57.8931 58.2381 57.8268 58.7234 57.7953C58.8656 57.4406 59.2109 57.1125 59.1438 56.7016C58.7438 56.0688 58.2141 55.5234 57.7641 54.9234C57.5063 56.4094 56.1187 57.4656 56.3375 59.0516M60.7703 56.7516C59.9359 57 59.4094 57.7313 58.7391 58.2344C58.3298 58.3145 57.916 58.3698 57.5 58.4C57.2616 58.9919 56.9817 59.5662 56.6625 60.1188C56.875 60.4313 57.0828 60.7547 57.2875 61.0734C56.1063 62.05 56.5063 63.7406 55.5594 64.8562C54.7609 66.0687 53.5437 66.9328 52.7719 68.1672C54.0766 67.3562 54.9438 66.0281 56.2406 65.1984C57.2043 64.5579 58.095 63.8139 58.8969 62.9797C58.8969 62.4828 58.8234 61.9703 58.9828 61.4906C59.7469 61.1359 60.6141 61.3906 61.4281 61.325C61.5984 60.3484 61.5672 59.3453 61.7969 58.3813C61.9125 57.7719 62.6578 57.7688 63.1016 57.5109C63.1344 56.8281 63.1609 56.1406 63.1703 55.4578C62.4094 55.9656 61.6578 56.5109 60.7609 56.75M62.2266 58.3781C62.0781 59.425 62.1281 60.5203 61.7469 61.5234C61.0719 62.0469 60.1281 61.6984 59.3359 61.7688C59.2937 62.2953 59.6672 62.9828 59.1672 63.3766C57.6547 65.0062 55.5563 65.95 54.1453 67.6875C55 67.3922 55.9109 67.1109 56.5203 66.3938C57.8672 64.9594 59.85 63.9562 61.8563 64.2672C62.1469 63.6656 62.5047 63.1031 62.8234 62.5203C62.7859 61.8203 62.4453 61.0234 62.9547 60.4047C63.3228 60.3964 63.691 60.4084 64.0578 60.4406C64.7953 59.6266 65.2187 58.5938 65.4641 57.5344C65.3781 57.4719 65.2031 57.3516 65.1172 57.2891C64.0844 57.4344 63.1703 57.9719 62.2266 58.3828M14.5531 58.2609C15.8031 59.8625 15.8828 62.1531 17.5125 63.4844C19.3188 65.0266 21.3281 66.4047 23.5734 67.2188C22.8016 66.1125 21.6891 65.3281 20.7609 64.375C19.3172 62.9281 17.8812 61.3531 17.2422 59.375C16.9906 58.1906 15.4609 58.4594 14.5578 58.2672M29.5297 63.0797C30.0078 63.4844 30.4938 63.8844 30.9766 64.2859C36.7578 64.3609 42.5172 64.1391 48.2875 64.1297C49.2078 64.1484 49.7438 63.275 50.4031 62.7781C43.4469 62.8937 36.4891 63.1063 29.5297 63.0828M31.3969 64.6297C32.1563 65.0328 32.8437 65.8109 33.7781 65.7234C38.1281 65.7031 42.4844 65.6906 46.8281 65.4484C47.4344 65.2078 47.9375 64.7734 48.4703 64.4063C42.7797 64.4891 37.0875 64.6484 31.3969 64.625M27.1594 64.4297C27.1906 65.2297 27.0469 66.1141 27.4984 66.8297C27.8484 67.3562 28.3781 67.7266 28.8313 68.1563C30.2297 69.3891 31.1234 71.0938 32.6 72.2516C32.2125 70.8719 31.8187 69.475 31.1562 68.2031C30.6625 67.2031 29.5937 66.7375 28.7516 66.0984C28.1109 65.6547 27.6578 65.0188 27.1594 64.4297ZM23.3812 65.7969C23.8312 66.8906 24.1516 68.0375 24.5031 69.1703C24.8547 70.4109 26.0328 71.1422 27.1156 71.6891C29.3266 72.7484 31.7531 73.2375 34.1328 73.7672C33.2172 73.2312 32.2859 72.6984 31.5516 71.9234C30.1047 70.4281 29.025 68.5266 27.1766 67.4609C25.9593 66.8029 24.6899 66.2464 23.3812 65.7969ZM33.8812 66.075C37.6953 67.9844 42.4422 67.925 46.1703 65.8297C42.075 65.9187 37.9766 66.0672 33.8812 66.075ZM49.8687 67.3094C49.3281 67.7094 48.7771 68.0911 48.2156 68.4547C48.1203 69.2625 47.8953 70.0469 47.3563 70.6766C47.1602 71.5951 46.7974 72.47 46.2859 73.2578C46.8719 72.8969 47.5219 72.6 48.0047 72.0891C48.3484 71.5828 48.5297 70.9844 48.7656 70.425C49.1266 70.3688 49.4844 70.3188 49.8453 70.2688C50.0328 69.7516 50.0406 69.0672 50.5734 68.7594C50.9937 68.4609 51.5109 68.6984 51.9797 68.7031C52.1359 68.375 52.3 68.05 52.4625 67.7266C52.4 67.0906 52.3703 66.4547 52.2875 65.8219C51.5188 66.3844 50.8969 67.1969 49.8813 67.3125M52.7812 67.1969C53.1844 67.2953 53.3266 67.1375 53.2109 66.7281C52.8078 66.6281 52.6656 66.7875 52.7812 67.1969ZM52.5391 68.5703L52.1484 69.5469C51.7938 69.3344 51.4406 69.1172 51.0891 68.9047C50.5234 69.3641 50.3578 70.0594 50.2078 70.7359C49.8484 70.7578 49.4937 70.775 49.1422 70.7984C48.8375 71.4672 48.6469 72.2453 48.0266 72.7078C46.8313 73.7375 45.2141 73.9141 43.7656 74.3859C45.0344 74.3438 46.3313 74.3609 47.5672 74.0391C48.8516 73.5703 50.0422 72.8313 51.4 72.5594L51.9938 73.5797C52.9828 73.4438 52.8969 72.4109 53.3203 71.7453C53.9453 71.7578 54.5922 72.2484 55.1812 71.9266C55.4 71.1828 55.6344 70.4375 56.2406 69.9109C56.2828 69.0766 56.8469 68.4875 57.4312 67.9547C57.3656 67.7094 57.2375 67.2203 57.1766 66.975C55.6609 67.5828 54.1938 68.4219 52.5391 68.5703ZM37.0234 69.6875C36.1328 69.7375 35.2391 69.6672 34.3484 69.6609C34.3193 70.6474 34.3005 71.6318 34.2922 72.6141C35.3496 73.0875 36.3537 73.672 37.2875 74.3578C37.5453 74.075 37.8031 73.7875 38.0687 73.5031C37.1312 72.5 36.1938 71.4937 35.2031 70.5594C35.2828 70.4797 35.4422 70.3219 35.525 70.2469C36.0609 70.7828 36.6031 71.3172 37.1359 71.8563C37.8516 71.5047 38.5828 71.075 39.4047 71.0844C40.4641 71.0844 41.4766 71.4484 42.4625 71.7922C43.225 71.4094 43.9469 70.9484 44.7234 70.5906C44.3672 71.3531 43.6047 71.7203 42.9 72.0937C42.3313 72.3656 42.0984 72.9922 41.7578 73.4812C42.0891 73.7297 42.4172 73.9781 42.7516 74.2266C43.7109 73.3984 44.6156 72.5078 45.5922 71.7078C45.7234 71.0312 45.6312 70.3359 45.6109 69.6547C44.6219 69.5328 43.6312 69.6109 42.6422 69.6547C41.6016 69.7313 40.7047 69.0781 39.7016 68.9422C38.7875 69.1156 37.9609 69.6281 37.0234 69.6812M21.5172 70.9062C23.5484 71.9547 25.2672 73.5625 27.4437 74.3359C30.4422 75.5281 33.7031 74.8328 36.8187 74.7203C34.5344 74.2094 32.1969 73.9313 29.9563 73.2328C27.8766 72.6078 25.7047 71.8156 24.2891 70.075C23.3312 70.2231 22.3985 70.5028 21.5172 70.9062ZM37.4547 72.1766C37.7234 72.4891 37.9984 72.8016 38.2766 73.1141C39.3422 73.0469 40.4406 72.8719 41.4906 73.1469C41.6828 72.7953 41.8719 72.4453 42.0641 72.1C40.5813 71.5219 38.8625 71.2406 37.4547 72.1797M53.4875 72.2687C53.375 72.8297 53.4016 73.6359 52.6937 73.8016C51.9781 74.1859 51.4 73.5734 50.9625 73.0906C49.7125 73.5406 48.5719 74.2453 47.2906 74.5906C45.9406 74.8188 44.5594 74.7469 43.2125 74.9937C44.8172 75.15 46.4141 75.3063 47.9922 75.6594C49.6156 75.5031 51.2734 75.4078 52.8594 75.9203C53.5812 75.4172 54.0641 74.6922 54.5203 73.9547C54.8953 74.0109 55.2625 74.1109 55.6328 74.2094C56.2452 73.6316 56.9833 73.2037 57.7891 72.9594C57.0078 72.8031 56.2188 72.6469 55.4344 72.4906C54.7783 72.5059 54.1233 72.4312 53.4875 72.2687ZM38.9641 73.4312C38.6109 73.6906 38.2656 73.9672 37.9219 74.2422C38.1469 75.05 38.4016 75.875 38.9719 76.5172C39.6969 76.4172 40.4281 76.4672 41.1594 76.4672C41.7328 75.9141 41.9406 75.1094 42.2391 74.4016C41.7297 74.0266 41.2156 73.6641 40.6766 73.325C40.1275 73.5328 39.5283 73.5699 38.9578 73.4312M41.8688 75.6187C43.5297 76.3391 45.3641 76.2609 47.1297 76.2797C47.1391 76.1875 47.1594 76.0016 47.1687 75.9094C45.8969 75.6141 44.5891 75.6172 43.2984 75.4656C42.8166 75.3852 42.3219 75.4393 41.8688 75.6219M32.1922 76.1375C32.5799 76.8565 33.1208 77.4817 33.7766 77.9688C34.7828 77.3688 35.9937 77.5 37.0766 77.1578C37.6172 76.9 38.2625 76.35 37.9703 75.6812C36.0844 76.2469 34.1266 76.1313 32.1891 76.1344M41.6312 76.1781C41.8516 76.6734 42.0469 77.2797 42.6109 77.4813C43.7234 77.8266 45.0047 77.575 45.9875 78.3125C46.6273 77.8679 47.1976 77.3308 47.6797 76.7188C45.6484 76.6141 43.6312 76.5828 41.6328 76.1703M28.0687 77.4422C28.5766 77.7313 29.1125 77.9859 29.5625 78.3656C29.4328 78.6875 29.2875 79.0016 29.1313 79.3156C31.0547 79.4156 33.1109 79.7969 34.8891 78.8234C34.0693 78.4482 33.2933 77.984 32.575 77.4391C31.0891 77.7734 29.5625 77.6578 28.0687 77.4391M47.0875 77.9563C46.3301 78.4208 45.5256 78.8036 44.6875 79.0984C46.7187 79.7406 48.8531 79.0313 50.9219 79.4359C50.4984 78.8422 50.0938 78.1781 50.8031 77.625C49.5641 77.7312 48.3328 77.9297 47.0875 77.9563Z" fill="#2C241A"/>
<path d="M39.8467 1.67188C42.3732 4.49219 46.217 5.39531 49.5248 6.95938C51.7248 8.07031 53.8873 9.40469 55.4701 11.3344C57.1217 13.3109 57.9561 15.8297 59.6607 17.7703C60.317 18.5516 61.1732 19.1047 61.9889 19.7C60.2561 20.4453 58.2732 20.75 56.8232 22.0438C56.1118 22.6538 55.3101 23.1498 54.4467 23.5141C52.1123 19.8328 48.8748 16.5094 44.7045 14.9953C40.9889 13.6016 36.7029 13.9891 33.2389 15.8938C29.9357 17.6219 27.3404 20.4359 25.3279 23.5313C23.967 22.7234 23.1123 21.2984 21.7061 20.5484C20.7264 19.9984 19.7139 19.5047 18.7764 18.8828C21.6826 16.8516 22.8717 13.3578 25.1686 10.7875C26.8483 8.83118 28.9706 7.30398 31.3592 6.33281C34.3186 5.08437 37.7357 4.27031 39.8467 1.67188ZM39.4498 3.62188C39.4795 3.77813 39.5404 4.08125 39.5701 4.23438C39.9462 4.06563 40.3212 3.89427 40.6951 3.72031L39.4451 3.62188M39.3857 9.2C39.7139 9.48125 40.0779 9.72031 40.4061 10.0016C40.0154 11.1266 38.7201 11.9344 37.5482 11.5266C36.5154 10.5703 37.3764 9.08438 37.5217 7.94219C36.8663 9.16965 36.646 10.5829 36.8967 11.9516C37.1279 12.8891 38.3529 13.0531 39.0717 12.5938C40.1904 11.8578 40.6873 10.4062 40.492 9.11719C40.1998 8.62344 39.7998 8.17969 39.6764 7.61094C40.7857 7.70312 40.9779 6.69063 40.9842 5.83281C40.7732 5.975 40.3592 6.25312 40.1514 6.39531C40.0576 5.77031 39.9857 5.14531 39.9029 4.52031C39.7607 6.08281 39.6045 7.64531 39.3857 9.20781M34.5701 6.29687C34.4279 7.75625 34.9248 9.15 35.3717 10.5156C35.4248 9.06563 34.9717 7.675 34.5701 6.29687ZM30.3264 8.66094C30.4061 10.0672 30.9795 11.375 31.6076 12.6156C31.4748 11.2188 30.9061 9.92187 30.3264 8.66094ZM49.7873 9.57031C49.9092 9.71719 50.1451 10.0109 50.267 10.1594C50.8436 9.9125 51.1779 9.46406 51.092 8.80938C50.6514 9.05104 50.2165 9.30469 49.7873 9.57031ZM33.1607 11.0672C33.1264 11.9438 32.6576 12.6953 32.3326 13.4828C32.6967 13.1266 33.3357 12.8875 33.342 12.3016C33.4061 11.2391 33.7951 10.2297 33.8295 9.16406C33.4779 9.74688 33.1873 10.375 33.1607 11.0672ZM41.1842 11.3688C41.6748 12.1156 42.5264 12.4781 43.3061 12.8453C45.0248 13.5969 47.0561 14.0703 48.8061 13.1422C48.4279 13.8875 47.6764 14.5797 47.7857 15.4859C48.3654 15.9656 48.8951 15.2406 49.4154 15.0172C49.2592 14.9188 48.9467 14.7297 48.7904 14.6344C48.7014 13.2531 50.0404 12.2766 50.7936 11.2437C52.4295 11.3594 54.0279 11.7375 55.6373 11.9859C54.567 11.1344 53.117 11.175 51.8232 11.0328C50.3826 10.7797 49.6654 12.3328 48.6514 13.0484C46.1514 13.0484 43.2623 12.3391 41.6764 10.2578C41.4825 10.6154 41.3164 10.9873 41.1795 11.3703M28.5764 10.5359C28.7764 11.6641 29.6857 12.475 29.9717 13.5641C29.9936 14.8359 28.8357 16.2391 27.4842 15.9938C26.7201 15.4344 26.617 14.4156 26.2592 13.6109C26.4654 14.5969 26.6498 15.6422 27.2764 16.4641C27.5889 16.9016 28.1498 17.2594 28.7092 17.0891C29.7389 16.8078 30.3717 15.7094 30.3451 14.6797C30.3186 13.1297 29.5998 11.6656 28.5764 10.5313M34.9936 12.7688L33.9389 12.6563C33.9014 13.0609 33.8654 13.4672 33.8326 13.8719C34.1295 13.8969 34.4248 13.9172 34.7232 13.9406C34.7654 13.725 34.8482 13.2922 34.892 13.0766L35.8389 13.2922C35.8951 13.0375 36.0107 12.5297 36.0701 12.275C35.8623 12.1688 35.4451 11.9625 35.242 11.8516C35.1795 12.0797 35.0576 12.5406 34.9982 12.7688M50.8514 16.2812C51.3748 16.2641 51.8545 16.0359 52.3373 15.8578C52.1092 15.5688 51.8779 15.275 51.6529 14.9844C52.1732 13.9969 52.8576 13.1094 53.4404 12.1625C52.2748 13.2687 50.967 14.5953 50.8514 16.2812ZM27.5998 12.9969C27.5873 13.3844 27.5998 13.7781 27.6201 14.1625L28.6029 14.1922C28.6029 13.7953 28.5873 13.3984 28.5764 13.0063C28.2503 12.9906 27.9248 12.9875 27.5998 12.9969ZM50.1811 17.9359C50.5112 17.7897 50.8331 17.6254 51.1451 17.4438C51.1423 17.1167 51.1199 16.79 51.0779 16.4656C50.5295 16.8172 49.7014 17.125 50.1811 17.9359Z" fill="#FFF6B1"/>
<path d="M39.4498 3.62207L40.6998 3.72051C40.3269 3.89447 39.9519 4.06582 39.5748 4.23457C39.5451 4.07832 39.4842 3.76582 39.4545 3.62207M39.3951 9.2002C39.6139 7.64707 39.7701 6.08457 39.9123 4.5127C39.9951 5.1377 40.0686 5.7627 40.1607 6.3877C40.3686 6.24551 40.7857 5.96738 40.9936 5.8252C40.9936 6.68301 40.7951 7.7002 39.6857 7.60332C39.8092 8.17988 40.2092 8.61582 40.5014 9.10957C40.6967 10.4033 40.1998 11.8502 39.0811 12.5861C38.3623 13.0455 37.1373 12.8799 36.9061 11.9439C36.6554 10.5753 36.8757 9.16203 37.5311 7.93457C37.3857 9.07676 36.5248 10.5627 37.5576 11.5189C38.7295 11.9268 40.0248 11.1189 40.4154 9.99395C40.0873 9.7127 39.7232 9.47363 39.3951 9.19238M34.5701 6.29707C34.9717 7.67051 35.4248 9.06113 35.3717 10.5158C34.9248 9.15488 34.4342 7.76113 34.5701 6.29707ZM30.3264 8.66113C30.9061 9.92207 31.4748 11.2189 31.6076 12.6158C30.9826 11.3752 30.4061 10.0705 30.3264 8.66113ZM49.7873 9.57051C50.2175 9.30697 50.6524 9.05332 51.092 8.80957C51.1779 9.46426 50.8436 9.91269 50.267 10.1596C50.1451 10.0033 49.9092 9.71738 49.7873 9.57051ZM33.1607 11.0674C33.1873 10.3752 33.4732 9.74707 33.8295 9.16426C33.7951 10.2299 33.4061 11.2393 33.342 12.3018C33.342 12.8877 32.6967 13.1268 32.3326 13.483C32.6576 12.7018 33.1264 11.9439 33.1607 11.0674ZM41.1842 11.3689C41.3211 10.9859 41.4872 10.614 41.6811 10.2564C43.267 12.3439 46.1498 13.0471 48.6561 13.0471C49.6701 12.3314 50.3873 10.7783 51.8279 11.0314C53.1217 11.1736 54.5717 11.133 55.642 11.9846C54.0264 11.7361 52.4279 11.3596 50.7982 11.2424C50.0404 12.2752 48.7061 13.2518 48.7951 14.633C48.9514 14.7283 49.2639 14.9174 49.4201 15.0158C48.8998 15.2455 48.3701 15.9705 47.7904 15.4846C47.6811 14.5736 48.4326 13.8814 48.8107 13.1408C47.0561 14.0689 45.0264 13.5955 43.3107 12.8439C42.5295 12.4768 41.6795 12.1143 41.1889 11.3674M28.5857 10.533C29.6092 11.6674 30.3279 13.1314 30.3545 14.6814C30.3811 15.7111 29.7482 16.8096 28.7186 17.0908C28.1592 17.2564 27.6029 16.8986 27.2857 16.4658C26.6607 15.6424 26.4748 14.5908 26.2686 13.6127C26.6264 14.4174 26.7373 15.4361 27.4936 15.9955C28.8451 16.2408 30.0029 14.8377 29.9811 13.5658C29.6951 12.4721 28.7857 11.6658 28.5857 10.5377M35.0029 12.7752C35.0623 12.5471 35.1842 12.0861 35.2467 11.858C35.4529 11.9611 35.8717 12.1705 36.0748 12.2814C36.0154 12.5361 35.8998 13.0439 35.8436 13.2986L34.8967 13.083C34.8529 13.2986 34.7701 13.7314 34.7279 13.9471C34.4295 13.9236 34.1342 13.9033 33.8373 13.8783C33.8701 13.4736 33.9061 13.0674 33.9436 12.6627L35.0029 12.7752ZM50.8561 16.2877C50.9717 14.6018 52.2795 13.2752 53.4451 12.1689C52.8623 13.1189 52.1779 14.0033 51.6576 14.9908C51.8826 15.2814 52.1139 15.5752 52.342 15.8643C51.8592 16.0424 51.3795 16.2705 50.8561 16.2877ZM27.5998 12.9971C27.9248 12.9877 28.2503 12.9908 28.5764 13.0064C28.5873 13.3986 28.5967 13.7955 28.6029 14.1924L27.6201 14.1627C27.6061 13.7752 27.5873 13.3814 27.5998 12.9971ZM50.1811 17.9361C49.7014 17.1252 50.5295 16.8174 51.0779 16.4658C51.1199 16.7902 51.1423 17.1169 51.1451 17.4439C50.8331 17.6256 50.5112 17.7899 50.1811 17.9361ZM36.4311 27.6861C36.8123 28.4674 37.1623 29.5986 38.2186 29.6221C38.9826 29.7783 39.4686 29.0689 39.9529 28.6158C40.3732 29.0846 40.7639 29.7721 41.4998 29.6627C42.4373 29.6096 42.7498 28.6002 43.1842 27.9439C43.4857 28.8549 43.3326 30.1455 42.3295 30.5486C41.5217 30.9564 40.6357 30.5783 39.8514 30.3049C38.6748 30.8314 37.2154 30.8533 36.342 29.7721C36.3365 29.0767 36.3662 28.3816 36.4311 27.6893M38.3061 31.8346C38.7857 31.3205 39.3686 30.9174 39.9045 30.4658C40.3732 30.9533 41.0404 31.3033 41.3748 31.9002C41.4279 36.6861 41.1826 41.4768 41.2326 46.2643C45.6248 42.708 46.3889 35.7174 43.192 31.1424C44.8482 32.3627 46.0592 34.1346 46.7451 36.0643C47.7451 38.8986 47.3373 42.1486 45.7639 44.6955C44.917 46.1643 43.6623 47.333 42.3686 48.4002C43.8545 49.008 45.4529 49.1502 47.042 49.1705C45.1232 50.2861 42.8389 49.8689 40.7326 49.9518C40.4607 50.4393 40.1873 50.9252 39.9186 51.4143C39.5482 50.9314 39.2467 50.3893 38.7967 49.9783C36.7764 49.7533 34.3373 50.458 32.7029 48.8924C34.2498 48.9986 35.8748 49.1174 37.3217 48.433C35.5279 46.7143 33.7154 44.8674 32.9639 42.4299C31.4545 38.4486 32.9748 33.5877 36.5045 31.2111C33.0873 35.6564 33.8561 42.8502 38.4764 46.1877C38.4967 41.4049 38.2357 36.6205 38.3045 31.8408M29.0451 36.233C30.3764 33.6846 32.8389 31.7939 35.5404 30.8939C33.442 32.9721 31.2404 35.2361 30.6342 38.2455C29.8264 41.5736 31.1373 44.8596 32.2857 47.933C28.692 45.4096 27.0295 40.2455 29.0451 36.2361M44.4217 30.983C47.0936 31.9721 49.4873 33.9518 50.7061 36.5533C52.5967 40.5768 50.7717 45.7471 47.067 48.0486C47.8482 46.0877 48.8123 44.1611 49.0811 42.0393C49.5498 39.5002 48.9107 36.8314 47.5014 34.6861C46.6701 33.2971 45.4451 32.2205 44.4217 30.983Z" fill="#E30612"/>
<path d="M61.6844 22.8985C62.5047 22.4782 62.8625 21.6673 63.0906 20.8267C63.3297 21.3329 63.5406 21.8501 63.7734 22.3595C63.9984 22.9688 64.6734 23.1938 65.0703 23.6642C65.4875 24.372 65.1625 25.1892 65.1203 25.9438C65.325 26.5532 65.6594 27.1063 65.9453 27.6798C65.6189 28.4023 65.2446 29.1023 64.825 29.7751C64.7766 30.1329 64.7328 30.4892 64.6906 30.847C64.4484 30.9767 64.2094 31.1048 63.9688 31.2313C63.9688 29.5235 64.7328 27.5329 63.5312 26.0642C63.6031 25.5376 64 24.9517 63.6875 24.4423C63.0906 23.8298 62.0844 23.7173 61.6781 22.8985M14.4984 28.2813C14.5328 25.7813 15.5516 23.4376 16.6172 21.2204C16.9984 21.7563 17.6047 22.2407 17.6078 22.9548C17.6078 24.3095 16.7828 25.4548 16.525 26.7563C16.0781 28.4876 16.2797 30.2954 16.0047 32.0485C14.9109 31.1251 14.4688 29.672 14.4984 28.2813ZM56.4672 24.0626C57.6844 24.097 58.85 24.4407 59.7734 25.2642C59.6172 25.4438 59.2797 25.8079 59.1172 25.9923C59.3266 26.8673 59.8625 27.5751 60.75 27.8376C60.8687 29.6876 63.0406 30.3235 63.3094 32.1173C62.5469 31.4751 61.7828 30.7345 60.7469 30.5876C59.9188 30.5579 59.5625 29.7735 59.1703 29.172C58.4754 28.7157 57.8728 28.1326 57.3938 27.4532C57.5359 27.172 57.6781 26.8907 57.8234 26.6095C57.3205 25.7864 56.8676 24.9338 56.4672 24.0563M20.7828 26.2438C21.3844 25.4892 22.3953 25.3204 23.2719 25.0751C22.4109 26.9157 21.6391 28.8985 20.1672 30.3517C19.4781 30.9938 18.6281 31.4204 17.7969 31.8454C18.6406 30.6032 19.6531 29.4313 20.1297 27.9782C20.3484 27.4017 20.4547 26.7735 20.7828 26.2438ZM66.0734 34.8438C66.7118 34.1777 67.3033 33.4682 67.8438 32.7204C68.1692 33.5554 68.4197 34.4176 68.5922 35.297C68.3742 35.7073 68.1862 36.1329 68.0297 36.5704C68.2688 37.1954 68.6984 37.736 68.9031 38.3813C68.9297 38.8282 68.45 39.0438 68.2312 39.3751C67.7953 39.786 67.7281 40.4173 67.4234 40.9079C66.6656 41.4251 65.8484 41.8579 65.15 42.4704C65.4969 41.3376 66.0703 40.2985 66.5563 39.222C66.9141 38.5563 66.4578 37.8657 66.3078 37.2095C66.4623 36.8005 66.5938 36.3832 66.7016 35.9595C66.5158 35.5769 66.3071 35.2059 66.0766 34.8485M12.0266 33.111C12.5125 33.7767 13.0828 34.4001 13.3844 35.1767C13.5156 36.0985 13.3734 37.0517 13.5187 37.9688C13.7219 39.7001 14.6125 41.2501 14.9094 42.961C13.1547 41.6626 12.0687 39.5845 11.7844 37.436C11.5969 35.9923 11.8406 34.5423 12.0203 33.111M60.6375 33.4376C61.4305 34.1388 62.2688 34.7871 63.1469 35.3782C62.8291 35.5931 62.5249 35.8274 62.2359 36.0798C62.0797 36.997 62.5969 37.8345 62.9313 38.6517C62.7341 39.0341 62.5588 39.4275 62.4063 39.8298C62.7188 40.5329 63.4484 41.0688 63.4547 41.8923C63.4995 42.9224 63.4598 43.9546 63.3359 44.9782C62.9568 43.8342 62.4198 42.7488 61.7406 41.7532C61.3125 41.1579 61.4594 40.3923 61.4062 39.7079C61.1203 39.5063 60.8297 39.3079 60.5453 39.111C60.8023 38.5313 60.8653 37.8841 60.725 37.2657C60.8578 37.0548 60.9906 36.8454 61.1266 36.6407C61.1656 35.547 60.9375 34.4813 60.6359 33.4392M17.3859 35.9657C17.3859 34.8235 18.5437 34.3501 19.3125 33.7438C19.4875 35.2048 19.7203 36.747 19.1141 38.147C18.3203 40.1126 17.4516 42.0532 16.7797 44.0626C15.8859 41.3938 17.025 38.6329 17.3859 35.9657ZM17.8625 45.7188C17.7437 44.861 18.4094 44.2126 18.8625 43.5704C18.8531 44.9767 19.4219 46.2642 19.7594 47.5985C20.1 50.0485 19.2687 52.4657 18.4422 54.7423C18.2 52.9345 18.2859 51.111 18.3828 49.297C18.4688 48.0751 18.0312 46.9126 17.8625 45.7188ZM60.3172 46.2173C61.3828 45.8876 61.0984 44.7188 61.575 43.961C62.3359 44.5188 62.7688 45.3579 62.9688 46.261C62.3275 46.7523 61.7333 47.302 61.1938 47.9032C61.3656 48.2235 61.5406 48.5392 61.7172 48.8563C61.4547 49.0126 61.1969 49.1689 60.9484 49.3423C60.9875 50.9157 61.7062 52.4157 61.6203 54.0001C61.1312 55.0673 60.6016 56.1876 59.6547 56.9376C60.4453 55.7063 61.2172 54.3282 61.0609 52.8126C60.8531 51.647 60.1672 50.6532 59.6906 49.5907C60.0156 48.9063 60.4625 48.3032 60.8953 47.6907C61.2406 47.1345 60.5453 46.6657 60.3203 46.2173M11.3281 45.1063C12.2484 45.4501 13.8594 45.5751 13.7141 46.9204C13.9891 50.0954 16.1937 52.5454 17.8391 55.1063C15.95 54.1688 14.4984 52.5517 13.2703 50.8798C11.975 49.2188 12.1312 46.986 11.3281 45.1063ZM67.4438 46.311C67.9125 46.1423 68.3813 45.9798 68.8578 45.8173C68.7688 46.722 68.6484 47.6423 68.2125 48.4563C68.3016 48.6126 68.4828 48.9251 68.5703 49.0813C68.0391 49.3829 67.5031 49.6829 66.9875 50.011C67.3984 50.7626 67.7547 51.5735 67.5922 52.4517C66.9406 52.5704 66.2516 52.6626 65.7719 53.1657C65.2063 53.7189 64.3781 53.7517 63.6531 53.947C63.9781 52.9735 64.7359 52.3189 65.5562 51.7595C66.2828 51.3517 65.8906 50.4938 65.7984 49.8563C66.1828 49.5938 66.5672 49.3329 66.95 49.0642C67.1062 48.1501 67.2891 47.2376 67.4438 46.3204M21.1203 57.5438C20.9719 56.5595 21.6734 55.7392 22.0844 54.9079C22.5203 56.361 22.9313 57.8376 23.675 59.172C24.7422 61.1251 24.7984 63.4267 24.5 65.5782C24.0063 65.4392 23.5109 65.3001 23.0234 65.147C22.6891 63.6907 22.4969 62.2079 22.2422 60.7376C22.0641 59.6032 21.4016 58.6329 21.1141 57.5376M56.3313 59.0626C56.1125 57.4767 57.5 56.4204 57.7578 54.9345C58.2078 55.5345 58.7375 56.0798 59.1375 56.7126C59.2047 57.1188 58.8594 57.447 58.7172 57.8063C58.2318 57.8378 57.7493 57.9042 57.2734 58.0048C56.85 58.6579 56.5594 59.3923 56.1359 60.0501L56.6844 61.0235C55.6359 62.2735 55.9672 64.1485 54.6813 65.2813C54.8781 64.3907 55.225 63.5204 55.2719 62.6001C55.2375 61.922 54.8469 61.3345 54.6062 60.7251C55.1062 60.1001 55.7312 59.597 56.325 59.0735M62.2234 58.4017C63.1609 57.9954 64.0812 57.4642 65.1141 57.3079C65.2 57.3704 65.375 57.4907 65.4609 57.5532C65.2156 58.6126 64.7922 59.6454 64.0547 60.4595C63.6879 60.4272 63.3197 60.4152 62.9516 60.4235C62.4422 61.0485 62.7828 61.8392 62.8203 62.5392C62.5078 63.122 62.1437 63.6845 61.8531 64.286C59.8469 63.9735 57.8641 64.9782 56.5172 66.4126C55.9078 67.1298 54.9969 67.411 54.1422 67.7064C55.5484 65.9689 57.6516 65.0251 59.1641 63.3954C59.6641 63.0017 59.2906 62.3142 59.3328 61.7876C60.125 61.7173 61.0687 62.0657 61.7437 61.5423C62.125 60.5392 62.075 59.4438 62.2234 58.397M14.55 58.2751C15.4531 58.4673 16.9828 58.1985 17.2344 59.3829C17.8734 61.3673 19.3094 62.9423 20.7531 64.3829C21.6906 65.336 22.7984 66.1204 23.5656 67.2267C21.3203 66.4126 19.3109 65.0392 17.5047 63.4923C15.875 62.161 15.7984 59.8704 14.5453 58.2689M27.1469 64.4329C27.6406 65.022 28.0984 65.6579 28.7391 66.1017C29.5844 66.7407 30.65 67.2063 31.1437 68.2063C31.8125 69.4782 32.2 70.8751 32.5875 72.2548C31.1109 71.097 30.2172 69.3923 28.8188 68.1595C28.3656 67.7298 27.8359 67.3595 27.4859 66.8329C27.0344 66.1173 27.1734 65.2329 27.1469 64.4329ZM49.8656 67.3095C50.8812 67.1938 51.5031 66.3813 52.2719 65.8188C52.3547 66.4517 52.3844 67.0876 52.4469 67.7235C52.2906 68.047 52.1203 68.372 51.9641 68.7001C51.5031 68.7001 50.9844 68.4579 50.5578 68.7563C50.025 69.0688 50.0172 69.7485 49.8297 70.2657C49.4687 70.3189 49.1109 70.3689 48.75 70.422C48.5141 70.9814 48.3328 71.5798 47.9891 72.086C47.5203 72.597 46.8625 72.8938 46.2703 73.2548C46.7818 72.467 47.1446 71.5921 47.3406 70.6735C47.8797 70.0485 48.1047 69.2595 48.2 68.4517C48.7604 68.0871 49.3115 67.7053 49.8531 67.3064M21.5047 70.9001C22.386 70.4967 23.3187 70.2169 24.2766 70.0689C25.6922 71.8095 27.8703 72.6017 29.9437 73.2267C32.1844 73.9251 34.5219 74.2032 36.8062 74.7142C33.6906 74.8267 30.4297 75.522 27.4312 74.3298C25.2516 73.5642 23.5375 71.9485 21.5047 70.9001ZM53.4672 72.2595C54.103 72.422 54.758 72.4966 55.4141 72.4814C56.1953 72.6376 56.9844 72.7939 57.7687 72.9501C56.963 73.1944 56.2249 73.6223 55.6125 74.2001C55.2422 74.1079 54.875 74.0017 54.5 73.9454C54.0437 74.6829 53.5625 75.4079 52.8391 75.911C51.2562 75.3985 49.5953 75.4907 47.9719 75.6501C46.3938 75.3032 44.7969 75.1407 43.1922 74.9845C44.5391 74.7438 45.9203 74.8095 47.2703 74.5814C48.5516 74.236 49.6969 73.5313 50.9422 73.0813C51.3797 73.5642 51.9578 74.1751 52.6734 73.7923C53.3812 73.6267 53.3547 72.8204 53.4672 72.2595Z" fill="#F7A70B"/>
<path d="M59.2109 21.5156C59.7875 21.9844 60.4609 22.3094 61.0859 22.6938C61.3078 23.0344 61.4359 23.425 61.6625 23.7594C62.2172 24.1203 62.8375 24.3719 63.4203 24.6859C63.1218 25.5172 62.7312 26.4969 63.6844 27.0734C63.8031 28.45 63.5922 29.8203 63.5984 31.1922C63.025 30.2547 62.1719 29.55 61.4109 28.7656C61.3641 28.356 61.2953 27.9491 61.2047 27.5469C60.589 27.1859 59.8672 26.9344 59.5828 26.2125C59.8344 25.9172 60.0859 25.6234 60.3343 25.3281C59.9875 24.9813 59.639 24.6375 59.2828 24.3031C59.3756 23.3746 59.351 22.438 59.2093 21.5156M17.7719 24.7062C18.4375 23.4656 19.5859 22.6047 20.6422 21.7203C19.9672 23.9187 20.4859 26.3484 19.464 28.4531C18.9234 29.6219 18.0922 30.6156 17.325 31.6391C17.0859 31.2641 16.8422 30.8875 16.5906 30.5203C16.6765 28.5469 16.7656 26.4672 17.7719 24.7062ZM64.3609 31.5984C64.8968 30.9203 65.5687 31.8297 65.6515 32.3906C65.6906 33.6406 65.2703 35.025 66.25 36.0406C65.5984 36.875 65.8562 37.825 66.3203 38.6766C65.8297 39.7484 65.1875 40.7656 64.9031 41.9234C64.6836 42.7304 64.3595 43.5052 63.939 44.2281C63.8672 43.2078 64.0218 42.1687 63.8281 41.1562C63.6093 40.6469 63.1922 40.2625 62.8547 39.8344C63.0453 39.4484 63.3234 39.0969 63.4062 38.6672C63.1484 37.8859 62.7937 37.1438 62.5797 36.3484C62.9797 36.075 63.4203 35.8422 63.7406 35.4656C63.4156 35.0911 63.0675 34.7373 62.6984 34.4062C63.4 33.5594 63.8875 32.5813 64.3609 31.5938M13.9594 35.7109C14.2719 33.9781 15.7344 32.8375 16.7531 31.5125C17.8562 35.1484 15.9031 38.6906 15.9922 42.3313C15.6515 41.9938 15.3062 41.6656 14.9469 41.3484C14.3219 39.5469 13.6344 37.6469 13.9594 35.7109ZM14.2469 47.525C13.8344 45.6781 15.0687 44.0625 15.4 42.3109C16.5344 44.2953 17.8656 46.3172 17.9156 48.6875C17.8984 50.5141 17.75 52.3422 17.8797 54.1734C16.2875 52.2125 14.7734 50.0375 14.2469 47.525ZM63.225 45.4266C64.0859 44.8813 64.8734 44.225 65.7375 43.6828C65.8297 44.6203 66.1718 45.5094 66.9593 46.075C66.8531 46.9922 66.7797 47.9359 66.439 48.8C66.0922 49.0922 65.7015 49.3328 65.3609 49.6313C65.3703 50.125 65.4765 50.6109 65.5062 51.1047C65.0984 51.6875 64.3547 51.9313 63.9109 52.4875C63.1297 53.8781 62.4672 55.6125 60.9281 56.3109C61.2406 55.4938 61.914 54.8344 62.1125 53.9781C62.0656 52.4937 61.6062 51.0578 61.375 49.5937L62.4437 49.0516L61.6625 48.025C62.2031 47.5046 62.7772 47.0202 63.3812 46.575C63.3484 46.1875 63.3015 45.8047 63.225 45.4266ZM18.1531 54.8438C19.6797 56.5625 21.2953 58.3797 21.775 60.7031C22.0531 62.3344 22.2328 63.9844 22.6953 65.5828C20.9187 63.9438 19.064 62.2687 17.9844 60.0672C17.1375 58.3922 18.15 56.5844 18.1531 54.8438ZM60.764 56.7656C61.6609 56.5266 62.4125 55.9844 63.1734 55.4734C63.164 56.1563 63.1375 56.8438 63.1047 57.5266C62.6609 57.7844 61.9156 57.7875 61.8 58.3969C61.5703 59.3609 61.6015 60.3641 61.4312 61.3406C60.6172 61.4062 59.75 61.1516 58.9859 61.5063C58.8297 61.9859 58.8969 62.4984 58.9 62.9953C58.0981 63.8295 57.2074 64.5735 56.2437 65.2141C54.9469 66.0375 54.0797 67.3656 52.775 68.1828C53.5469 66.9484 54.764 66.0844 55.5625 64.8719C56.5 63.7562 56.1093 62.0594 57.2906 61.0891C57.0781 60.7766 56.8703 60.45 56.6656 60.1344C56.9848 59.5818 57.2647 59.0075 57.5031 58.4156C57.9191 58.3854 58.3329 58.3301 58.7422 58.25C59.4109 57.7469 59.9375 57.0156 60.7734 56.7672M23.3812 65.7969C24.6915 66.2461 25.9625 66.8027 27.1812 67.4609C29.025 68.5266 30.1047 70.4297 31.5562 71.9234C32.2906 72.7047 33.2219 73.2312 34.1375 73.7672C31.7578 73.2375 29.3312 72.7484 27.1203 71.6891C26.0375 71.1422 24.8594 70.4109 24.5078 69.1703C24.1562 68.0375 23.8359 66.8953 23.3859 65.7969M52.7656 67.1875C52.65 66.7734 52.7922 66.6141 53.1953 66.7187C53.3109 67.1328 53.1687 67.2906 52.7656 67.1875ZM52.5234 68.5609C54.1781 68.4125 55.6484 67.5734 57.1609 66.9656C57.2219 67.2109 57.35 67.7 57.4156 67.9453C56.8312 68.4781 56.2672 69.0672 56.225 69.9016C55.6187 70.4281 55.3844 71.1734 55.1656 71.9172C54.5765 72.2391 53.9234 71.7484 53.3047 71.7359C52.8812 72.4016 52.9672 73.4344 51.9781 73.5703L51.3844 72.55C50.0265 72.8219 48.8359 73.5563 47.5515 74.0297C46.3156 74.3516 45.0187 74.3344 43.75 74.3766C45.1968 73.9078 46.8156 73.7281 48.0109 72.6984C48.6359 72.2297 48.8219 71.4578 49.1265 70.7891C49.4781 70.7656 49.8328 70.7484 50.1922 70.7266C50.3484 70.05 50.5047 69.3547 51.0734 68.8953C51.425 69.1078 51.7781 69.325 52.1328 69.5375L52.5234 68.5609ZM37.0234 69.6875C37.9609 69.6344 38.7875 69.1219 39.7015 68.9484C40.7047 69.0844 41.6015 69.7297 42.6422 69.6609C43.6312 69.6172 44.6219 69.5391 45.6109 69.6609C45.6312 70.3422 45.7234 71.0375 45.5922 71.7141C44.6156 72.5203 43.7172 73.4047 42.7515 74.2328C42.4172 73.9844 42.089 73.7359 41.7578 73.4875C42.0984 72.9984 42.3312 72.3719 42.9 72.1C43.6047 71.7266 44.3672 71.3594 44.7234 70.5969C43.9422 70.9547 43.225 71.4156 42.4625 71.7984C41.4765 71.4547 40.464 71.0844 39.4047 71.0906C38.5828 71.0906 37.8515 71.5109 37.1359 71.8625C36.6031 71.3234 36.0609 70.7891 35.525 70.2531C35.4422 70.3297 35.2828 70.4875 35.2031 70.5656C36.1937 71.4937 37.1312 72.5 38.0687 73.5031C37.8109 73.7875 37.5531 74.075 37.2875 74.3578C36.3536 73.6692 35.3489 73.082 34.2906 72.6062C34.2969 71.6219 34.3156 70.6375 34.3469 69.6531C35.2375 69.6531 36.1312 69.7297 37.0219 69.6797M38.9547 73.4297C39.5252 73.5683 40.1243 73.5313 40.6734 73.3234C41.2062 73.6625 41.7203 74.025 42.2359 74.4C41.9312 75.1078 41.7297 75.9125 41.1562 76.4656C40.4281 76.4656 39.6969 76.4156 38.9687 76.5156C38.3984 75.8734 38.1437 75.0484 37.9187 74.2406C38.2625 73.9656 38.6078 73.6891 38.9609 73.4297M32.1953 76.1312C34.1312 76.1312 36.089 76.2438 37.9765 75.6781C38.2687 76.3469 37.6234 76.8969 37.0828 77.1547C36 77.4922 34.789 77.3656 33.7828 77.9656C33.1261 77.4778 32.5846 76.8516 32.1969 76.1312M41.639 76.175C43.6375 76.5875 45.6609 76.6188 47.6859 76.7234C47.2037 77.3326 46.634 77.8671 45.9953 78.3094C45.0125 77.5719 43.7312 77.8234 42.6187 77.4781C42.0547 77.2766 41.8594 76.6703 41.639 76.175ZM28.0687 77.4422C29.5625 77.6578 31.089 77.7734 32.575 77.4422C33.2932 77.9871 34.0693 78.4513 34.889 78.8266C33.1109 79.8 31.0547 79.4188 29.1312 79.3188C29.2875 79.0063 29.4328 78.6937 29.5625 78.3687C29.1125 77.9891 28.5765 77.7344 28.0687 77.4453M47.0875 77.9625C48.3375 77.9359 49.564 77.7375 50.8031 77.6313C50.0937 78.1844 50.4906 78.8484 50.9219 79.4422C48.8531 79.0375 46.7234 79.7469 44.6875 79.1047C45.5256 78.8099 46.3301 78.427 47.0875 77.9625Z" fill="#FEF481"/>
</g>
<defs>
<clipPath id="clip0_10416_69130">
<rect width="80" height="80" fill="white"/>
</clipPath>
</defs>
</svg>
