<svg width="80" height="80" viewBox="0 0 80 80" fill="none" xmlns="http://www.w3.org/2000/svg">
<path fill-rule="evenodd" clip-rule="evenodd" d="M37.5094 35.4354C37.0516 32.3323 36.5156 31.3292 34.6641 28.7167C37.1453 25.0386 38.5469 19.9354 39.5406 15.6558C40.5484 19.9979 41.9063 24.9948 44.4234 28.7089C42.5719 31.3276 42.0406 32.3308 41.5719 35.4354C40.3219 34.262 38.7469 34.262 37.4969 35.4354H37.5094Z" fill="black"/>
<path fill-rule="evenodd" clip-rule="evenodd" d="M36.5719 66.2576V51.3232C29.2734 48.3342 28.2813 43.7045 28.2813 36.9842C31.2234 38.1795 32.2969 39.4842 33.6469 41.6592C34.0094 39.6795 34.5 38.2014 35.5906 36.5842C39.1047 40.1904 38.9656 50.7029 38.9656 52.3154V68.9279H14V31.6326C14 28.0264 14.7719 22.2576 19.2281 21.4404L20.4062 23.0342C16.1219 24.5561 16.325 30.2076 16.325 33.9811V66.2576H36.5719Z" fill="#960E15"/>
<path fill-rule="evenodd" clip-rule="evenodd" d="M30.4064 36.6013C28.1627 33.5716 26.5596 35.6419 26.6299 39.6716C25.1689 27.8919 22.4111 21.8966 16.1611 16.8247C24.3283 18.3372 30.8049 24.0122 35.4002 35.1263C33.5158 34.245 30.8689 34.1216 30.4096 36.6013H30.4064Z" fill="black"/>
<path fill-rule="evenodd" clip-rule="evenodd" d="M27.7501 21.1092C27.8407 18.9592 28.8188 15.9217 27.9469 14.4107C27.1282 12.9935 25.4204 13.6748 24.6798 14.3545C22.5969 13.8107 21.1219 15.792 22.2798 17.256C23.6063 18.9326 25.6094 18.9748 27.7485 21.1092H27.7501Z" fill="black"/>
<path fill-rule="evenodd" clip-rule="evenodd" d="M36.0193 22.3216L33.3787 27.8794C31.8928 25.481 30.7553 23.995 28.835 22.106C29.6006 19.9185 30.224 17.3044 30.2772 15.0747C31.8776 17.723 33.807 20.158 36.0193 22.3216Z" fill="#960E15"/>
<path fill-rule="evenodd" clip-rule="evenodd" d="M36.2332 20.5761C35.3363 18.7854 32.9347 16.8745 31.9629 14.9948C31.4176 13.9386 31.8144 12.1823 34.5285 12.6386C35.1332 11.6198 37.2082 11.8573 37.6535 13.0854C38.5269 15.4667 37.0488 18.6261 36.2269 20.5761H36.2332Z" fill="black"/>
<path fill-rule="evenodd" clip-rule="evenodd" d="M42.5097 66.2576V51.3232C49.8082 48.3342 50.8004 43.7045 50.8004 36.9842C47.8582 38.1795 46.7847 39.4842 45.4347 41.6592C45.0722 39.6795 44.5816 38.2014 43.4925 36.5842C39.9769 40.1904 40.116 50.7029 40.116 52.3154V68.9279H65.0816V31.6326C65.0816 28.0264 64.3097 22.2576 59.8535 21.4404L58.6754 23.0342C62.9597 24.5561 62.7566 30.2076 62.7566 33.9811V66.2576H42.5097Z" fill="#960E15"/>
<path fill-rule="evenodd" clip-rule="evenodd" d="M48.6754 36.6013C50.9191 33.5716 52.5223 35.6419 52.452 39.6716C53.9129 27.8919 56.6707 21.8966 62.9207 16.8247C54.7535 18.3372 48.277 24.0122 43.6816 35.1263C45.5676 34.245 48.2223 34.1216 48.6723 36.6013H48.6754Z" fill="black"/>
<path fill-rule="evenodd" clip-rule="evenodd" d="M51.7904 9.11111C51.6998 6.96111 50.7217 3.92361 51.5935 2.41268C52.4123 0.995489 54.1201 1.67674 54.8607 2.35643C56.9435 1.81268 58.4185 3.79393 57.2607 5.25799C55.9341 6.93455 53.931 6.97674 51.792 9.11111H51.7904Z" fill="black"/>
<path fill-rule="evenodd" clip-rule="evenodd" d="M43.5215 10.3235L46.1621 15.8813C47.648 13.4829 48.7855 11.997 50.7059 10.1079C49.9402 7.92041 49.3168 5.30635 49.2637 3.07666C47.6632 5.72499 45.7338 8.15998 43.5215 10.3235Z" fill="#960E15"/>
<path fill-rule="evenodd" clip-rule="evenodd" d="M43.3076 8.57802C44.2045 6.7874 46.606 4.87646 47.5779 2.99677C48.1232 1.94052 47.7263 0.184271 45.0123 0.640521C44.4076 -0.378229 42.3341 -0.140729 41.8873 1.0874C41.0138 3.46865 42.492 6.62802 43.3138 8.57802H43.3076Z" fill="black"/>
</svg>
