<svg width="80" height="80" viewBox="0 0 80 80" fill="none" xmlns="http://www.w3.org/2000/svg">
<g clip-path="url(#clip0_10416_69152)">
<path d="M56.3379 38.3795C55.6504 37.3889 56.616 35.692 57.877 35.9233C57.6582 36.353 57.0426 36.2092 56.7551 36.5655C56.5285 36.8436 56.5832 37.2764 56.7707 37.5608C56.9989 37.7779 57.3285 37.8326 57.6129 37.9529C57.2785 38.2748 56.8317 38.7076 56.3379 38.3795ZM57.1551 36.7951C57.2254 36.6155 57.4442 36.5779 57.5848 36.4717C57.5848 36.7576 57.5848 37.0451 57.602 37.3295C58.0254 37.3295 58.1676 36.9295 58.316 36.6061C58.7588 36.5578 59.2064 36.5826 59.641 36.6795C59.0426 36.992 58.466 37.3451 57.8395 37.5889C57.4739 37.5608 56.9614 37.2123 57.1551 36.7951Z" fill="white"/>
<path d="M11.708 0.0296906C19.6689 -0.0296844 27.633 0.0218781 35.5955 3.13233e-06C39.9002 0.0187531 44.2064 -0.0359344 48.5111 0.0265656C48.4393 0.457816 48.3549 0.882816 48.2674 1.31094C36.1559 1.33282 24.0455 1.33282 11.9361 1.31094C11.8471 0.887503 11.7689 0.468753 11.708 0.0296906ZM12.0596 2.00469C12.9143 1.95313 13.7783 1.97188 14.6299 1.97344H45.7564C46.5549 1.97344 47.3549 1.9625 48.1533 1.99844C47.5408 5.78125 46.9627 9.55157 46.3705 13.3281C45.0299 13.2781 44.058 11.9969 43.9283 10.7438C44.2768 10.2172 44.7877 9.78125 44.958 9.15C45.1283 8.51875 45.1564 7.86094 45.3127 7.22657C45.4799 6.48907 45.8908 5.8375 46.0939 5.10782C45.8366 5.19337 45.5976 5.3264 45.3893 5.5C44.6873 6.09327 44.0499 6.75893 43.4877 7.48594C42.6627 6.59063 41.8283 5.68438 40.8314 4.97032C40.7783 5.59532 41.2471 6.10157 41.4127 6.68907C41.7736 7.56407 41.6549 8.55625 42.0377 9.42188C42.2518 9.9125 42.6502 10.2844 42.9111 10.7453C42.8737 11.3007 42.6769 11.8336 42.3443 12.28C42.0118 12.7265 41.5576 13.0676 41.0361 13.2625C40.0158 13.5109 38.8111 13.4094 38.0502 12.6141C37.4861 12.1188 37.4861 11.2344 36.8408 10.8141C36.6158 11.9328 37.3768 12.9578 38.2721 13.5313C39.8221 14.5063 42.1439 13.9813 43.0002 12.3234C43.4439 11.7516 43.2814 11.0234 43.3127 10.3563C43.458 10.4654 43.587 10.5948 43.6955 10.7406C43.6471 11.2234 43.4939 11.7516 43.7893 12.1938C44.258 13.1672 45.2205 13.7563 46.2283 14.025C46.1846 14.3375 46.1403 14.6531 46.0955 14.9719C37.8143 15.0188 29.5174 14.9719 21.2299 14.9938C18.8549 14.9703 16.4814 15.0391 14.108 14.9578C14.058 14.6313 14.0096 14.3078 13.9643 13.9813C14.7971 13.6063 15.6252 13.125 16.0471 12.2938C16.3924 11.8016 16.3049 11.1859 16.1674 10.6391C16.308 10.5547 16.4486 10.4703 16.5908 10.3891C16.5705 10.9641 16.4627 11.5891 16.7861 12.1078C17.0505 12.6794 17.4749 13.1621 18.0078 13.4977C18.5408 13.8332 19.1595 14.0071 19.7893 13.9984C21.4689 14.1125 23.2268 12.6047 23.0705 10.8734L22.6564 11.0297C22.3768 12.0141 21.7533 12.9875 20.7205 13.2859C19.8924 13.4422 18.9361 13.4766 18.2205 12.9484C17.4393 12.4203 17.0064 11.4906 16.9221 10.5656C17.3356 10.2892 17.661 9.89978 17.8596 9.44375C18.2314 8.6125 18.1361 7.66719 18.4471 6.81875C18.6424 6.20782 18.9877 5.65625 19.1518 5.03438C18.9108 5.11959 18.687 5.24711 18.4908 5.41094C17.7608 6.06811 17.068 6.76555 16.4158 7.5C15.6877 6.59688 14.8986 5.68125 13.8705 5.11094C14.0049 5.84844 14.4033 6.49844 14.5893 7.21875C14.7705 7.89375 14.7877 8.60157 14.9846 9.27032C15.1674 9.85157 15.6564 10.2484 15.9752 10.7484C15.8596 11.9203 15.0174 13.0078 13.8674 13.3359C13.2596 9.5625 12.6174 5.79219 12.0596 2.01094M16.2299 3.28125C16.0846 3.94375 16.2096 4.62188 16.1877 5.29063C15.9627 4.84532 15.9158 4.29063 15.5752 3.91875C15.4393 3.90782 15.1643 3.89063 15.0268 3.88282C15.0002 4.65469 15.5861 5.22969 16.0439 5.78125C16.2143 5.69532 16.3877 5.61094 16.5596 5.52813C16.6736 4.90313 16.8893 4.29688 16.8533 3.66094C16.8533 3.32657 16.458 3.37344 16.2283 3.28438M22.8127 3.64219C22.8283 4.3 23.0002 4.94844 22.9814 5.61094L23.3799 5.625C23.3611 4.95938 23.4986 4.30625 23.5189 3.64688C23.5268 3.225 22.8361 3.23125 22.8127 3.64688M29.6205 3.33438C29.4111 4.06563 29.6314 4.8125 29.7768 5.53282C29.9564 5.60625 30.1346 5.68907 30.3143 5.75938C30.7971 5.24844 31.3518 4.66563 31.333 3.91563L30.7314 3.89219C30.5252 4.40625 30.3424 4.93125 30.1393 5.45469C30.1518 4.76719 30.2221 4.08282 30.208 3.39375C30.0096 3.38125 29.8111 3.3625 29.6143 3.34219M36.4158 3.31407C36.1674 4.07188 36.5361 4.84063 36.5236 5.60782C36.7893 5.59844 37.1377 5.80938 37.3377 5.55C37.7491 5.10734 38.0462 4.571 38.2033 3.9875L37.6252 3.84063C37.2986 4.34063 37.1564 4.93438 36.9252 5.46719C36.8846 4.86094 37.0143 4.26563 37.0471 3.66407C37.0127 3.33594 36.6533 3.38282 36.4221 3.30782M43.0752 3.39688C43.0299 4.125 43.2127 4.83282 43.3455 5.54219L43.8627 5.825C44.3314 5.28907 44.783 4.71407 44.9564 4.01094L44.4299 3.80313C44.0689 4.24844 43.9611 4.82344 43.7127 5.32813C43.6564 4.65625 43.8283 3.98125 43.683 3.31563L43.0752 3.39688ZM16.7986 5.70625C17.4393 5.35469 17.833 4.64532 17.9314 3.93438C17.7752 3.91719 17.4861 3.87813 17.3361 3.85782C17.0533 4.43907 16.8033 5.04844 16.7986 5.70625ZM21.6783 3.96875C21.8939 4.65938 22.2221 5.41875 22.9033 5.7625C22.8096 5.0875 22.6518 4.40782 22.2596 3.83594L21.6783 3.96875ZM23.9518 4.075C23.6705 4.59688 23.5502 5.18594 23.4439 5.76407C24.1143 5.3875 24.5268 4.65313 24.6736 3.91719C24.4408 3.94219 24.0643 3.77188 23.9518 4.07344M28.4361 3.93907C28.5611 4.63438 28.9299 5.34532 29.5564 5.7C29.5893 5.03907 29.3143 4.43282 29.0236 3.85625L28.4361 3.93907ZM35.2158 3.90782C35.3721 4.5875 35.6846 5.4875 36.4299 5.67032C36.3421 5.12144 36.1764 4.58792 35.9377 4.08594C35.8268 3.79219 35.4424 3.95 35.2111 3.90938M41.958 3.93282C42.0861 4.63594 42.4658 5.33907 43.1033 5.70625C43.1033 5.04844 42.8705 4.42969 42.5674 3.85625C42.4111 3.87657 42.1096 3.91563 41.958 3.93282ZM14.3486 4.21875C14.2393 4.40157 14.1299 4.58594 14.0174 4.77032C14.5175 5.35847 15.1226 5.84856 15.8018 6.21563C15.4893 5.45157 15.0518 4.68907 14.3486 4.21875ZM18.2549 4.33438C17.8408 4.92657 17.3549 5.49688 17.1705 6.20938C17.7533 5.82032 18.3486 5.4125 18.7924 4.86407C18.8033 4.68125 18.8064 4.49844 18.8033 4.31563L18.2549 4.33125M20.8002 4.30938C20.7977 4.6072 20.868 4.90112 21.0049 5.16563H20.5111C20.783 5.85938 21.1361 6.52188 21.3236 7.24844C21.4611 7.88907 21.4799 8.55 21.6799 9.17657C21.8361 9.77344 22.283 10.2234 22.6736 10.6797C22.989 10.6071 23.3163 10.6039 23.633 10.6703C23.9643 10.3578 24.308 10.0359 24.508 9.61563C24.8705 8.88438 24.8502 8.05313 25.0361 7.27188C25.2096 6.52344 25.6096 5.85782 25.8174 5.12344C24.7096 5.60157 24.0049 6.6625 23.1721 7.49532C22.5205 6.68438 21.6627 6.06407 21.0486 5.22344C21.4857 5.50776 21.9033 5.82095 22.2986 6.16094C22.2986 6.06563 22.3064 5.87657 22.308 5.78282C22.0409 5.26827 21.7056 4.79211 21.3111 4.36719C21.1361 4.34375 20.9611 4.32813 20.7861 4.31875M24.9893 4.33594C24.558 4.87969 24.133 5.43907 23.8799 6.09219C24.4909 5.85032 25.0291 5.45473 25.4424 4.94375C25.6283 4.76719 25.4533 4.51719 25.4268 4.31875L24.9955 4.34063M27.5721 4.31875C27.5533 4.42969 27.5127 4.65 27.4924 4.75938L27.8408 5.25313L27.1768 5.1125C27.5064 5.92188 27.9268 6.70313 28.1049 7.56563C28.2252 8.15157 28.1814 8.77344 28.4377 9.325C28.6643 9.9 29.1377 10.3328 29.358 10.9078C29.2858 11.434 29.0738 11.9313 28.744 12.3476C28.4142 12.764 27.9787 13.0842 27.483 13.275C26.5799 13.4781 25.5205 13.4641 24.7799 12.8313C24.0814 12.3234 23.8893 11.4453 23.4721 10.7344C23.3393 11.0328 23.1955 11.3594 23.3158 11.6875C23.4894 12.2183 23.7908 12.6983 24.1935 13.0852C24.5962 13.4721 25.0879 13.7541 25.6252 13.9063C26.5861 14.1063 27.6564 14.0203 28.4643 13.4188C29.1799 12.9953 29.4908 12.1938 29.9205 11.5234C30.2971 12.2469 30.6721 13.0359 31.4049 13.4641C32.1939 14.0203 33.2064 14.0891 34.133 13.9328C34.6713 13.7995 35.1685 13.5358 35.5808 13.1649C35.993 12.7941 36.3077 12.3275 36.4971 11.8063C36.6143 11.3594 36.5252 10.8953 36.5158 10.4422C36.7689 10.5328 37.0908 10.8281 37.3049 10.5078C38.1408 9.84375 38.3377 8.75 38.4549 7.75469C38.5471 6.81719 39.0268 5.99688 39.3564 5.13594L38.8377 5.19532C38.9221 5.00313 39.0111 4.81094 39.0986 4.62032C39.0549 4.54688 38.9674 4.4 38.9221 4.32813L38.5471 4.30313C38.0971 4.83438 37.6658 5.39688 37.4533 6.07188C37.9346 5.84532 38.3439 5.50469 38.7877 5.21875C38.6689 5.55 38.3877 5.77188 38.1377 6C37.6319 6.46118 37.1579 6.95606 36.7189 7.48125C36.1408 6.80782 35.4502 6.24063 34.9158 5.52969C35.2861 5.74844 35.6393 5.99844 36.0096 6.2125C35.8049 5.49375 35.3018 4.93125 34.8846 4.3375L34.3189 4.32188C34.342 4.6556 34.4318 4.9813 34.583 5.27969C34.3736 5.17657 34.1643 5.075 33.958 4.97657C34.1861 5.68438 34.583 6.32813 34.7768 7.04688C35.0377 7.86094 34.9627 8.76563 35.3471 9.54688C35.558 10.0156 35.9814 10.3375 36.1924 10.7969C36.0627 12.0141 35.1158 13.2313 33.8408 13.3547C33.133 13.4203 32.3564 13.4047 31.7502 12.9844C30.9955 12.5453 30.5908 11.7047 30.3939 10.8844C30.3361 10.5578 30.6893 10.3844 30.8533 10.1563C31.4518 9.54844 31.5471 8.65469 31.6689 7.85157C31.7596 6.8875 32.2346 6.025 32.5924 5.14375L32.0689 5.20157C32.1674 4.99844 32.2658 4.79688 32.3627 4.59532C32.1893 4.50313 32.0252 4.2625 31.8049 4.35313C31.2236 4.8375 30.8455 5.51563 30.5799 6.2125C31.0486 5.91094 31.5002 5.57032 31.9502 5.23282L31.9627 5.48907C31.1847 6.04651 30.5015 6.7255 29.9393 7.5C29.2924 6.71875 28.5096 6.07969 27.8643 5.3125C28.3408 5.59219 28.7643 5.9375 29.2268 6.25C29.0268 5.52657 28.5127 4.96719 28.1033 4.36094L27.5908 4.32969M41.108 4.32969C41.0986 4.51499 41.0986 4.70064 41.108 4.88594C41.586 5.4154 42.1387 5.87229 42.7486 6.24219C42.5799 5.50938 42.0299 4.97032 41.6455 4.35313C41.4627 4.35313 41.2814 4.33907 41.1033 4.32969M44.108 6.20313C44.7662 5.8203 45.3608 5.33744 45.8705 4.77188C45.7596 4.5875 45.6502 4.40157 45.5424 4.21719C44.8393 4.68594 44.4346 5.45157 44.108 6.20313ZM15.7939 6.19219C15.9591 6.53963 16.2096 6.83958 16.5221 7.06407C16.7199 6.85652 16.8911 6.62504 17.0314 6.375C16.9799 6.16778 16.8645 5.98197 16.7018 5.84375C16.3471 5.74688 16.0768 6.02813 15.7908 6.19219M22.8346 5.78125C22.7814 6.02032 22.6002 6.25 22.6596 6.50469C22.818 6.71875 22.9913 6.92134 23.1783 7.11094C23.3689 6.82657 23.7377 6.58282 23.733 6.21407C23.5955 5.82032 23.1799 5.81875 22.8346 5.78125ZM29.2408 6.35157L29.8299 7.03907C30.0814 6.82969 30.3205 6.60469 30.5502 6.37344C30.3346 6.15313 30.1908 5.70313 29.8064 5.83282C29.5283 5.85157 29.4252 6.18282 29.2408 6.35157ZM36.3205 5.95782C35.9033 6.31875 36.3736 6.75938 36.6002 7.06719C36.8502 6.84323 37.0919 6.6125 37.3252 6.375C37.1393 6.0125 36.7002 5.57032 36.3205 5.95782ZM43.0127 6.03438C42.6689 6.41719 43.1564 6.7625 43.3752 7.05C43.6189 6.825 43.8564 6.58907 44.0893 6.35C43.8674 6 43.3471 5.53125 43.0127 6.0375M14.3424 15.725C14.6549 15.7016 14.9596 15.6797 15.2705 15.675C24.2507 15.675 33.2299 15.675 42.208 15.675C43.4346 15.7016 44.6674 15.6125 45.8893 15.7359C45.9049 15.8516 45.9314 16.0797 45.9439 16.1953C35.3939 16.2078 24.8429 16.2078 14.2908 16.1953C14.3033 16.0766 14.3299 15.8422 14.3424 15.7266M14.3611 16.6031C24.8643 16.6031 35.3658 16.6031 45.8658 16.6031C44.5986 24.4594 43.3955 32.325 42.1533 40.1828C41.5408 43.1328 41.2799 46.2844 42.2736 49.1828C42.8752 51.05 44.2846 52.6844 46.1314 53.4016C47.5518 53.9438 48.8924 54.7672 49.8596 55.9563C50.383 56.6141 50.7971 57.4313 50.7143 58.3C50.6986 59.1109 50.0502 59.8109 49.2955 60.0297C48.5143 60.1688 47.6799 60.1859 46.9518 59.8531C45.1127 59.1797 42.9486 58.8125 41.1455 59.7922C39.9783 60.3578 39.1752 61.6438 39.3721 62.9547C39.6752 64.9781 41.4908 66.6344 43.4955 66.8875C52.2939 66.8953 61.0939 66.8781 69.8908 66.8953C69.8908 67.4188 69.8908 67.9406 69.8908 68.4578C66.9564 68.5469 64.0174 68.4703 61.0799 68.4953C44.0205 68.4859 26.9611 68.5172 9.9002 68.4813C9.87988 67.9484 9.88301 67.4156 9.91582 66.8844C17.296 66.8844 24.6742 66.8844 32.0502 66.8844C32.8939 66.8734 33.7455 66.9453 34.5799 66.7828C34.4283 66.6902 34.2634 66.6217 34.0908 66.5797C30.3518 66.1109 26.9033 64.0344 24.5596 61.1188C21.933 57.9094 20.5221 53.8922 19.7346 49.8688C17.9127 38.775 16.1939 27.6813 14.3689 16.6016M28.2018 25.7109C28.1924 27.1516 28.1361 28.5938 28.1721 30.0344C28.8553 29.895 29.546 29.7953 30.2408 29.7359C30.6861 28.5484 31.0736 27.3406 31.5268 26.1563C31.683 25.8016 31.7564 25.3406 31.4393 25.0484C30.908 24.5703 30.1299 24.6594 29.4658 24.6641C28.8721 24.6516 28.1439 25.0234 28.2018 25.7109ZM24.5096 26.3922C24.2236 26.7469 24.3314 27.225 24.5314 27.5922C25.0658 28.6609 25.5752 29.7453 26.1033 30.8172C26.7127 30.6047 27.2783 30.2969 27.8611 30.0359C27.8002 28.6156 27.8611 27.1922 27.7596 25.7766C27.6689 25.1516 26.9096 25.2875 26.4564 25.3453C25.7408 25.5219 24.9877 25.8141 24.5096 26.3984M32.5596 25.4016C32.1596 25.5844 32.0533 26.0344 31.908 26.4063C31.5283 27.5234 31.0471 28.6047 30.7064 29.7375C31.3158 29.8797 31.9268 30.0281 32.5439 30.1438C33.2736 29.3906 33.8377 28.5016 34.5205 27.7078C34.8486 27.3141 35.258 26.8406 35.0393 26.2906C34.6158 25.425 33.4361 24.9969 32.5596 25.4016ZM35.1924 27.5734C34.4111 28.4188 33.7439 29.3766 33.0049 30.2672C33.4105 30.6566 33.7919 31.0704 34.1471 31.5063C35.0596 31.0375 35.9705 30.5578 36.8674 30.0547C37.3658 29.7766 37.8439 29.2516 37.7643 28.6484C37.5779 28.0205 37.1662 27.4835 36.608 27.1406C36.0971 26.9406 35.533 27.1813 35.1893 27.5797M22.3768 27.9922C21.7893 28.5 21.6236 29.2891 21.5877 30.0234C22.5361 30.9234 23.5877 31.7094 24.5236 32.6234C24.9471 32.1547 25.3502 31.6594 25.7736 31.1859C25.3439 29.9016 24.6314 28.7406 24.0799 27.5094C23.4908 27.5406 22.8627 27.6234 22.3783 27.9875M19.6877 32.4141C20.1049 32.8469 20.7049 33.0391 21.2299 33.3031C22.0877 33.6672 22.8689 34.2125 23.7799 34.4422C23.9861 33.9609 24.1752 33.4719 24.3533 32.9797C23.6236 32.2906 22.8299 31.6781 22.0877 31.0047C21.7299 30.7266 21.3939 30.3422 20.9205 30.2875C19.8549 30.1313 19.2018 31.5875 19.6877 32.4141ZM27.6877 30.8656C27.0627 31.1594 27.1377 31.9703 27.3674 32.5016C27.7329 33.3939 28.3648 34.1518 29.1768 34.6719C29.6752 34.6156 30.1143 34.35 30.583 34.1859C30.5346 33.3375 30.1393 32.5469 30.1674 31.6859C30.1731 31.2707 30.1491 30.8556 30.0955 30.4438C29.2799 30.4688 28.4377 30.5344 27.683 30.8609M30.7018 30.6547C30.6205 31.8203 30.4736 33.1688 31.2486 34.1469C31.7877 34.2453 32.3424 34.1766 32.8814 34.1625C32.9329 33.345 33.1696 32.55 33.5736 31.8375C32.958 30.9 31.7736 30.5547 30.7018 30.6547ZM24.6955 33.525C24.5002 34.1016 25.0643 34.575 25.4768 34.8844C26.2783 35.4063 27.1752 35.9531 28.1627 35.9406C28.4203 35.6575 28.6578 35.3567 28.8736 35.0406C28.3752 34.5141 27.8018 34.0516 27.3986 33.4438C27.0314 32.8922 26.7314 32.3 26.3971 31.725C25.5361 31.9438 25.0174 32.7469 24.6971 33.5203M19.3846 33.3641C18.8971 33.6641 18.7768 34.2688 18.7158 34.7953C18.6705 35.1531 18.7018 35.6031 19.0471 35.8094C20.0127 36.1922 21.0783 36.1531 22.0768 36.3813C22.5736 36.4938 23.0799 36.5656 23.583 36.6438C23.5955 36.0797 23.6299 35.5156 23.6471 34.9531C22.6502 34.4672 21.6268 34.0344 20.608 33.5969C20.2205 33.4531 19.8064 33.2359 19.3846 33.3641ZM24.4299 34.5594C24.1174 35.4313 24.1674 36.3813 24.3658 37.2688C24.4768 37.6844 24.6502 38.1344 25.0408 38.3625C26.0908 38.4797 27.1283 38.1938 28.1658 38.1547C28.1424 37.5531 28.1361 36.95 28.1502 36.3484C26.7846 36.0688 25.3893 35.625 24.4221 34.5609M29.5908 35.3625C28.8674 35.9188 28.6314 36.925 28.8393 37.7938C28.9627 38.3813 29.3736 38.8469 29.7768 39.2734C30.5096 40.0547 31.1736 40.8922 31.9064 41.6672C34.6283 44.5063 37.3096 47.5359 38.8143 51.2219C39.8893 53.975 40.1596 56.9781 40.1158 59.9109C40.6533 59.5469 41.1939 59.1563 41.8346 59.0078C42.7174 58.7281 43.6611 58.8 44.5674 58.9156C43.9627 57.5375 43.7143 56.0438 43.2955 54.6063C42.3736 51.6172 41.3064 48.6469 39.7533 45.9219C37.8908 42.9813 35.5346 40.3703 33.8408 37.3281C33.3721 36.5141 33.1189 35.6094 32.9033 34.6969C31.7674 34.5719 30.5346 34.6719 29.583 35.3688M19.5314 36.9203C19.0502 37.3891 19.0768 38.1344 19.1814 38.7438C19.3377 39.2609 19.9752 39.2313 20.4127 39.2359C21.7658 39.1797 23.1189 39.1875 24.4752 39.1859C24.1549 38.4953 23.7799 37.8234 23.5752 37.0828C22.6362 36.9304 21.6894 36.8302 20.7393 36.7828C20.3377 36.7703 19.8986 36.7109 19.533 36.9203M25.5924 38.8078C25.0064 39.525 25.8971 40.6984 26.7502 40.4766C27.6564 40.3859 28.5252 40.0844 29.4268 39.9547C29.0377 39.4719 28.6799 38.9641 28.2533 38.5172C27.3549 38.4266 26.4861 38.7797 25.5971 38.8078M22.0314 39.7203C21.3861 39.7781 20.7033 39.7531 20.1143 40.0641C19.8268 40.1516 19.8564 40.4766 19.9002 40.7094C20.0438 41.2147 20.3716 41.6479 20.8189 41.9234C22.4486 41.8016 24.0377 41.35 25.6033 40.8859C25.232 40.4201 24.8892 39.9322 24.5768 39.425C23.7174 39.4063 22.8846 39.6625 22.0314 39.7203ZM27.1096 40.8141C26.858 40.8953 26.5064 41.0375 26.5658 41.3656C26.5924 42.0891 27.3471 42.8063 28.0924 42.5578C29.0627 42.3016 30.0486 42.0984 30.9799 41.7188C30.6192 41.2227 30.224 40.7528 29.7971 40.3125C28.8893 40.4156 28.0049 40.6375 27.1096 40.8141ZM22.6283 42.1422C22.2096 42.2828 21.6674 42.2859 21.408 42.7016C21.3174 43.2328 21.6502 43.7781 22.1002 44.0438C22.4877 44.3344 22.9564 44.0437 23.3643 43.9578C24.5236 43.5766 25.708 43.2719 26.8752 42.9188C26.3637 42.5391 25.9905 42.0023 25.8127 41.3906C24.7314 41.5469 23.6986 41.9234 22.6283 42.1422ZM29.0346 42.7047C28.7111 42.8141 28.2111 42.925 28.2252 43.3578C28.1361 43.8875 28.5799 44.3609 29.0424 44.5406C29.5111 44.5547 29.9455 44.3297 30.3955 44.2281C31.1768 43.9891 31.9846 43.8797 32.7221 43.5266C32.2752 43.0859 31.9408 42.4906 31.3799 42.1906C30.5768 42.2328 29.8096 42.5031 29.0361 42.7047M24.3752 44.1406C23.933 44.2766 23.4033 44.2891 23.0908 44.6797C22.8299 45.3781 23.5049 46.2688 24.2518 46.0484C25.6424 45.6656 27.0346 45.275 28.4049 44.8156C27.8236 44.5031 27.5643 43.9063 27.4674 43.2875C26.4221 43.5203 25.4064 43.8531 24.3768 44.1406M30.0674 44.7125C29.5611 45.0859 29.7861 45.9219 30.258 46.2234C30.7143 46.4047 31.2174 46.2672 31.6736 46.1547C32.5195 45.8912 33.3679 45.6359 34.2189 45.3891C33.8716 44.8468 33.4509 44.3552 32.9689 43.9281C32.0049 44.2078 31.0299 44.4406 30.0674 44.7094M25.1377 46.2188C24.4783 46.3219 24.5205 47.1734 24.8533 47.5844C25.1564 48.0359 25.7736 47.9219 26.2189 47.8016C27.4314 47.4516 28.6393 47.0859 29.8518 46.7344C29.4465 46.2903 29.135 45.7689 28.9361 45.2016C27.6424 45.4188 26.4018 45.8734 25.1377 46.2188ZM31.3877 46.6875C31.1049 47.1813 31.283 47.9687 31.8564 48.1766C32.2549 48.3328 32.6799 48.15 33.0705 48.0469C33.9393 47.7516 34.8439 47.5641 35.6908 47.2031C35.3135 46.6994 34.9038 46.2208 34.4643 45.7703C33.4215 45.9922 32.3988 46.2995 31.4064 46.6891M26.1752 48.2375C26.1658 48.6531 26.0189 49.1547 26.3314 49.4969C26.6439 49.9172 27.2252 49.7891 27.6611 49.7C28.9002 49.3562 30.1205 48.9406 31.3689 48.6281C30.8924 48.1953 30.5799 47.6328 30.2955 47.0656C28.9049 47.4031 27.5408 47.8375 26.1689 48.2375M32.7221 48.5234C32.5658 49.0516 32.5799 49.6891 33.0799 50.0328C33.5783 50.2172 34.1174 50.0781 34.5955 49.8938C35.3689 49.5984 36.2002 49.475 36.9393 49.1125C36.6611 48.5685 36.3425 48.0462 35.9861 47.55C34.8924 47.8625 33.8158 48.2359 32.7143 48.5266M27.5799 50.1453C27.3018 50.6828 27.483 51.4141 28.0486 51.6766C28.5908 51.8031 29.1174 51.5328 29.633 51.3984C30.6143 51.0703 31.6377 50.8734 32.5939 50.4734C32.3746 50.2578 32.2042 49.9973 32.0945 49.7099C31.9847 49.4225 31.9382 49.1148 31.958 48.8078C30.508 49.2875 29.0064 49.6109 27.583 50.1453M34.0627 50.4688C33.4377 50.7953 33.7596 51.6453 34.2096 51.9766C34.7033 52.2063 35.2549 52.0266 35.7377 51.8547C36.4018 51.6141 37.0924 51.4563 37.7689 51.2375L37.9127 51.0234C37.7752 50.4656 37.4533 49.9797 37.1877 49.4766C36.158 49.8391 35.0908 50.0844 34.0627 50.4688ZM29.3611 51.875C29.1002 51.9781 28.7564 52.0156 28.6283 52.3047C28.4127 52.75 28.7033 53.2719 29.0689 53.5453C29.4111 53.7563 29.8314 53.6297 30.1924 53.5453C31.3908 53.1797 32.5971 52.8359 33.8033 52.4938C33.3705 52.0078 33.0439 51.425 33.0846 50.7531C31.8627 51.1906 30.6049 51.5125 29.3611 51.8797M35.4549 52.3375C35.1283 52.425 34.6611 52.5578 34.6971 52.9859C34.5768 53.6937 35.358 54.425 36.0455 54.1094C36.9143 53.825 37.783 53.5469 38.6564 53.2688C38.574 52.6776 38.4055 52.1018 38.1564 51.5594C37.2346 51.7469 36.3611 52.0984 35.4549 52.3406M30.0002 53.9828C29.2861 54.1609 29.4564 55.2531 29.9893 55.5547C30.4283 55.7609 30.9268 55.6109 31.3643 55.5047C32.5299 55.1438 33.708 54.8109 34.8721 54.4672C34.6252 54.2516 34.3439 54.0609 34.1643 53.7813C34.0346 53.4906 34.0299 53.1563 33.9736 52.8531C32.6346 53.1781 31.333 53.6344 30.0002 53.9828ZM35.5439 54.6969C35.0893 55.2938 35.6111 56.4156 36.408 56.2516C37.3455 56.1375 38.2205 55.6906 39.1486 55.4891C39.0643 54.8781 38.9268 54.2766 38.8018 53.6734C37.7268 54.0484 36.6064 54.2875 35.5439 54.6969ZM30.9564 56.0484C30.6893 56.1656 30.2861 56.1875 30.2393 56.5469C30.108 57.0875 30.4611 57.8563 31.0893 57.8391C31.6439 57.825 32.1627 57.6 32.6939 57.4609C33.583 57.1688 34.5064 56.9797 35.3674 56.6063C35.15 56.3871 34.978 56.1271 34.8614 55.8412C34.7447 55.5554 34.6857 55.2493 34.6877 54.9406C33.4533 55.3422 32.2049 55.6938 30.9564 56.0484ZM36.5361 56.6625C36.2877 56.7719 35.9205 56.8531 35.9439 57.1953C35.7721 57.8828 36.4705 58.6484 37.1768 58.4125C37.9314 58.2063 38.6611 57.9141 39.4111 57.6875C39.3502 57.0797 39.2549 56.475 39.1533 55.8766C38.2939 56.1812 37.408 56.4 36.5361 56.6578M31.5877 58.1688C31.2752 58.2844 30.7377 58.35 30.7643 58.7938C30.6674 59.3109 31.0346 59.7938 31.4783 60.0156C31.8611 60.0703 32.2268 59.9016 32.5877 59.7984C33.7361 59.4234 34.9111 59.1453 36.0549 58.7578C35.7937 58.5769 35.5806 58.3351 35.4339 58.0533C35.2871 57.7716 35.2112 57.4583 35.2127 57.1406C33.9861 57.4141 32.8111 57.8797 31.5877 58.1719M36.6049 58.9781C35.6518 59.2906 36.3158 60.8875 37.2111 60.7125C37.9627 60.5438 38.6689 60.2063 39.4127 60.0031C39.433 59.3781 39.4377 58.7531 39.4252 58.1281C38.4877 58.4047 37.5283 58.6484 36.6049 58.9797M32.7689 60.1563C32.1549 60.3328 31.5189 60.45 30.9611 60.7813C31.0049 61.1578 30.9096 61.6031 31.1955 61.9063C31.433 62.1422 31.7689 62.375 32.1189 62.2406C33.5393 61.8344 34.9549 61.4141 36.3705 60.9906C36.1361 60.8344 35.8643 60.7 35.6861 60.4719C35.5096 60.15 35.4971 59.7703 35.4189 59.4203C34.5189 59.6109 33.6533 59.9234 32.7627 60.1625M36.6455 61.2922C35.9002 61.6141 36.333 62.7078 36.9424 62.9344C37.4643 63.0625 37.9752 62.8094 38.458 62.6469C38.6689 62.5547 38.9596 62.4797 39.0064 62.2141C39.1439 61.6234 39.2377 61.0219 39.4455 60.45C38.5299 60.7844 37.5518 60.9359 36.6455 61.2922ZM31.5236 62.8172C30.6533 63.1734 31.2424 64.5359 32.0455 64.5266C32.3347 64.4991 32.6189 64.4334 32.8908 64.3313C34.0518 63.9438 35.2627 63.7063 36.3971 63.2375C35.8221 62.925 35.5861 62.3156 35.5564 61.6859C34.1986 62.0141 32.8752 62.4672 31.5236 62.8172ZM50.1893 33.7234C51.5705 32.8125 53.2893 32.5813 54.9049 32.7656C55.5062 32.8463 56.0794 33.0697 56.5768 33.4172C56.108 33.6813 55.7877 34.1188 55.4971 34.5641C54.8893 34.6781 54.8143 33.7703 54.2674 33.6625C53.5439 33.5438 52.8221 33.7969 52.1752 34.0984C51.6971 34.3406 51.1861 34.7875 51.2721 35.3797C51.3368 35.7773 51.4917 36.1549 51.7248 36.4834C51.958 36.812 52.2633 37.0827 52.6174 37.275C52.8127 37.3656 53.1189 37.6141 52.8252 37.7938C52.0439 38.5156 51.3205 39.5281 51.6408 40.6484C51.7799 41.1672 52.4064 41.0797 52.8189 41.175C52.7986 41.3047 52.7814 41.4359 52.7643 41.5688C52.4143 41.7486 52.0747 41.9479 51.7471 42.1656C51.9033 42.8344 52.4768 43.2203 53.0268 43.5578C52.6658 43.5953 52.3049 43.6266 51.9439 43.6578C51.9861 44.0219 51.9783 44.4391 52.2564 44.7125C52.5814 45.1453 53.1393 45.2438 53.6408 45.3234C53.3799 45.5281 52.9346 45.6453 52.9455 46.0453C53.2799 46.8094 54.2486 46.575 54.9174 46.6391C54.7611 46.8875 54.5939 47.1375 54.4408 47.3922C55.0502 47.5672 55.6908 47.6 56.3158 47.6891C56.7518 51.2828 56.9768 54.8906 57.3924 58.4813C57.4721 59.5547 57.5205 60.6359 57.7564 61.6906C56.7767 61.3059 55.746 61.0664 54.6971 60.9797C53.6158 60.7359 52.5096 60.7219 51.4049 60.6812C51.7549 59.5328 51.9689 58.2906 51.6064 57.1156C51.2291 55.9087 50.4158 54.8854 49.3252 54.2453C47.5205 53.1125 45.2236 52.7594 43.7455 51.1203C42.7643 50.1297 42.4705 48.6891 42.4471 47.3422C42.533 44.2172 43.6971 41.2125 45.4158 38.6344C46.7002 36.7375 48.2533 34.9734 50.1846 33.7172M56.9158 33.9797C57.3393 33.7375 57.8814 33.8984 58.208 34.2328C59.0549 35.0438 60.3408 35.4406 60.7955 36.6094C60.0893 36.1328 59.3752 35.6719 58.6408 35.2438C58.3756 35.0426 58.0643 34.9109 57.7352 34.8606C57.406 34.8104 57.0696 34.8433 56.7564 34.9563C55.9143 35.4531 55.5377 36.4266 54.8127 37.05C54.3439 37.3078 53.7314 37.2703 53.2361 37.0969C52.8762 36.8973 52.5686 36.6155 52.3384 36.2745C52.1081 35.9334 51.9617 35.5428 51.9111 35.1344C52.3127 34.6031 52.9486 34.1641 53.6455 34.2625C54.3393 34.2469 54.7393 34.9031 55.1408 35.3563C55.8377 35.0438 56.2893 34.3922 56.9158 33.9734M55.6252 37.8125C55.6439 36.7266 56.4596 35.3797 57.6893 35.5172C58.0721 35.4875 58.2502 35.8672 58.4564 36.1172C59.2283 36.1375 60.0736 36.3141 60.4752 37.0547C59.8236 37.1266 59.1189 37.1547 58.5768 37.5688C57.9861 37.9453 57.6658 38.6156 57.083 38.9953C56.3643 39.2547 55.5002 38.5938 55.6252 37.8125ZM56.3393 38.375C56.8268 38.7031 57.2768 38.2703 57.6143 37.9484C57.3299 37.8281 57.0002 37.7734 56.7721 37.5563C56.5846 37.2719 56.5299 36.8391 56.7564 36.5609C57.0439 36.2047 57.6596 36.3484 57.8783 35.9188C56.6174 35.6875 55.6518 37.3844 56.3393 38.375ZM57.1564 36.7906C56.9627 37.2078 57.4689 37.5563 57.8408 37.5844C58.4658 37.3406 59.0439 36.9813 59.6424 36.675C59.2077 36.5781 58.7601 36.5533 58.3174 36.6016C58.1611 36.925 58.0268 37.3203 57.6033 37.325C57.5924 37.0406 57.5908 36.7531 57.5861 36.4672C57.4455 36.5734 57.2268 36.6109 57.1564 36.7906ZM52.5502 38.9453C53.0955 38.1531 54.0002 37.6953 54.9064 37.4484C54.4689 39.7047 54.8283 42.1594 56.0986 44.0984C56.5783 44.8563 57.2955 45.4141 57.9268 46.0391C57.7105 46.3382 57.4321 46.5869 57.1106 46.7681C56.789 46.9494 56.4321 47.0589 56.0643 47.0891C56.0033 47.0406 55.8783 46.9406 55.8143 46.8922C55.9377 46.5125 56.1049 46.15 56.2518 45.7781C55.5502 45.8922 54.8564 46.0719 54.1439 46.0906C54.4971 45.5344 55.0439 45.0313 54.9971 44.3156C54.3893 44.5516 53.7221 44.675 53.0814 44.4828C53.5596 44.0063 54.2674 43.6266 54.3439 42.8859C53.7768 42.825 53.2111 42.7484 52.6533 42.6313C53.1455 41.9859 53.8205 41.3656 53.7877 40.4828C53.2724 40.5237 52.7539 40.4889 52.2486 40.3797C52.2768 39.8922 52.2486 39.3563 52.5502 38.9406M59.2018 37.7172C59.7455 37.4422 60.3752 37.5234 60.9627 37.5609C60.3143 37.7625 59.5471 37.6641 59.0158 38.1563C58.2596 38.8 58.5299 39.9906 57.8377 40.6922C57.4564 41.1609 56.8033 41.125 56.2658 41.0328C56.2877 40.6687 56.1549 40.2266 56.4408 39.9391C56.8518 39.4828 57.4002 39.1875 57.8611 38.7859C58.3049 38.4297 58.6846 37.9781 59.2018 37.7234M60.2002 38.0266C61.3205 37.5797 62.3877 38.3922 63.4986 38.4953C63.4573 39.0049 63.3448 39.5061 63.1643 39.9844C62.6268 39.6281 62.4236 38.9688 61.9221 38.5781C61.4205 38.1875 60.783 38.1734 60.2033 38.0344M59.7924 39.1156C60.3549 38.6625 61.3096 38.6031 61.8033 39.1906C62.1955 39.6078 62.3377 40.1781 62.4549 40.7234C61.7471 40.8797 61.0486 41.0734 60.3549 41.2891C59.558 41.5313 58.7158 41.4641 57.8971 41.5156C58.6346 40.7984 58.958 39.7453 59.7924 39.1156ZM60.5346 41.8078C61.3049 41.7078 61.9674 41.2797 62.6986 41.0438C62.4354 41.8022 62.0117 42.4951 61.4564 43.075C61.1689 42.7781 60.9314 42.3109 60.4518 42.3609C59.4814 42.3219 58.3877 42.2484 57.5471 42.8297C56.9111 43.3422 57.2424 44.4141 57.9939 44.6016C58.5879 44.7305 59.2029 44.7273 59.7955 44.5922C60.3205 44.2656 60.6721 43.7172 61.2236 43.4172C60.9346 44.0422 60.4205 44.5719 60.2721 45.2688C60.158 45.6125 60.1518 46.0203 59.8861 46.2938C59.5361 46.725 58.8861 46.6516 58.4205 46.4781C58.1939 46.1578 58.1705 45.75 58.0033 45.4047C57.5736 45.0344 57.0268 44.7672 56.7533 44.2406C56.4049 43.6625 56.4939 42.7766 57.1283 42.4313C58.1627 41.8328 59.4033 42.0688 60.5283 41.8063M57.9455 43.125C58.6486 42.7203 59.508 42.7781 60.2689 42.9781C60.5908 43.0234 60.3955 43.4344 60.4252 43.6391C59.6439 43.2578 58.8033 43.1703 57.9518 43.125M42.7158 60.7313C44.1346 59.9922 45.8111 60.3734 47.2611 60.8219C48.1158 61.1344 49.0424 61.0219 49.9299 61.1594C51.2189 61.4156 52.5455 61.3406 53.8361 61.6063C55.1067 61.6435 56.3654 61.8629 57.5736 62.2578C58.4908 62.6031 59.4752 62.65 60.4471 62.6172C61.2127 62.6438 61.7736 61.9672 62.5299 61.9328C63.0205 61.8609 63.4236 62.2734 63.9111 62.2281C64.2236 62.2375 64.6096 62.1453 64.8564 62.4078C65.1189 62.7609 65.258 63.1891 65.5143 63.5484C65.9502 63.875 66.5814 63.9313 66.8971 64.4172C67.2647 64.9621 67.5589 65.5532 67.7721 66.175L67.2127 66.2063C66.4549 65.3484 65.6768 64.5078 64.9658 63.6094C64.7672 63.3634 64.5424 63.1397 64.2955 62.9422C64.3458 63.3397 64.451 63.7283 64.608 64.0969C64.1643 63.6859 63.7643 63.2344 63.3252 62.8219C63.1111 62.5656 62.7486 62.6656 62.458 62.6234C62.3643 63.4219 63.2689 63.8344 63.2393 64.6109C62.4471 64.5703 61.8439 64.0047 61.1174 63.7594C60.2167 63.4788 59.276 63.3484 58.333 63.3734C57.6518 63.3969 57.0736 62.9875 56.4377 62.8156C55.0831 62.4717 53.6954 62.2747 52.2986 62.2281C50.7721 61.9859 49.2221 62.1219 47.683 62.0422C46.5893 62.0125 45.5736 61.4859 44.4799 61.4625C43.8861 61.55 43.2377 61.6734 42.7924 62.1109C42.1814 62.7875 42.3408 63.8766 42.908 64.5281C43.4346 65.125 44.2455 65.3531 45.0018 65.4859C46.5393 65.6312 48.083 65.4781 49.6236 65.5141C51.1643 65.55 52.733 65.2641 54.2971 65.2984C55.4049 65.2406 56.5127 65.2984 57.6221 65.3391C57.5768 65.2531 57.4877 65.0813 57.4424 64.9969C56.6064 64.6281 55.6783 64.5828 54.7861 64.5563C52.2643 64.5063 49.7413 64.4974 47.2174 64.5297C46.3627 64.5391 45.3268 64.7641 44.6689 64.0609C44.2908 63.7484 44.1908 63.0906 44.5705 62.7469C45.6205 62.3984 46.7439 62.6734 47.8143 62.7797C49.433 63.1125 51.1049 62.8953 52.7268 63.2125C54.1354 63.3595 55.5327 63.5996 56.9096 63.9313C58.7174 64.3219 60.783 64.0469 62.3111 65.2844C62.5219 65.4923 62.7756 65.6516 63.0544 65.7512C63.3332 65.8508 63.6304 65.8883 63.9252 65.8609C63.9408 65.4297 63.9705 65.0031 64.0189 64.575C64.5416 64.7151 65.0564 64.8831 65.5611 65.0781C66.1861 65.2969 66.5346 65.9125 66.7783 66.4844C59.6096 66.5828 52.4361 66.4844 45.2674 66.4719C44.1018 66.3516 42.8455 66.1406 41.9377 65.3359C41.0939 64.625 40.7924 63.3875 41.0939 62.3438C41.3268 61.5734 42.008 61.0531 42.7111 60.7297M9.85488 69.2625C9.93145 68.8344 10.4346 68.9406 10.7533 68.8953C29.0335 68.8953 47.3148 68.8953 65.5971 68.8953C67.0268 68.9328 68.4643 68.8063 69.8861 68.9875C69.8861 69.0844 69.8986 69.2781 69.9049 69.375C50.1346 69.4047 30.3736 69.375 10.5971 69.3922C10.3533 69.3594 10.0502 69.4484 9.85801 69.2609M61.7189 70.7L62.3549 70.7578C62.4627 71.0641 62.4801 71.395 62.4049 71.7109L61.5268 71.6766C61.4772 71.5104 61.4687 71.3347 61.5022 71.1645C61.5357 70.9944 61.6101 70.835 61.7189 70.7ZM14.8705 71.1203C15.4158 71.1063 15.9643 71.1047 16.508 71.1016C16.5643 72.4016 16.4189 73.7125 16.6064 75.0078C17.5012 75.1361 18.4081 75.1576 19.308 75.0719C21.3939 75.1125 23.4877 75.1891 25.5705 75.05C25.5705 74.9422 25.5471 74.7281 25.5393 74.6203C25.2564 74.4719 24.9689 74.2875 24.6346 74.3078C22.858 74.2953 21.0783 74.3203 19.3002 74.3078C18.8314 74.2703 18.2252 74.3203 17.9221 73.8641C17.5393 73.2953 17.7752 72.5781 17.7986 71.9469C17.7343 71.9936 17.6816 72.0546 17.6447 72.1251C17.6079 72.1956 17.5878 72.2736 17.5861 72.3531C17.5733 72.9343 17.6226 73.5152 17.733 74.0859C16.483 73.7297 16.6955 71.8984 17.6518 71.3234C18.1939 70.8547 18.9252 71.1891 19.5502 71.2391C19.4001 71.5283 19.2948 71.8386 19.2377 72.1594C19.3768 72.4359 19.6205 72.675 19.9533 72.6453C21.7846 72.6953 23.6205 72.6109 25.4549 72.675C25.7982 72.6925 26.1315 72.7964 26.424 72.9769C26.7165 73.1574 26.9587 73.4088 27.1283 73.7078C27.4221 74.5406 27.2752 75.4469 27.3049 76.3125C26.846 76.3757 26.3837 76.4102 25.9205 76.4156C23.3393 76.4063 20.7643 76.4156 18.1783 76.4156C17.2174 76.4156 16.2268 76.4844 15.2986 76.1844C14.9221 76.0406 14.8299 75.6016 14.8564 75.2469C14.8564 73.8734 14.8455 72.5016 14.8721 71.1313M64.5236 71.1172C65.0768 71.1172 65.6299 71.1172 66.1846 71.1172C66.2096 72.3938 66.1721 73.6688 66.208 74.9469C67.0127 75.1953 67.8596 75.1609 68.6814 75.0375C68.7369 74.2539 68.7478 73.4677 68.7143 72.6828C69.2502 72.6609 69.7877 72.6594 70.3252 72.6687C70.3361 73.8922 70.3846 75.1172 70.2939 76.3406C69.2705 76.4703 68.2361 76.4063 67.208 76.4219C66.4944 76.4472 65.7805 76.3826 65.083 76.2297C64.5486 76.1563 64.533 75.5094 64.458 75.0938C64.3822 73.769 64.4026 72.4405 64.5189 71.1188M30.5502 71.1563C31.1148 71.1219 31.6809 71.1219 32.2455 71.1563C32.3174 72.4406 32.2314 73.725 32.3002 75.0094C32.6424 75.05 32.9861 75.0875 33.3314 75.1188C33.4139 74.2996 33.4077 73.474 33.3127 72.6563C33.8502 72.6563 34.3877 72.6563 34.9252 72.6891C35.1799 73.45 35.1564 74.2516 35.1549 75.05C35.408 75.0578 35.6611 75.0734 35.9143 75.0906C36.0192 74.2784 35.9907 73.4546 35.8299 72.6516C36.3893 72.6516 36.9502 72.6516 37.5111 72.6938C37.6814 73.4516 37.6174 74.2328 37.6361 75.0031H38.5002C38.5278 74.2208 38.4986 73.4375 38.4127 72.6594C38.9486 72.6703 39.5064 72.5953 40.0221 72.7516C40.2424 73.0484 40.1986 73.4344 40.2111 73.7828C40.2111 74.6281 40.2018 75.4734 40.2111 76.3203C39.2174 76.4688 38.2111 76.4094 37.2111 76.4156C35.5424 76.4 33.8705 76.45 32.2111 76.3969C31.6111 76.3125 30.6893 76.3531 30.5971 75.5547C30.4674 74.0953 30.5455 72.6188 30.5643 71.1547M40.7814 71.1469C41.3346 71.1219 41.8877 71.1219 42.4408 71.1469C42.4939 72.4078 42.4611 73.6688 42.4611 74.9297C43.5221 75.1203 44.6064 75.0141 45.6783 75.0094C45.6955 74.2375 45.7002 73.4641 45.6783 72.6938C46.2283 72.6646 46.7783 72.6615 47.3283 72.6844C47.3096 73.8984 47.3189 75.1141 47.3205 76.3281C46.2736 76.4844 45.2143 76.4078 44.1596 76.4234C43.1955 76.4234 42.2064 76.4859 41.2721 76.1969C40.8533 76.0203 40.7721 75.5047 40.7721 75.1031C40.7627 73.7875 40.7611 72.4688 40.7861 71.1531M51.3846 71.6797C51.733 71.2656 52.3221 71.3016 52.8033 71.1875C52.5408 71.6484 52.3346 72.1875 52.7361 72.6406C54.6643 72.7156 56.5971 72.6328 58.5268 72.6766C58.8969 72.6753 59.2607 72.7721 59.5813 72.957C59.9018 73.142 60.1677 73.4086 60.3518 73.7297C60.5236 74.1344 60.508 74.5813 60.5486 75.0094C61.1248 75.0406 61.7022 75.0406 62.2783 75.0094C62.2939 74.2359 62.2986 73.4625 62.2783 72.6891C62.8361 72.6641 63.3939 72.6641 63.9549 72.6891C63.9439 73.9031 63.9549 75.1188 63.9439 76.3344C63.1056 76.4564 62.2552 76.4732 61.4127 76.3844C61.1002 76.35 60.8611 76.1266 60.6221 75.9438C60.4283 76.2094 60.1721 76.4672 59.8111 76.425C57.2814 76.4391 54.7533 76.4156 52.2221 76.425C51.6909 76.4308 51.16 76.4005 50.633 76.3344C50.633 75.9297 50.633 75.5281 50.633 75.1266C52.2924 75.1375 53.9518 75.0953 55.6111 75.1266C56.6736 75.0531 57.7424 75.1625 58.8002 75.0188C58.8002 74.9219 58.7861 74.7281 58.7814 74.6297C58.4986 74.4734 58.2111 74.2906 57.8752 74.3172C56.0986 74.3063 54.3189 74.3172 52.5424 74.3172C52.0611 74.3172 51.5096 74.2828 51.1986 73.8594C50.5924 73.25 50.8658 72.2438 51.3861 71.6719M10.4955 72.6828C11.3857 72.5857 12.2833 72.5768 13.1752 72.6563C13.7627 72.6859 14.1939 73.2547 14.2377 73.8125C14.2986 74.6453 14.2471 75.4828 14.2533 76.3125C13.1986 76.4516 12.133 76.4047 11.0736 76.3969C10.6736 76.3516 10.2189 76.35 9.88926 76.0938C9.64707 75.7156 9.70645 75.2422 9.65332 74.8172C10.6596 75.1078 11.7236 75.025 12.7549 74.9734C12.6955 74.7312 12.5986 74.4656 12.3377 74.3953C11.7236 74.2578 11.0877 74.3609 10.4846 74.5109C10.4846 73.9016 10.4846 73.2938 10.4955 72.6844M28.3986 72.6469C28.9314 72.6141 29.4674 72.6109 30.0002 72.6281C30.0283 73.8219 30.0299 75.0141 30.0174 76.2094C30.0486 76.8703 29.5064 77.3609 28.9596 77.625C28.4096 77.9375 27.7518 77.8328 27.1689 77.6953C27.4814 77.4438 27.8346 77.2266 28.0971 76.9141C28.3955 76.5313 28.4096 76.025 28.4096 75.5609C28.4096 74.5891 28.4002 73.6188 28.3939 72.6453M43.3518 76.8469C43.5422 76.8072 43.7392 76.8103 43.9283 76.8559C44.1175 76.9016 44.2941 76.9887 44.4455 77.1109C44.7143 76.8828 45.1971 76.6188 45.4518 76.9953C45.6846 77.2813 45.4299 77.575 45.233 77.7922C44.9361 77.8625 44.6846 77.6625 44.4377 77.5359C44.1248 77.7246 43.7617 77.8129 43.3971 77.7891C43.3752 77.4766 43.3611 77.1641 43.3564 76.8516M45.8861 76.8141L46.6049 76.8219C46.6951 77.1413 46.6786 77.4814 46.558 77.7906C46.3424 77.7984 46.1283 77.8109 45.9158 77.8234C45.8034 77.6806 45.7398 77.5054 45.7345 77.3236C45.7291 77.1419 45.7823 76.9633 45.8861 76.8141ZM67.8627 76.8625C68.1752 76.8531 68.4877 76.85 68.8002 76.8625C68.8002 77.175 68.7846 77.4781 68.7689 77.7875C68.4799 77.7547 68.0424 77.9531 67.9127 77.5875C67.783 77.3688 67.8846 77.1031 67.8689 76.8688M9.8627 79.5031C29.871 79.4927 49.8778 79.4927 69.883 79.5031C69.883 79.6594 69.883 79.8328 69.883 79.9984C49.8757 79.9984 29.8684 79.9984 9.86113 79.9984V79.5078L9.8627 79.5031Z" fill="#F0C239"/>
</g>
<defs>
<clipPath id="clip0_10416_69152">
<rect width="80" height="80" fill="white"/>
</clipPath>
</defs>
</svg>
