<svg width="80" height="80" viewBox="0 0 80 80" fill="none" xmlns="http://www.w3.org/2000/svg">
<path d="M12.5004 27.59C13.0285 28.2307 13.5019 28.801 13.9707 29.376C14.5707 30.115 15.291 30.7072 16.2144 30.965C16.7761 31.1112 17.3529 31.1914 17.9332 31.2041C19.1191 31.2494 20.3082 31.2697 21.4957 31.24C22.6683 31.2199 23.8172 31.5722 24.7769 32.2463C25.5877 32.7969 26.3002 33.4799 26.8847 34.2666C29.9129 38.2541 32.9426 42.239 35.9738 46.2213C36.1847 46.4979 36.4035 46.7666 36.6129 47.0307C37.0816 46.7776 40.6113 43.326 41.1332 42.6166C41.0792 42.4988 41.016 42.3854 40.9441 42.2775C38.4097 38.9963 35.8222 35.7588 33.3551 32.4338C31.7832 30.315 29.6535 29.4244 27.1676 29.0947C26.0847 28.9494 24.9972 28.8275 23.9254 28.626C21.8254 28.2244 20.1519 27.0635 18.7941 25.4682C17.8472 24.351 16.9847 23.1604 16.0863 21.9994C16.0061 21.8772 15.9331 21.7504 15.8676 21.6197L18.1832 18.876C18.4004 19.14 18.5519 19.3119 18.6894 19.4932C19.6269 20.7432 20.5644 21.9895 21.5019 23.2322C21.5863 23.3447 21.6738 23.4541 21.7535 23.5682C23.0582 25.4229 24.8379 26.4572 27.0832 26.7947C28.8019 27.0541 30.5097 27.4307 32.2191 27.7682C33.8488 28.09 35.1035 28.9916 36.1035 30.2994C38.5056 33.4369 40.917 36.5734 43.3379 39.7088C43.4347 39.8354 43.5519 39.9463 43.6504 40.0604C44.0894 39.8494 47.5097 36.4744 48.0801 35.6854C48.022 35.5688 47.9557 35.4565 47.8816 35.3494C45.8769 32.7807 43.8597 30.2197 41.866 27.6416C40.9051 26.3916 39.6379 25.6932 38.1254 25.3963C37.7812 25.342 37.4332 25.3159 37.0847 25.3182C35.1738 25.251 33.2816 25.0666 31.4519 24.4604C30.4271 24.1352 29.5242 23.5084 28.8613 22.6619C26.9603 20.213 25.0634 17.765 23.1707 15.3182C23.0863 15.2104 23.0144 15.09 22.891 14.8885L25.8144 13.09C25.991 13.2932 26.1176 13.4275 26.2301 13.5713C27.7301 15.501 29.2222 17.4385 30.7347 19.3604C31.2222 19.9854 31.7722 20.5525 32.2847 21.1557C33.2972 22.3494 34.6472 22.8447 36.1457 23.0307C37.4144 23.1796 38.6853 23.3156 39.9582 23.4385C42.2644 23.6541 44.1082 24.6932 45.5144 26.5338C47.0769 28.565 48.6551 30.5807 50.2285 32.601C50.3676 32.7807 50.5191 32.951 50.7316 33.2041C52.2285 31.7057 53.6551 30.2275 55.1394 28.69C53.7832 26.99 52.5457 25.2635 51.1254 23.7088C49.9129 22.3838 48.2363 21.8104 46.4644 21.5432C45.0582 21.3338 43.666 21.0932 42.2722 20.8322C40.7769 20.551 39.4238 19.965 38.3801 18.8119C37.7238 18.0869 37.0582 17.3697 36.4535 16.6041C35.1113 14.9041 33.8051 13.1775 32.4847 11.4604C32.3285 11.2604 32.1816 11.0541 31.9941 10.801C32.1074 10.7167 32.2314 10.6479 32.3629 10.5963C33.2472 10.401 34.1347 10.2166 35.0191 10.0354C35.2196 9.97965 35.4328 9.98999 35.6269 10.0648C35.8211 10.1397 35.986 10.2751 36.0972 10.451C37.0176 11.6807 37.9722 12.8854 38.941 14.0791C39.5129 14.7838 40.1379 15.4447 40.7332 16.1291C42.0097 17.5947 43.6394 18.4432 45.5144 18.8072C46.5394 19.0041 47.5847 19.0932 48.6191 19.2463C49.4457 19.3697 50.2769 19.4822 51.0926 19.6588C52.0858 19.8641 52.9727 20.4184 53.5926 21.2213C54.7535 22.6775 55.9441 24.1119 57.1254 25.5525C57.2816 25.7479 57.4535 25.9354 57.6113 26.1166C58.1285 25.8354 61.5785 22.3666 61.9769 21.7322C61.8504 21.5635 61.7207 21.3744 61.5754 21.1979C60.9722 20.4572 60.3363 19.7416 59.766 18.9775C59.5303 18.6583 59.2329 18.3896 58.8916 18.1872C58.5502 17.9849 58.1717 17.853 57.7785 17.7994C56.9082 17.6588 56.0285 17.5666 55.1488 17.5041C53.8035 17.4088 52.4551 17.3807 51.1301 17.0869C50.3191 16.9072 49.5676 16.6025 48.9504 16.0463C48.3679 15.5463 47.8188 15.0087 47.3066 14.4369C46.2222 13.1588 45.1863 11.84 44.1332 10.5307C44.0238 10.3932 43.9394 10.2354 43.8207 10.0525C52.1816 10.8135 63.9051 17.2166 68.0894 30.4322C70.1139 36.7772 69.9483 43.6182 67.6192 49.8578C65.2901 56.0973 60.9325 61.3736 55.2457 64.84C43.7504 71.9088 28.6176 70.1979 19.0332 60.8291C8.9785 50.9994 8.14256 37.0197 12.5004 27.59Z" fill="#009C4B"/>
</svg>
