<svg width="80" height="80" viewBox="0 0 80 80" fill="none" xmlns="http://www.w3.org/2000/svg">
<path d="M43.0061 9.24219C44.4014 7.5625 46.4076 6.44062 48.542 6C47.8436 6.66719 46.9889 7.30938 46.8701 8.34375C46.5842 9.96875 47.8076 11.3016 48.892 12.3406C52.9764 16.4266 57.0389 20.5312 61.1358 24.6109C62.3858 25.8344 63.567 27.175 64.2873 28.7844C65.1233 30.5719 65.4717 32.6766 64.8545 34.5875C64.2811 36.6781 62.4639 38.4203 60.2936 38.7391C58.7311 39.0703 57.1576 38.6562 55.6748 38.1875C54.3795 37.7641 52.9061 37.7188 51.6811 38.3734C50.1951 39.1109 49.0623 40.3609 47.867 41.4797C42.6826 46.688 37.4988 51.8964 32.3155 57.1047C29.7655 59.6781 27.042 62.2234 23.6733 63.6797C21.5612 64.6089 19.2865 65.1122 16.9795 65.1609C17.667 66.4016 18.5123 67.6937 19.9217 68.1812C21.8701 68.8219 23.9842 68.2703 25.7889 67.4578C29.3936 65.7281 32.5076 63.1422 35.2858 60.2906C39.892 55.7 44.5014 51.1125 49.1139 46.5281C51.1795 44.3688 53.8014 42.3984 56.8842 42.2203C60.9014 41.8203 64.8686 44.7453 65.8873 48.6094C65.1326 47.8734 64.2139 47.1922 63.1061 47.2281C61.2514 47.2281 59.8092 48.5656 58.6186 49.8375C52.7983 55.6187 47.0561 61.4688 41.203 67.2078C41.917 67.8672 42.7998 68.425 43.803 68.4297C45.4076 68.5766 46.8733 67.6609 47.9561 66.5547C51.4717 63.0078 55.0004 59.4667 58.542 55.9312C59.892 54.5812 61.1983 53.1344 62.8655 52.1734C64.4186 51.2484 66.2748 50.6469 68.0905 50.975C71.4576 51.6281 74.1108 54.7359 74.528 58.0891C73.9561 57.4719 73.3967 56.6953 72.4967 56.6047C71.0795 56.3641 69.8811 57.3234 68.9358 58.25C64.4451 62.7156 59.9634 67.1901 55.4905 71.6734C52.2905 74.7266 46.9155 75.0187 43.3998 72.3328C41.9799 71.2472 40.9525 69.7283 40.4733 68.0062C37.717 70.7594 34.303 72.9625 30.4733 73.8219C27.2045 74.6547 23.5983 74.3422 20.6295 72.7031C17.6608 71.0641 15.5467 68.1312 14.6795 64.9062C12.0451 64.2922 9.58108 62.8219 8.02952 60.5719C6.16545 57.8625 5.60139 54.3656 6.2717 51.1687C6.8967 47.8672 8.5217 44.8484 10.5139 42.1797C10.9233 41.6516 11.2873 41.0516 11.8811 40.7062C12.7967 39.3969 13.9639 38.0641 15.603 37.7219C16.3179 37.5292 17.0641 37.4811 17.7979 37.5804C18.5317 37.6796 19.2383 37.9243 19.8764 38.3C19.0951 36.9219 18.8217 35.2266 19.4076 33.725C19.9764 31.9344 21.5592 30.5484 23.3733 30.1313C24.6061 29.9563 25.9498 29.9422 27.0592 30.5922C29.4483 31.7203 30.7014 34.7484 29.8108 37.2359C29.458 38.26 28.8166 39.1603 27.9638 39.8281C27.111 40.496 26.0833 40.9029 25.0045 41C23.9108 41.1312 22.8498 40.7281 21.8639 40.2937C22.5493 41.6561 22.6955 43.2268 22.2733 44.6922C22.0017 45.528 21.5362 46.2878 20.9149 46.9094C20.2936 47.531 19.534 47.9968 18.6983 48.2687C17.1061 48.7375 15.2795 48.525 13.9233 47.5375C13.2057 47.0419 12.6181 46.3807 12.2101 45.6099C11.8022 44.8391 11.5859 43.9814 11.5795 43.1094C11.5248 42.4 11.8123 41.7266 11.853 41.0266L11.6545 41.0531C9.31077 44.3625 7.18889 48.0547 6.77952 52.1703C6.56545 54.2484 7.39202 56.6 9.3342 57.6031C11.2389 58.7766 13.6264 58.4938 15.6326 57.7594C18.6514 56.6047 21.3295 54.7 23.6951 52.5234C29.2826 46.9245 34.8712 41.3214 40.4608 35.7141C42.7748 33.4734 46.0483 31.9906 49.3139 32.5359C51.7014 32.8141 53.4248 34.6453 55.442 35.75C56.1983 36.0922 57.1608 36.6281 57.942 36.0406C58.3155 35.8328 58.2108 35.3562 58.1873 35.0062C57.8326 33.8172 56.9483 32.8906 56.0967 32.0281C52.2811 28.225 48.4644 24.4229 44.6467 20.6219C43.0842 19.0813 41.7826 17.1844 41.3295 15.0078C40.9342 12.9563 41.6639 10.8109 43.0061 9.24688V9.24219Z" fill="#009AAE"/>
</svg>
