<svg width="80" height="80" viewBox="0 0 80 80" fill="none" xmlns="http://www.w3.org/2000/svg">
<path d="M39.6891 10.4093C39.8828 10.228 40.1578 9.83271 40.4406 10.078C42.6453 12.7108 44.275 15.8593 44.9391 19.2437C45.5641 18.989 46.1141 18.5765 46.7359 18.3062C50.7781 16.2749 55.1109 14.8858 59.4875 13.7749C59.6306 13.7458 59.775 13.7239 59.9203 13.7093C59.8394 15.7577 59.6054 17.7973 59.2203 19.8108C58.7846 22.3117 58.08 24.7582 57.1187 27.1077C56.9663 27.4168 56.8499 27.7424 56.7719 28.078C61.6641 28.1812 66.4328 29.6015 70.9 31.5155C70.9125 31.5374 70.9344 31.5796 70.9453 31.6015C67.875 35.5077 64.5563 39.2577 60.6609 42.3624C60.1813 42.764 59.6484 43.103 59.1828 43.5233C62.175 46.0468 64.2781 49.4796 65.7125 53.089C61.2562 54.978 56.6313 56.5702 51.8297 57.2874C51.9986 58.6405 52.0342 60.007 51.9359 61.3671C51.7939 62.7744 51.5251 64.166 51.1328 65.5249C51.0266 65.8374 50.9844 66.1843 50.8 66.4624C48.1953 66.2296 45.5922 65.8905 43.0531 65.2483C42.2575 65.0604 41.4746 64.8219 40.7094 64.5343C40.5409 64.4729 40.3657 64.432 40.1875 64.4124C39.4247 65.9457 38.4196 67.346 37.2109 68.5593C36.7 69.0671 36.2062 69.5999 35.6234 70.028C35.4672 70.1108 35.3109 70.028 35.1781 69.9421C33.2719 68.6921 31.3859 67.378 29.8156 65.7233C29.6062 65.4933 29.3851 65.2743 29.1531 65.0671C27.6266 66.1233 25.8641 66.7858 24.0734 67.2233C23.865 67.2672 23.6534 67.2949 23.4406 67.3062C22.5125 65.803 21.6578 64.239 21.0781 62.564C20.9016 62.1593 20.8609 61.6952 20.6187 61.314C18.825 61.4983 17.0063 61.2452 15.2828 60.7374C15.0094 59.164 15.0078 57.5577 15.0766 55.9687C15.1328 55.5718 15.1328 55.1624 15.2516 54.7796C16.1891 55.0811 17.1797 55.2999 18.1781 55.2483C19.0172 55.2858 19.8469 55.1515 20.6781 55.0358C20.3156 57.0937 20.1297 59.2468 20.7 61.2858C22.7 61.0905 24.4031 59.9015 26.0016 58.7858C26.6078 60.8593 27.4672 62.8937 28.8047 64.6046C28.9391 64.7733 29.1375 65.0124 29.3766 64.8702C30.3687 64.2046 31.0953 63.2218 31.7203 62.228C32.2984 61.3937 32.6922 60.4546 33.1359 59.5452C35.0219 61.4546 37.1984 63.139 39.6984 64.1608C39.8716 64.2236 40.0524 64.263 40.2359 64.278C40.7608 63.0809 41.0545 61.7953 41.1016 60.489C41.1698 59.1255 41.0944 57.7586 40.8766 56.4108C44.4266 57.2686 48.1344 57.8171 51.7734 57.2499C51.45 55.1483 50.3766 53.2561 49.1266 51.5702C48.475 50.6546 47.7 49.8374 46.9547 48.9983C48.9398 48.474 50.8874 47.8168 52.7844 47.0312C55.0298 46.1275 57.1561 44.952 59.1156 43.5312C57.9859 42.4374 56.5656 41.7046 55.1391 41.0812C52.9516 40.2202 50.6891 39.5312 48.3609 39.2062L48.3797 39.0421C49.6901 37.8209 50.9271 36.5233 52.0844 35.1562C53.5156 33.4593 54.8734 31.6812 55.9031 29.7046C56.1781 29.1765 56.4938 28.6624 56.6672 28.089C55.5396 28.0446 54.4103 28.0927 53.2906 28.2327C51.5719 28.4202 49.9 28.8718 48.2344 29.3265C46.6375 29.7796 45.0766 30.3468 43.5328 30.9562C44.2323 28.8376 44.7323 26.6583 45.0266 24.4468C45.1562 23.2718 45.2609 22.0827 45.1375 20.8999C45.0891 20.3702 45.0656 19.8296 44.8859 19.3233C43.1731 20.2872 41.5677 21.4306 40.0969 22.7343C38.2766 24.2944 36.5842 25.9977 35.0359 27.828C34.675 26.7062 34.4 25.5483 33.8828 24.4812C33.1734 22.8687 32.3203 21.1999 30.8328 20.1702C29.8099 21.6674 28.9449 23.2666 28.2516 24.9421C27.534 26.6123 26.9489 28.3364 26.5016 30.0983C24.7094 28.6687 22.6078 27.3671 20.2516 27.339C19.971 28.5681 19.8586 29.8296 19.9172 31.089C19.9595 32.6375 20.1204 34.1806 20.3984 35.7046C18.4563 35.6296 16.4016 35.7562 14.6703 36.7265C14.4594 36.8015 14.5141 37.0546 14.5453 37.2265C15.0141 39.0187 16.0156 40.6124 17.1094 42.0827C17.2219 42.2718 17.5359 42.464 17.3844 42.7077C15.7359 43.6452 14.05 44.7249 13.0375 46.3827C13.6625 47.0702 14.3359 47.7187 15.1594 48.1593C15.9719 48.6765 16.8641 49.0421 17.7484 49.4093C16.5859 51.0062 15.5703 52.7952 15.2672 54.7702C14.0406 54.3015 12.9234 53.5546 11.8922 52.7562C11.4922 52.4608 11.1594 52.0858 10.7484 51.8061C11.192 49.884 11.9501 48.0483 12.9922 46.3733C12.6406 45.8265 12.1969 45.3468 11.875 44.7796C11.1272 43.5806 10.4992 42.3109 10 40.989C10.288 40.5592 10.6137 40.1561 10.9734 39.7843C11.7125 39.0155 12.4469 38.2218 13.3172 37.5968C13.6656 37.3405 14.0312 37.1077 14.3797 36.8546C14.3797 36.3952 14.2406 35.9546 14.1687 35.5062C13.7797 33.353 13.7531 31.1546 13.8219 28.9733C14.0829 28.8841 14.3386 28.7798 14.5875 28.6608C16.3502 27.8313 18.2651 27.3744 20.2125 27.3187C20.8641 23.853 22.1891 20.5671 23.5719 17.3437C25.3383 17.5094 27.0624 17.981 28.6672 18.7374C29.4396 19.1199 30.1724 19.5779 30.8547 20.1046C31.7453 18.9093 32.6219 17.6952 33.6172 16.5812C34.8203 15.1202 36.1766 13.7952 37.5109 12.453C38.2297 11.7655 38.9328 11.0593 39.6859 10.4077L39.6891 10.4093Z" fill="#7CD0F5"/>
<path d="M40.0975 22.7342C41.5675 21.4251 43.1729 20.2764 44.8865 19.3076C45.0662 19.8139 45.0896 20.3545 45.1381 20.8842C45.2615 22.067 45.1568 23.2561 45.0271 24.4311C44.7327 26.6416 44.2327 28.8198 43.5334 30.9373C45.0771 30.3279 46.6381 29.7607 48.235 29.3076C49.9006 28.8607 51.574 28.4092 53.2912 28.2139C54.4109 28.0739 55.5402 28.0258 56.6678 28.0701C56.4943 28.6436 56.1787 29.1639 55.9037 29.6857C54.874 31.6623 53.5162 33.4357 52.085 35.1373C50.928 36.5082 49.691 37.8095 48.3803 39.0342L48.3615 39.1982C50.6896 39.5248 52.9568 40.2139 55.1396 41.0732C56.5662 41.6982 57.9865 42.4357 59.1162 43.5232C57.1571 44.9469 55.0308 46.1249 52.785 47.0311C50.8906 47.8169 48.9456 48.4747 46.9631 48.9998C47.7084 49.8389 48.4834 50.6561 49.135 51.5717C50.385 53.2576 51.4584 55.1498 51.7818 57.2514C48.1428 57.8217 44.4381 57.2701 40.885 56.4123C41.1028 57.76 41.1782 59.1269 41.11 60.4904C41.0629 61.7967 40.7692 63.0823 40.2443 64.2795C40.0608 64.2644 39.88 64.225 39.7068 64.1623C37.2068 63.1342 35.0287 61.4561 33.1443 59.5467C32.699 60.4686 32.3053 61.4061 31.7209 62.2342C31.0834 63.2279 30.3615 64.2107 29.3771 64.8764C29.1381 65.0186 28.9396 64.7795 28.8053 64.6107C27.4678 62.8998 26.6084 60.8607 26.0021 58.792C24.4037 59.9123 22.7006 61.1014 20.7006 61.292C20.1303 59.2529 20.3162 57.0998 20.6787 55.042C19.8521 55.1576 19.0225 55.292 18.1787 55.2545C17.1803 55.3029 16.1975 55.0842 15.2521 54.7857V54.7623C15.5553 52.7873 16.5709 50.9982 17.7334 49.4014C16.849 49.0311 15.9568 48.6654 15.1443 48.1514C14.3209 47.7107 13.6412 47.0576 13.0225 46.3748C14.035 44.717 15.7209 43.642 17.3693 42.6998C17.5256 42.4545 17.2131 42.2623 17.0943 42.0748C16.0006 40.6045 14.9959 39.0107 14.5303 37.2186C14.5006 37.0467 14.4443 36.7936 14.6553 36.7186C16.3865 35.7482 18.4412 35.6248 20.3834 35.6967C20.1053 34.1727 19.9444 32.6296 19.9021 31.0811C19.8435 29.8217 19.956 28.5602 20.2365 27.3311C22.6006 27.3592 24.7021 28.6607 26.4943 30.0904C26.9417 28.3285 27.5268 26.6044 28.2443 24.9342C28.9376 23.2587 29.8027 21.6595 30.8256 20.1623C32.31 21.1873 33.1693 22.8607 33.8756 24.4732C34.3928 25.5404 34.6678 26.6982 35.0287 27.8201C36.577 25.9898 38.2694 24.2865 40.0896 22.7264M33.0178 30.4217C32.4719 31.1918 31.9681 31.9909 31.5084 32.8154C31.0396 33.5357 30.7131 34.3404 30.2959 35.092C29.8537 34.3654 29.524 33.5701 29.0084 32.8873C28.2881 31.8639 27.4803 30.8904 26.485 30.1217C25.8388 32.4606 25.5507 34.8839 25.6303 37.3092C25.4539 37.2573 25.2841 37.1855 25.124 37.0951C23.8178 36.3801 22.3849 35.9258 20.9053 35.7576C20.7376 35.7311 20.5667 35.7311 20.399 35.7576C20.6037 36.3904 20.724 37.0467 20.9475 37.6732C21.3513 38.9341 21.8992 40.1442 22.5803 41.2795C21.211 41.3682 19.8627 41.6616 18.5803 42.1498C18.2334 42.3061 17.8506 42.4029 17.5568 42.6561C18.374 43.5248 19.2256 44.3748 20.2475 45.0154C20.6662 45.3076 21.1318 45.5248 21.5506 45.8154C20.1062 46.7728 18.8271 47.9586 17.7631 49.3264C17.8922 49.4037 18.0302 49.4651 18.174 49.5092C19.1115 49.7498 20.049 49.9779 21.0178 50.0076C21.5318 50.017 22.0459 50.0076 22.5584 49.9982C22.2615 50.6779 21.8631 51.3092 21.6053 52.0076C21.2443 52.9764 20.824 53.9545 20.7303 54.992C22.0547 54.7572 23.3296 54.2991 24.5006 53.6373C24.7891 53.448 25.0904 53.2789 25.4021 53.1311C25.3568 54.4998 25.3631 55.8826 25.6521 57.2264C25.76 57.7154 25.8084 58.2248 26.0162 58.6857C26.4308 58.3454 26.8242 57.9802 27.1943 57.592C28.1443 56.6998 28.8678 55.5982 29.5209 54.4779C29.7881 54.7451 29.8959 55.117 30.0803 55.4357C30.8575 56.8772 31.8344 58.2017 32.9818 59.3701C33.1381 59.5264 33.2365 59.2576 33.2803 59.1436C33.8943 57.367 34.3365 55.4967 34.2725 53.6061L34.3865 53.4936C36.3412 54.8139 38.549 55.7264 40.8162 56.3623C40.8443 55.8826 40.685 55.4248 40.5787 54.967C40.2784 53.7851 39.8596 52.6366 39.3287 51.5389C39.0678 50.9842 38.7037 50.4842 38.4537 49.9264C41.274 50.1092 44.1037 49.7014 46.8381 49.0201C46.809 48.9166 46.7497 48.8241 46.6678 48.7545C44.9055 47.0182 42.819 45.6453 40.5271 44.7139C40.5928 44.5217 40.7943 44.4576 40.9537 44.3639C43.2028 43.1959 45.2985 41.7536 47.1928 40.0701C47.549 39.7826 47.9396 39.5264 48.2115 39.1529C46.1589 38.8246 44.0744 38.7417 42.0021 38.9061C41.1334 38.9357 40.2834 39.1373 39.4146 39.1967C39.5882 38.8673 39.79 38.5537 40.0178 38.2592C40.5591 37.4702 41.0407 36.6419 41.4584 35.7811C42.0314 34.7422 42.5336 33.6658 42.9615 32.5592C43.1287 32.0342 43.4068 31.5404 43.4709 30.9873C42.2638 31.4997 41.0836 32.0734 39.935 32.7061C38.385 33.592 36.8568 34.5357 35.5084 35.7107C35.4863 35.2928 35.5099 34.8736 35.5787 34.4607C35.7148 32.4836 35.5771 30.4971 35.1693 28.5576C35.1455 28.3313 35.077 28.1119 34.9678 27.9123C34.2678 28.7123 33.6834 29.5998 33.0256 30.4326L33.0178 30.4217Z" fill="#02AAE8"/>
<path d="M33.025 30.4295C33.6828 29.5967 34.275 28.7107 34.9672 27.9092C35.0764 28.1088 35.1449 28.3282 35.1688 28.5545C35.5765 30.4939 35.7142 32.4804 35.5781 34.4576C35.5093 34.8705 35.4857 35.2896 35.5078 35.7076C36.8563 34.5326 38.3844 33.5889 39.9344 32.7029C41.083 32.0703 42.2632 31.4966 43.4703 30.9842C43.4063 31.5373 43.1281 32.0311 42.9609 32.5561C42.5331 33.6637 42.0309 34.7412 41.4578 35.7811C41.0403 36.6435 40.5587 37.4734 40.0172 38.2639C39.7894 38.5583 39.5876 38.872 39.4141 39.2014C40.2813 39.142 41.1328 38.9404 42.0016 38.9107C44.0763 38.749 46.1628 38.835 48.2172 39.167C47.9453 39.5404 47.5547 39.792 47.1984 40.0842C45.304 41.7666 43.2083 43.2078 40.9594 44.3748C40.8031 44.4686 40.5984 44.5311 40.5328 44.7248C42.8247 45.6563 44.9111 47.0292 46.6734 48.7654C46.7554 48.8351 46.8147 48.9275 46.8438 49.0311C44.1094 49.7123 41.2797 50.1248 38.4594 49.9373C38.7109 50.4951 39.0734 50.9951 39.3344 51.5498C39.8653 52.6476 40.2841 53.7961 40.5844 54.9779C40.6906 55.4357 40.85 55.8936 40.8219 56.3732C38.5547 55.7373 36.3469 54.8248 34.3922 53.5045L34.2781 53.617C34.3422 55.5076 33.9 57.3779 33.2859 59.1545C33.2422 59.2686 33.1406 59.5436 32.9875 59.3811C31.84 58.2126 30.8632 56.8881 30.0859 55.4467C29.9016 55.1342 29.7938 54.7561 29.5266 54.4889C28.8734 55.6092 28.15 56.7107 27.2 57.6029C26.8299 57.9911 26.4364 58.3564 26.0219 58.6967C25.8125 58.2357 25.7656 57.7264 25.6578 57.2373C25.3687 55.8936 25.3625 54.5107 25.4078 53.142C25.096 53.2898 24.7948 53.459 24.5062 53.6482C23.3356 54.3088 22.0612 54.7658 20.7375 54.9998C20.8297 53.9623 21.2516 52.9842 21.6125 52.0154C21.8703 51.317 22.2688 50.6857 22.5656 50.0061C22.0531 50.0061 21.5391 50.0248 21.025 50.0154C20.0594 49.9842 19.1141 49.7576 18.1812 49.517C18.0374 49.4729 17.8994 49.4115 17.7703 49.3342C18.8367 47.9681 20.118 46.7845 21.5641 45.8295C21.1453 45.5389 20.6797 45.3217 20.2609 45.0295C19.2391 44.3967 18.3859 43.5389 17.5703 42.6701C17.8641 42.417 18.2469 42.3186 18.5937 42.1639C19.8761 41.6757 21.2244 41.3823 22.5937 41.2936C21.9105 40.1585 21.3605 38.9484 20.9547 37.6873C20.7313 37.0623 20.6109 36.4045 20.4062 35.7717C20.574 35.7451 20.7448 35.7451 20.9125 35.7717C22.3921 35.9399 23.825 36.3941 25.1312 37.1092C25.2913 37.1996 25.4612 37.2714 25.6375 37.3232C25.5579 34.898 25.8461 32.4747 26.4922 30.1357C27.4875 30.9045 28.2953 31.8779 29.0156 32.9014C29.5312 33.5842 29.8609 34.3795 30.3031 35.1061C30.7203 34.3545 31.0422 33.5436 31.5156 32.8295C31.9753 32.005 32.4792 31.2059 33.025 30.4357M30.2953 35.3045C29.5259 36.9862 29.0416 38.7842 28.8625 40.6248C28.2308 39.6385 27.4349 38.7676 26.5094 38.0498C26.2422 37.8654 26.0094 37.6123 25.6891 37.5217C25.7444 38.8867 26.0259 40.2331 26.5219 41.5061C26.593 41.7245 26.6985 41.9302 26.8344 42.1154L26.5812 42.0732C25.3561 41.5402 24.0254 41.2938 22.6906 41.3529C23.4141 42.4998 24.3484 43.5404 25.5031 44.2654L25.5516 44.4092C24.1681 44.6021 22.842 45.089 21.6625 45.8373C22.8938 46.3857 24.2219 46.7654 25.5781 46.7514C25.5268 46.8167 25.4704 46.8778 25.4094 46.9342C24.3323 47.7729 23.4133 48.7967 22.6953 49.9576C24.103 49.8387 25.4687 49.4189 26.7 48.7264C26.0046 50.0537 25.5928 51.5111 25.4906 53.0061C26.7285 52.1867 27.7791 51.1148 28.5734 49.8607C28.6193 51.38 28.9494 52.8772 29.5469 54.2748L29.6734 54.2014C30.3344 52.8326 30.8328 51.3654 30.9375 49.842C31.7831 51.2295 32.9144 52.421 34.2562 53.3373C34.2455 51.7076 33.8809 50.0997 33.1875 48.6248C34.7973 49.381 36.5393 49.8157 38.3156 49.9045C37.372 48.4503 36.1092 47.2303 34.6234 46.3373C36.5641 46.1717 38.4484 45.5561 40.1969 44.7232C40.1969 44.7014 40.2094 44.6561 40.2141 44.6326C38.4908 43.9535 36.6486 43.6277 34.7969 43.6748C36.5453 42.5264 37.975 40.9686 39.2578 39.3342C37.6463 39.6126 36.0861 40.1325 34.6297 40.8764C34.2734 41.0326 33.9609 41.2826 33.5891 41.4092C34.5292 39.6853 35.1342 37.7989 35.3719 35.8498C33.8088 37.1168 32.4648 38.6324 31.3938 40.3357C31.3391 38.617 31.0219 36.8779 30.3 35.3045H30.2953Z" fill="#006FB8"/>
</svg>
