<svg width="80" height="80" viewBox="0 0 80 80" fill="none" xmlns="http://www.w3.org/2000/svg">
<path fill-rule="evenodd" clip-rule="evenodd" d="M40.2623 13C41.6363 13 42.9794 13.4074 44.1218 14.1708C45.2642 14.9341 46.1546 16.019 46.6804 17.2884C47.2062 18.5578 47.3437 19.9546 47.0757 21.3021C46.8077 22.6497 46.146 23.8875 45.1745 24.8591C44.2029 25.8306 42.9651 26.4922 41.6176 26.7603C40.27 27.0283 38.8732 26.8907 37.6039 26.365C36.3345 25.8392 35.2495 24.9488 34.4862 23.8064C33.7229 22.6639 33.3154 21.3208 33.3154 19.9469C33.3154 18.1044 34.0473 16.3375 35.3501 15.0347C36.6529 13.7319 38.4199 13 40.2623 13Z" fill="#008570"/>
<path fill-rule="evenodd" clip-rule="evenodd" d="M15 47.5092L40.2516 28.1436L56.1875 44.8576L40.9625 56.5326L36.3172 51.6592L46.1078 44.1514L39.4641 37.1842L15 55.9451V47.5092Z" fill="#008570"/>
<path fill-rule="evenodd" clip-rule="evenodd" d="M39.3445 39.1421L43.9898 44.0155L34.2008 51.5233L40.843 58.4905L65.3086 39.728V48.1655L40.0555 67.5312L24.1211 50.8171L39.3445 39.1421Z" fill="#008570"/>
</svg>
