<svg width="80" height="80" viewBox="0 0 80 80" fill="none" xmlns="http://www.w3.org/2000/svg">
<path d="M8.00938 8.01383C13.8906 8.00237 19.7719 8.00133 25.6531 8.01071C26.1812 7.95602 26.4859 8.44977 26.8203 8.76696L39.8656 21.8201C44.3563 17.3065 48.8562 12.8029 53.3656 8.30914C53.4481 8.20172 53.5568 8.11728 53.6813 8.06393C53.8058 8.01057 53.9419 7.9901 54.0766 8.00446C59.9516 8.01539 65.8266 7.99352 71.7031 8.01383C71.7188 23.1503 71.7188 38.2862 71.7031 53.4216C71.6922 59.5154 71.725 65.5966 71.6875 71.6841C68.3844 71.7685 65.0781 71.6998 61.775 71.7216H15.2781C12.8578 71.6998 10.4344 71.7685 8.01563 71.681C7.99479 50.4581 7.99479 29.2357 8.01563 8.01383M14.7219 14.7154C14.7156 31.4748 14.7156 48.2357 14.7219 64.9982C31.4802 64.9982 48.238 64.9982 64.9953 64.9982C64.9849 48.3242 64.9849 31.6503 64.9953 14.9763C65.0609 14.7107 64.7563 14.6966 64.5828 14.7091C61.9656 14.717 59.3469 14.7091 56.7297 14.7091C56.6256 14.7046 56.5218 14.7246 56.4269 14.7675C56.3319 14.8103 56.2483 14.8749 56.1828 14.956C52.3297 18.8388 48.4578 22.6841 44.6016 26.5607C46.8484 28.8013 49.0927 31.0456 51.3344 33.2935C51.3925 33.3586 51.4654 33.4086 51.5471 33.4394C51.6287 33.4701 51.7165 33.4806 51.8031 33.4701C55.975 33.5029 60.1484 33.4263 64.3203 33.506C62.3406 36.1623 60.2828 38.7607 58.2641 41.3873C55.5469 41.4154 52.8266 41.3732 50.1094 41.4076C51.6469 42.9263 53.1828 44.4498 54.6937 45.9951C54.3812 46.4888 53.9281 46.8732 53.5203 47.2857C49.0672 51.7492 44.6099 56.2091 40.1484 60.6654C40.0766 60.6763 39.9328 60.6998 39.8594 60.7091C36.0125 56.8466 32.1453 53.0029 28.2969 49.1357C24.0406 49.1107 19.7828 49.1607 15.5281 49.1091C15.875 48.4045 16.4328 47.842 16.8937 47.2138C18.3156 45.3529 19.7563 43.5091 21.1813 41.6513C21.3672 41.431 21.5547 41.1154 21.8937 41.1826C24.5125 41.1748 27.1328 41.1826 29.75 41.1826C28.2219 39.6341 26.6641 38.1123 25.1422 36.556C28.4234 33.1951 31.7953 29.9201 35.0844 26.567C31.3203 22.7201 27.4688 18.9451 23.6766 15.1154C23.4828 14.9373 23.2891 14.681 22.9906 14.7216C20.2344 14.7216 17.4797 14.7216 14.7219 14.7216M30.1906 40.9716C29.9813 41.1123 30.05 41.3857 30.2312 41.5138C33.4734 44.7779 36.7359 48.0248 39.9859 51.2795C43.1781 48.0607 46.3922 44.8654 49.5953 41.6607C49.7109 41.5185 49.9609 41.3232 49.7188 41.1732C46.4365 37.8795 43.149 34.5904 39.8563 31.306C36.6396 34.5352 33.4177 37.7571 30.1906 40.9716Z" fill="#A88B53"/>
</svg>
