<svg width="80" height="80" viewBox="0 0 80 80" fill="none" xmlns="http://www.w3.org/2000/svg">
<path d="M32.447 0.842187C34.9816 0.284908 37.569 0.00254713 40.1642 0C42.3001 0.0953125 44.4407 0.282812 46.536 0.734375C48.2673 1.11406 50.0001 1.51562 51.6782 2.09375C53.2173 2.60156 54.6876 3.2875 56.147 3.98438C58.4551 5.21501 60.6365 6.66995 62.6595 8.32812C64.8785 10.1403 66.8519 12.234 68.5298 14.5563C69.4798 15.8688 70.4173 17.2031 71.1735 18.6406C72.6798 21.3855 73.7848 24.3321 74.4548 27.3906C75.154 30.22 75.5025 33.1246 75.4923 36.0391C75.4 38.4617 75.0682 40.8693 74.5017 43.2266C73.9202 45.9412 72.9977 48.5715 71.7563 51.0547C70.5063 53.5688 68.8923 55.8984 67.1157 58.0594C67.5845 58.4078 68.1048 58.7031 68.4735 59.1656C69.0626 59.9297 69.6657 60.7375 69.8548 61.7063C69.9157 62.1109 70.1392 62.5187 70.011 62.9328C69.8829 63.3469 69.8548 63.7984 69.6454 64.1828C68.0048 67.2156 66.647 70.3875 65.1532 73.4922C64.59 74.7442 63.8662 75.9176 63.0001 76.9828C62.6345 77.4016 62.1548 77.7 61.7001 78.0125C60.0907 78.8453 58.311 79.2625 56.5438 79.6266C55.6188 79.7734 54.661 79.9516 53.7313 79.7109C52.6626 79.4437 51.5173 79.2984 50.5923 78.6516C50.1142 78.3 49.5876 77.9891 49.2282 77.5063C48.9079 77.0656 48.5579 76.6391 48.3454 76.1328C47.3676 75.7455 46.3668 75.4194 45.3485 75.1562C42.2236 74.4961 38.9953 74.4961 35.8704 75.1562C34.6347 75.4732 33.4228 75.8768 32.2438 76.3641C31.9736 76.8104 31.6778 77.2408 31.3579 77.6531C30.9563 78.1891 30.3813 78.5469 29.8454 78.9328C29.3645 79.2546 28.8234 79.4757 28.2548 79.5828C27.272 79.8 26.2704 80.1203 25.2548 79.9531C23.8728 79.7602 22.5085 79.4566 21.1751 79.0453C20.5173 78.8047 19.8001 78.6516 19.2407 78.2062C18.7297 77.8548 18.2498 77.4602 17.8063 77.0266C17.047 76.1516 16.5751 75.0828 15.9938 74.0906C14.297 71.0615 12.6006 68.0312 10.9048 65C10.7204 64.6094 10.6782 64.1719 10.5626 63.7594C10.4626 63.4266 10.5626 63.0875 10.6438 62.7641C10.772 62.2516 10.8626 61.7234 11.0782 61.2375C11.3126 60.6766 11.7032 60.2063 12.0548 59.7188C12.3389 59.3699 12.679 59.0705 13.061 58.8328C12.1164 57.7636 11.2347 56.6403 10.4204 55.4688C7.85321 51.8998 6.03493 47.8481 5.07509 43.5578C4.53846 41.4718 4.20822 39.3381 4.08916 37.1875C3.88291 35.3641 4.07666 33.5281 4.24541 31.7094C4.44228 29.8219 4.87041 27.9703 5.33916 26.1313C6.14344 23.0247 7.40459 20.0548 9.08134 17.3187C10.5876 14.9156 12.2985 12.6312 14.3048 10.6172C16.0626 8.825 18.0642 7.28906 20.1392 5.88594C22.8293 4.09241 25.7671 2.70167 28.8595 1.75781C30.0376 1.39219 31.2423 1.12188 32.4423 0.84375M36.9407 1.57344C34.4771 1.79264 32.0425 2.26386 29.6751 2.97969C26.5816 3.90369 23.64 5.27552 20.9438 7.05156C18.6854 8.52689 16.605 10.2582 14.7438 12.2109C12.8983 14.1778 11.2822 16.3479 9.92666 18.6797C8.30549 21.4896 7.11416 24.5264 6.39228 27.6891C6.00385 29.2779 5.73694 30.8941 5.59384 32.5234C5.46884 34.05 5.32978 35.5906 5.50947 37.1172C5.65961 39.7462 6.1094 42.3495 6.85009 44.8766C8.41259 50.3453 11.4845 55.3203 15.4876 59.3313C14.8907 59.4422 14.2938 59.6281 13.8173 60.0203C12.7235 60.8016 12.0892 62.1266 11.9423 63.4484C11.9689 63.858 12.0949 64.2548 12.3095 64.6047C14.2386 68.0536 16.1657 71.5021 18.0907 74.95C18.3318 75.455 18.6676 75.909 19.0798 76.2875C19.5001 76.6422 19.9126 77.0266 20.4079 77.275C22.0562 77.9368 23.7865 78.3726 25.5517 78.5703C26.4267 78.6313 27.2845 78.3953 28.1235 78.1828C29.4579 77.7625 30.5298 76.7016 31.1048 75.4422C31.161 75.2234 31.4001 75.1859 31.5735 75.1047C33.2485 74.4328 34.9751 73.8547 36.761 73.5641C39.7985 73.044 42.9098 73.1434 45.9079 73.8562C47.1325 74.1715 48.3333 74.5725 49.5017 75.0562C49.8048 76.3062 50.8282 77.2719 51.9798 77.7766C52.5892 78.0375 53.2438 78.1625 53.8892 78.3063C54.6813 78.4906 55.497 78.35 56.2876 78.2344C57.878 77.9759 59.426 77.5028 60.8892 76.8281C61.421 76.5487 61.8826 76.1523 62.2392 75.6687C62.8633 74.8233 63.3969 73.9147 63.8313 72.9578C65.222 70.0734 66.4876 67.1313 67.9751 64.2922C68.2376 63.7625 68.6079 63.2578 68.6376 62.6469C68.5787 62.2134 68.4527 61.7917 68.2642 61.3969C67.7954 60.4219 67.0595 59.5313 66.0501 59.0938C65.5637 58.9243 65.0584 58.8151 64.5454 58.7687C67.619 55.5682 70.0462 51.8046 71.6938 47.6844C72.638 45.2197 73.3097 42.6592 73.697 40.0484C73.8938 38.7984 73.9548 37.5484 74.0642 36.2984C74.0981 33.4386 73.7832 30.5852 73.1267 27.8016C72.4573 24.8203 71.3711 21.9483 69.9001 19.2703C69.6116 18.7096 69.2918 18.1655 68.9423 17.6406C67.2604 14.949 65.2168 12.5011 62.8688 10.3656C60.869 8.57083 58.6728 7.00779 56.322 5.70625C55.8251 5.36875 55.2642 5.15156 54.7282 4.8875C51.8048 3.4375 48.6501 2.51563 45.436 1.94219C43.7548 1.62969 42.0485 1.52188 40.347 1.42188C39.2112 1.41612 38.0759 1.46827 36.9454 1.57813L36.9407 1.57344Z" fill="#E8651D"/>
<path d="M33.1345 3.35294C35.2162 2.94592 37.3282 2.71282 39.4485 2.65606C40.4376 2.62794 41.422 2.73263 42.4079 2.79825C47.7533 3.22416 52.9155 4.94081 57.4515 7.80084C61.9874 10.6609 65.7616 14.5789 68.4501 19.2186C69.8123 21.5698 70.8712 24.0841 71.6017 26.7014C72.4421 29.7674 72.8549 32.9349 72.8282 36.1139C72.7235 37.7045 72.6126 39.2967 72.3282 40.867C71.3779 46.3554 69.0295 51.5064 65.5095 55.8232C63.5941 58.177 61.3669 60.2587 58.8892 62.0108C58.4923 62.2983 58.061 62.5404 57.6939 62.8701C58.5782 62.8545 59.4314 62.6029 60.286 62.4014C61.0142 62.2076 61.7329 61.9779 62.447 61.7342C62.6626 61.3076 62.8595 60.8717 63.0829 60.4483C63.136 60.3186 63.286 60.292 63.3954 60.2404C64.1329 59.9654 64.997 59.9279 65.7048 60.2998C66.4657 60.6951 66.9548 61.4514 67.2673 62.2248C67.3376 62.4201 67.461 62.6436 67.3267 62.842C65.8376 65.6248 64.5626 68.5029 63.222 71.3545C62.7782 72.2748 62.3579 73.2108 61.8298 74.0858C61.4376 74.7108 61.0095 75.3858 60.3235 75.7217C58.7492 76.4721 57.0582 76.9477 55.3235 77.1279C54.386 77.2498 53.4345 77.0248 52.5642 76.6795C51.6939 76.3342 50.9173 75.6467 50.6892 74.7186C50.6126 74.4904 50.6314 74.1498 50.3485 74.0701C47.8029 72.9687 45.0942 72.291 42.3298 72.0639C38.186 71.7342 34.0189 72.6529 30.2407 74.3342C29.9688 75.0154 29.6423 75.7014 29.0907 76.2092C28.2267 77.0311 26.9876 77.3076 25.8376 77.3436C24.1985 77.2514 22.597 76.8107 21.072 76.2139C20.6032 76.0279 20.247 75.6498 19.8657 75.3295C19.5095 75.0326 19.322 74.5998 19.097 74.2076C17.3657 71.1024 15.6324 67.9998 13.897 64.8998C13.6688 64.4436 13.3485 64.0295 13.186 63.5436C13.197 62.9186 13.4751 62.3342 13.7954 61.8123C14.0273 61.4369 14.3458 61.1224 14.7242 60.8954C15.1027 60.6684 15.53 60.5354 15.9704 60.5076C16.3989 60.5012 16.8242 60.582 17.2204 60.7451C17.3407 61.1311 17.4689 61.517 17.6079 61.8983C18.7173 62.2889 19.8282 62.6795 20.9376 63.067C21.1954 63.1694 21.4601 63.2534 21.7298 63.3186C21.908 63.2722 22.0786 63.2001 22.236 63.1045C17.6752 60.2559 13.8695 56.3483 11.1423 51.7139C8.6299 47.45 7.13539 42.6638 6.7751 37.7279C6.75322 37.2998 6.72041 36.8732 6.67354 36.4498C6.63314 35.1894 6.67803 33.9276 6.80791 32.6732C7.2733 27.1537 9.15064 21.8467 12.2595 17.2623C17.1291 10.0758 24.6209 5.08358 33.1282 3.35606M35.2345 4.07325C30.5766 4.73302 26.1206 6.40835 22.1817 8.98069C18.2429 11.553 14.9175 14.9595 12.4407 18.9592C9.70752 23.38 8.11954 28.4125 7.82041 33.6014C7.82041 34.5279 7.69541 35.4514 7.7876 36.3764C7.89712 40.0239 8.64982 43.6234 10.011 47.0092C12.1553 52.3189 15.6893 56.9534 20.2423 60.4264C21.2251 61.1967 22.2876 61.8545 23.3298 62.5389C23.4688 62.4936 23.6064 62.4483 23.7454 62.4061C23.7376 62.3295 23.7313 62.2498 23.7251 62.1779C22.7793 61.6395 21.87 61.0392 21.0032 60.3811C18.5368 58.5389 16.351 56.3483 14.5142 53.8779C10.8163 48.9056 8.70887 42.9309 8.46885 36.7389C8.41651 36.0503 8.41651 35.3587 8.46885 34.6701C8.5771 30.3034 9.62483 26.0112 11.5407 22.0858C13.9984 17.051 17.7566 12.7644 22.4266 9.66924C27.0966 6.57412 32.5088 4.78297 38.1032 4.48106C38.9376 4.46856 39.772 4.36856 40.6032 4.45294C43.6575 4.51399 46.6856 5.03008 49.5876 5.98419C57.385 8.53821 63.8797 14.0312 67.6923 21.2967C71.0196 27.6819 72.0043 35.0311 70.4751 42.067C69.8632 44.8923 68.852 47.616 67.472 50.1561C64.887 54.9137 61.1202 58.9254 56.5345 61.8045C56.6329 61.9014 56.7345 61.9983 56.8345 62.0983C61.4066 59.2646 65.1762 55.3065 67.7836 50.6016C70.3909 45.8968 71.749 40.6022 71.7282 35.2232C71.6642 34.1467 71.6735 33.0654 71.5314 31.9936C70.9839 27.0291 69.2584 22.2673 66.4985 18.1045C63.1445 13.0525 58.4285 9.05352 52.8962 6.57039C47.3639 4.08725 41.2415 3.22148 35.2376 4.07325M30.9564 5.84981C25.7159 7.38974 20.9699 10.275 17.1907 14.2186C12.6058 18.9557 9.67288 25.0466 8.82829 31.5848C7.9837 38.1231 9.2726 44.7593 12.5032 50.5061C15.205 55.2988 19.1177 59.2983 23.8501 62.1045C24.0236 62.1891 24.2134 62.2349 24.4063 62.2389C24.4282 62.0373 24.5626 61.7998 24.4251 61.6139C24.222 61.3451 23.8954 61.2217 23.597 61.0889C22.9985 60.8389 22.4876 60.4279 21.9704 60.0451C21.0907 59.392 20.1907 58.767 19.3001 58.1279C19.3565 57.9633 19.4045 57.7959 19.4439 57.6264C18.8201 57.2851 18.2213 56.9003 17.6517 56.4748C16.9938 55.9639 16.5579 55.2248 16.2454 54.4686C16.1063 54.0998 15.8063 53.8326 15.5376 53.5576C14.9392 52.9545 14.2876 52.3951 13.7485 51.742C13.9185 51.6264 14.108 51.5428 14.3079 51.4951C14.5313 51.4404 14.797 51.4686 14.9642 51.2764C14.2303 50.6918 13.6015 49.9864 13.1048 49.1904C12.1673 47.717 11.6517 46.0404 10.9079 44.4764C10.7251 44.0873 10.4954 43.7201 10.3282 43.3248C10.6721 43.3032 11.0168 43.2996 11.361 43.3139C11.1392 42.8623 10.8032 42.4779 10.5798 42.0264C10.3039 41.3279 10.0946 40.6049 9.95479 39.867C9.57666 37.992 9.68916 36.0686 9.67822 34.167L10.0423 34.2873C10.1673 33.2826 10.1048 32.2717 10.0595 31.2654C10.0485 30.8998 10.011 30.5233 10.1282 30.1717C10.461 29.0779 10.8892 28.0014 11.1642 26.8904C11.3048 26.4108 11.1642 25.8545 11.5376 25.4639L11.9798 25.5639C12.072 24.492 12.2157 23.4045 12.6548 22.4123C13.0767 21.4654 13.7392 20.6514 14.4126 19.8717C14.5925 19.643 14.7465 19.3951 14.872 19.1326C15.1406 19.1394 15.4094 19.129 15.6767 19.1014C15.6673 18.9795 15.6563 18.8576 15.647 18.7373C15.7485 18.6733 15.8798 18.6248 15.8907 18.4842C16.0318 17.9297 16.2624 17.4019 16.5735 16.9217C17.4845 15.5154 18.8782 14.5029 19.761 13.0748L20.2689 13.0983C20.4407 13.6061 20.5923 14.1201 20.7673 14.6279C21.172 14.2967 21.5126 13.8967 21.922 13.5701C22.547 13.0561 23.2907 12.6076 24.1282 12.6123C24.2532 13.3357 23.9345 14.0498 23.4688 14.5873C23.1673 14.9842 22.7188 15.3045 22.6142 15.8186C23.1438 15.8186 23.6985 15.8186 24.1673 16.1029C23.7939 16.4529 23.2735 16.6233 22.9798 17.0561C22.1094 18.2788 21.131 19.4208 20.0564 20.4686C19.7439 20.7186 19.7845 21.1561 19.6345 21.4936C19.2393 22.4014 18.7452 23.2629 18.161 24.0623C17.5508 24.9527 16.8717 25.7938 16.1298 26.5779C16.1689 26.7123 16.2126 26.8482 16.2626 26.9811C15.7673 28.3404 15.4923 29.7654 15.1814 31.1748C14.9985 32.0826 14.7813 32.9857 14.6485 33.9014L14.9438 33.9529C14.686 35.1561 14.7439 36.3795 14.8689 37.5889C15.0126 38.9623 15.1345 40.3404 15.0595 41.7217C15.1813 41.7826 15.4001 41.7607 15.4142 41.942C16.2251 44.967 17.3532 47.967 19.2501 50.4889C19.661 51.0858 20.1985 51.5826 20.5563 52.2201C20.986 52.9373 21.4048 53.6826 22.0298 54.2514C23.0735 55.1623 24.3564 55.7717 25.3001 56.8014C26.3762 57.8644 27.261 59.105 27.9157 60.4686C29.0095 60.267 30.0251 59.7654 31.1095 59.5092C34.0501 58.8389 37.047 58.4076 40.0735 58.3936C43.4313 58.3436 46.7782 58.7779 50.0579 59.467C50.7735 58.3045 51.897 57.4873 52.7142 56.4123C53.1189 56.3529 53.5454 56.2842 53.8798 56.0295C54.2517 55.7592 54.472 55.3436 54.6798 54.9451C54.9095 55.0093 55.1461 55.046 55.3845 55.0545C55.9876 54.6873 56.2189 53.9608 56.7329 53.492C56.9985 53.2519 57.3213 53.084 57.6704 53.0045C57.7954 51.9811 58.7173 51.2858 58.8329 50.2576L59.236 50.2733C59.236 50.3373 59.2579 50.4654 59.2642 50.5295L59.4329 50.667C59.9152 50.1451 60.2477 49.5027 60.3954 48.8076C60.5345 48.7467 60.761 48.7779 60.7939 48.5889C61.097 47.7233 61.5485 46.9014 61.6735 45.9826C61.8947 45.814 62.0783 45.6012 62.2126 45.3576C62.5507 44.6455 62.8227 43.9039 63.0251 43.142C63.5009 41.4963 63.8426 39.8148 64.047 38.1139L64.3517 38.0779C64.3735 37.3779 64.211 36.6967 64.097 36.0123C64.2376 35.9811 64.3782 35.9514 64.522 35.9232C64.4798 34.9139 64.1814 33.9123 64.3501 32.9029C64.2351 31.5916 63.9293 30.304 63.4423 29.0811C63.5564 29.0389 63.6704 28.9982 63.7876 28.9592C63.7876 28.3186 63.3485 27.8311 62.961 27.3748L63.4673 27.242C62.8423 25.6326 61.8454 24.1951 60.9673 22.7108C61.0314 22.5795 61.097 22.4514 61.1642 22.3232C60.5265 21.7966 59.9594 21.1901 59.4767 20.5186L59.6642 20.2717C59.0282 19.442 58.1345 18.8654 57.2892 18.2732C57.2392 18.0186 57.2142 17.7389 57.0314 17.5373C56.7392 17.2076 56.3235 17.0264 55.9735 16.7686C55.9642 16.5701 56.0298 16.3436 55.8876 16.1779C55.4282 15.5279 54.7001 15.1576 54.022 14.7811C54.0548 14.7311 54.122 14.6342 54.1564 14.5858C53.7189 14.0639 53.0814 13.7936 52.4564 13.5733C52.4564 13.4889 52.4564 13.4045 52.4564 13.3201C52.7267 13.1483 52.9939 12.9701 53.2548 12.7811C53.0532 12.0217 52.2626 11.6029 52.1064 10.8232C52.7939 10.7873 53.4517 11.017 54.1142 11.1623C54.0301 10.7414 53.9686 10.3163 53.9298 9.88887C54.6892 10.0264 55.2626 10.5701 55.9017 10.9561C56.0282 10.7529 56.1439 10.542 56.2532 10.3311C56.4793 10.4554 56.6892 10.6071 56.8782 10.7826C57.8157 11.6701 58.6376 12.6717 59.4798 13.6498C59.636 13.8904 59.9485 13.817 60.1939 13.8295C60.5454 14.6311 61.061 15.4639 61.9485 15.7342C62.247 16.5389 62.6985 17.2686 63.1267 18.0076L63.6329 18.1076C63.8798 18.9311 64.1017 19.9561 64.9845 20.3217C65.1325 21.1547 65.4215 21.9563 65.8392 22.692L66.3423 22.7217C66.636 23.4374 66.8732 24.1751 67.0517 24.9279L67.5204 24.9576C67.5079 25.853 67.5874 26.7473 67.7579 27.6264L68.1423 27.6592C68.247 28.5686 68.3204 29.4811 68.3876 30.3951L68.8032 30.417C68.8032 31.3545 68.8032 32.292 68.8032 33.2295L69.272 33.3092C69.1907 34.3482 69.0157 35.3764 68.9282 36.4139L69.2767 36.4936C69.1095 37.3717 68.872 38.2342 68.7595 39.1217L69.0001 39.2139C68.9173 39.5576 68.7985 39.8904 68.6876 40.2248C68.4579 40.8904 68.3064 41.5779 68.1392 42.2561L68.4767 42.367C68.2758 43.2288 67.9315 44.0507 67.4579 44.7983C67.2095 45.142 67.3814 45.5951 67.2376 45.9764C66.8501 47.117 66.1657 48.1201 65.536 49.1358C65.0673 49.8639 64.5689 50.5889 64.3142 51.4248L64.5314 51.5811C63.3689 53.1123 62.1876 54.6358 60.7954 55.9701C60.6392 56.0904 60.7845 56.2717 60.7954 56.4217C60.2439 57.1592 59.4564 57.6717 58.6173 58.0279C58.6814 58.1842 58.761 58.3498 58.8251 58.5154C58.2251 58.9436 57.522 59.2029 56.9235 59.6295C56.8095 59.8264 56.8595 60.0904 56.8267 60.3154C56.2943 60.691 55.7302 61.0193 55.1407 61.2967C55.2372 61.4125 55.3462 61.5173 55.4657 61.6092C55.7782 61.6326 56.1189 61.4998 56.4032 61.6967C59.8615 59.5403 62.8634 56.7268 65.2392 53.4154C67.9662 49.6217 69.79 45.2548 70.571 40.6484C71.352 36.0419 71.0696 31.3179 69.7454 26.8373C68.09 21.2815 64.9097 16.3013 60.5657 12.4623C56.596 8.9409 51.7962 6.4863 46.6174 5.32907C41.4386 4.17184 36.0506 4.34996 30.9595 5.84669M54.4142 10.2654C54.4314 10.7811 54.5251 11.4061 55.0564 11.6483C55.147 11.5186 55.0954 11.192 55.3001 11.2014C55.5485 11.4483 55.7251 11.7639 56.0157 11.9701C55.9704 11.1014 55.2126 10.4686 54.4142 10.2654ZM52.5798 11.117C52.8267 11.8529 53.4282 12.4092 54.1079 12.7545C54.2407 12.842 54.4017 12.7889 54.5501 12.7842C54.1517 12.3498 53.6282 12.0576 53.2189 11.6342C53.7876 11.6826 54.2876 11.9717 54.8157 12.1623C54.9718 12.2205 55.1403 12.2372 55.3048 12.2107C54.6595 11.4014 53.5767 11.0998 52.5798 11.117ZM56.4079 11.0889C56.4138 11.6219 56.5298 12.148 56.7485 12.6342C56.7939 12.7732 56.9345 12.8326 57.0439 12.9139C56.9767 12.5748 56.8751 12.242 56.8314 11.8967C57.1548 12.2092 57.3392 12.6779 57.7689 12.8451C57.7579 12.6389 57.7907 12.417 57.6876 12.2279C57.411 11.7092 56.9064 11.3623 56.4048 11.0889M55.1392 12.6295C55.1095 13.6201 55.9939 14.3139 56.7751 14.7529C56.5642 14.1858 56.236 13.6748 55.9501 13.1451C56.3501 13.3561 56.7642 13.6279 57.2407 13.5764C57.0119 13.1733 56.6399 12.871 56.1985 12.7295C55.8514 12.6595 55.4979 12.626 55.1439 12.6295M58.2454 12.9295C58.2267 13.4436 58.2064 13.9608 58.2189 14.4764L58.6095 14.5264C58.5985 14.2404 58.5907 13.9529 58.5923 13.667C58.9985 13.942 59.147 14.4811 59.597 14.6936C59.4798 13.9748 58.9407 13.4529 58.5032 12.9154C58.4173 12.9154 58.3329 12.9154 58.2485 12.9295M53.147 13.242C53.147 13.3701 53.147 13.4998 53.147 13.6295C53.472 13.8061 53.7439 14.1889 54.1517 14.1248C54.3273 14.1041 54.5005 14.0665 54.6689 14.0123C54.4079 13.8358 54.0985 13.7592 53.8189 13.6201C54.1189 13.5061 54.4282 13.417 54.7329 13.3076C54.5089 13.1325 54.2356 13.0318 53.9515 13.0198C53.6674 13.0077 53.3866 13.0849 53.1485 13.2404M21.8673 14.2904C22.2563 14.1217 22.6298 13.9186 23.0298 13.7764C22.8485 14.2623 22.5251 14.6748 22.3298 15.1545C23.1735 14.842 23.5595 13.9483 23.7517 13.1326C23.061 13.3748 22.2079 13.5576 21.8673 14.2904ZM19.3376 14.2904C18.4595 15.2639 17.486 16.1654 16.786 17.2873C16.5138 17.7121 16.3177 18.1811 16.2063 18.6733L16.3735 18.6889C16.4157 18.4983 16.4563 18.3092 16.5001 18.1201L16.9688 18.1623C17.3574 17.7009 17.7522 17.2436 18.1532 16.7904C18.763 16.1111 19.493 15.5502 20.3064 15.1358C20.2923 14.6373 20.3438 14.0529 20.0017 13.6498C19.7173 13.7889 19.5485 14.0733 19.3376 14.2967M54.7939 14.5123C54.772 14.5904 54.7267 14.7451 54.7032 14.8248C55.2907 15.3279 55.8423 15.9295 56.5985 16.1748C56.741 16.2232 56.8921 16.2412 57.042 16.2277C57.1918 16.2143 57.3372 16.1696 57.4689 16.0967C57.022 15.6811 56.4392 15.4717 55.922 15.1701C56.1954 15.1295 56.4704 15.0951 56.7392 15.0295C56.4506 14.7777 56.1127 14.5888 55.747 14.4748C55.4345 14.3889 55.1079 14.4639 54.7939 14.5139M57.3642 14.5295C57.472 14.8525 57.6063 15.1661 57.7657 15.467C57.922 15.7701 58.1282 16.1014 58.5095 16.1186C58.3845 15.7779 58.1392 15.5076 57.936 15.2139C58.3548 15.4654 58.7173 15.8076 59.1095 16.0889C59.2735 16.2201 59.4876 16.2279 59.686 16.2623C59.6772 16.0983 59.6347 15.9378 59.5613 15.7908C59.488 15.6438 59.3852 15.5134 59.2595 15.4076C58.7101 14.9629 58.0588 14.6617 57.3642 14.5311M59.986 16.2029C60.047 16.3779 60.2501 16.4186 60.3892 16.5154C60.3591 16.2064 60.3069 15.8999 60.2329 15.5983L60.5454 15.6154C60.8189 16.0701 60.9392 16.6373 61.3579 16.9873C61.3829 16.267 61.0579 15.5811 60.6329 15.0201C60.476 14.8252 60.2722 14.673 60.0407 14.5779C59.9564 15.1092 59.7501 15.6842 59.9798 16.2076M19.4876 16.0779C18.6954 16.7779 17.9345 17.5358 17.372 18.4373C17.178 18.7408 17.0424 19.0778 16.972 19.4311C17.273 19.3236 17.5571 19.1736 17.8157 18.9858C18.6814 18.3186 19.1407 17.267 20.0032 16.5967C20.136 16.4811 20.3251 16.5326 20.4845 16.5123C20.1048 17.0592 19.5845 17.4842 19.1501 17.9842C18.4892 18.7217 17.7845 19.5233 17.6376 20.5404C18.1343 20.3389 18.5954 20.0587 19.0032 19.7108C19.472 19.3436 19.7298 18.7733 20.1579 18.3639C20.7642 17.8186 21.0954 17.0483 21.386 16.3045C21.5795 15.8467 21.6952 15.3598 21.7282 14.8639C20.8563 14.9764 20.1376 15.5342 19.4829 16.0779M21.8907 16.2342C21.5907 16.7936 21.247 17.3279 20.9064 17.8592C20.5298 18.4686 20.1251 19.0826 19.9689 19.7936C20.1319 19.6924 20.2851 19.5763 20.4267 19.4467C21.3173 18.6279 22.0329 17.6467 22.8126 16.7264C22.9372 16.5763 23.0374 16.4076 23.1095 16.2264C22.704 16.1904 22.2962 16.1904 21.8907 16.2264M56.5298 16.6217C56.7798 17.2467 57.3751 17.6467 57.9892 17.8514C58.1892 17.9373 58.3689 17.8076 58.5235 17.6951C58.1601 17.4259 57.7649 17.2024 57.347 17.0295C57.7579 17.0076 58.1704 17.0295 58.5829 17.0404C58.4356 16.8236 58.2687 16.6207 58.0845 16.4342C57.5626 16.4748 57.0485 16.5639 56.5298 16.6217ZM59.2173 16.6342C59.3126 17.4326 59.8032 18.1029 60.3314 18.6795C60.5142 18.1342 60.0017 17.742 59.8001 17.2873C60.2689 17.4311 60.5814 17.8108 60.8735 18.1686H61.186C61.0173 17.8108 60.836 17.442 60.5267 17.1842C60.1579 16.8717 59.6751 16.7639 59.222 16.6373M61.8251 16.6983C61.7928 17.1556 61.8043 17.615 61.8595 18.0701L62.1282 17.9998C62.4845 18.2201 62.561 18.6779 62.8314 18.9811C62.8939 18.8135 62.9106 18.6323 62.8798 18.4561C62.7336 17.8972 62.4903 17.3683 62.161 16.8936C62.1001 16.7592 61.9392 16.7514 61.8251 16.7014M58.1814 18.2811C58.5095 19.1811 59.3626 19.6873 60.1064 20.2186C60.2985 20.3748 60.5532 20.3217 60.7814 20.317C60.3501 19.8639 59.7626 19.6092 59.3001 19.1936C59.7892 19.2217 60.2173 19.4686 60.647 19.6795C60.6564 19.5061 60.7876 19.2889 60.6298 19.1514C59.9603 18.5499 59.0803 18.2371 58.1814 18.2811ZM61.1157 18.7998C61.1745 19.3275 61.3682 19.8312 61.6782 20.2623C61.7648 20.3531 61.872 20.4217 61.9907 20.4623C61.8907 20.092 61.6782 19.7654 61.5298 19.417C61.9345 19.6279 62.1548 20.0904 62.6235 20.1983C62.5923 19.3967 61.8204 18.9373 61.1142 18.792M63.3204 18.9639C63.1376 19.6264 63.0235 20.3842 63.397 21.0061C63.4751 20.7756 63.5331 20.5387 63.5704 20.2983C63.6267 20.2983 63.736 20.2983 63.7907 20.2983C63.8149 20.5697 63.9345 20.8238 64.1282 21.0154C64.1892 20.267 63.997 19.3857 63.3204 18.9592M13.6501 21.3342C13.044 22.4725 12.6321 23.704 12.4313 24.9779L13.0251 24.9373C13.4673 23.6014 14.4063 22.517 14.9923 21.2498C15.236 20.7081 15.3397 20.1139 15.2938 19.5217C14.4907 19.8342 14.0438 20.6154 13.6485 21.3342M16.511 20.4373C15.509 21.3689 14.6502 22.4435 13.9626 23.6264C13.6235 24.267 13.2517 24.9764 13.3845 25.7248C13.4267 25.8639 13.4345 26.0842 13.6235 26.0904C14.561 24.7295 14.9751 23.0779 15.8923 21.7014C15.9686 21.6003 16.0591 21.5109 16.161 21.4358C16.2876 22.0264 16.0923 22.6201 15.797 23.1279C15.2813 24.0295 14.6907 24.9061 14.4063 25.9139C14.382 26.2413 14.4073 26.5705 14.4813 26.8904C15.0063 26.5779 15.2876 26.0186 15.5657 25.5029C16.2364 24.1465 16.7682 22.7257 17.1532 21.2623C17.2928 20.7865 17.3777 20.2964 17.4063 19.8014C17.0785 19.9679 16.7773 20.1822 16.5126 20.4373M60.1204 20.6248C60.3595 21.2842 60.8892 21.7795 61.4314 22.1998C61.5876 22.3467 61.8126 22.3436 62.0173 22.3483C61.6423 21.8967 61.1189 21.5982 60.7423 21.1467C61.286 21.2779 61.6548 21.7967 62.2407 21.8233C62.258 21.6818 62.2395 21.5382 62.1868 21.4058C62.1341 21.2734 62.0489 21.1563 61.9392 21.0654C61.4204 20.6733 60.7376 20.6764 60.1204 20.6248ZM62.6064 20.7811C62.5861 21.5171 62.7864 22.2424 63.1814 22.8639C63.2664 22.9829 63.3723 23.0856 63.4939 23.167C63.5485 22.6357 63.286 22.1654 63.0767 21.6998C63.5892 21.7983 63.6704 22.492 64.1423 22.6201C63.8579 21.8654 63.3532 21.1483 62.6173 20.7764M64.6657 21.2029C64.5532 21.9951 64.6064 22.8014 64.6548 23.5967L64.9673 23.7217L64.9392 22.8404H65.2673C65.3032 23.1436 65.3345 23.4467 65.3985 23.7451C65.4578 23.6341 65.495 23.5125 65.5079 23.3873C65.4923 22.7857 65.2204 22.2326 64.9985 21.6873C64.9218 21.5056 64.8097 21.341 64.6689 21.2029M17.6376 21.6342C17.2063 22.0717 17.3251 22.7545 17.0392 23.267C16.672 23.9279 16.2579 24.5982 16.1938 25.3717L16.6188 25.5092C17.6313 24.2357 18.3454 22.7561 19.011 21.2811C18.5423 21.3561 18.0298 21.3436 17.6376 21.6342ZM61.5579 22.8201C61.7084 23.4436 62.0848 23.9892 62.6142 24.3514C62.9548 24.5858 63.297 24.8826 63.7345 24.8842C63.536 24.3139 62.972 24.0201 62.5876 23.592C62.886 23.6217 63.1829 23.6764 63.4845 23.7061C63.2648 23.3983 62.9799 23.1427 62.6501 22.9576C62.322 22.7623 61.922 22.8014 61.5564 22.8201M64.1189 23.5342C64.084 24.2778 64.2647 25.0157 64.6392 25.6592C64.7642 25.1686 64.5298 24.6857 64.4829 24.1998L64.7626 23.9779C64.5712 23.7989 64.3543 23.6493 64.1189 23.5342ZM65.9939 23.5045C65.843 24.1115 65.7996 24.7403 65.8657 25.3623C66.0298 25.2358 66.197 25.1107 66.3673 24.9904C66.3751 25.292 66.3798 25.592 66.397 25.8936L66.6517 25.7482C66.7954 24.9967 66.5485 24.2389 66.2798 23.542L65.9939 23.5045ZM64.7845 24.2733C64.8095 24.4295 64.8376 24.5858 64.8689 24.742L65.2485 24.6451C65.0923 24.5139 64.9439 24.3873 64.7798 24.267M62.8939 25.0186C63.1298 25.9936 63.6954 27.0279 64.6767 27.4045C64.711 26.6561 63.9673 26.2795 63.5439 25.7779C63.7895 25.8532 64.0288 25.9477 64.2595 26.0607L64.4376 25.9764C64.2314 25.6639 64.0579 25.2857 63.7001 25.1264C63.4337 25.0749 63.1645 25.0389 62.8939 25.0186ZM11.7282 25.992C11.5204 27.7592 10.7392 29.3904 10.436 31.1373C10.2704 32.2076 10.2798 33.3732 10.8423 34.3342C10.9548 33.2842 10.8595 32.2279 10.897 31.1764C10.897 30.8514 11.0798 30.5701 11.2095 30.2842C11.7095 29.2639 12.2407 28.2154 12.3501 27.067C12.3843 26.8434 12.341 26.6148 12.2273 26.4192C12.1136 26.2237 11.9364 26.0729 11.7251 25.992M66.5595 27.7592L66.9032 27.6279C67.0075 27.779 67.1235 27.9216 67.2501 28.0545C67.319 27.3848 67.2384 26.7081 67.0142 26.0732C66.6173 26.542 66.5298 27.167 66.5595 27.7592ZM65.1689 26.2217C65.1282 26.9686 65.122 27.7279 65.3251 28.4561L65.6376 28.4451C65.6079 27.9764 65.5407 27.5232 65.5142 27.0607L65.8876 26.9045C65.8392 26.7372 65.7475 26.5855 65.6219 26.4649C65.4963 26.3442 65.3411 26.2587 65.172 26.217M12.6142 27.8123C12.0519 28.7657 11.6834 29.8208 11.5298 30.917C11.347 32.1123 11.2485 33.3373 11.4876 34.5326L11.8282 34.3982C11.8548 32.4701 12.4251 30.6123 12.922 28.7732C12.922 28.5889 13.1267 28.567 13.2563 28.4951C13.3376 29.3639 13.1126 30.2139 12.9438 31.0592C12.7188 32.1436 12.486 33.2467 12.5345 34.3576C13.1204 34.1436 13.3454 33.4982 13.5282 32.9514C13.9188 31.5592 13.997 30.1014 14.0376 28.6639C14.0892 27.9482 14.0923 27.2311 14.1001 26.5139C13.4548 26.7326 12.961 27.242 12.6079 27.8092M63.597 27.4764C63.6689 27.6529 63.7032 27.8717 63.8689 27.992C64.1691 28.1836 64.4954 28.3309 64.8376 28.4295C64.7907 28.117 64.7657 27.7451 64.4845 27.5498C64.2064 27.4279 63.8907 27.4842 63.597 27.4764ZM65.8876 27.5451C65.9548 27.817 65.9751 28.1311 66.2173 28.317C66.2023 28.0604 66.1731 27.8048 66.1298 27.5514H65.8876M14.9001 27.7873C14.7438 27.892 14.5235 27.9951 14.5376 28.2201C14.4157 29.3951 14.2642 30.5639 14.1345 31.7404C14.048 32.3187 14.0052 32.9026 14.0063 33.4873C14.1622 33.39 14.2869 33.2501 14.3657 33.0842C14.6673 32.3576 14.8235 31.5826 14.9907 30.817C15.222 29.7232 15.4225 28.6232 15.5923 27.517C15.3509 27.5771 15.1183 27.6679 14.9001 27.7873ZM64.1564 28.6514C64.1963 28.7707 64.2433 28.8876 64.297 29.0014C64.3751 29.1904 64.6095 29.1264 64.7735 29.1576C64.6579 29.0014 64.536 28.8451 64.4157 28.6889L64.1564 28.6467M67.1829 30.4686C67.2923 30.3279 67.3985 30.1826 67.5048 30.0373L67.7767 30.0857C67.7707 30.3284 67.7811 30.5711 67.8079 30.8123C67.8913 30.7203 67.94 30.602 67.9454 30.4779C67.9454 29.8357 67.9751 29.1764 67.7892 28.5529C67.3704 29.0811 66.9767 29.7764 67.1814 30.4686M64.086 29.4545C64.1205 30.1093 64.3113 30.7463 64.6423 31.3123L64.972 31.2842C64.8353 30.9231 64.662 30.5771 64.4548 30.2514H64.8064C64.9143 30.4321 65.0327 30.6064 65.161 30.7732C65.3673 30.7061 65.4079 30.4936 65.4642 30.3123C65.1095 29.8826 64.6032 29.6326 64.086 29.4576M65.8267 31.9795C65.9095 31.8998 66.0298 31.8357 66.0392 31.7076C66.1579 31.1904 66.1298 30.6545 66.1439 30.1295L66.3798 30.2357C66.5673 30.6264 66.6689 31.0514 66.822 31.4561L67.0392 31.4217C67.0736 31.2896 67.0811 31.152 67.061 31.017C66.8836 30.3858 66.5185 29.8235 66.0142 29.4045C65.7751 30.2357 65.5814 31.1232 65.8267 31.9795ZM67.3892 33.2295L67.6939 33.3498C67.722 33.2623 67.7532 33.1748 67.786 33.0873L68.0735 33.1779C68.0735 33.4139 68.0657 33.6467 68.0735 33.8842C68.5814 33.1545 68.4689 32.2279 68.4267 31.392C67.7048 31.6857 67.4735 32.5264 67.3876 33.2295M66.1501 34.2498C66.4466 33.9238 66.6172 33.5028 66.6314 33.0623C66.7501 33.0248 66.8673 32.9857 66.986 32.9498C66.9126 32.5248 66.8298 32.0279 66.397 31.8217C66.2923 32.6279 66.2017 33.4373 66.1501 34.2498ZM64.7048 31.9889C64.7204 32.2311 64.6907 32.4889 64.7876 32.7186C65.1089 32.8036 65.414 32.9408 65.6907 33.1248C65.6907 32.9686 65.6907 32.8123 65.6907 32.6561C65.3942 32.3907 65.0631 32.1668 64.7064 31.9904M64.8298 32.8498C64.9189 33.2045 64.986 33.6451 65.3329 33.8404C65.3642 33.4529 65.2454 32.9795 64.8298 32.8498ZM64.786 33.9904C64.8272 34.554 64.8965 35.1151 64.9939 35.6717C65.0203 35.823 65.0789 35.9669 65.1657 36.0936C65.2334 35.7228 65.2418 35.3436 65.1907 34.9701C65.5407 35.0326 65.6001 35.4279 65.7907 35.6701L66.0251 35.417C65.9701 35.087 65.8252 34.7785 65.6063 34.5255C65.3875 34.2724 65.1031 34.0846 64.7845 33.9826M67.6798 35.1248C67.584 35.248 67.5274 35.397 67.5171 35.5527C67.5068 35.7083 67.5433 35.8635 67.622 35.9982C67.747 35.8107 67.8579 35.6123 67.9673 35.4154L68.3282 35.3748C68.2655 35.7718 68.2316 36.1729 68.2267 36.5748C68.6427 35.8639 68.7691 35.0202 68.5798 34.2186C68.1923 34.4217 67.9204 34.7811 67.6798 35.1357M10.0032 34.6873C9.97197 35.7951 10.0407 36.8998 10.0845 38.0076C10.1829 39.5326 10.5048 41.0608 11.197 42.4326L11.4095 42.4561C11.2829 41.8951 11.1501 41.3436 11.072 40.7811C10.8392 39.3451 10.9751 37.8826 11.2063 36.4561C11.2595 36.258 11.2595 36.0494 11.2063 35.8514C10.9954 35.3201 10.6438 34.7232 10.0079 34.6764M12.1126 34.7295C11.7751 36.2498 11.272 37.7654 11.3063 39.3404C11.2876 40.567 11.6845 41.7561 12.1845 42.8623C12.2173 43.0076 12.3782 43.0061 12.497 43.0576C12.8938 41.042 12.0876 39.0623 12.122 37.0311H12.4001C12.5563 38.392 12.4907 39.7701 12.6642 41.1311C12.7183 41.5351 12.8533 41.9241 13.061 42.2748C13.361 41.9748 13.397 41.5248 13.4657 41.1264C13.5798 39.9639 13.4267 38.792 13.2251 37.6467C13.075 36.6516 12.8129 35.6767 12.4438 34.7404L12.1235 34.7279M14.0517 34.9029C13.805 35.3324 13.6362 35.8022 13.5532 36.2904C13.3475 37.4228 13.4058 38.5874 13.7235 39.6936C13.8548 40.0545 13.947 40.4904 14.3173 40.6889C14.2298 41.3139 14.147 41.9498 14.0985 42.5842L14.3345 42.5529C14.566 41.8009 14.6938 41.0208 14.7142 40.2342C14.7798 38.4326 14.3767 36.6576 14.3282 34.8607L14.0517 34.9029ZM66.6189 34.8232C66.5143 35.076 66.4454 35.3421 66.4142 35.6139L66.8829 35.8561C66.9485 36.3686 67.0235 36.8826 67.1314 37.3904C67.4095 37.2201 67.4532 36.9061 67.4892 36.6092L67.3329 36.4889C67.211 35.8951 67.136 35.2201 66.6204 34.8217M66.3329 35.9873C66.253 36.3128 66.2188 36.6477 66.2314 36.9826L66.4204 36.8576C66.4724 36.5289 66.4996 36.1967 66.5017 35.8639L66.3329 35.9873ZM64.6407 36.3545C64.6933 37.0844 64.7946 37.81 64.9439 38.5264C64.9774 38.677 65.0646 38.8103 65.1892 38.9014C65.1892 38.5045 65.1235 38.1201 65.0876 37.7201L65.4001 37.7389C65.5142 38.0186 65.6282 38.2998 65.7548 38.5764C65.9017 38.3889 66.0907 38.167 65.9876 37.9107C65.7331 37.2477 65.2543 36.6949 64.6345 36.3482M67.2907 38.7811C67.7048 38.5951 67.9157 38.1826 68.1001 37.7951L68.4048 37.8233C68.2485 38.4233 67.8579 38.9373 67.7626 39.5576C68.0073 39.3993 68.2011 39.1736 68.3204 38.9076C68.5346 38.3642 68.6693 37.7927 68.7204 37.2107C67.9751 37.367 67.3001 37.9811 67.2907 38.7811ZM66.2907 38.9514L66.6173 39.0779C66.6532 39.4951 66.6173 39.9139 66.6626 40.3279C66.8032 40.1576 66.9751 39.9967 67.022 39.7717C67.1376 39.1232 66.9798 38.4717 66.8954 37.8311C66.7907 37.7998 66.6876 37.7701 66.5829 37.7436C66.3655 38.1056 66.263 38.5252 66.2892 38.9467M64.6892 39.0076C64.3767 39.7998 64.0157 40.6748 64.3126 41.5311L64.5017 41.5108C64.5232 41.0835 64.496 40.6552 64.4204 40.2342C64.561 40.2061 64.7017 40.1811 64.8423 40.1561C64.9282 40.5404 64.9407 40.9561 65.1548 41.2998C65.2706 41.2036 65.3698 41.089 65.4485 40.9607C65.4453 40.2388 65.176 39.5435 64.6923 39.0076M66.9314 41.0076C66.8001 41.1514 66.8501 41.3482 66.8642 41.5232C67.0748 41.2021 67.3936 40.9671 67.7626 40.8608C67.6689 41.3561 67.4782 41.8279 67.4001 42.3279C67.8724 41.6248 68.1781 40.8232 68.2939 39.9842C67.6423 39.9545 67.2548 40.5373 66.9314 41.0107M66.1204 40.6889C65.6157 41.4295 65.1689 42.2373 65.0267 43.1326C65.4704 42.7967 65.7454 42.3076 66.011 41.8311L66.5157 41.8186C66.4501 41.5858 66.3517 41.3639 66.2954 41.1295C66.347 41.0214 66.406 40.917 66.472 40.817C66.3564 40.7733 66.2407 40.7311 66.1267 40.692M63.6267 41.7076C63.6126 42.5857 63.6267 43.492 63.9392 44.3264C64.1845 43.8576 64.0532 43.3014 63.9126 42.8139H64.2017C64.2985 43.0154 64.3954 43.2154 64.4907 43.417C64.5767 43.3514 64.6642 43.2842 64.7517 43.2201C64.6595 42.8076 64.586 42.3607 64.2829 42.0451C64.1028 41.8722 63.8756 41.7564 63.6298 41.7123M66.0985 42.1358C66.072 42.4342 66.0392 42.7326 66.0204 43.0326C66.4251 42.8764 66.3532 42.3732 66.4985 42.0389C66.3642 42.0701 66.2314 42.1014 66.0985 42.1358ZM14.5688 42.8592C14.4886 43.179 14.4945 43.5143 14.586 43.8311C14.9579 45.1295 15.836 46.2029 16.2735 47.4779C16.3771 47.4635 16.4815 47.4551 16.586 47.4529C16.8688 47.6811 16.8985 48.0701 17.0813 48.3686C16.8267 46.2717 15.4767 44.5076 15.1001 42.4404C14.897 42.5373 14.6438 42.6217 14.5657 42.8592M66.4235 43.6092C65.8548 43.5826 65.286 43.5951 64.7173 43.5858C64.5162 43.5638 64.313 43.5717 64.1142 43.6092C64.8751 43.6092 65.6392 43.5748 66.4001 43.6201C66.1486 43.9414 65.9946 44.328 65.9564 44.7342C66.1723 44.5493 66.3753 44.3498 66.5642 44.1373C66.6767 44.0092 66.8767 44.067 67.022 44.0295C66.8751 44.3217 66.7095 44.6045 66.5532 44.892C66.5939 44.9483 66.6782 45.0576 66.7189 45.1123C66.897 44.9607 67.0412 44.7733 67.1423 44.5623C67.4117 43.9845 67.6131 43.3773 67.7423 42.7529C67.2426 42.9356 66.7903 43.2282 66.4189 43.6092M13.0251 43.1873C12.9811 43.9061 12.9957 44.6272 13.0688 45.3436C13.1876 46.7795 13.611 48.2451 14.561 49.3608C14.8829 49.7233 15.2173 50.1045 15.6688 50.3108C15.6688 50.1248 15.7032 49.9264 15.6032 49.7592C14.9532 48.5092 14.2829 47.2592 13.9079 45.8858C13.7869 45.4273 13.7566 44.9496 13.8188 44.4795C14.0267 44.9654 14.1892 45.4654 14.3829 45.9561C14.886 47.267 15.5079 48.5264 16.0798 49.8092C16.1501 49.8186 16.2907 49.842 16.3595 49.8529C16.4313 48.567 15.9688 47.3279 15.3813 46.2045C14.7412 45.024 14.0142 43.8928 13.2063 42.8201C13.1474 42.8609 13.0999 42.916 13.0682 42.9803C13.0365 43.0445 13.0216 43.1158 13.0251 43.1873ZM10.9938 43.6561C11.076 43.9842 11.1804 44.3063 11.3063 44.6201C11.9524 46.2099 12.6891 47.7614 13.5126 49.267L13.7517 49.3029C13.2173 47.9623 13.186 46.4904 12.7048 45.1342C12.576 44.7581 12.3498 44.4228 12.0493 44.1626C11.7487 43.9024 11.3845 43.7265 10.9938 43.6529M65.2017 43.9201C64.5485 44.7108 63.8485 45.6014 63.8814 46.6858C64.1035 46.5131 64.303 46.3131 64.4751 46.0904C64.4832 45.7728 64.5812 45.4639 64.7579 45.1998L65.0985 45.1514C65.0571 45.5144 65.0389 45.8798 65.0439 46.2451C65.6579 45.6311 65.561 44.6983 65.561 43.9014C65.4407 43.9014 65.3204 43.9014 65.2017 43.9108M63.1814 44.1904C62.9782 45.1561 62.6329 46.1154 62.6376 47.1123C62.7739 46.7315 62.8784 46.3401 62.9501 45.942C63.1279 45.9824 63.3079 46.0127 63.4892 46.0326C64.0735 45.5811 63.7751 44.767 63.5064 44.2217L63.186 44.1904M64.8798 47.4904C65.1439 47.4248 65.4079 47.3483 65.6689 47.2654C65.522 47.6904 65.297 48.0858 65.1907 48.5264C65.9954 47.8233 66.3767 46.7889 66.6985 45.8014C66.2803 45.9126 65.8957 46.1247 65.5786 46.4192C65.2615 46.7137 65.0215 47.0815 64.8798 47.4904ZM61.1814 48.9592C61.4329 48.7108 61.7798 48.6248 62.1189 48.5451C62.1912 47.9978 62.2121 47.4448 62.1814 46.8936L61.9314 46.8123C61.6407 47.5123 61.2329 48.1858 61.1814 48.9592ZM63.1814 48.0123C62.9548 48.3436 62.611 48.6373 62.6032 49.0701C62.8269 48.9753 63.0265 48.8317 63.1876 48.6498C63.3892 48.4279 63.522 48.1061 63.847 48.0404C63.847 48.3092 63.8329 48.5779 63.847 48.8483C63.9345 48.7561 64.0642 48.692 64.1095 48.5623C64.2964 48.0605 64.4096 47.5341 64.4454 46.9998C63.9294 47.1993 63.4886 47.5549 63.1845 48.017M64.0423 49.4045C63.8371 49.5374 63.6618 49.7114 63.5273 49.9155C63.3928 50.1197 63.3022 50.3495 63.261 50.5904C63.5735 50.3592 63.872 50.0904 64.2626 50.0014C64.0595 50.4451 63.7314 50.8295 63.6298 51.3154C63.8523 51.1947 64.0556 51.0414 64.2329 50.8608C64.7989 50.2717 65.2372 49.5722 65.5204 48.8061C64.9823 48.8724 64.471 49.0788 64.0376 49.4045M17.9157 49.5248C17.8683 50.049 17.9106 50.5774 18.0407 51.0873C18.197 51.6139 18.5345 52.0576 18.8907 52.467C19.4003 53.0191 19.8702 53.6065 20.297 54.2248H20.5282C20.434 54.0093 20.3664 53.7832 20.3267 53.5514C20.5197 53.7548 20.688 53.9803 20.8282 54.2233C20.2329 52.8358 19.5892 51.4545 18.7157 50.2186C18.5187 49.9185 18.2438 49.6776 17.9204 49.5217M61.3439 51.4404C61.6485 51.0139 61.9235 50.5108 62.4579 50.3467C62.211 50.8904 61.8985 51.4248 61.8642 52.0358C62.5357 51.4023 62.9351 50.5329 62.9782 49.6108C62.1751 49.8967 61.4001 50.5358 61.3439 51.4436M59.5595 51.692L59.9532 51.6842C59.997 51.4326 60.0407 51.1811 60.0892 50.9311C60.2064 50.9139 60.3267 50.8967 60.447 50.8826C60.3463 51.2338 60.2757 51.5929 60.236 51.9561C60.586 51.9107 60.6845 51.5373 60.7782 51.2545C60.852 51.0141 60.8666 50.7595 60.8209 50.5122C60.7752 50.2649 60.6705 50.0323 60.5157 49.8342C60.2032 50.4592 59.8579 51.0623 59.5595 51.692ZM14.4985 50.0701C14.7142 50.2811 14.9485 50.4717 15.1829 50.6623C15.2657 50.5967 15.3392 50.5311 15.4251 50.4654C15.1254 50.3132 14.8159 50.1811 14.4985 50.0701ZM16.2063 50.7045C16.3985 51.8701 16.7313 53.0483 17.4142 54.0217C18.097 54.9951 19.0298 55.7623 19.9673 56.4811C20.1235 56.6373 20.3642 56.6264 20.5735 56.6467C19.6079 55.417 18.5642 54.2498 17.6048 53.0107C17.5235 52.8813 17.454 52.7448 17.397 52.6029C17.5922 52.6951 17.7724 52.8162 17.9314 52.9623C19.0251 54.0248 19.8188 55.3514 20.9376 56.3873C21.0188 56.2494 21.0492 56.0875 21.0235 55.9295C20.9017 55.4389 20.5829 55.0311 20.2954 54.6264C19.452 53.5412 18.5105 52.5359 17.4829 51.6233C17.0829 51.2826 16.7017 50.8951 16.1985 50.7045M58.7548 51.7561C58.5841 52.0342 58.4918 52.3532 58.4876 52.6795C58.5957 52.8397 58.6637 53.0235 58.686 53.2154C58.8536 53.0181 59.0071 52.8093 59.1454 52.5904C59.3017 52.2482 59.272 51.8623 59.2767 51.4967C59.1017 51.5717 58.8579 51.5654 58.7548 51.7514M14.2485 51.8076C14.7704 52.5889 15.6439 53.0358 16.2142 53.7733C16.597 54.3623 16.8548 55.0233 17.2501 55.6092C17.5987 56.1475 18.0632 56.6013 18.6095 56.9373C18.936 57.1342 19.2798 57.3483 19.6735 57.3592C19.1907 56.8904 18.5985 56.5404 18.1595 56.0201C18.6657 56.2092 18.961 56.7092 19.4564 56.9154C19.6951 57.0091 19.9499 57.0553 20.2064 57.0514C19.986 56.6389 19.5439 56.4436 19.186 56.1779C18.7751 55.8779 18.3048 55.6389 17.9782 55.2404C17.1657 54.2248 16.5892 53.0186 15.6345 52.1264C15.2735 51.7967 14.7204 51.5014 14.2563 51.8139M61.2439 53.2654C61.6055 53.0909 61.9936 52.9774 62.3923 52.9295C62.0532 53.2217 61.6204 53.467 61.5157 53.9389C62.5548 53.5654 63.1376 52.5701 63.8595 51.8076C62.8142 51.6514 61.4892 52.1295 61.2392 53.2654M59.3829 53.2858C59.2113 53.4428 59.0937 53.6501 59.047 53.8779C59.3104 53.8788 59.5703 53.8167 59.8048 53.6967C60.3751 53.367 60.8751 52.8514 61.0298 52.192C60.4361 52.4843 59.8826 52.8519 59.3829 53.2858ZM60.4157 53.3139C60.2196 53.5964 60.0815 53.9151 60.0095 54.2514C60.338 54.034 60.5857 53.7144 60.7142 53.342L60.4157 53.3092M56.9314 53.8639C56.2923 54.4701 55.6564 55.2201 55.6517 56.1529C55.9987 55.794 56.2763 55.3739 56.4704 54.9139C56.5657 54.8795 56.6626 54.8451 56.761 54.8123C56.6632 55.1839 56.5886 55.5612 56.5376 55.942C56.6418 55.8972 56.7527 55.855 56.8704 55.8154C57.254 55.1917 57.4418 54.4673 57.4095 53.7358C57.2532 53.7717 57.0548 53.7358 56.9314 53.8639ZM59.7939 54.8545C59.7939 54.9248 59.7814 55.0654 59.7782 55.1373C60.1189 54.9996 60.4779 54.9128 60.8439 54.8795C60.472 55.2889 59.9517 55.5826 59.7501 56.1295C60.6392 55.7779 61.2407 54.9951 61.8798 54.3217C61.1345 54.2061 60.4189 54.4889 59.7876 54.8561M57.5595 55.4092C57.6392 55.4654 57.7157 55.5248 57.8048 55.5826C58.0048 55.3326 58.2204 55.0514 58.586 55.0811C58.3985 55.5498 58.0923 55.9576 57.9501 56.4436C58.772 56.0904 59.3048 55.2764 59.4657 54.4123C58.7267 54.4936 58.136 54.9779 57.5626 55.4061M22.2095 54.8436C22.2767 55.6061 22.4329 56.467 23.0876 56.9545C23.7267 57.4233 24.5079 57.6186 25.2064 57.9733C25.4517 58.1295 25.7095 57.9733 25.9438 57.8733C25.2954 57.1983 24.6001 56.5717 23.8907 55.9639C23.3751 55.5295 22.8439 55.092 22.2095 54.8436ZM53.5735 57.5248C53.739 57.3388 53.8856 57.1368 54.011 56.9217L54.3345 56.8748C54.3423 57.0311 54.3532 57.1967 54.3642 57.3592C54.6147 57.2462 54.836 57.0773 55.011 56.8654C55.0814 56.5217 54.9407 56.1764 54.8439 55.8498C54.022 55.9248 53.611 56.7873 53.5735 57.5248ZM58.886 56.4717C58.4173 56.6045 57.9485 56.7983 57.4642 56.867C57.4642 56.9233 57.4642 57.0358 57.4642 57.092C57.947 57.0529 58.4251 56.9592 58.911 56.9233C58.4655 57.1965 58.0025 57.4403 57.5251 57.6529C57.5532 57.7545 57.586 57.8561 57.6173 57.9654C58.2189 57.8092 58.8517 57.6779 59.3564 57.2904C59.6564 57.0529 60.0329 56.8108 60.0767 56.392C59.6784 56.355 59.2767 56.3835 58.8876 56.4764M55.2626 57.2264C55.1064 57.392 54.8751 57.5389 54.8595 57.7889C55.1548 57.892 55.3751 57.6217 55.5892 57.467C55.7991 57.2834 56.0506 57.1536 56.322 57.0889C56.072 57.567 55.7376 57.9951 55.4954 58.4779C55.636 58.4371 55.7659 58.3657 55.8756 58.2687C55.9853 58.1717 56.0721 58.0516 56.1298 57.917C56.3793 57.7855 56.61 57.621 56.8157 57.4279C56.8939 57.2811 56.8767 57.1029 56.9314 56.9498C57.0221 56.8367 57.1197 56.7292 57.2235 56.6279C56.9907 56.5108 56.7329 56.392 56.4673 56.4717C55.9985 56.5873 55.622 56.9232 55.2626 57.2295M21.1501 56.7279C21.4189 57.7529 22.1392 58.5623 22.8689 59.292C21.9767 58.7483 21.0313 58.2358 19.9829 58.0873C19.9829 58.1654 19.9829 58.3233 19.9829 58.3998C21.2954 59.2498 22.5126 60.2514 23.9095 60.967C24.222 61.1233 24.547 61.3342 24.9157 61.2451C24.7574 60.9575 24.5637 60.6909 24.3392 60.4514C24.7267 60.692 25.1095 60.9467 25.5157 61.1576C25.922 61.3686 26.3626 61.2139 26.7657 61.0951C26.7142 60.967 26.7017 60.8061 26.5642 60.7373C25.3235 59.9389 24.0798 59.1358 22.9376 58.1998C23.1594 58.2454 23.3711 58.3306 23.5626 58.4514C24.2923 58.9389 24.9501 59.5248 25.6798 60.0139C26.1345 60.3076 26.6485 60.6561 27.2189 60.5107C26.0751 59.2373 24.8751 57.8951 23.2392 57.2608C22.5657 57.0139 21.8767 56.7654 21.1563 56.7279M51.7814 58.9264C51.9194 58.7592 52.0326 58.5729 52.1173 58.3733C52.208 58.3593 52.3006 58.3797 52.377 58.4306C52.4533 58.4815 52.5078 58.5592 52.5298 58.6483C52.7126 58.5529 52.8939 58.4545 53.0689 58.3467C53.1316 57.9497 53.1405 57.5461 53.0954 57.1467C52.2626 57.2686 51.8454 58.1748 51.7814 58.9264ZM56.0392 58.5342C55.8032 58.6904 55.511 58.8029 55.4017 59.0873C55.722 59.0576 56.0704 58.9311 56.3704 59.1092C56.1237 59.2124 55.8706 59.2996 55.6126 59.3701C55.6126 59.4342 55.597 59.5608 55.5907 59.6248C56.586 59.5358 57.4564 58.9623 58.1439 58.2686C57.747 58.1701 57.3407 58.0529 56.9298 58.1123C56.6001 58.1686 56.3204 58.3654 56.0392 58.5326M52.8032 58.867C52.3454 59.0951 52.0642 59.5576 51.9126 60.0311C52.5126 59.8748 52.8985 59.3217 53.5064 59.1904C53.336 59.6373 52.9595 59.9717 52.8564 60.4529C53.2626 60.3904 53.7017 60.2873 53.9829 59.9623C54.322 59.5561 54.4517 59.0248 54.5517 58.5186C53.9595 58.5576 53.3454 58.6014 52.8032 58.867ZM50.9392 58.9123C50.8767 59.0389 50.8142 59.167 50.7548 59.2951L50.4814 59.2764C50.472 59.367 50.4626 59.4576 50.4548 59.5514L50.7392 59.4451C50.9173 59.2311 51.2267 59.1795 51.3642 58.9311C51.222 58.9217 51.0782 58.917 50.9376 58.9123M32.5564 60.2608C29.6079 60.9307 26.7623 61.9922 24.0954 63.417C23.1892 63.9326 22.2689 64.4514 21.4673 65.117C21.5282 65.8467 21.9126 66.4951 22.1954 67.1576C23.4814 69.8264 25.0079 72.3717 26.4798 74.9373C26.9017 74.8029 27.2376 74.5092 27.622 74.3014C30.3767 72.7233 33.4564 71.7701 36.5829 71.2811C39.936 70.7764 43.386 70.7873 46.7048 71.5186C48.9814 72.0233 51.2032 72.8873 53.111 74.2436C53.3673 74.417 53.5923 74.642 53.872 74.7795C54.0032 74.7765 54.1319 74.743 54.248 74.6817C54.364 74.6205 54.4642 74.533 54.5407 74.4264C54.6517 74.2123 54.6564 73.9576 54.736 73.7358C54.9501 73.0764 55.3454 72.4967 55.7267 71.9248C55.859 71.7002 55.964 71.4604 56.0392 71.2108C56.0322 71.0497 56.0735 70.8903 56.1579 70.7529C56.4221 70.4015 56.6542 70.027 56.8517 69.6342L56.7532 69.4217C57.3267 68.9451 57.4626 68.1717 57.836 67.5561C57.836 67.4951 57.8439 67.3764 57.847 67.317L58.0329 67.2889C58.3454 66.6889 58.5017 66.0186 58.8954 65.4654C57.1392 63.4576 54.8329 61.992 52.3642 61.0108C49.8454 60.0139 47.1564 59.4857 44.461 59.2748C40.4657 58.9919 36.4507 59.3244 32.5564 60.2608ZM54.1032 60.1045V60.4264C54.3988 60.3719 54.6972 60.3338 54.997 60.3123C54.7985 60.4545 54.5954 60.5904 54.3954 60.7264C54.3954 60.8061 54.3845 60.9639 54.3814 61.0389C55.2095 60.9529 56.1626 60.6873 56.5689 59.8826C55.74 59.8695 54.9121 59.9428 54.0985 60.1014M59.4814 72.9795C60.0657 73.0701 60.5298 73.4717 61.097 73.6045C62.7579 69.9842 64.4345 66.3733 66.097 62.7561C66.3064 62.3186 66.2532 61.7092 65.8345 61.4139C65.2782 61.0264 64.5845 60.9795 63.9298 60.8701C62.4579 64.9123 60.9329 68.9342 59.4782 72.9811M14.0985 63.2811C14.2548 63.6936 14.5048 64.0623 14.6985 64.4514C16.3657 67.542 18.0126 70.6451 19.6985 73.7295C20.2282 73.417 20.7657 73.1045 21.3767 72.9904C21.2392 72.5858 21.047 72.2092 20.872 71.8154C19.3267 68.4311 17.772 65.0498 16.2407 61.6592C15.2563 61.6592 14.4939 62.4483 14.1048 63.2826M61.411 63.1811C61.0907 63.5826 60.9142 64.0732 60.6907 64.5295C58.9126 68.392 57.097 72.2389 55.3439 76.1123C55.7173 76.3389 56.1642 76.2576 56.5751 76.2139C57.5329 76.0826 58.4407 75.7326 59.3517 75.4248C59.3704 75.3639 59.4064 75.2404 59.4251 75.1779C58.8892 74.8889 58.2735 74.5701 58.0626 73.9561C57.9329 73.4608 58.2517 73.0092 58.4235 72.5654C59.1345 70.8092 59.7907 69.0326 60.4876 67.2701C60.9017 66.4342 61.1329 65.5264 61.4485 64.6529C61.6189 64.1014 61.8595 63.567 61.947 62.9936C61.761 63.0311 61.5235 62.9936 61.411 63.1811ZM18.1673 63.0873C18.3235 63.5589 18.5066 64.0211 18.7157 64.4717C20.0032 67.4951 21.411 70.467 22.7001 73.4904C22.9095 73.8701 22.7001 74.2983 22.5001 74.6342C22.2095 75.0904 21.6939 75.3139 21.2017 75.4764C21.2904 75.6106 21.4164 75.716 21.5642 75.7795C22.3643 76.1147 23.1946 76.3727 24.0439 76.5498C24.2806 76.5879 24.5229 76.5741 24.7538 76.5093C24.9847 76.4446 25.1989 76.3304 25.3814 76.1748C23.4298 72.2139 21.4954 68.2436 19.5454 64.2811C19.2767 63.7139 18.8017 63.2154 18.1673 63.0873ZM20.2142 74.4936C20.2142 74.6717 20.2267 74.8483 20.2329 75.0279C20.7017 74.9764 21.1954 74.9061 21.5813 74.617C21.8735 74.3795 21.8501 73.9654 21.8673 73.6264C21.5486 73.653 21.2384 73.7423 20.9544 73.8893C20.6705 74.0362 20.4183 74.2379 20.2126 74.4826M59.0407 73.6826C59.0407 73.8389 59.0407 73.9951 59.0407 74.1514C59.2379 74.3502 59.4771 74.5024 59.7407 74.5967C60.0784 74.6644 60.4289 74.624 60.7423 74.4811C60.6251 74.1873 60.4798 73.8717 60.186 73.7186C59.8282 73.542 59.4142 73.6279 59.0407 73.6842M34.4314 16.742C34.5282 16.5264 34.7892 16.5858 34.972 16.6342C35.0036 17.0846 35.1967 17.5085 35.5157 17.8279C35.9075 18.1931 36.421 18.3998 36.9565 18.4079C37.4921 18.416 38.0115 18.2249 38.4142 17.8717C38.6235 17.6904 38.7704 17.4217 39.0579 17.3561C39.4751 17.8654 40.0079 18.4014 40.7142 18.4045C41.2532 18.4467 41.7548 18.1764 42.1407 17.8217C42.5579 17.4639 42.872 17.0092 43.2126 16.5826H43.5501C43.7579 17.5842 43.6517 18.8014 42.8204 19.5029C42.0626 20.1014 40.9907 19.9717 40.1454 19.6404C39.7579 19.4998 39.5329 19.0045 39.086 19.0436C38.7329 19.2607 38.522 19.6545 38.1485 19.8451C37.7993 20.0107 37.4146 20.0874 37.0286 20.0683C36.6425 20.0492 36.2672 19.935 35.936 19.7357C35.2798 19.3826 34.6314 18.8639 34.4235 18.1154C34.304 17.6638 34.304 17.1889 34.4235 16.7373M38.7673 20.1014C38.9095 20.0139 39.0798 19.8326 39.236 19.9967C39.861 20.4404 40.486 20.9061 41.111 21.3608C41.3173 21.4826 41.3532 21.7342 41.3532 21.9529C41.3454 29.2404 41.3235 36.5264 41.3532 43.8123C43.6173 41.7623 45.622 39.3654 46.9157 36.5811C48.3064 33.6123 48.8235 30.1561 47.9454 26.967C47.7064 25.9701 47.1454 25.092 46.7142 24.1795C46.0189 22.7654 45.2845 21.367 44.6173 19.9436C47.0204 21.9904 48.9782 24.6186 50.0142 27.617C51.1205 30.7733 51.1376 34.2092 50.0626 37.3764C49.0907 40.2498 47.2626 42.7936 44.9845 44.7779C44.2888 45.3753 43.5584 45.931 42.797 46.442C43.1548 46.892 43.7579 46.9811 44.2876 47.0873C45.384 47.2457 46.4894 47.3339 47.597 47.3514C48.3423 47.3842 49.0939 47.3217 49.836 47.4264C48.3251 48.2248 46.6001 48.5123 44.9079 48.5561C43.6314 48.6467 42.3548 48.4998 41.0798 48.4608C40.7126 49.0951 40.3345 49.7217 39.972 50.3576C39.952 50.4043 39.9203 50.4449 39.8799 50.4756C39.8395 50.5062 39.7917 50.5258 39.7415 50.5325C39.6912 50.5391 39.64 50.5325 39.593 50.5133C39.5461 50.4942 39.5049 50.4631 39.4735 50.4233C39.0048 49.7701 38.6407 49.0514 38.1626 48.4107C37.7251 48.3811 37.2907 48.4967 36.8532 48.5108C35.2204 48.6748 33.5548 48.6404 31.9579 48.2451C31.1938 48.0606 30.4468 47.8112 29.7251 47.4998C31.4532 47.6295 33.211 47.6358 34.9157 47.2858C35.4126 47.1858 35.9157 47.0295 36.3048 46.6889C35.0386 45.9725 33.8745 45.0891 32.8439 44.0623C32.711 43.9279 32.5907 43.7811 32.472 43.6357C33.8689 43.5561 35.2673 43.6357 36.6642 43.5967C35.2579 43.6061 33.836 43.5608 32.4235 43.6217C30.2651 41.2667 28.7973 38.3625 28.1814 35.2279C27.5814 32.1467 27.9001 28.8639 29.2501 26.0092C30.3048 23.742 31.9892 21.7998 33.9829 20.3045C32.4501 22.8701 31.3064 25.7107 30.9939 28.6967C30.6513 32.0643 31.361 35.4553 33.0251 38.4029C34.1985 40.5123 35.7767 42.3764 37.5454 44.0092C37.5595 42.542 37.4532 41.0779 37.4423 39.6107C37.3564 38.5061 37.4126 37.3982 37.322 36.2951C37.2954 33.842 37.1501 31.3904 37.1282 28.9357C36.9954 26.4451 36.997 23.9514 36.8689 21.4623C37.4767 20.9795 38.1345 20.567 38.7564 20.1061M46.011 20.1451C49.0544 20.6744 51.8193 22.2447 53.8329 24.5873C55.602 26.6739 56.6749 29.2611 56.9017 31.9873C57.0699 34.0454 56.7895 36.1154 56.0798 38.0545C55.8512 38.7644 55.5252 39.439 55.111 40.0592C54.3318 41.2746 53.4021 42.3865 52.3439 43.3686C51.6142 44.0455 50.7773 44.5968 49.8673 44.9998L49.8423 44.7045C51.9038 42.1409 53.1614 39.025 53.457 35.7486C53.7525 32.4722 53.0728 29.1816 51.5032 26.2904C50.1751 23.8458 48.2991 21.7419 46.022 20.1436M30.8798 20.6467C31.3407 20.4904 31.8173 20.2498 32.3126 20.3686C32.1991 20.5237 32.068 20.6653 31.922 20.7904C29.8657 22.5639 28.0876 24.6967 26.9142 27.1607C26.0514 28.9545 25.5427 30.8978 25.4157 32.8842C25.1704 36.6217 26.3407 40.3201 28.1501 43.5545C28.447 44.1404 28.9689 44.5795 29.2267 45.1889C27.9931 44.6876 26.8797 43.9309 25.9595 42.9686C24.7941 41.7797 23.837 40.4031 23.1282 38.8967C22.799 38.2682 22.5371 37.6068 22.347 36.9232C21.9483 35.2492 21.8222 33.5218 21.9735 31.8076C22.1882 29.3954 23.0821 27.0935 24.5517 25.1686C26.1579 23.0826 28.4189 21.5561 30.8767 20.6482M39.136 63.2326C40.2845 62.4279 41.2938 61.4498 42.3001 60.4811L42.7157 60.5045C42.6564 60.867 42.6501 61.3311 42.2892 61.5373C41.6517 61.9279 41.1329 62.4748 40.5829 62.9717C39.5767 63.9248 38.5251 64.8467 37.3267 65.5545C35.9533 66.3899 34.3992 66.8829 32.7954 66.992C31.6876 67.0264 30.5798 66.992 29.4704 66.992C29.3142 67.3998 29.1579 67.8701 28.7501 68.0951C28.3767 68.3233 27.922 68.2514 27.5001 68.2764C27.2564 68.2764 27.0657 68.4467 26.8751 68.5686L26.6782 68.3858C26.8345 67.8326 27.0595 67.2217 27.5954 66.9295C27.9689 66.692 28.4282 66.8295 28.8345 66.7295C29.3032 66.5233 29.572 66.067 29.7939 65.6358C31.4892 65.6701 33.2314 65.792 34.8751 65.2826C36.3901 64.8263 37.8246 64.1363 39.1267 63.2373M50.3985 64.1045C51.3723 63.3888 52.529 62.9641 53.7345 62.8795C52.7564 63.6264 51.5032 63.8701 50.5142 64.5889C49.7329 65.1764 49.4517 66.1717 49.3251 67.0983C49.5923 67.1186 49.8595 67.1279 50.1267 67.1373C50.1198 67.3234 50.072 67.5058 49.9867 67.6713C49.9013 67.8369 49.7805 67.9816 49.6329 68.0951C49.3673 68.3217 49.0079 68.3498 48.6782 68.3686C48.4892 68.2123 48.2189 68.042 48.2595 67.7436C48.2939 67.2873 48.6017 66.9154 48.7282 66.4811C48.0513 66.7269 47.3413 66.8697 46.622 66.9045C45.2657 66.9686 43.8782 66.8967 42.5751 66.4826C41.9501 66.2733 41.261 65.9498 40.986 65.3061C40.7595 64.767 41.097 64.2217 41.3767 63.7748H41.8189C41.8939 64.4608 42.4564 64.9498 43.0595 65.2029C44.5095 65.8279 46.1189 65.9233 47.6782 65.8779C48.1142 65.8404 48.6157 65.8592 48.9595 65.5342C49.4548 65.0654 49.8517 64.5061 50.4048 64.1029M45.2485 63.6092C45.4407 63.3654 45.7751 63.5123 46.0298 63.5467C45.9126 63.8279 45.772 64.0998 45.6345 64.3717C45.3178 64.4193 44.9984 64.4475 44.6782 64.4561C44.7642 64.1139 45.036 63.8701 45.2517 63.6092M50.7767 65.0608C51.0892 64.8014 51.4407 64.4358 51.8923 64.5279C52.0954 64.6733 52.1189 64.942 52.1923 65.1623C51.9126 65.3498 51.6329 65.6217 51.2704 65.5904C51.0734 65.4472 50.9058 65.2673 50.7767 65.0608ZM52.4814 66.4561C52.8939 65.9014 53.3579 65.342 54.0157 65.0717C53.7032 65.8389 53.1048 66.4592 52.8142 67.242C52.6806 67.591 52.6143 67.9621 52.6189 68.3358C52.8798 68.3358 53.1407 68.3358 53.4001 68.3358C53.147 68.8967 52.7329 69.417 52.1501 69.6529C51.9298 69.7389 51.7095 69.5654 51.5954 69.3904C51.4032 69.1061 51.4235 68.7404 51.4985 68.4217C51.6919 67.7084 52.0243 67.0404 52.4767 66.4561M29.7626 69.0873C29.8879 68.8492 30.0411 68.6268 30.2188 68.4248C30.3925 68.3969 30.5704 68.4295 30.7228 68.5171C30.8753 68.6047 30.993 68.742 31.0564 68.9061C30.9622 69.1861 30.8364 69.4545 30.6814 69.7061C30.3617 69.721 30.0417 69.683 29.7345 69.5936C29.7204 69.6842 29.7079 69.7764 29.6954 69.8701C29.997 69.9608 30.3048 70.0264 30.6126 70.0951C30.6138 70.4381 30.5475 70.7779 30.4173 71.0951C30.4137 71.1174 30.4053 71.1387 30.3927 71.1574C30.38 71.1762 30.3635 71.192 30.3442 71.2037C30.3249 71.2154 30.3033 71.2228 30.2808 71.2254C30.2584 71.228 30.2356 71.2256 30.2142 71.2186C29.9993 71.1756 29.7898 71.1096 29.5892 71.0217C29.6329 70.8061 29.6813 70.592 29.7329 70.3795C29.3564 70.3188 28.9869 70.2209 28.6298 70.0873C28.6912 69.6969 28.8351 69.3241 29.0517 68.9936C29.2876 69.0217 29.5204 69.0545 29.761 69.0904M51.0376 70.2623C51.1939 70.2764 51.361 70.2904 51.5235 70.3076C51.6146 70.5743 51.6672 70.8526 51.6798 71.1342C51.3893 71.2718 51.0909 71.3918 50.786 71.4936C50.5615 71.3074 50.3874 71.0678 50.2798 70.7967C50.5522 70.647 50.8074 70.4678 51.0407 70.2623H51.0376Z" fill="#4F4F4F"/>
</svg>
