<svg width="80" height="80" viewBox="0 0 80 80" fill="none" xmlns="http://www.w3.org/2000/svg">
<g clip-path="url(#clip0_10416_69211)">
<path d="M53.2625 0.143719C56.075 -0.610969 59.0891 1.70622 59.3891 4.53591C59.4922 5.43122 59.2687 6.33278 58.9203 7.15309C57.7766 9.65309 54.3891 10.7625 51.9812 9.44684C50.9375 8.83903 50.0266 7.90153 49.6594 6.71872C49.0578 4.88278 49.5484 2.70778 50.9484 1.36091C51.5734 0.735906 52.4234 0.395281 53.2625 0.140594M41.9109 3.35153C44.8594 2.79216 47.8781 5.46247 47.7563 8.44528C47.6703 9.47809 47.3734 10.5375 46.7156 11.3593C45.1641 13.3187 42.0734 13.9062 39.9703 12.5C39.0125 11.8375 38.2125 10.8859 37.9281 9.73591C37.425 7.84997 38.0484 5.67341 39.5516 4.42341C40.2187 3.85153 41.0641 3.54684 41.9109 3.35622M31.0172 8.51559C33.7047 7.90934 36.6625 9.94528 37.0328 12.6797C37.1375 13.764 37.0141 14.9203 36.4422 15.8703C35.9051 16.7484 35.125 17.4519 34.1962 17.8957C33.2675 18.3394 32.2299 18.5043 31.2094 18.3703C30.125 18.214 29.1781 17.589 28.3969 16.8515C26.5094 14.9093 26.7375 11.4422 28.7266 9.65309C29.3656 9.07184 30.1891 8.73591 31.0141 8.51559M49.5812 12.6343C53.9295 11.3363 58.3862 10.4336 62.8969 9.93747C62.9073 12.8 62.9391 15.6646 62.9922 18.5312C56.5187 19.2125 50.0063 20.3734 44.0063 22.989C43.9734 23.1453 43.9391 23.3015 43.9078 23.4578C45.8156 24.189 47.9172 23.9718 49.8656 24.5375C50.9187 24.8875 51.9922 25.2156 52.9406 25.8093C54.8266 26.939 56.3578 28.7422 56.9484 30.8797C57.1922 31.714 57.2203 32.5859 57.2531 33.4484C57.2906 35.2031 56.7719 36.9359 55.9094 38.4484C54.9016 40.2265 53.4781 41.7297 51.9 43.0234C50.3984 44.2547 48.7078 45.225 47.0203 46.1734C39.4719 50.3218 31.0109 52.6187 22.4797 53.5578C22.4953 50.6578 22.3953 47.7562 22.4297 44.8562C27.0953 44.4843 31.7625 43.7984 36.2422 42.4062C39.7859 41.3125 43.2047 39.7422 46.2422 37.6078C47.6328 36.6172 48.8812 35.3515 49.5734 33.7687C48.8844 32.8468 47.8203 32.275 46.7078 32.039C45.3781 31.7406 44.0094 31.7578 42.6562 31.6953C42.6672 29.2937 42.8703 26.8875 42.6656 24.4906C42.6414 24.2298 42.5727 23.9751 42.4625 23.7375C40.6328 24.8843 38.7359 25.989 37.2187 27.55C36.7047 28.0656 36.2141 28.6765 36.1125 29.425C36.0649 29.685 36.0996 29.9534 36.2116 30.1928C36.3236 30.4322 36.5074 30.6308 36.7375 30.7609C38.0094 31.4797 39.5 31.6328 40.9328 31.7218C41.5234 31.7437 42.1094 31.8203 42.7016 31.8125C42.6734 34.4187 42.6437 37.0265 42.6312 39.625C40.2875 39.6906 37.9047 39.5828 35.6266 38.9703C33.8875 38.5015 32.2109 37.7203 30.8453 36.5265C29.4797 35.3328 28.6172 33.6484 28.2891 31.8828C27.862 29.593 28.2395 27.226 29.3578 25.1828C30.4714 23.3064 31.9298 21.6576 33.6562 20.3234C35.1254 19.1855 36.6943 18.1824 38.3437 17.3265C41.9375 15.4375 45.6797 13.7937 49.5766 12.6281M60.2656 58.6093C61.2812 57.6234 62.2047 56.5281 63.3906 55.7281C63.5203 58.9843 63.3547 62.2453 63.4359 65.5047C63.4729 65.9753 63.6684 66.4195 63.9906 66.7646C64.3127 67.1097 64.7424 67.3354 65.2094 67.4047C66.5891 67.5875 67.9828 67.4578 69.3672 67.4812C69.3766 68.9312 69.3672 70.3797 69.3672 71.8281C67.8219 71.8 66.2766 71.85 64.7312 71.8109C63.4047 71.7687 62.2172 70.9187 61.5391 69.8093C60.9047 70.6062 60.1328 71.3718 59.1469 71.6843C58.6781 71.8406 58.1609 71.8203 57.6656 71.8187C54.1667 71.8187 50.6687 71.8187 47.1719 71.8187C47.1719 70.3765 47.1516 68.9312 47.1906 67.489C50.9115 67.489 54.6318 67.489 58.3516 67.489C59.0437 67.489 59.7859 67.2734 60.2516 66.7343C60.6203 66.314 60.6344 65.7297 60.7062 65.2047C60.9172 62.9937 60.3781 60.8093 60.2687 58.6109M70.5719 58.314C71.4766 57.4203 72.3625 56.5015 73.3687 55.7187C73.5969 58.9422 73.3453 62.175 73.4469 65.4062C73.4615 65.8916 73.6448 66.3567 73.9654 66.7215C74.2859 67.0862 74.7236 67.3278 75.2031 67.4047C76.7875 67.5937 78.3859 67.4703 79.9766 67.4797C80.025 68.9297 79.9906 70.3797 80 71.8297C78.1047 71.775 76.2047 71.9343 74.3141 71.7515C73.2094 71.5422 72.2578 70.7984 71.6344 69.8765C70.9356 68.8474 70.6052 67.6124 70.6969 66.3718C70.8028 64.1187 70.705 61.8605 70.4047 59.625C70.3797 59.1906 70.2 58.6515 70.5703 58.3125M15.2781 61.925C16.0406 60.9875 16.9109 60.0578 18.0703 59.6265C18.6375 59.8906 18.9859 60.4328 19.2656 60.9687C19.9469 62.2656 20.55 63.6328 20.7797 65.0922C20.968 66.3005 20.8243 67.5373 20.3641 68.6703C20.0492 69.4423 19.4957 70.0933 18.7844 70.5281C18.1125 70.9 17.3391 70.9968 16.5969 71.1609C17.2062 72.4109 17.9406 73.6297 18.9266 74.6281C19.114 74.8433 19.3616 74.9973 19.6375 75.0703C19.7236 75.0833 19.8115 75.0635 19.8838 75.0149C19.9561 74.9664 20.0076 74.8924 20.0281 74.8078C20.5203 73.4422 20.4187 71.9281 21.0031 70.589C21.5387 69.4258 22.4516 68.4777 23.5937 67.8984C24.5562 67.439 25.6531 67.4797 26.6922 67.4875C32.925 67.4875 39.1578 67.4968 45.3891 67.4875C45.3984 68.9375 45.3891 70.3875 45.3891 71.8359C38.7625 71.8156 32.1359 71.8265 25.5094 71.8281C24.7281 71.8375 23.925 71.8047 23.1516 71.975C22.5969 72.0984 22.0344 72.4359 21.8312 72.9953C21.5531 73.7625 21.7359 74.6093 22.0281 75.339C22.4031 76.3203 23.1219 77.1718 23.2609 78.239C23.325 78.689 23.2609 79.239 22.8344 79.489C22.0781 79.9093 21.1625 80.1265 20.3078 79.9078C19.3922 79.6843 18.5891 79.1156 17.9641 78.4265C16.1641 76.5015 15.0344 74.0328 14.4344 71.4859C13.3151 71.5074 12.1964 71.4211 11.0937 71.2281C11.1141 73.1578 10.9234 75.2062 9.84375 76.8625C8.92812 78.3078 7.46562 79.5359 5.71719 79.7297C3.74375 79.9265 1.81094 79.2609 0.0484375 78.4375C0.0359375 78.3047 0.0203125 78.1718 0.0078125 78.0406C2.03906 77.5187 4.20625 77.2984 6.05625 76.2281C7.325 75.5656 8.51094 74.5547 8.99687 73.1687C9.25469 72.3093 9.45312 71.3187 8.96875 70.4984C8.42031 69.575 7.3375 69.1906 6.625 68.4312C6.32656 68.0953 6.07656 67.6265 6.21562 67.1687C6.52812 65.9093 7.35469 64.8812 8.06875 63.8297C9.0625 65.0328 10 66.3906 11.4391 67.125C12.1594 67.5265 13.0094 67.4906 13.8062 67.5078C13.775 65.5703 14.0719 63.5047 15.2781 61.925ZM15.7047 67.525C16.7609 67.4875 17.8 67.2703 18.8297 67.0687C18.8406 65.5437 18.0484 64.1265 17.0031 63.0672C16.0062 64.3172 15.6359 65.9531 15.7 67.525M53.8406 60.1187C54.3344 59.9062 54.9344 59.814 55.4266 60.0968C55.7781 60.289 56.1562 60.5656 56.2234 60.9953C56.2625 61.2234 56.0969 61.4031 55.9734 61.5734C55.2734 61.4812 54.5953 61.1047 53.8781 61.2531C53.5141 61.3547 53.0266 61.6203 53.1312 62.075C53.2226 62.3996 53.4165 62.6859 53.6841 62.8912C53.9516 63.0965 54.2784 63.2098 54.6156 63.214C55.4047 63.214 56.1156 62.825 56.8625 62.6265C56.8453 63.0843 56.8031 63.5406 56.7859 63.9984C55.7672 64.2062 54.7187 64.4984 53.9094 65.1859C53.4062 65.5593 53.0422 66.1093 52.4672 66.3828C52.3281 66.4797 52.1672 66.3828 52.0469 66.3062C51.7094 66.0703 51.5391 65.6812 51.3359 65.3359C51.4167 65.1684 51.5096 65.007 51.6141 64.8531C52.0328 64.6093 52.4828 64.4218 52.9156 64.2031C52.5328 63.8172 52.0969 63.4468 51.8969 62.9281C51.839 62.773 51.817 62.6067 51.8327 62.4419C51.8484 62.2771 51.9013 62.1179 51.9875 61.9765C52.4016 61.1953 53.0203 60.4843 53.8406 60.1187ZM30.6562 61.6453C31.9422 61.2968 33.4375 62.3718 33.3625 63.739C33.3906 64.7406 32.5562 65.5937 31.6047 65.7703C30.6297 66.0047 29.5187 65.4187 29.1937 64.4625C29.0733 64.1121 29.0411 63.7375 29.0999 63.3718C29.1588 63.006 29.3069 62.6604 29.5312 62.3656C29.8253 62.0149 30.2203 61.7634 30.6625 61.6453M36.7422 61.6609C37.8141 61.3484 39.0344 62.0234 39.3984 63.0672C39.5157 63.4283 39.5301 63.815 39.4402 64.184C39.3502 64.5529 39.1594 64.8895 38.8891 65.1562C38.6011 65.4363 38.2456 65.6371 37.8571 65.7392C37.4686 65.8413 37.0603 65.8413 36.6719 65.739C36.2292 65.6025 35.8413 65.3289 35.5641 64.9578C34.9625 64.1562 35.0734 62.939 35.7578 62.2218C36.0321 61.9557 36.3682 61.7619 36.7359 61.6578M42.7172 61.6468C43.8984 61.3343 45.2766 62.1937 45.3984 63.4343C45.6141 64.7 44.4078 65.9078 43.1562 65.8234C42.0781 65.7875 41.0578 64.8359 41.1031 63.7265C41.0578 62.7625 41.7984 61.8781 42.7172 61.6468ZM66.6234 61.6468C66.9763 61.5612 67.3445 61.5605 67.6976 61.645C68.0508 61.7295 68.3788 61.8967 68.6547 62.1328C69.0011 62.4536 69.2383 62.8749 69.3328 63.3375C69.5281 64.35 68.8281 65.4234 67.8484 65.7078C66.7781 66.0718 65.4844 65.439 65.1359 64.3609C64.7359 63.2515 65.4719 61.9093 66.6203 61.6468M76.2266 75.6562C77.4766 75.3093 78.8422 76.3718 78.9141 77.6453C78.9256 78.1234 78.7802 78.5921 78.5 78.9797C77.9828 79.6953 77.0016 79.9718 76.1641 79.7609C75.7264 79.6555 75.3349 79.4105 75.0488 79.0629C74.7627 78.7153 74.5975 78.2841 74.5781 77.8343C74.5406 76.8437 75.2406 75.8593 76.2266 75.6468M26.0578 76.1781C26.85 76.1781 27.6469 76.0906 28.4328 76.2234C28.6226 76.2583 28.7927 76.3623 28.9104 76.5152C29.0281 76.6681 29.0851 76.8591 29.0703 77.0515C29.0495 77.377 28.906 77.6825 28.6687 77.9062C28.9465 78.1337 29.1275 78.4582 29.175 78.814C29.2359 79.2234 28.9672 79.689 28.5406 79.7515C27.7187 79.8828 26.8859 79.7984 26.0578 79.8062C26.0719 78.5937 26.0719 77.3843 26.0578 76.1718M30.1937 79.8437C30.6625 78.6187 31.1312 77.3906 31.575 76.1578C31.9078 76.1843 32.2625 76.1406 32.5766 76.2687C33.1 77.4281 33.4453 78.6609 33.9078 79.8453C33.5266 79.8453 33.1469 79.8453 32.7656 79.8453C32.5266 79.1515 32.2969 78.45 32.0891 77.7468C31.812 78.4427 31.5422 79.1406 31.2797 79.8406L30.1937 79.8484M35.4766 76.1797C35.7891 76.1797 36.1016 76.1755 36.4141 76.1672C36.8359 76.725 37.2391 77.2953 37.6516 77.8609C37.6516 77.2968 37.6516 76.7343 37.6406 76.1718C37.9844 76.1718 38.3266 76.1906 38.6719 76.2093C38.6719 77.4187 38.6719 78.6281 38.6719 79.8375L37.6641 79.8531C37.2625 79.3125 36.8625 78.7703 36.4562 78.2343C36.4562 78.7687 36.4562 79.3047 36.4672 79.8406C36.1328 79.8406 35.7995 79.8437 35.4672 79.85C35.4672 78.6265 35.4672 77.4031 35.4672 76.1797M40.4828 76.1797L41.5109 76.1906C41.5109 76.6734 41.4984 77.1547 41.4953 77.6359C41.8812 77.1875 42.2187 76.6906 42.6703 76.3031C43.0453 76.1031 43.4969 76.2 43.9062 76.164C43.4875 76.7031 43.0781 77.2484 42.6484 77.7781C43.1062 78.489 43.6016 79.1765 44.0734 79.8781C43.6415 79.8823 43.2097 79.8567 42.7812 79.8015C42.2815 79.2248 41.8402 78.5999 41.4641 77.9359C41.4531 78.5718 41.4844 79.2093 41.4984 79.8453L40.4828 79.8656V76.1672M47.7281 76.3672C48.3906 76.1312 49.1656 76.0547 49.8187 76.3672C49.9912 76.4556 50.1423 76.5805 50.2615 76.7332C50.3808 76.8859 50.4654 77.0628 50.5094 77.2515C49.9172 77.3359 49.4 76.9906 48.8297 76.925C48.5578 76.8875 48.3266 77.0468 48.1234 77.2015C48.7578 77.514 49.5031 77.5547 50.0891 77.9672C50.4578 78.2218 50.6594 78.8015 50.3547 79.1781C49.5469 80.2859 47.4641 80.0781 47.0375 78.7187C47.3897 78.7075 47.7422 78.7221 48.0922 78.7625C48.1846 78.8689 48.2976 78.9555 48.4243 79.0173C48.551 79.079 48.6889 79.1146 48.8297 79.1218C49.1344 79.1453 49.3812 78.9484 49.5906 78.7578C48.9375 78.3828 48.1844 78.2484 47.5172 77.9031C46.9609 77.5375 47.1328 76.6 47.7281 76.3703M52.0844 76.175C52.4312 76.175 52.7781 76.175 53.1266 76.175C53.1266 77.3937 53.1187 78.6125 53.1266 79.8312H52.0937C52.0937 78.6114 52.0937 77.3911 52.0937 76.1703M54.2969 76.1703H55.2953C55.2953 77.3922 55.2953 78.614 55.3047 79.8359H54.2875C54.2875 79.3265 54.2969 78.8172 54.3031 78.3093C54.0125 78.3218 53.7219 78.3359 53.4328 78.3515V77.6906C53.725 77.6812 54.0172 77.6734 54.3109 77.6687C54.3109 77.1687 54.2953 76.6703 54.2969 76.1703ZM58.1547 76.2031C58.5094 76.1953 58.8641 76.189 59.2219 76.1906C59.625 77.4172 60.0844 78.625 60.5391 79.8328C60.15 79.8328 59.7578 79.8328 59.3703 79.8422C59.1297 79.1562 58.9469 78.45 58.6656 77.7781C58.4094 78.4515 58.1687 79.1312 57.9344 79.8093L56.8141 79.8453C57.275 78.6359 57.7344 77.425 58.1547 76.2M61.5094 76.1609H62.5047C62.5125 77.3812 62.5047 78.6015 62.5156 79.8218H61.5078C61.5078 78.5984 61.5078 77.3781 61.5078 76.1562M63.6797 76.1656H64.7078C64.7187 77.3843 64.6812 78.6047 64.7297 79.8234L63.6797 79.8359C63.6797 79.3484 63.6719 78.8625 63.6797 78.3765C63.4234 78.3453 63.1266 78.3765 62.9187 78.1953C62.7812 78.064 62.8172 77.8625 62.8016 77.6937C63.0953 77.6843 63.3906 77.6812 63.6859 77.6781C63.6859 77.175 63.6859 76.6718 63.6859 76.1703M66.0656 76.1922C66.9703 76.2531 67.9141 75.9765 68.7844 76.3218C68.9519 76.3767 69.0946 76.4889 69.1875 76.6386C69.2804 76.7884 69.3175 76.9662 69.2922 77.1406C69.2375 77.5125 68.9562 77.7906 68.6766 78.0156C69.1984 78.4718 69.2797 79.1922 69.3609 79.8375L68.25 79.8218C68.2344 79.214 68.0594 78.4484 67.3781 78.2781C67.3625 78.1343 67.35 77.9922 67.3391 77.8515C67.6406 77.7328 68.0234 77.6656 68.1922 77.3578C68.1966 77.2138 68.158 77.0718 68.0812 76.95C67.7344 76.9312 67.3891 76.9078 67.0422 76.8937C67.0422 77.8718 67.0422 78.8515 67.0531 79.8297L66.0609 79.8203C66.0719 78.6109 66.0687 77.4015 66.0609 76.1922H66.0656Z" fill="#DF343A"/>
</g>
<defs>
<clipPath id="clip0_10416_69211">
<rect width="80" height="80" fill="white"/>
</clipPath>
</defs>
</svg>
