<svg width="80" height="80" viewBox="0 0 80 80" fill="none" xmlns="http://www.w3.org/2000/svg">
<path d="M1.36986 22.3922C1.3683 22.1328 1.6433 21.9906 1.87455 22.0031C10.8016 22.0031 19.7282 22.0031 28.6542 22.0031C29.0074 21.9859 29.3589 22.0453 29.712 22.0547C45.9621 22.0547 62.2068 22.0547 78.4464 22.0547C78.4089 22.3062 78.3558 22.5531 78.3214 22.8031C77.0433 22.8578 75.7621 22.8031 74.4855 22.8265C64.4855 22.8265 54.4949 22.8406 44.5011 22.8172C44.3859 22.794 44.2686 22.783 44.1511 22.7844H1.8808C1.64799 22.8047 1.36517 22.6609 1.36986 22.3984M32.7511 24.0875C34.7074 24.0078 36.6746 23.9687 38.6261 24.1578C39.3595 24.2192 40.0829 24.3682 40.7808 24.6015C53.2808 24.6172 65.7808 24.6172 78.2808 24.6015C78.2808 24.8422 78.2808 25.0828 78.2808 25.3234C65.9725 25.3234 53.6652 25.3234 41.3589 25.3234C40.6496 25.2703 39.9792 25.5562 39.2746 25.6015C38.9214 25.6375 38.5652 25.6422 38.2152 25.7C37.9027 25.7172 37.5746 25.7 37.2558 25.7375C36.5949 25.7984 35.9308 25.7109 35.2714 25.7875C34.9689 25.8201 34.6636 25.8159 34.3621 25.775C33.7542 25.7109 33.1386 25.8156 32.5339 25.7203C31.2621 25.6703 29.9761 25.5953 28.7355 25.2828C23.8589 25.2656 18.9808 25.2828 14.1027 25.2734C13.8792 25.2734 13.6589 25.225 13.4339 25.2265C9.55059 25.2265 5.66778 25.2265 1.78549 25.2265C1.58236 25.2437 1.31674 25.1312 1.34174 24.8922C1.3183 24.65 1.57767 24.5297 1.78392 24.55C5.76101 24.55 9.73913 24.55 13.7183 24.55C14.7761 24.5703 15.8386 24.5031 16.8933 24.5969C20.8449 24.5969 24.798 24.6078 28.7496 24.5969C29.8054 24.3651 30.8781 24.2177 31.9574 24.1562C32.2167 24.1031 32.4871 24.1437 32.7386 24.0828M26.473 26.664C28.1605 26.5484 29.8495 26.4656 31.5417 26.4859C33.2074 26.4953 34.8761 26.4406 36.5417 26.575C36.8136 26.5906 37.087 26.575 37.3589 26.5922C37.773 26.65 38.1933 26.6547 38.6089 26.689C38.8636 26.7328 39.1214 26.764 39.3792 26.7844C39.8855 26.8531 40.3761 26.9969 40.8699 27.1109C53.3428 27.1109 65.8157 27.1109 78.2886 27.1109C78.2886 27.3515 78.2886 27.5922 78.2886 27.8328C65.8167 27.8328 53.3449 27.8328 40.873 27.8328C39.7804 28.0056 38.6773 28.1037 37.5714 28.1265C37.1699 28.2078 36.7574 28.1469 36.3511 28.1656C35.3621 28.2656 34.3667 28.1828 33.3824 28.2234C32.8043 28.2664 32.2243 28.2789 31.6449 28.2609C30.6277 28.1453 29.5995 28.2828 28.5824 28.1734C27.5027 28.1562 26.4245 28.1031 25.348 28.0078C24.7491 27.9509 24.1538 27.8601 23.5652 27.7359C17.5298 27.7297 11.4938 27.7297 5.45736 27.7359C5.10524 27.7492 4.75261 27.7351 4.40267 27.6937C3.39017 27.6781 2.37142 27.6937 1.36205 27.6937V27.0156C2.08705 26.9781 2.8058 27.089 3.52924 27.0625C10.1417 27.0625 16.7563 27.0625 23.373 27.0625C23.6667 27.0734 23.9386 26.9484 24.2261 26.9062C24.9758 26.7836 25.7316 26.7022 26.4902 26.6625M1.02142 29.7875C1.02142 29.2828 1.55111 28.9765 2.00267 28.9797H5.92299C6.45794 28.9783 6.99258 29.006 7.52455 29.0625C7.93705 29.0844 8.34486 29.1453 8.7558 29.1859C8.94955 29.2203 9.1433 29.2547 9.33705 29.2812C10.1433 29.5031 10.9808 29.3562 11.8011 29.4609C14.3355 29.4609 16.8704 29.4609 19.4058 29.4609C19.9355 29.439 20.4652 29.5765 20.9917 29.4859C22.2667 29.1828 23.5808 29.1265 24.8824 29.05C25.2886 28.9922 25.7042 29.0781 26.1074 28.989C26.8277 29.0031 27.5433 28.9125 28.2636 28.9328C30.3636 28.9328 32.4652 28.9047 34.5621 28.9906C34.8964 29.0656 35.2402 29.0125 35.5792 29.0297C36.6089 29.1094 37.6449 29.1469 38.6621 29.3422C38.8823 29.4041 39.1077 29.4459 39.3355 29.4672H78.2855V30.2375H40.1074C39.673 30.2515 39.2277 30.1828 38.8074 30.3203C38.3292 30.425 37.8371 30.4531 37.3527 30.5109C36.6042 30.5703 35.8542 30.6265 35.1042 30.6312C34.573 30.7203 34.0308 30.6125 33.5027 30.7078C31.3277 30.7234 29.1522 30.7234 26.9761 30.7078C25.6949 30.6203 24.4058 30.6234 23.1246 30.5125C22.8042 30.4656 22.4792 30.45 22.1589 30.4172C21.723 30.3609 21.298 30.2375 20.862 30.189C17.2923 30.189 13.7209 30.189 10.148 30.189C9.67924 30.2515 9.22299 30.3453 8.7558 30.414C8.49955 30.4375 8.24174 30.4656 7.98705 30.5109C7.46205 30.5406 6.94017 30.5844 6.41517 30.6172C4.90892 30.6172 3.40267 30.6172 1.89642 30.6172C1.46049 30.6172 0.958923 30.2656 1.00267 29.789M27.4996 31.4406C28.0753 31.3927 28.6533 31.3776 29.2308 31.3953C29.7056 31.3799 30.1808 31.3919 30.6542 31.4312C31.5246 31.4781 32.398 31.3937 33.2652 31.4875C33.9949 31.4875 34.7246 31.5172 35.4527 31.5765C35.9949 31.5765 36.5308 31.664 37.0699 31.6969C37.5074 31.7422 37.9324 31.8531 38.3636 31.9234C50.4042 31.9297 62.4438 31.9297 74.4824 31.9234C74.9307 31.9088 75.3795 31.9224 75.8261 31.964C76.6464 31.9828 77.4683 31.964 78.2902 31.9719C78.2902 32.2125 78.2902 32.4531 78.2902 32.6937C65.0162 32.6937 51.7433 32.6937 38.4714 32.6937C37.4123 32.896 36.3384 33.012 35.2605 33.0406C34.9199 33.1172 34.5699 33.0562 34.2261 33.0859C33.5558 33.175 32.8792 33.0859 32.2105 33.1734C30.1574 33.1734 28.1042 33.1734 26.0527 33.1734C23.9902 33.0687 21.9199 33.0734 19.8683 32.8015C19.5199 32.7625 19.1855 32.6265 18.8324 32.6453H15.1667C14.4292 32.6 13.7183 32.8312 12.9949 32.9219C12.737 32.9418 12.4804 32.9752 12.2261 33.0219C11.712 33.0531 11.1933 33.0578 10.6824 33.1172C8.09017 33.1344 5.49642 33.1297 2.90424 33.1172C2.66674 33.075 2.40892 33.0797 2.20892 32.925C2.1193 32.867 2.04319 32.7905 1.98577 32.7006C1.92835 32.6106 1.89096 32.5093 1.87614 32.4037C1.86132 32.298 1.86941 32.1903 1.89987 32.0881C1.93033 31.9858 1.98245 31.8913 2.05267 31.8109C2.31205 31.4984 2.74955 31.4547 3.12767 31.439C5.08861 31.439 7.04799 31.439 9.00892 31.439C9.79017 31.5297 10.5714 31.4531 11.3527 31.4922C11.6136 31.55 11.8824 31.5172 12.1433 31.5625C12.9589 31.6406 13.7636 31.7984 14.5683 31.9515C15.8183 31.9812 17.0855 31.9515 18.3417 31.964C19.1777 32.025 19.9777 31.7281 20.8089 31.689C23.0339 31.5015 25.2636 31.4265 27.4964 31.4312M2.85736 34.0562C3.11674 33.9 3.42455 33.9531 3.71049 33.9469C6.9532 33.9469 10.1954 33.9469 13.437 33.9469C14.0917 33.9937 14.748 34.0078 15.3996 34.1031C15.9207 34.2381 16.4583 34.2991 16.9964 34.2844C17.9464 34.2484 18.9089 34.3687 19.848 34.2C20.6292 34.125 21.4105 34.0922 22.2042 34.0437C22.651 34.0617 23.0985 34.0476 23.5433 34.0015C25.8574 33.989 28.1699 34.0015 30.4824 34.0015C32.0339 34.0781 33.5902 34.0906 35.1402 34.2078C35.6089 34.2594 36.0777 34.3109 36.5355 34.3844C40.6792 34.3937 44.8261 34.3844 48.9714 34.3844C49.1933 34.3844 49.4121 34.4312 49.6339 34.4344H78.2855C78.2855 34.675 78.2855 34.9156 78.2855 35.1562H36.8308C36.3339 35.1844 35.8527 35.3484 35.3527 35.364C35.1214 35.3984 34.8839 35.3922 34.6574 35.4328C34.1433 35.4719 33.6277 35.4703 33.1183 35.5312C32.7183 35.5578 32.3167 35.5312 31.9183 35.5484C31.0261 35.6515 30.1246 35.525 29.2324 35.6344C27.9339 35.6344 26.6355 35.6484 25.3386 35.6344C24.6214 35.5297 23.8886 35.6578 23.1683 35.5547C22.2839 35.5656 21.4058 35.4797 20.523 35.4406C20.0855 35.3797 19.6449 35.3344 19.2089 35.2656C18.2824 35.2531 17.3542 35.2562 16.4277 35.2656C15.8917 35.3422 15.3652 35.489 14.823 35.5406C14.4245 35.5406 14.0261 35.5547 13.6292 35.5953C10.2292 35.5953 6.82611 35.5953 3.42611 35.5953C2.99017 35.6156 2.46674 35.3922 2.37455 34.925C2.29486 34.5625 2.55736 34.2312 2.85736 34.0656M3.69799 37.0344C3.82767 36.5297 4.40111 36.3406 4.86674 36.3578C5.60424 36.3765 6.34486 36.3203 7.0808 36.3969C8.74955 36.4453 10.4245 36.3453 12.0917 36.4578C13.3964 36.4344 14.6996 36.4875 15.998 36.5859C16.4667 36.6062 16.948 36.6547 17.423 36.7125C18.1098 36.7839 18.8033 36.7566 19.4824 36.6312C21.9824 36.3765 24.4996 36.475 27.0089 36.4562C27.7339 36.4797 28.4667 36.4062 29.1964 36.4937C29.748 36.5265 30.3027 36.4656 30.8527 36.5406C31.2292 36.5812 31.6152 36.5078 31.9886 36.5906C32.6902 36.5906 33.387 36.6687 34.087 36.7078C34.498 36.7562 34.9058 36.8156 35.3121 36.8828C45.4949 36.9015 55.6777 36.8734 65.8589 36.8984C65.9713 36.9232 66.086 36.9362 66.2011 36.9375H78.2855C78.2855 37.1781 78.2855 37.4187 78.2855 37.6594C64.0147 37.6594 49.7438 37.6594 35.473 37.6594C34.2839 37.8984 33.0667 37.9515 31.8621 38.0312C31.4964 38.0562 31.1308 38.0312 30.7683 38.0515C29.9371 38.1515 29.098 38.025 28.2683 38.1328C27.0183 38.1437 25.7589 38.1328 24.5058 38.1328C23.8042 38.0375 23.0996 38.1328 22.3949 38.0469C21.3183 38.0383 20.2431 37.9678 19.1745 37.8359C18.2761 37.6281 17.3558 37.8047 16.4589 37.9312C16.1074 37.9797 15.7496 37.9734 15.3996 38.0297C14.4246 38.0297 13.4511 38.1625 12.4792 38.0453C10.6792 38.0328 8.87767 38.0453 7.07611 38.0453C6.2058 37.95 5.32924 38.0281 4.4558 37.9937C4.3128 37.9687 4.17219 37.9316 4.03549 37.8828C3.80892 37.6687 3.56674 37.3672 3.69642 37.0375M6.35267 38.7828C7.01361 38.75 7.676 38.7609 8.33549 38.8156C10.8063 38.8156 13.2761 38.8156 15.7449 38.8156C16.3558 38.7953 16.962 38.8953 17.5746 38.8656C19.0824 39.0312 20.5902 38.7656 22.1058 38.8156C23.2995 38.8515 24.4902 38.7156 25.6855 38.7797C26.3105 38.8515 26.9542 38.8 27.5902 38.8156C28.2777 38.864 28.9652 38.8906 29.6527 38.9219C30.7011 39.0156 31.7464 39.1594 32.7902 39.2953C47.9558 39.2953 63.1214 39.2953 78.2871 39.2953C78.2871 39.5359 78.2871 39.7765 78.2871 40.0172H34.2339C33.5792 40.0344 32.9199 39.9672 32.2699 40.0781C31.5292 40.1953 30.7808 40.2562 30.037 40.3406C29.4011 40.3844 28.7667 40.4531 28.1308 40.4609C27.7761 40.5453 27.4058 40.45 27.0511 40.5359C26.4261 40.5594 25.8011 40.5219 25.1761 40.5937C23.4308 40.575 21.6839 40.6437 19.9433 40.5359C19.5105 40.4562 19.0683 40.5156 18.6324 40.4984C17.9402 40.5219 17.2402 40.4484 16.5527 40.5359C15.8041 40.5672 15.0544 40.5547 14.3074 40.4984H7.46986C7.14682 40.4801 6.82275 40.4948 6.50267 40.5422C6.03392 40.5422 5.47455 40.3078 5.42767 39.7797C5.33861 39.2406 5.85267 38.8109 6.3558 38.7781M8.17455 41.7656C8.35111 41.3265 8.85736 41.1781 9.2933 41.2172C10.387 41.2594 11.4808 41.1515 12.5745 41.1719H18.1605C18.6342 41.1578 19.1083 41.1687 19.5808 41.2047C20.1449 41.2469 20.712 41.2047 21.2761 41.2297C22.2042 41.3 23.1402 41.3344 24.0699 41.4265C24.3824 41.4719 24.7105 41.4969 25.0324 41.5203C25.287 41.564 25.5433 41.5922 25.8027 41.6172C26.0621 41.6422 26.3136 41.6875 26.5714 41.7172C27.1005 41.7664 27.6334 41.7575 28.1605 41.6906H60.6136C61.7683 41.6703 62.9277 41.7375 64.0808 41.6422C68.8152 41.6422 73.5501 41.6422 78.2855 41.6422C78.2855 41.8828 78.2855 42.1234 78.2855 42.364C77.9339 42.364 77.5855 42.3562 77.2371 42.375C76.9631 42.4163 76.6855 42.4289 76.4089 42.4125H52.3308C51.3699 42.4281 50.4042 42.3719 49.4449 42.4625H27.4917C27.1418 42.4489 26.7913 42.462 26.4433 42.5015C25.0042 42.7031 23.5542 42.8234 22.1042 42.8984C21.5892 42.8807 21.0736 42.8958 20.5605 42.9437C19.6621 42.9312 18.7589 42.9828 17.8636 42.8953C16.2902 42.8953 14.7152 42.8953 13.1417 42.8953C12.9948 42.8916 12.848 42.9053 12.7042 42.9359C11.4542 42.9547 10.1886 42.9453 8.93236 42.9359C8.36517 42.9359 7.8683 42.2797 8.17455 41.7515M12.5683 44.5219C12.6074 44.0047 13.1339 43.6594 13.623 43.664C17.7636 43.664 21.9042 43.664 26.0449 43.664C26.8917 43.7547 27.7433 43.6875 28.5917 43.7219C28.9261 43.7969 29.2714 43.7453 29.6105 43.7625C30.4245 43.8281 31.2417 43.8515 32.0558 43.9187C32.9136 43.9906 33.7745 44.0859 34.6199 44.1906C43.0938 44.1979 51.5662 44.1979 60.0371 44.1906C60.8386 44.1797 61.6433 44.225 62.4433 44.1422C67.7412 44.1422 73.0402 44.1422 78.3402 44.1422C78.2928 44.3802 78.2734 44.623 78.2824 44.8656C76.823 44.8875 75.3589 44.8156 73.9074 44.9156C66.9126 44.9156 59.9167 44.9156 52.9199 44.9156C52.3558 44.939 51.7839 44.8687 51.2246 44.9547C45.9121 44.9765 40.6074 44.9547 35.2996 44.964C34.8308 44.9375 34.3746 45.0406 33.9105 45.075C33.7449 45.1 33.5777 45.1172 33.4121 45.1453C32.2324 45.2344 31.0527 45.3547 29.8699 45.3594C28.9839 45.4687 28.0824 45.3281 27.1964 45.4375C26.6105 45.4531 26.0245 45.4515 25.4402 45.4375C25.2943 45.4068 25.1454 45.3932 24.9964 45.3969C21.1495 45.4078 17.3011 45.3875 13.4527 45.4078C13.2197 45.4057 12.9969 45.3122 12.8324 45.1473C12.6678 44.9825 12.5746 44.7595 12.573 44.5265M16.1042 46.5187C16.2262 46.3772 16.3805 46.2671 16.554 46.1977C16.7275 46.1284 16.9152 46.1018 17.1011 46.1203C18.2542 46.1203 19.4089 46.1203 20.562 46.1203C21.4917 46.2312 22.437 46.0984 23.3589 46.2015C23.6783 46.225 23.9993 46.2156 24.3167 46.1734C24.8183 46.1265 25.3277 46.2156 25.8246 46.1234C26.1527 46.1234 26.4839 46.1234 26.8105 46.075C27.6511 46.0375 28.4949 46.114 29.3308 46.0234C30.0058 45.9797 30.6745 46.1015 31.348 46.0672C32.0214 46.0328 32.7214 46.114 33.4105 46.125C33.6699 46.1844 33.9402 46.1453 34.2011 46.1969C34.6449 46.2281 35.0871 46.2719 35.5292 46.3203C35.7839 46.3625 36.0417 46.3922 36.2996 46.4156C36.7808 46.489 37.2574 46.5828 37.7433 46.6109C38.0496 46.6482 38.3585 46.6597 38.6667 46.6453H78.2855C78.2855 46.8859 78.2855 47.1265 78.2855 47.3672H38.473C37.5136 47.3219 36.5761 47.5609 35.6246 47.6422C34.7917 47.7375 33.9511 47.7687 33.1246 47.839C32.4042 47.8265 31.6902 47.9172 30.9699 47.8969C29.6558 47.8969 28.3402 47.8969 27.0245 47.8969C26.5308 47.8312 26.0339 47.8594 25.5386 47.8406C25.2977 47.7995 25.0528 47.7864 24.8089 47.8015C23.4917 47.8015 22.1746 47.8015 20.8589 47.8015C19.8011 47.8969 18.7371 47.8312 17.6777 47.85C17.1621 47.8203 16.5745 47.9781 16.1449 47.6031C16.0824 47.5015 16.0183 47.4031 15.9511 47.3062C15.9152 47.0344 15.9058 46.7265 16.1074 46.514M15.4183 49.3125C15.5527 48.8437 16.0652 48.6094 16.5214 48.6203C18.0121 48.6203 19.5027 48.6062 20.9917 48.6297C21.8261 48.6937 22.6652 48.7265 23.4917 48.825C23.9417 48.8906 24.3949 48.9406 24.8417 49.0234C25.6574 49.1578 26.4527 48.8469 27.2667 48.825C27.8105 48.7687 28.3605 48.7906 28.9027 48.7265C30.7121 48.6937 32.523 48.6031 34.3308 48.7265C34.7292 48.7265 35.1292 48.714 35.5277 48.7265C36.1339 48.7875 36.7464 48.7765 37.3558 48.8234C37.6683 48.8734 37.9996 48.8859 38.3214 48.9203C38.9442 49.0235 39.5732 49.0846 40.2042 49.1031C50.4761 49.1031 60.748 49.1031 71.0199 49.1031C71.2558 49.1031 71.4886 49.1031 71.7308 49.114C72.3855 49.2015 73.0527 49.1297 73.7121 49.1531H78.2855C78.2855 49.3937 78.2855 49.6328 78.2855 49.875C68.9615 49.875 59.6386 49.875 50.3167 49.875C49.8964 49.9 49.4808 49.8094 49.0667 49.8234C46.148 49.8234 43.2292 49.8234 40.3167 49.8234C39.9011 49.839 39.4761 49.7781 39.0667 49.8781C38.6405 49.9771 38.2076 50.0444 37.7714 50.0797C37.3886 50.1281 37.0027 50.1562 36.6183 50.175C35.7855 50.2344 34.9496 50.2578 34.1183 50.2672C33.9729 50.2971 33.8246 50.3107 33.6761 50.3078C32.5824 50.3078 31.4886 50.3078 30.4027 50.3078C30.2798 50.3129 30.1567 50.305 30.0355 50.2844C29.1105 50.2844 28.1886 50.2219 27.2667 50.1672C26.9792 50.1219 26.6886 50.1015 26.398 50.0734C25.637 49.8578 24.8355 49.9172 24.0683 50.0734C23.8105 50.0969 23.5542 50.125 23.2995 50.1703C22.7855 50.225 22.2667 50.2031 21.7558 50.2672C19.9199 50.289 18.0808 50.2672 16.2417 50.2672C16.1223 50.2709 16.0035 50.2482 15.8938 50.2008C15.7841 50.1534 15.6862 50.0825 15.607 49.993C15.5278 49.9035 15.4693 49.7977 15.4356 49.6831C15.4019 49.5684 15.3939 49.4478 15.4121 49.3297M16.8574 51.1469C17.5433 51.1125 18.2339 51.1844 18.9167 51.1031C19.5294 51.0734 20.1433 51.0859 20.7542 51.1406C21.7339 51.114 22.7089 51.2531 23.6839 51.3469C24.6589 51.4406 25.637 51.6594 26.6261 51.6219C27.0949 51.6109 27.5792 51.6469 28.0558 51.6031C28.9328 51.4422 29.8208 51.3481 30.7121 51.3219C31.1808 51.2375 31.6574 51.3219 32.1183 51.2453C34.4433 51.2219 36.7699 51.2031 39.0855 51.4406C39.4574 51.4859 39.823 51.5828 40.1949 51.6219C51.5605 51.6219 62.9256 51.6219 74.2902 51.6219C75.6167 51.7219 76.9464 51.65 78.2824 51.6719C78.2824 51.9125 78.2824 52.1531 78.2824 52.3937H40.1074C39.3009 52.5514 38.4843 52.6517 37.6636 52.6937C35.8074 52.8281 33.9402 52.7719 32.0792 52.7687C31.723 52.6812 31.3527 52.7687 30.998 52.6922C30.0112 52.6779 29.0281 52.5691 28.062 52.3672C27.523 52.314 26.9808 52.3672 26.4402 52.3437C25.8152 52.3172 25.1902 52.4547 24.5652 52.5C23.5558 52.6265 22.5433 52.7078 21.5292 52.775H16.8074C16.373 52.775 15.9152 52.4187 15.9402 51.9578C15.9652 51.4969 16.4183 51.1844 16.8558 51.1437M18.2105 53.6625C18.7011 53.425 19.2667 53.5062 19.7949 53.4969C20.198 53.5125 20.6074 53.4562 21.0058 53.5359C21.5203 53.5307 22.0346 53.5615 22.5449 53.6281C23.587 53.6906 24.6183 53.8719 25.6558 53.975C28.4495 53.9828 31.2449 53.975 34.0386 53.975C34.2792 53.991 34.5209 53.9715 34.7558 53.9172C36.5371 53.4594 38.4214 53.5859 40.1933 54.0187C52.8902 54.025 65.5876 54.025 78.2855 54.0187V54.789C69.1855 54.789 60.086 54.789 50.9871 54.789C50.5371 54.8156 50.0902 54.7219 49.6417 54.7375C46.7199 54.7375 43.7985 54.7375 40.8777 54.7375C40.5292 54.7375 40.1699 54.7 39.8371 54.8187C39.3102 54.982 38.7693 55.096 38.2214 55.1594C37.6761 55.1953 37.1277 55.2719 36.5824 55.1859C35.8856 55.1535 35.197 55.0225 34.5371 54.7969C34.3448 54.7392 34.1433 54.7185 33.9433 54.7359C31.2089 54.7469 28.4745 54.7234 25.7386 54.7469C24.5105 54.9234 23.2777 55.0594 22.0433 55.1609C21.0042 55.1859 19.9636 55.1609 18.9183 55.1734C18.5324 55.1828 18.0761 55.1047 17.8605 54.7453C17.6152 54.3672 17.8199 53.8453 18.2042 53.6515M20.898 56.9328C20.8261 56.389 21.3902 55.9609 21.8995 55.9875C22.423 55.9422 22.848 56.3 23.3433 56.3969C23.6922 56.4719 24.0499 56.4971 24.4058 56.4719C38.0141 56.4719 51.6214 56.4719 65.2277 56.4719C66.6714 56.5703 68.1199 56.5 69.5667 56.5219H78.2855C78.2855 56.7625 78.2855 57.0031 78.2855 57.2437H23.737C23.148 57.2344 22.6433 57.6047 22.0495 57.6156C21.5667 57.725 20.9808 57.4594 20.9042 56.9344L20.898 56.9328Z" fill="#7D99CB"/>
</svg>
