<svg width="80" height="80" viewBox="0 0 80 80" fill="none" xmlns="http://www.w3.org/2000/svg">
<path d="M37.5921 11.5266C38.5296 11.0203 39.4312 10.4703 40.3827 10C44.9249 12.4438 49.4921 14.8437 54.0531 17.2594C44.9062 22.0729 35.7577 26.8833 26.6077 31.6906C26.439 31.8125 26.0999 31.8469 26.139 32.1219C26.1296 37.1583 26.1296 42.1948 26.139 47.2312C30.5609 49.6234 34.9624 52.0531 39.3765 54.4594C34.6109 56.9531 29.8426 59.4432 25.0718 61.9297C20.7109 59.8219 16.3906 57.6312 12.0156 55.5453C11.9906 47.9672 12.0156 40.3891 12.0046 32.8109C12.0202 30.4484 11.9718 28.0844 12.0281 25.725C13.6359 24.7766 15.3093 23.9063 16.9327 22.9813C23.8244 19.1677 30.7109 15.3495 37.5921 11.5266Z" fill="#19499E"/>
<path d="M46.1674 23.1952C49.183 21.6233 52.1976 20.0509 55.2111 18.478C58.8221 20.2202 62.3986 22.0218 66.008 23.7733C66.7471 24.1687 67.5361 24.4983 68.2596 24.9077C68.2908 34.8358 68.2596 44.7671 68.2721 54.6968C58.8752 59.8733 49.5158 65.1093 40.1174 70.2968C39.8893 70.4327 39.6658 70.2577 39.4643 70.1608C35.0627 67.8171 30.6377 65.503 26.2471 63.1296C35.5471 58.2338 44.8497 53.3421 54.1549 48.4546C54.1549 43.4093 54.1627 38.3671 54.1549 33.3233C54.1908 33.1296 53.9564 33.0921 53.8424 33.0108C49.5752 30.7046 45.3439 28.3437 41.0783 26.053L40.9611 25.8765C42.7268 25.0437 44.4283 24.0765 46.1721 23.1952" fill="#19499E"/>
<path d="M38.3997 28.4049C38.5574 28.3037 38.7422 28.2531 38.9294 28.2596C40.0551 28.1587 41.1885 28.1823 42.3091 28.3299L42.5185 28.4174C43.856 28.6283 45.1997 29.0674 46.3294 29.8236L46.6419 29.9049C46.695 30.0877 46.881 30.1221 47.0341 30.1924C47.1387 30.3172 47.2708 30.4161 47.42 30.4814C49.6638 32.1451 51.2745 34.5228 51.9872 37.2236C52.5825 39.7236 52.4466 42.4283 51.4357 44.8049C51.3685 44.9941 51.2788 45.1746 51.1685 45.3424C50.445 47.083 49.1372 48.5111 47.7138 49.7174C47.034 50.2155 46.3185 50.6631 45.5732 51.0564C44.5029 51.483 43.431 51.9549 42.2685 52.0346C42.1123 52.1235 41.9371 52.1738 41.7575 52.1814C40.8842 52.2419 40.0079 52.246 39.1341 52.1939C38.9263 52.1752 38.6997 52.1814 38.5279 52.0486C38.0591 51.9705 37.5779 51.9205 37.1013 51.8799C37.1013 51.8424 37.1013 51.7674 37.1013 51.7236C36.8607 51.6846 36.6185 51.6439 36.381 51.5908C36.1982 51.4002 35.9216 51.3939 35.6841 51.3236C35.5289 51.1921 35.3472 51.0957 35.1513 51.0408C33.7575 50.4002 32.556 49.4268 31.4763 48.3502C31.0332 47.8519 30.6264 47.3224 30.2591 46.7658C29.359 45.3523 28.7458 43.7755 28.4544 42.1252C28.3006 40.7748 28.31 39.4108 28.4825 38.0627C28.6169 37.6256 28.7156 37.1783 28.7779 36.7252C29.0232 36.3002 29.0904 35.7986 29.3497 35.3721C29.8812 34.1308 30.6246 32.9914 31.5466 32.0049C32.1607 31.3064 32.9263 30.7705 33.6482 30.1955C34.7419 29.5986 35.806 28.8814 37.0529 28.6721C37.456 28.4252 37.9544 28.4814 38.4044 28.4049H38.3997Z" fill="#FCB913"/>
</svg>
