<svg width="80" height="80" viewBox="0 0 80 80" fill="none" xmlns="http://www.w3.org/2000/svg">
<path d="M35.5078 28.3248C34.8718 28.5654 34.4515 28.481 34.0406 28.481C29.8052 28.5877 25.5782 28.9137 21.3765 29.4576C17.5546 29.9654 13.7937 30.6888 10.1781 32.0498C8.67495 32.6138 7.23745 33.3138 6.06089 34.4498C4.36557 36.0841 4.43901 37.9107 6.27651 39.4185C7.88745 40.7404 9.77339 41.5435 11.7296 42.1763C16.1312 43.5966 20.6937 44.1388 25.2734 44.6029C29.2413 45.0031 33.2305 45.1508 37.2171 45.0451C42.3513 44.939 47.4634 44.3394 52.4828 43.2544C56.9859 42.2591 61.3812 40.9576 65.5781 39.0357C66.3508 38.7049 67.105 38.3325 67.8374 37.9201C68.0377 37.7947 68.2643 37.7177 68.4995 37.6952C68.7346 37.6727 68.9718 37.7053 69.1921 37.7904C72.5911 38.8591 75.9911 39.9237 79.3921 40.9841C79.6203 41.056 79.9781 41.0326 79.9984 41.3232C80.0187 41.6138 79.6499 41.6357 79.4421 41.756C72.3687 45.6388 64.7859 48.0841 56.8859 49.5576C51.5033 50.5433 46.0493 51.0889 40.5781 51.1888C34.9796 51.3107 29.3906 51.1888 23.8843 50.206C17.3218 49.0326 10.9453 47.1763 5.1062 43.8201C3.5437 42.9216 2.07964 41.8904 0.968699 40.4279C-0.415676 38.606 -0.320363 36.8716 1.2812 35.2169C2.74057 33.7076 4.61401 32.8732 6.4937 32.0654C11.3546 29.9716 16.4515 28.8544 21.7078 28.3373C26.1328 27.9013 30.5531 27.9201 34.9796 28.2107C35.1576 28.2394 35.3338 28.2775 35.5078 28.3248Z" fill="#D7B45A"/>
<path d="M18.2578 40.37C19.3391 40.37 20.4219 40.359 21.5031 40.37C27.8078 40.4325 34.0766 40.0653 40.2391 38.6512C44.3594 37.7043 48.3406 36.3715 51.8469 33.9028C51.8922 33.8715 51.9531 33.8512 51.9844 33.8075C53.0406 32.4012 54.2594 32.5996 55.6937 33.2496C57.6031 34.1168 59.6 34.7871 61.7672 35.6215C54.9674 38.678 47.7259 40.6367 40.3125 41.4246C32.9062 42.2309 25.5469 41.9903 18.2578 40.37Z" fill="#7D4E32"/>
<path d="M47.6564 31.2231C39.6002 35.1887 31.4674 37.2371 22.6768 35.3652C23.5752 35.3121 24.4752 35.2731 25.3721 35.209C30.4596 34.8152 35.2314 33.434 39.5455 30.6434C40.2051 30.2176 40.8352 29.7478 41.4314 29.2371C41.7439 28.9684 41.9768 28.8731 42.383 29.0481C44.0518 29.7606 45.7424 30.4371 47.6564 31.2231Z" fill="#7D4E32"/>
</svg>
