<svg width="24" height="24" viewBox="0 0 24 24" fill="none" xmlns="http://www.w3.org/2000/svg">
<path opacity="0.8" d="M19.9335 11.3623C19.7061 11.3623 19.4881 11.272 19.3274 11.1113C19.1666 10.9505 19.0763 10.7325 19.0763 10.5052V8.08459C19.0763 4.65602 15.9083 1.91316 12.0135 1.91316C8.11861 1.91316 4.95061 4.69031 4.95061 8.08459V10.5052C4.95061 10.7325 4.86031 10.9505 4.69956 11.1113C4.53882 11.272 4.3208 11.3623 4.09347 11.3623C3.86614 11.3623 3.64812 11.272 3.48738 11.1113C3.32663 10.9505 3.23633 10.7325 3.23633 10.5052V8.08459C3.23633 3.72345 7.17919 0.171448 12.0135 0.171448C16.8478 0.171448 20.7906 3.72345 20.7906 8.08459V10.5052C20.7915 10.618 20.77 10.7298 20.7272 10.8343C20.6845 10.9387 20.6214 11.0335 20.5416 11.1133C20.4618 11.1931 20.367 11.2562 20.2626 11.2989C20.1582 11.3417 20.0463 11.3632 19.9335 11.3623Z" fill="white"/>
<path d="M17.6158 19.4263C17.3884 19.4263 17.1704 19.336 17.0097 19.1752C16.8489 19.0145 16.7586 18.7964 16.7586 18.5691V10.4297C16.7658 10.2071 16.8592 9.99611 17.0192 9.84125C17.1792 9.68639 17.3931 9.59986 17.6158 9.59998C20.5712 9.59998 22.9781 11.8148 22.9781 14.5303C22.9781 17.2457 20.5712 19.4263 17.6158 19.4263ZM18.4729 11.376V17.6228C19.2234 17.4986 19.9087 17.1214 20.4151 16.5538C20.9216 15.9862 21.2186 15.2625 21.2569 14.5028C21.2201 13.7419 20.9238 13.0166 20.4172 12.4477C19.9106 11.8787 19.2245 11.5005 18.4729 11.376ZM6.38377 19.4263C3.42834 19.4263 1.02148 17.2183 1.02148 14.5028C1.02148 11.7874 3.42834 9.59998 6.38377 9.59998C6.6111 9.59998 6.82912 9.69028 6.98986 9.85103C7.15061 10.0118 7.24091 10.2298 7.24091 10.4571V18.5691C7.24091 18.7964 7.15061 19.0145 6.98986 19.1752C6.82912 19.336 6.6111 19.4263 6.38377 19.4263ZM5.52663 11.376C4.77509 11.5005 4.08889 11.8787 3.58232 12.4477C3.07576 13.0166 2.77941 13.7419 2.74263 14.5028C2.78093 15.2625 3.07797 15.9862 3.5844 16.5538C4.09084 17.1214 4.77619 17.4986 5.52663 17.6228V11.376Z" fill="white"/>
<path d="M17.3347 22.2172H14.4958C14.2685 22.2172 14.0505 22.1269 13.8897 21.9661C13.729 21.8054 13.6387 21.5874 13.6387 21.36C13.6387 21.1327 13.729 20.9147 13.8897 20.7539C14.0505 20.5932 14.2685 20.5029 14.4958 20.5029H17.3347C17.7784 20.5029 18.204 20.3266 18.5178 20.0128C18.8315 19.6991 19.0078 19.2735 19.0078 18.8297V18.4526C19.0078 18.2253 19.0981 18.0073 19.2589 17.8465C19.4196 17.6858 19.6376 17.5955 19.865 17.5955C20.0923 17.5955 20.3103 17.6858 20.471 17.8465C20.6318 18.0073 20.7221 18.2253 20.7221 18.4526V18.8297C20.7221 19.7281 20.3652 20.5898 19.7299 21.225C19.0947 21.8603 18.2331 22.2172 17.3347 22.2172Z" fill="white"/>
<path opacity="0.8" d="M13.0286 23.8286H11.3349C10.7129 23.8286 10.1164 23.5815 9.67662 23.1417C9.23682 22.7019 8.98975 22.1054 8.98975 21.4834V21.3874C8.99156 20.7666 9.23944 20.1719 9.67904 19.7336C10.1186 19.2953 10.7141 19.0491 11.3349 19.0491H13.0286C13.6488 19.0491 14.2435 19.2955 14.682 19.734C15.1205 20.1725 15.3669 20.7673 15.3669 21.3874V21.4834C15.3669 22.1042 15.1208 22.6997 14.6824 23.1393C14.2441 23.5789 13.6494 23.8267 13.0286 23.8286ZM11.3486 20.7634C11.1825 20.7634 11.023 20.8289 10.9049 20.9458C10.7868 21.0626 10.7196 21.2213 10.7177 21.3874V21.4834C10.7177 21.6507 10.7842 21.8112 10.9025 21.9295C11.0208 22.0478 11.1813 22.1143 11.3486 22.1143H13.0286C13.1947 22.1125 13.3534 22.0452 13.4703 21.9271C13.5871 21.809 13.6526 21.6496 13.6526 21.4834V21.3874C13.6526 21.2219 13.5869 21.0632 13.4698 20.9462C13.3528 20.8292 13.1941 20.7634 13.0286 20.7634H11.3486Z" fill="white"/>
</svg>
